<svg width="60" height="128" viewBox="0 0 60 128" fill="none" xmlns="http://www.w3.org/2000/svg">
    <path
        d="M22.7299 127.346C19.3173 128.835 18.1798 127.435 17.8954 126.549L17.8359 81.1058L55.2791 102.997C45.1641 119.201 25.9869 125.926 22.7299 127.346Z"
        fill="#2E82FE" />
    <path
        d="M17.8396 42.2401L17.8396 2.09885C17.8396 -0.665851 19.97 -0.116455 21.0352 0.503829C31.5095 6.52945 53.0973 18.9529 55.6537 20.4416C58.2102 21.9302 56.7189 23.3658 55.6537 23.8974C45.6232 30.0117 24.8166 42.5591 21.834 43.8352C18.8515 45.1112 17.9284 43.3035 17.8396 42.2401Z"
        fill="#2E82FE" />
    <path
        d="M59.4333 85.4754C59.4333 91.4198 57.2258 100.699 55.273 103.003L1.6466 71.6517C-1.33594 70.3756 0.403876 68.8161 1.6466 68.1958C18.6009 58.1826 53.1487 37.8373 55.7052 36.5613C58.2616 35.2852 59.2558 37.4474 59.4333 38.688V85.4754Z"
        fill="#FFBB22" />
    <path
        d="M17.8359 42.2402L17.8359 2.09867C17.8359 -0.666037 19.9663 -0.116639 21.0315 0.503649C31.5059 6.5293 53.0938 18.9528 55.6502 20.4415C58.2067 21.9302 56.7154 23.3657 55.6502 23.8974C45.6197 30.0116 24.8129 42.5592 21.8304 43.8352C18.8479 45.1112 17.9247 43.3035 17.8359 42.2402Z"
        fill="#FF77FF" />
</svg>