<svg width="240" height="516" viewBox="0 0 240 516" fill="none" xmlns="http://www.w3.org/2000/svg">
<path d="M91.8361 513.367C78.0793 519.368 73.4937 513.724 72.3473 510.152L72.1074 326.959L223.05 415.21C182.274 480.53 104.966 507.639 91.8361 513.367Z" fill="#2A989A"/>
<path d="M239.797 344.574C239.797 368.538 230.898 405.943 223.025 415.231L6.84381 288.847C-5.17957 283.703 1.83407 277.416 6.84381 274.916C75.191 234.55 214.462 152.533 224.768 147.389C235.073 142.245 239.081 150.961 239.797 155.962V344.574Z" fill="#FFBB22"/>
<path d="M72.1074 170.282L72.1074 8.46103C72.1074 -2.68423 80.6955 -0.469464 84.9896 2.03107C127.215 26.322 214.241 76.4042 224.547 82.4055C234.852 88.4068 228.841 94.1937 224.547 96.3371C184.111 120.985 100.234 171.568 88.2101 176.712C76.1868 181.855 72.4653 174.568 72.1074 170.282Z" fill="#FA5596"/>
</svg>
