<svg width="593" height="384" viewBox="0 0 593 384" fill="none" xmlns="http://www.w3.org/2000/svg">
<path d="M531.032 259.399C531.032 268.229 530.532 277.089 531.112 285.879C534.032 330.189 503.172 368.829 463.292 379.489C455.582 381.549 447.942 383.329 439.962 383.199C421.492 382.919 402.922 384.779 384.562 382.179C370.372 380.169 356.582 375.799 345.772 365.969C337.822 358.739 331.162 350.079 323.952 342.039C318.552 336.029 312.692 330.569 304.672 328.389C293.212 325.279 282.992 327.909 274.012 335.659C267.192 341.549 261.012 348.109 255.182 354.919C239.582 373.159 220.002 383.179 195.992 383.529C179.192 383.769 162.252 384.529 145.592 382.169C124.342 379.169 104.602 371.649 88.3717 357.069C77.0217 346.879 69.5617 333.939 64.1017 319.739C60.5617 310.529 59.0817 301.249 59.3317 291.279C59.9217 268.139 59.1917 244.969 59.6717 221.829C60.4717 183.349 84.8517 145.609 125.112 133.839C138.572 129.899 152.312 129.819 166.202 129.889C225.002 130.199 283.802 130.459 342.592 130.039C374.902 129.809 407.232 128.929 439.522 129.559C470.192 130.159 495.902 142.689 513.922 167.939C525.032 183.499 530.652 201.539 530.892 220.909C531.052 233.729 530.922 246.559 530.922 259.389C530.962 259.389 530.992 259.389 531.032 259.389V259.399ZM508.702 258.589C509.022 258.589 509.352 258.589 509.672 258.589C509.672 251.259 509.782 243.929 509.652 236.599C509.412 223.939 508.642 211.469 504.602 199.179C495.312 170.939 465.412 149.409 436.542 149.389C344.752 149.309 252.972 149.439 161.182 149.479C154.842 149.479 148.502 149.719 142.272 150.839C111.842 156.279 86.0917 181.949 82.1817 216.489C79.4617 240.499 81.1617 264.729 81.4917 288.869C81.6317 299.179 84.6517 308.549 88.6517 317.929C99.4917 343.339 120.462 355.429 145.902 360.059C164.232 363.399 183.122 361.319 201.752 361.039C209.392 360.919 216.642 358.189 223.562 354.649C236.922 347.819 247.242 337.579 256.562 326.139C277.642 300.249 307.082 298.529 330.922 321.949C337.212 328.129 343.202 334.639 349.402 340.919C363.932 355.629 381.222 363.369 402.242 362.309C413.052 361.759 423.892 361.879 434.722 361.879C442.772 361.879 450.612 360.879 458.282 358.329C486.032 349.089 503.322 329.919 508.292 301.479C510.722 287.589 508.712 272.919 508.712 258.609L508.702 258.589Z" fill="white"/>
<path d="M82.7237 130.869C82.7237 118.439 82.8037 106.019 82.6937 93.5894C82.6337 87.3694 83.8937 81.0394 81.3837 74.9694C80.7037 73.3294 82.2837 72.4694 83.2537 71.8194C97.8037 61.8994 112.014 51.5094 128.474 44.6594C147.564 36.7094 167.234 30.6894 187.194 25.5094C204.204 21.0994 221.454 17.9494 238.904 15.7694C241.974 15.3894 242.964 15.7694 242.914 19.1494C242.694 34.9794 242.624 50.8094 242.834 66.6294C242.884 70.3294 241.534 71.0394 238.314 71.2894C215.674 73.0594 193.484 77.5494 171.614 83.4594C150.824 89.0794 130.314 95.5994 111.804 107.129C101.274 113.689 92.2737 121.969 82.7237 130.879V130.869Z" fill="white"/>
<path d="M349.996 43.051C349.996 34.891 350.116 26.731 349.926 18.571C349.866 15.891 350.446 15.201 353.206 15.561C393.846 20.881 433.426 29.981 470.496 48.141C481.606 53.581 491.246 61.291 501.566 67.941C508.476 72.391 510.826 76.821 510.216 85.111C509.186 99.191 510.026 113.401 509.996 127.551C509.996 129.081 510.996 131.401 509.036 131.971C507.126 132.531 506.676 130.051 505.756 128.801C496.886 116.701 484.086 109.641 471.306 103.011C436.436 84.901 398.726 76.351 360.036 71.511C358.886 71.371 357.606 71.041 356.566 71.361C349.586 73.461 350.266 68.881 350.326 64.531C350.426 57.371 350.356 50.211 350.356 43.051C350.236 43.051 350.126 43.051 350.006 43.051H349.996Z" fill="white"/>
<path d="M258.932 57.4404C259.662 39.7804 259.072 22.1404 258.052 4.52042C257.852 1.02042 258.632 0.0204206 262.182 0.0404206C284.492 0.160421 306.801 0.110421 329.101 0.000420578C332.641 -0.0195794 334.281 0.660421 334.101 4.90042C332.641 39.3504 333.811 73.8204 333.981 108.28C334.001 112.87 333.072 114.41 328.052 114.41C305.752 114.44 283.422 113.61 261.142 115.27C258.182 115.49 257.692 114.63 257.712 111.86C257.822 93.7104 257.972 75.5704 258.942 57.4404H258.932Z" fill="white"/>
<path d="M69.0884 103.451C68.3084 119.061 67.3384 134.681 68.2684 150.311C68.3684 152.051 67.2384 152.521 66.4484 153.501C57.3384 164.841 51.0284 177.471 49.1784 192.031C48.8484 194.621 48.1284 195.741 45.5784 195.231C35.9984 193.311 26.3084 195.051 16.6884 194.391C10.8684 193.991 10.1684 193.121 12.9184 188.071C23.2784 169.051 32.3584 149.351 43.6484 130.811C51.0684 118.631 57.7984 106.041 64.6784 93.5406C65.4784 92.0806 65.9484 91.0706 67.7784 91.3406C70.0284 91.6806 69.0084 93.3706 69.0484 94.4706C69.1784 97.4606 69.0984 100.461 69.0984 103.461L69.0884 103.451Z" fill="white"/>
<path d="M524.77 91.1895C526.18 91.2995 526.43 92.4995 526.97 93.4795C542.96 122.189 558.98 150.879 574.91 179.619C576.66 182.769 578.72 185.829 579.15 189.579C579.42 191.969 578.93 193.249 576.11 193.369C566.3 193.799 556.5 194.409 546.66 194.289C544.07 194.259 542.86 193.519 542.27 190.859C539.24 177.339 532.64 165.459 524.95 154.119C524.23 153.059 522.97 152.329 523.24 150.719C525.03 140.129 523.76 129.469 523.99 118.839C524.17 110.519 523.99 102.189 524.03 93.8595C524.03 92.9595 523.55 91.8395 524.77 91.1895Z" fill="white"/>
<path d="M44.3135 255.121C44.3135 269.931 44.2335 284.751 44.3835 299.561C44.4135 302.321 43.5535 302.851 41.3235 301.901C35.9535 299.591 30.2035 298.281 25.0435 295.361C22.2735 293.791 20.9235 292.081 21.1735 288.681C22.9535 264.251 21.9235 239.791 22.0435 215.341C22.0535 212.711 19.2735 209.351 21.8835 207.801C23.8835 206.611 27.3535 207.961 30.1735 208.041C33.9935 208.151 37.8235 208.221 41.6535 208.111C43.6535 208.051 44.3335 208.201 44.2935 210.691C44.0735 225.501 44.1835 240.311 44.1835 255.131C44.2235 255.131 44.2635 255.131 44.3035 255.131L44.3135 255.121Z" fill="white"/>
<path d="M546.282 301.43C546.282 273.39 546.282 246.11 546.282 218.84C546.282 215.4 545.192 211 546.892 208.84C548.232 207.14 553.092 208.28 556.372 208.02C568.532 207.04 568.792 207.01 568.722 219.36C568.612 237.49 568.102 255.61 567.732 273.74C567.632 278.72 567.322 283.72 568.602 288.61C569.392 291.64 567.442 292.92 565.212 293.84C559.182 296.34 553.102 298.71 546.272 301.44L546.282 301.43Z" fill="white"/>
<path d="M591.944 201.08C591.944 210.04 591.944 218.45 591.944 226.86C591.924 241.99 591.514 257.13 592.054 272.24C592.304 279.34 585.164 284.69 579.344 286.1C576.024 286.9 577.134 283.84 577.124 282.45C577.014 267.66 577.074 252.86 577.054 238.06C577.044 229.43 577.874 220.78 576.284 212.21C576.004 210.69 576.354 209.72 577.764 208.96C582.364 206.47 586.914 203.89 591.964 201.07L591.944 201.08Z" fill="white"/>
<path d="M0.0618006 201.24C4.3818 204.24 9.0218 206.26 13.7018 208.12C15.1018 208.68 15.6518 209.17 14.9318 210.58C13.1818 214.03 13.8618 217.75 13.8718 221.36C13.8718 238.99 14.0118 256.61 14.0918 274.24C14.0918 275.07 14.1918 275.92 14.0518 276.73C13.5018 279.92 14.7818 284.44 11.0818 285.69C7.4318 286.93 0.341801 280.04 0.101801 275.83C-0.108199 272.18 0.0718006 268.52 0.0718006 264.86C0.0718006 243.91 0.0718006 222.96 0.0718006 201.23L0.0618006 201.24Z" fill="white"/>
<path d="M495.071 258.83C495.071 269.16 495.091 279.49 495.071 289.82C495.001 319.78 473.451 344.55 443.671 346.42C424.131 347.65 404.361 347.42 384.791 345.42C375.751 344.5 367.631 340.26 361.031 333.79C351.771 324.72 342.811 315.36 333.511 306.35C321.871 295.07 307.641 289.85 291.601 290.59C275.581 291.33 262.321 298.48 251.331 310.07C244.461 317.32 237.091 324.12 230.481 331.59C220.501 342.87 208.011 347.12 193.401 346.25C190.701 346.09 186.571 347.7 185.631 345.32C184.541 342.55 188.331 340.48 190.401 338.41C218.221 310.63 245.991 282.8 273.891 255.1C297.041 232.1 320.261 209.18 343.601 186.37C350.581 179.55 358.501 173.69 364.801 166.14C365.761 164.98 366.741 163.94 368.531 164.15C387.241 166.38 405.961 164.03 424.671 164.15C440.241 164.25 454.921 167.16 468.551 174.71C473.721 177.57 477.811 181.84 481.351 186.48C489.971 197.78 494.751 210.56 494.961 224.84C495.131 236.17 494.991 247.5 494.991 258.83H495.081H495.071ZM407.401 273.68C407.461 266.547 404.014 263.294 397.061 263.92C396.891 263.93 396.731 263.93 396.561 263.96C392.531 264.68 386.931 262.43 384.761 265.52C382.771 268.35 384.051 273.52 384.031 277.67C384.011 282.32 386.341 284.81 390.971 285.17C392.951 285.33 394.951 285.29 396.951 285.32C406.501 285.5 407.291 284.73 407.391 275.17C407.391 274.67 407.391 274.17 407.391 273.67L407.401 273.68ZM460.781 273.96C460.801 267.06 457.381 263.544 450.521 263.41C448.861 263.38 447.201 263.39 445.531 263.41C440.397 263.464 437.857 265.994 437.911 271C438.004 279.58 442.311 283.864 450.831 283.85C457.437 283.844 460.751 280.547 460.771 273.96H460.781ZM461.961 207.44C461.961 199.94 457.931 195.52 451.031 195.46C444.581 195.41 439.611 200.52 439.581 207.25C439.551 212.78 444.661 217.25 451.091 217.34C456.751 217.41 461.961 212.68 461.961 207.44Z" fill="white"/>
<path d="M228.771 165.869C184.441 210.219 141.561 255.749 97.2113 299.819C96.6413 299.559 96.0812 299.299 95.5112 299.049C95.5112 287.839 95.5112 276.629 95.5112 265.429C95.5112 263.579 96.6913 262.469 97.9013 261.259C108.371 250.829 118.701 240.309 128.381 229.089C133.261 223.429 139.401 218.809 143.581 212.429C144.541 210.959 145.981 211.649 147.191 211.379C154.931 209.649 159.421 203.149 156.591 197.529C154.681 193.749 151.921 191.149 147.251 191.309C142.241 191.479 138.701 194.389 137.641 198.659C136.551 203.089 133.661 205.279 130.631 207.789C125.341 212.169 121.191 217.629 116.721 222.769C110.171 230.289 102.661 236.789 95.0312 244.549C96.6912 233.049 94.9312 222.389 97.8112 211.929C106.001 182.149 127.321 165.209 158.031 164.679C169.851 164.479 181.681 164.339 193.501 164.439C205.131 164.529 216.731 165.699 228.751 165.869H228.771Z" fill="white"/>
<path d="M344.761 164.569C338.491 172.569 331.331 178.929 324.311 185.459C291.251 216.169 259.801 248.499 228.061 280.559C210.261 298.529 191.841 315.949 174.931 334.709C163.341 347.569 149.921 346.659 135.411 344.449C131.461 343.849 133.401 341.529 134.451 340.299C137.921 336.269 141.621 332.429 145.381 328.669C194.091 279.939 242.821 231.229 291.571 182.539C297.221 176.899 303.061 171.439 308.811 165.899C309.751 164.989 310.551 163.659 312.061 163.829C322.771 165.009 333.521 164.409 344.761 164.569Z" fill="white"/>
<path d="M284.06 165.21C284.88 165.28 285.69 165.36 287.4 165.51C282.26 170.85 277.82 176.11 272.74 180.64C240.76 209.12 211.75 240.58 181.71 271.01C162.18 290.79 142.44 310.35 122.87 330.09C119.62 333.37 116.87 333.69 113.76 330.03C110.43 326.1 107.06 322.18 103.42 318.54C101.59 316.71 102 315.71 103.57 314.17C109.97 307.87 116.37 301.56 122.63 295.11C155.66 261.06 189.51 227.82 222.72 193.95C231.64 184.85 240.88 176.08 249.76 166.95C251.78 164.87 253.7 163.9 256.68 164.29C265.44 165.46 274.26 165.63 283.08 165.21C283.41 165.21 283.74 165.21 284.07 165.2L284.06 165.21Z" fill="white"/>
<path d="M284.06 165.211C283.73 165.211 283.4 165.211 283.07 165.221C283.4 165.221 283.73 165.221 284.06 165.211Z" fill="white"/>
</svg>
