<svg width="48" height="56" viewBox="0 0 48 56" fill="none" xmlns="http://www.w3.org/2000/svg">
<path d="M29.945 3.42087L23.9955 6.88541H23.9926L18.0176 3.46453L23.9671 0L29.945 3.42087Z" fill="white"/>
<path d="M29.9451 3.42114L29.9706 10.3065L24.0176 13.7739L23.9927 6.88568H23.9955L29.9451 3.42114Z" fill="white"/>
<path d="M23.9926 6.88548L24.0176 13.7737L18.0425 10.35L18.0176 3.4646L23.9926 6.88548Z" fill="white"/>
<path d="M29.9818 24.2523L24.0193 27.6953H24.0164L18.0538 24.2523L24.0164 20.8093L29.9818 24.2523Z" fill="white"/>
<path d="M29.9818 24.2527V31.1381L24.0164 34.5839V27.6957H24.0192L29.9818 24.2527Z" fill="white"/>
<path d="M24.0164 27.6957V34.5839L18.0538 31.1381V24.2527L24.0164 27.6957Z" fill="white"/>
<path d="M29.9314 45.041L23.9813 48.5055H23.9785L18.0034 45.0846L23.9535 41.6201L29.9314 45.041Z" fill="white"/>
<path d="M29.9315 45.041L29.9564 51.9264L24.004 55.3938L23.9785 48.5055H23.9813L29.9315 45.041Z" fill="white"/>
<path d="M23.9785 48.5056L24.004 55.3938L18.0289 51.9701L18.0034 45.0847L23.9785 48.5056Z" fill="white"/>
<path d="M47.9649 20.6524L41.9808 17.2479L41.9791 17.2457L41.9354 10.3608L47.9201 13.7647L47.9649 20.6524Z" fill="white"/>
<path d="M47.9649 20.6521L42.0239 24.1325L36.0358 20.7275L41.9791 17.2454L41.9808 17.2476L47.9649 20.6521Z" fill="white"/>
<path d="M41.9791 17.2457L36.0358 20.7278L35.9944 13.8412L41.9354 10.3608L41.9791 17.2457Z" fill="white"/>
<path d="M11.9705 41.5479L5.98639 38.144L5.98469 38.1412L5.94104 31.2563L11.9257 34.6608L11.9705 41.5479Z" fill="white"/>
<path d="M11.9705 41.5476L6.03005 45.0285L0.0413818 41.6235L5.9847 38.1409L5.9864 38.1437L11.9705 41.5476Z" fill="white"/>
<path d="M5.98469 38.1412L0.0413793 41.6238L0 34.7373L5.94105 31.2563L5.98469 38.1412Z" fill="white"/>
<path d="M0.0351562 20.1794L6.01985 16.7755L6.02155 16.7733L6.0652 9.88843L0.0805034 13.2923L0.0351562 20.1794Z" fill="white"/>
<path d="M0.0351562 20.1798L5.9762 23.6608L11.9649 20.2558L6.02155 16.7737L6.01985 16.7759L0.0351562 20.1798Z" fill="white"/>
<path d="M6.02161 16.7733L11.9649 20.2554L12.0057 13.3688L6.06525 9.88843L6.02161 16.7733Z" fill="white"/>
<path d="M36.0295 41.0755L42.0142 37.671L42.0159 37.6688L42.059 30.7839L36.0749 34.1878L36.0295 41.0755Z" fill="white"/>
<path d="M36.0295 41.0759L41.9706 44.5563L47.9593 41.1513L42.0159 37.6692L42.0142 37.6715L36.0295 41.0759Z" fill="white"/>
<path d="M42.016 37.6688L47.9593 41.1509L48.0001 34.2649L42.0591 30.7839L42.016 37.6688Z" fill="white"/>
<line x1="24.25" y1="21" x2="24.25" y2="13" stroke="white" stroke-width="0.5" stroke-dasharray="1 1"/>
<line x1="24.25" y1="42" x2="24.25" y2="34" stroke="white" stroke-width="0.5" stroke-dasharray="1 1"/>
<line x1="18.7458" y1="24.4665" x2="11.8176" y2="20.4665" stroke="white" stroke-width="0.5" stroke-dasharray="1 1"/>
<line x1="18.9958" y1="30.9665" x2="12.0676" y2="34.9665" stroke="white" stroke-width="0.5" stroke-dasharray="1 1"/>
<line x1="36.9324" y1="34.9665" x2="30.0042" y2="30.9665" stroke="white" stroke-width="0.5" stroke-dasharray="1 1"/>
<line x1="37.1824" y1="20.4665" x2="30.2542" y2="24.4665" stroke="white" stroke-width="0.5" stroke-dasharray="1 1"/>
</svg>
