<svg width="1974" height="100" viewBox="0 0 1974 100" fill="none" xmlns="http://www.w3.org/2000/svg">
<rect width="1973.89" height="52" fill="white"/>
<path fill-rule="evenodd" clip-rule="evenodd" d="M641.529 61.367C662.394 61.367 679.331 55.394 679.331 48.0236C679.331 46.6218 678.714 45.2699 677.57 44H0C2.31296 46.4611 6.60445 48.6109 12.2194 50.2155C18.6845 52.0512 26.9129 53.1472 35.8893 53.1472C38.454 53.1472 40.9385 53.065 43.3696 52.9006C47.377 54.7912 52.0254 55.8871 57.0212 55.8871C64.4214 55.8871 71.127 53.5034 76.0159 49.6127C82.588 56.7365 93.0871 61.367 104.976 61.367C110.586 61.367 115.875 60.3258 120.604 58.4627C125.546 69.7238 138.851 77.8066 154.533 77.8066C167.784 77.8066 179.325 72.0527 185.603 63.4767C188.916 65.559 192.656 67.1757 196.743 68.2442C204.517 83.5056 223.111 94.2461 244.858 94.2461C257.12 94.2461 268.341 90.8212 277.237 85.1221C288.858 94.3283 304.781 100 322.359 100C344.8 100 364.543 90.7664 376.084 76.7379C382.656 82.437 392.033 86.0263 402.452 86.0263C416.264 86.0263 428.233 79.7793 434.297 70.628C443.728 78.4368 456.925 83.2864 471.512 83.2864C492.056 83.2864 509.742 73.6966 518.211 59.7778C521.897 60.7916 525.824 61.367 529.965 61.367C532.904 61.367 535.736 61.0656 538.488 60.5176C542.735 69.0388 553.074 75.0666 565.176 75.0666C576.798 75.0666 586.816 69.5046 591.331 61.504C591.892 60.5724 592.346 59.586 592.72 58.5722C596.621 60.3532 601.135 61.367 605.971 61.367C610.673 61.367 615.081 60.408 618.928 58.7093C625.233 60.3806 633.034 61.367 641.529 61.367Z" fill="white"/>
<path fill-rule="evenodd" clip-rule="evenodd" d="M1307.59 61.367C1328.45 61.367 1345.39 55.394 1345.39 48.0236C1345.39 46.6218 1344.77 45.2699 1343.63 44H666.061C668.374 46.4611 672.665 48.6109 678.28 50.2155C684.745 52.0512 692.973 53.1472 701.95 53.1472C704.515 53.1472 706.999 53.065 709.43 52.9006C713.438 54.7912 718.086 55.8871 723.082 55.8871C730.482 55.8871 737.188 53.5034 742.076 49.6127C748.649 56.7365 759.148 61.367 771.036 61.367C776.646 61.367 781.936 60.3258 786.665 58.4627C791.607 69.7238 804.911 77.8066 820.593 77.8066C833.844 77.8066 845.385 72.0527 851.663 63.4767C854.976 65.559 858.716 67.1757 862.804 68.2442C870.578 83.5056 889.172 94.2461 910.918 94.2461C923.181 94.2461 934.401 90.8212 943.298 85.1221C954.919 94.3283 970.841 100 988.42 100C1010.86 100 1030.6 90.7664 1042.14 76.7379C1048.72 82.437 1058.09 86.0263 1068.51 86.0263C1082.32 86.0263 1094.29 79.7793 1100.36 70.628C1109.79 78.4368 1122.99 83.2864 1137.57 83.2864C1158.12 83.2864 1175.8 73.6966 1184.27 59.7778C1187.96 60.7916 1191.89 61.367 1196.03 61.367C1198.96 61.367 1201.8 61.0656 1204.55 60.5176C1208.8 69.0388 1219.13 75.0666 1231.24 75.0666C1242.86 75.0666 1252.88 69.5046 1257.39 61.504C1257.95 60.5724 1258.41 59.586 1258.78 58.5722C1262.68 60.3532 1267.2 61.367 1272.03 61.367C1276.73 61.367 1281.14 60.408 1284.99 58.7093C1291.29 60.3806 1299.09 61.367 1307.59 61.367Z" fill="white"/>
<path fill-rule="evenodd" clip-rule="evenodd" d="M1936.2 61.367C1957.06 61.367 1974 55.394 1974 48.0236C1974 46.6218 1973.38 45.2699 1972.24 44H1294.67C1296.98 46.4611 1301.27 48.6109 1306.89 50.2155C1313.35 52.0512 1321.58 53.1472 1330.56 53.1472C1333.12 53.1472 1335.61 53.065 1338.04 52.9006C1342.05 54.7912 1346.69 55.8871 1351.69 55.8871C1359.09 55.8871 1365.8 53.5034 1370.68 49.6127C1377.26 56.7365 1387.76 61.367 1399.64 61.367C1405.25 61.367 1410.54 60.3258 1415.27 58.4627C1420.21 69.7238 1433.52 77.8066 1449.2 77.8066C1462.45 77.8066 1473.99 72.0527 1480.27 63.4767C1483.58 65.559 1487.32 67.1757 1491.41 68.2442C1499.19 83.5056 1517.78 94.2461 1539.53 94.2461C1551.79 94.2461 1563.01 90.8212 1571.91 85.1221C1583.53 94.3283 1599.45 100 1617.03 100C1639.47 100 1659.21 90.7664 1670.75 76.7379C1677.32 82.437 1686.7 86.0263 1697.12 86.0263C1710.93 86.0263 1722.9 79.7793 1728.97 70.628C1738.4 78.4368 1751.59 83.2864 1766.18 83.2864C1786.72 83.2864 1804.41 73.6966 1812.88 59.7778C1816.57 60.7916 1820.49 61.367 1824.63 61.367C1827.57 61.367 1830.4 61.0656 1833.16 60.5176C1837.4 69.0388 1847.74 75.0666 1859.84 75.0666C1871.47 75.0666 1881.48 69.5046 1886 61.504C1886.56 60.5724 1887.01 59.586 1887.39 58.5722C1891.29 60.3532 1895.8 61.367 1900.64 61.367C1905.34 61.367 1909.75 60.408 1913.6 58.7093C1919.9 60.3806 1927.7 61.367 1936.2 61.367Z" fill="white"/>
</svg>
