<svg width="2053" height="240" viewBox="0 0 2053 240" fill="none" xmlns="http://www.w3.org/2000/svg">
<path d="M134.367 166.227C133.385 167.601 131.457 167.795 129.756 167.763C127.534 167.73 125.278 167.5 123.088 167.076C121.682 166.814 120.048 166.292 119.621 164.918C119.423 164.263 119.556 163.577 119.916 162.99C120.143 162.533 120.538 162.141 120.962 161.846C121.944 161.192 123.185 160.997 124.361 160.799L126.617 160.015C128.677 159.95 130.9 159.918 132.699 160.965C133.321 161.324 133.875 161.914 134.267 162.533C134.986 163.677 135.184 165.115 134.367 166.227Z" fill="white"/>
<path d="M134.367 166.229C133.385 167.603 131.457 167.798 129.756 167.765C127.534 167.733 125.278 167.503 123.088 167.078C121.682 166.816 120.048 166.294 119.621 164.92C119.423 164.266 119.556 163.579 119.916 162.992C121.811 164.823 124.426 165.869 127.077 165.837C129.789 165.772 132.472 164.528 134.27 162.535C134.986 163.679 135.184 165.118 134.367 166.229Z" fill="white"/>
<path d="M160.184 159.686C158.58 161.06 155.429 161.254 152.649 161.222C149.017 161.189 145.329 160.959 141.75 160.535C139.453 160.272 136.779 159.751 136.087 158.377C135.765 157.722 135.98 157.036 136.567 156.449C136.942 155.992 137.581 155.6 138.277 155.305C139.881 154.651 141.912 154.456 143.834 154.258L147.522 153.474C150.889 153.409 154.521 153.377 157.46 154.423C158.474 154.783 159.385 155.373 160.025 155.992C161.198 157.136 161.52 158.574 160.184 159.686Z" fill="white"/>
<path d="M160.184 159.686C158.58 161.06 155.429 161.254 152.649 161.222C149.017 161.19 145.329 160.96 141.75 160.535C139.453 160.273 136.779 159.751 136.087 158.377C135.765 157.723 135.98 157.036 136.567 156.449C139.666 158.28 143.94 159.326 148.268 159.294C152.705 159.229 157.086 157.985 160.022 155.992C161.198 157.136 161.52 158.575 160.184 159.686Z" fill="white"/>
<path d="M729.049 176.033C727.446 177.407 724.294 177.602 721.514 177.569C717.882 177.537 714.194 177.307 710.615 176.882C708.319 176.62 705.648 176.098 704.952 174.725C704.63 174.07 704.846 173.383 705.432 172.796C705.804 172.339 706.447 171.947 707.142 171.653C708.746 170.998 710.777 170.804 712.699 170.606L716.384 169.822C719.751 169.757 723.386 169.725 726.322 170.771C727.337 171.131 728.248 171.72 728.887 172.339C730.064 173.483 730.385 174.922 729.049 176.033Z" fill="white"/>
<path d="M729.049 176.034C727.446 177.408 724.294 177.602 721.514 177.57C717.882 177.537 714.194 177.307 710.615 176.883C708.319 176.62 705.648 176.099 704.952 174.725C704.63 174.07 704.846 173.383 705.432 172.797C708.531 174.628 712.806 175.674 717.133 175.642C721.57 175.577 725.951 174.333 728.887 172.34C730.064 173.484 730.385 174.922 729.049 176.034Z" fill="white"/>
<path d="M282.489 233.958C281.446 235.128 279.394 235.293 277.587 235.267C275.222 235.24 272.822 235.042 270.494 234.683C268.999 234.459 267.259 234.014 266.808 232.843C266.599 232.286 266.738 231.702 267.121 231.201C267.363 230.812 267.781 230.476 268.232 230.225C269.276 229.668 270.597 229.5 271.85 229.335L274.249 228.666C276.44 228.61 278.804 228.583 280.717 229.474C281.378 229.78 281.97 230.281 282.386 230.812C283.15 231.785 283.359 233.011 282.489 233.958Z" fill="white"/>
<path d="M282.489 233.958C281.446 235.128 279.394 235.294 277.587 235.267C275.222 235.24 272.822 235.043 270.494 234.683C268.999 234.459 267.259 234.014 266.808 232.844C266.599 232.287 266.738 231.703 267.121 231.202C269.137 232.761 271.92 233.652 274.736 233.625C277.622 233.569 280.473 232.511 282.386 230.812C283.15 231.785 283.359 233.012 282.489 233.958Z" fill="white"/>
<path d="M262.31 237.42C260.223 239.351 256.119 239.628 252.502 239.581C247.773 239.534 242.973 239.212 238.315 238.614C235.326 238.245 231.847 237.511 230.942 235.577C230.524 234.658 230.804 233.691 231.57 232.862C232.057 232.219 232.891 231.668 233.796 231.252C235.883 230.333 238.528 230.056 241.031 229.781L245.83 228.679C250.214 228.587 254.943 228.54 258.766 230.011C260.087 230.518 261.272 231.347 262.103 232.219C263.631 233.832 264.049 235.857 262.31 237.42Z" fill="white"/>
<path d="M262.31 237.418C260.223 239.349 256.119 239.626 252.502 239.579C247.773 239.532 242.973 239.211 238.315 238.612C235.326 238.244 231.847 237.51 230.942 235.576C230.524 234.656 230.804 233.689 231.57 232.861C235.603 235.437 241.166 236.908 246.8 236.861C252.572 236.77 258.274 235.021 262.101 232.215C263.631 233.83 264.049 235.856 262.31 237.418Z" fill="white"/>
<path d="M69.929 182.899C67.2817 185.647 63.0305 185.939 59.2039 186.039C42.9217 186.528 26.607 187.021 10.3277 187.478C7.84252 187.575 5.26001 187.607 3.06958 186.496C1.56606 185.712 0.324922 184.208 0.0625436 182.605C-0.0671718 181.885 -0.00231767 181.133 0.324919 180.447C1.17397 178.583 3.39682 177.832 5.39267 177.274C12.2263 175.476 19.2221 174.332 26.2827 173.908C29.2574 173.713 32.232 173.645 35.2095 173.713C31.3181 173.648 39.1983 163.578 40.3746 162.956C42.4353 161.877 45.3126 161.387 48.2223 161.322C50.7724 161.257 53.2901 161.517 55.2505 161.977C58.1279 162.664 62.2139 164.657 65.6809 167.339C71.1702 171.555 75.0941 177.569 69.929 182.899Z" fill="white"/>
<path d="M69.929 182.899C67.2816 185.646 63.0305 185.938 59.2039 186.039C42.9216 186.528 26.607 187.02 10.3277 187.477C7.84248 187.574 5.25996 187.607 3.06954 186.495C1.56602 185.711 0.324879 184.208 0.0625 182.604C1.59845 183.093 3.26706 183.356 4.83544 183.521C19.3193 184.895 33.933 184.11 48.352 182.212C53.1898 181.59 58.4551 180.576 61.527 176.785C63.6201 174.17 64.2392 170.703 65.5481 167.598C65.5806 167.501 65.613 167.433 65.6778 167.336C71.1701 171.555 75.094 177.569 69.929 182.899Z" fill="white"/>
<path d="M48.2189 161.324C48.0214 161.357 47.8592 161.454 47.6971 161.554C45.2443 162.896 43.2514 165.021 42.0073 167.503C41.4177 168.615 41.0256 169.859 41.0256 171.133C41.0256 172.341 41.4177 173.683 40.7632 174.729C40.0439 175.938 38.3428 176.103 36.9366 176.038C33.3075 175.876 29.6784 175.157 26.2793 173.913C29.2539 173.718 32.2285 173.65 35.2061 173.718C31.3146 173.653 39.1948 163.583 40.3711 162.96C42.4318 161.879 45.3091 161.389 48.2189 161.324Z" fill="white"/>
<path d="M270.212 136.114C267.269 137.75 263.183 137.682 259.946 137.063C258.051 136.703 249.584 130.722 249.584 130.686C242.75 132.322 235.819 133.434 228.824 134.02C227.288 134.15 225.719 134.218 224.281 133.628C222.874 133.071 221.698 131.568 221.993 130.064C222.058 129.704 222.223 129.377 222.417 129.05C222.842 128.396 223.529 127.841 224.216 127.449C224.608 127.219 225 127.025 225.424 126.86C229.151 125.126 233.532 125.356 237.686 125.223C242.296 125.061 247.429 124.144 250.109 120.386C251.385 118.62 252.105 116.235 254.097 115.383C256.191 114.469 258.576 115.742 260.374 117.149C262.14 118.555 264.003 120.256 266.291 120.321C266.518 120.321 266.715 120.321 266.913 120.288C268.646 120.091 270.279 119.145 272.013 119.145C274.595 119.112 276.099 119.961 276.753 121.303C279.038 125.391 273.906 134.088 270.212 136.114Z" fill="white"/>
<path d="M270.212 136.114C267.269 137.75 263.183 137.682 259.946 137.063C258.051 136.704 249.584 130.722 249.584 130.687C242.75 132.323 235.819 133.434 228.824 134.021C227.288 134.151 225.719 134.218 224.281 133.629C222.874 133.072 221.698 131.568 221.993 130.065C222.058 129.705 222.223 129.378 222.417 129.05C231.442 132.485 242.099 131.601 250.371 126.533C251.32 125.943 252.659 125.357 253.411 126.141C253.77 126.533 253.868 127.09 254 127.579C254.622 130.259 256.845 132.485 259.492 133.104C262.172 133.726 265.147 132.712 266.88 130.619C268.646 128.493 269.136 125.519 270.966 123.458C272.405 121.857 274.628 120.973 276.753 121.3C279.038 125.392 273.906 134.089 270.212 136.114Z" fill="white"/>
<path d="M266.91 120.292C266.453 120.717 265.864 121.044 265.242 121.242C263.641 121.731 261.875 121.339 260.339 120.684C258.605 119.933 256.84 118.821 254.976 119.213C253.34 119.541 252.232 120.979 250.988 122.091C246.999 125.752 241.277 126.569 235.917 127.223C232.418 127.648 228.724 128.04 225.422 126.864C229.148 125.13 233.529 125.36 237.683 125.227C242.294 125.065 247.426 124.148 250.106 120.39C251.383 118.624 252.102 116.239 254.095 115.387C256.188 114.473 258.573 115.746 260.371 117.153C262.137 118.559 264 120.26 266.288 120.325C266.515 120.325 266.713 120.325 266.91 120.292Z" fill="white"/>
<path d="M699.576 144.254C687.969 148.012 674.959 147.328 663.81 142.293C660.54 140.822 657.271 138.959 653.706 138.894C647.07 138.699 640.629 144.616 634.45 142.196C630.885 140.79 628.76 136.506 629.806 132.812C630.231 131.309 631.148 130.032 632.356 129.086C634.122 127.647 636.475 126.928 638.698 127.32C637.849 122.385 640.334 118.461 644.355 115.746C652.168 110.351 665.77 109.502 671.654 114.404C676.132 118.131 677.963 124.802 676.003 130.294C683.391 128.366 691.303 128.496 698.662 130.654C698.662 130.654 698.662 130.654 698.694 130.654C699.478 130.884 700.23 131.144 700.985 131.406C702.978 132.125 705.071 133.172 706.117 134.905C706.412 135.33 706.61 135.787 706.739 136.312C707.618 140.135 703.302 143.045 699.576 144.254Z" fill="white"/>
<path d="M699.576 144.254C687.969 148.013 674.959 147.329 663.81 142.293C660.54 140.822 657.271 138.959 653.706 138.894C647.07 138.7 640.629 144.616 634.45 142.196C630.885 140.79 628.76 136.506 629.806 132.812C630.231 131.309 631.148 130.032 632.356 129.086C632.551 129.216 632.749 129.348 632.946 129.543C634.155 130.719 634.647 132.42 635.299 133.989C635.953 135.557 636.932 137.193 638.536 137.715C640.531 138.369 642.557 137.093 644.42 136.147C649.225 133.597 654.815 132.647 660.177 133.399C665.67 134.216 670.738 136.733 675.903 138.697C681.1 140.69 686.79 142.164 692.152 140.79C695.162 140.006 697.875 138.369 700.655 136.966C702.388 136.117 704.219 135.333 706.114 134.905C706.409 135.33 706.607 135.787 706.736 136.312C707.618 140.135 703.302 143.045 699.576 144.254Z" fill="white"/>
<path d="M698.658 130.654C697.547 130.949 696.335 131.014 695.224 131.046C689.207 131.144 683.16 131.276 677.143 131.373C676.359 131.406 675.542 131.406 674.823 131.079C673.417 130.392 672.96 128.593 673.089 127.025C673.187 125.489 673.676 123.953 673.546 122.382C673.284 119.177 670.342 116.825 667.335 115.713C660.077 113.098 652.034 115.713 644.352 115.746C652.164 110.351 665.766 109.502 671.651 114.404C676.129 118.131 677.96 124.802 675.999 130.294C683.39 128.366 691.303 128.496 698.658 130.654Z" fill="white"/>
<path d="M1904.68 139.072C1904.68 146.168 1887.95 151.919 1867.35 151.919C1858.96 151.919 1851.26 150.969 1845.03 149.36C1841.23 150.996 1836.88 151.919 1832.24 151.919C1827.46 151.919 1823 150.943 1819.15 149.228C1818.78 150.204 1818.34 151.154 1817.78 152.051C1813.32 159.754 1803.43 165.109 1791.96 165.109C1780.01 165.109 1769.8 159.305 1765.6 151.101C1762.89 151.629 1760.09 151.919 1757.19 151.919C1753.1 151.919 1749.22 151.365 1745.58 150.389C1737.22 163.79 1719.76 173.022 1699.47 173.022C1685.07 173.022 1672.04 168.353 1662.72 160.835C1656.74 169.646 1644.92 175.66 1631.28 175.66C1620.99 175.66 1611.73 172.205 1605.24 166.718C1593.85 180.224 1574.35 189.114 1552.19 189.114C1534.84 189.114 1519.11 183.653 1507.64 174.79C1498.85 180.277 1487.77 183.574 1475.67 183.574C1454.19 183.574 1435.83 173.234 1428.16 158.54C1424.12 157.511 1420.43 155.955 1417.16 153.95C1410.96 162.207 1399.56 167.747 1386.48 167.747C1370.99 167.747 1357.86 159.965 1352.98 149.123C1348.31 150.917 1343.08 151.919 1337.54 151.919C1325.81 151.919 1315.44 147.461 1308.95 140.602C1304.12 144.348 1297.5 146.643 1290.19 146.643C1285.26 146.643 1280.67 145.588 1276.71 143.768C1274.31 143.926 1271.86 144.005 1269.33 144.005C1260.46 144.005 1252.34 142.95 1245.95 141.182C1237.43 138.808 1232 135.194 1232 131.158C1232 124.563 1246.51 119.129 1265.16 118.417C1268.93 110.424 1278.69 104.7 1290.19 104.7C1296.63 104.7 1302.54 106.494 1307.15 109.474C1313.3 101.561 1324.33 96.2319 1336.96 96.0737C1336.94 95.8099 1336.91 95.5725 1336.91 95.335C1336.91 83.0158 1349.63 73.0445 1365.3 73.0445C1372.95 73.0445 1379.88 75.4186 1384.97 79.27C1390.49 76.5529 1396.98 74.9438 1403.97 74.9438C1411.8 74.9438 1419.03 76.9486 1424.89 80.2988C1435.17 63.627 1456.96 52.0992 1482.16 52.0992C1482.92 52.0992 1483.69 52.1255 1484.45 52.1519C1489.73 28.7798 1515.71 11 1547.02 11C1578.81 11 1605.14 29.3338 1609.83 53.2599C1626.14 56.0297 1640.09 63.6797 1649.09 74.1788C1654.94 72.3586 1661.33 71.3297 1668 71.3297C1682.11 71.3297 1694.88 75.8142 1704.17 83.0422C1710.6 78.0301 1719.44 74.9438 1729.2 74.9438C1746.08 74.9438 1760.17 84.1766 1763.84 96.5485C1768.74 97.2872 1773.28 98.7908 1777.24 100.901C1781.98 93.7523 1791.48 88.8721 1802.43 88.8721C1817.62 88.8721 1830 98.2632 1830.76 110.028C1831.26 110.002 1831.74 109.976 1832.24 109.976C1845.11 109.976 1855.85 117.124 1858.38 126.621C1861.25 126.384 1864.24 126.252 1867.35 126.252C1887.95 126.252 1904.68 132.002 1904.68 139.072Z" fill="white"/>
<path d="M1594.34 16.2849C1632.51 16.2849 1664.12 34.6028 1669.76 58.529C1689.31 61.3015 1706.07 68.9621 1716.88 79.4664C1723.91 77.6383 1731.56 76.6041 1739.59 76.6041C1756.53 76.6041 1771.86 81.0755 1783 88.3087C1787.07 85.6708 1791.96 83.5815 1797.39 82.1808C1786.38 75.4699 1771.66 71.3309 1755.43 71.3309C1747.4 71.3309 1739.75 72.365 1732.72 74.1931C1721.9 63.6888 1705.14 56.0256 1685.6 53.2558C1679.96 29.3323 1648.34 11.0117 1610.18 11.0117C1594.61 11.0117 1580.18 14.0955 1568.11 19.3292C1576.29 17.3666 1585.12 16.2849 1594.34 16.2849Z" fill="white"/>
<path d="M1331.91 102.29C1335.2 101.721 1338.62 101.378 1342.17 101.341C1342.16 101.098 1342.11 100.861 1342.11 100.615C1342.11 99.8003 1342.19 98.9984 1342.32 98.207C1338.53 99.2358 1335.05 100.626 1331.91 102.29Z" fill="white"/>
<path d="M1236.21 125.756C1241.99 124.653 1248.71 123.92 1255.96 123.688C1256.84 122.131 1258.07 120.696 1259.46 119.338C1249.19 120.575 1240.9 122.875 1236.21 125.756Z" fill="white"/>
<path d="M1520.92 52.668C1509.65 53.7706 1499.2 56.4983 1490.11 60.4578C1498.33 58.4794 1507.21 57.3873 1516.48 57.3873C1517.4 57.3873 1518.31 57.411 1519.23 57.4321C1519.67 55.8124 1520.25 54.2296 1520.92 52.668Z" fill="white"/>
<path d="M1813.06 80.2134C1833.33 80.2134 1850.26 89.4462 1854.65 101.823C1860.53 102.552 1865.98 104.058 1870.74 106.187C1873.09 103.227 1876.47 100.686 1880.5 98.6895C1877.34 97.7293 1874 96.9855 1870.48 96.5476C1866.09 84.1703 1849.16 74.9375 1828.9 74.9375C1818.68 74.9375 1809.32 77.2879 1801.96 81.2C1805.51 80.5748 1809.22 80.2134 1813.06 80.2134Z" fill="white"/>
<path d="M1994.73 126.243C1991.02 126.243 1987.43 126.388 1983.98 126.631C1980.93 117.121 1968.04 109.975 1952.59 109.975C1952 109.975 1951.41 110.012 1950.83 110.033C1949.92 98.249 1935.07 88.8711 1916.82 88.8711C1908.02 88.8711 1900.06 91.087 1894.02 94.6693C1896.28 94.3606 1898.59 94.147 1900.99 94.147C1919.23 94.147 1934.08 103.525 1934.99 115.309C1935.58 115.287 1936.16 115.251 1936.76 115.251C1952.21 115.251 1965.1 122.394 1968.14 131.906C1971.59 131.664 1975.18 131.519 1978.9 131.519C2003.65 131.519 2023.72 137.269 2023.72 144.36C2023.72 146.302 2022.17 148.138 2019.48 149.789C2031.57 147.489 2039.56 143.556 2039.56 139.084C2039.56 131.991 2019.49 126.243 1994.73 126.243Z" fill="white"/>
<path d="M1286.03 109.975C1293.76 109.975 1300.86 111.766 1306.39 114.75C1309.13 111.811 1312.68 109.234 1316.83 107.142C1312.36 105.593 1307.27 104.699 1301.86 104.699C1293.38 104.699 1285.69 106.87 1279.97 110.392C1281.93 110.144 1283.94 109.975 1286.03 109.975Z" fill="white"/>
<path d="M1308.88 146.128C1308.78 146.038 1308.66 145.959 1308.55 145.869C1308.34 146.009 1308.09 146.133 1307.87 146.27C1308.21 146.228 1308.55 146.178 1308.88 146.128Z" fill="white"/>
<path d="M1376.2 78.3208C1385.38 78.3208 1393.69 80.7028 1399.81 84.5569C1406.42 81.8213 1414.23 80.2148 1422.62 80.2148C1432.02 80.2148 1440.69 82.2249 1447.74 85.5883C1449.92 82.647 1452.55 79.8772 1455.53 77.292C1450.3 75.7883 1444.54 74.9389 1438.46 74.9389C1430.06 74.9389 1422.25 76.5454 1415.65 79.281C1409.52 75.4269 1401.21 73.0449 1392.04 73.0449C1383.27 73.0449 1375.3 75.2291 1369.26 78.7851C1371.5 78.4843 1373.82 78.3208 1376.2 78.3208Z" fill="white"/>
<path d="M1935.24 152.051C1929.89 159.753 1918.01 165.108 1904.24 165.108C1889.89 165.108 1877.64 159.305 1872.6 151.101C1869.34 151.629 1865.98 151.919 1862.5 151.919C1857.59 151.919 1852.93 151.365 1848.56 150.389C1838.53 163.789 1817.56 173.022 1793.21 173.022C1775.92 173.022 1760.27 168.353 1749.09 160.835C1741.9 169.646 1727.72 175.66 1711.34 175.66C1698.99 175.66 1687.88 172.205 1680.09 166.718C1666.4 180.224 1643 189.114 1616.4 189.114C1595.56 189.114 1576.69 183.653 1562.91 174.79C1552.36 180.277 1539.06 183.574 1524.53 183.574C1498.75 183.574 1476.71 173.233 1467.49 158.54C1462.65 157.511 1458.21 155.955 1454.29 153.95C1446.84 162.207 1433.16 167.746 1417.45 167.746C1398.86 167.746 1383.09 159.965 1377.23 149.123C1371.63 150.916 1365.36 151.919 1358.71 151.919C1344.62 151.919 1332.17 147.461 1324.38 140.602C1318.58 144.348 1310.63 146.643 1301.86 146.643C1295.94 146.643 1290.43 145.588 1285.68 143.768C1282.8 143.926 1268.05 142.5 1265.01 142.5C1254.37 142.5 1239.8 140.5 1235.6 136.5C1254.73 138.003 1288.18 135.959 1299.46 122.875C1320.9 136.487 1352.56 137.753 1375.46 125.856C1395.32 143.134 1430.47 146.247 1454.29 132.873C1473.22 143.214 1496.31 148.199 1518.92 146.775C1556.58 170.991 1614.69 169.672 1650.76 143.794C1672.9 158.276 1707.76 156.878 1728.1 140.655C1744.78 153.633 1774.08 152.868 1789.75 139.019C1811.57 149.413 1841.25 146.722 1859.9 132.662C1872.06 146.485 1898.57 149.439 1914.69 138.782C1919.47 145.034 1926.88 149.597 1935.24 152.051Z" fill="white"/>
<path d="M2052.23 109.976C2052.23 112.271 2049.5 114.329 2045.13 115.753C2041.17 117.072 2035.89 117.89 2030.06 117.89C2029.77 117.89 2029.52 117.89 2029.24 117.864C2017.36 117.732 2007.89 114.25 2007.89 109.976C2007.89 109 2008.37 108.077 2009.25 107.233C2010.96 105.597 2014.13 104.199 2018.21 103.302C2021.64 102.511 2025.69 102.062 2030.06 102.062C2042.31 102.063 2052.23 105.597 2052.23 109.976Z" fill="white"/>
<path d="M2052.23 109.976C2052.23 112.271 2049.5 114.329 2045.13 115.753C2043.42 112.403 2040.6 109.449 2036.99 107.391C2031.61 104.278 2024.61 103.197 2018.28 104.463L2018.21 103.302C2021.64 102.511 2025.69 102.062 2030.06 102.062C2042.31 102.063 2052.23 105.597 2052.23 109.976Z" fill="white"/>
<path d="M2029.24 117.865C2017.36 117.733 2007.89 114.251 2007.89 109.978C2007.89 109.002 2008.37 108.079 2009.25 107.234C2009.03 109.002 2010.01 110.901 2011.53 112.22C2013.5 113.908 2016.19 114.832 2018.88 115.597C2022.27 116.573 2025.72 117.338 2029.24 117.865Z" fill="white"/>
<path d="M1289.01 162.734C1289.01 165.029 1286.28 167.087 1281.91 168.511C1277.95 169.83 1272.67 170.648 1266.84 170.648C1266.55 170.648 1266.3 170.648 1266.01 170.622C1254.14 170.49 1244.67 167.008 1244.67 162.734C1244.67 161.758 1245.14 160.835 1246.03 159.991C1247.74 158.355 1250.91 156.957 1254.99 156.06C1258.41 155.269 1262.47 154.82 1266.84 154.82C1279.09 154.82 1289.01 158.355 1289.01 162.734Z" fill="white"/>
<path d="M1289.01 162.734C1289.01 165.029 1286.28 167.087 1281.91 168.511C1280.2 165.161 1277.38 162.207 1273.77 160.149C1268.39 157.036 1261.39 155.955 1255.06 157.221L1254.99 156.06C1258.41 155.269 1262.47 154.82 1266.84 154.82C1279.09 154.82 1289.01 158.355 1289.01 162.734Z" fill="white"/>
<path d="M1266.01 170.623C1254.14 170.491 1244.67 167.009 1244.67 162.736C1244.67 161.76 1245.14 160.836 1246.03 159.992C1245.81 161.76 1246.79 163.659 1248.31 164.978C1250.28 166.666 1252.97 167.589 1255.66 168.354C1259.05 169.33 1262.5 170.096 1266.01 170.623Z" fill="white"/>
<path d="M1349.18 84.8458C1349.18 86.7794 1346.07 88.5125 1341.07 89.7101C1336.55 90.8207 1330.5 91.5092 1323.84 91.5092C1323.52 91.5092 1323.23 91.5092 1322.9 91.4881C1309.33 91.3773 1298.51 88.4439 1298.51 84.8458C1298.51 84.0254 1299.05 83.2472 1300.06 82.5349C1302.02 81.1579 1305.64 79.9814 1310.3 79.2243C1314.21 78.5569 1318.85 78.1797 1323.84 78.1797C1337.85 78.1823 1349.18 81.1579 1349.18 84.8458Z" fill="white"/>
<path d="M1349.18 84.8458C1349.18 86.7794 1346.06 88.5125 1341.07 89.7101C1339.11 86.8902 1335.89 84.3999 1331.77 82.6695C1325.61 80.0473 1317.62 79.1373 1310.38 80.203L1310.3 79.2243C1314.21 78.5569 1318.85 78.1797 1323.84 78.1797C1337.85 78.1823 1349.18 81.1579 1349.18 84.8458Z" fill="white"/>
<path d="M1322.9 91.4883C1309.33 91.3775 1298.51 88.4442 1298.51 84.846C1298.51 84.0256 1299.05 83.2474 1300.06 82.5352C1299.81 84.023 1300.93 85.6242 1302.67 86.7348C1304.91 88.1566 1307.99 88.9348 1311.06 89.5784C1314.94 90.3988 1318.88 91.0425 1322.9 91.4883Z" fill="white"/>
<path d="M1526.52 43.9578C1526.52 45.5089 1524.02 46.8991 1520.02 47.8593C1516.39 48.7509 1511.54 49.3022 1506.2 49.3022C1505.94 49.3022 1505.71 49.3022 1505.45 49.2837C1494.56 49.194 1485.88 46.8436 1485.88 43.9551C1485.88 43.2956 1486.32 42.6731 1487.13 42.1033C1488.7 40.998 1491.6 40.0536 1495.35 39.4495C1498.48 38.914 1502.2 38.6133 1506.2 38.6133C1517.43 38.6133 1526.52 41.0006 1526.52 43.9578Z" fill="white"/>
<path d="M1526.52 43.9578C1526.52 45.5089 1524.03 46.8991 1520.02 47.8593C1518.45 45.5959 1515.87 43.6016 1512.56 42.2114C1507.63 40.109 1501.21 39.3782 1495.4 40.2329L1495.35 39.4495C1498.48 38.914 1502.2 38.6133 1506.2 38.6133C1517.44 38.6133 1526.52 41.0006 1526.52 43.9578Z" fill="white"/>
<path d="M1505.45 49.2859C1494.56 49.1962 1485.88 46.8458 1485.88 43.9573C1485.88 43.2978 1486.31 42.6753 1487.13 42.1055C1486.93 43.3005 1487.83 44.5824 1489.22 45.4741C1491.02 46.6137 1493.49 47.2389 1495.95 47.7559C1499.06 48.4101 1502.22 48.9271 1505.45 49.2859Z" fill="white"/>
<path d="M1962.19 77.872C1961.21 78.4523 1960.14 78.9008 1959 79.1646C1953.93 80.378 1948.51 79.0855 1943.48 77.8193C1940.63 83.8074 1931.06 86.8146 1924.16 83.8601C1920.49 82.3037 1917.38 79.2965 1913.27 79.2701C1910.1 79.2701 1907.37 81.0112 1904.49 82.04C1898.16 84.2559 1890.18 82.7258 1885.68 78.3996C1882.04 74.8912 1880.9 69.7735 1882.48 65.3682C1882.83 64.313 1883.34 63.3105 1884.03 62.3609C1887.84 57.1114 1895.56 55.898 1901.9 53.6557H1901.93C1901.99 53.6293 1902.09 53.6029 1902.15 53.5766C1909.37 50.965 1916.75 49.646 1924.29 52.4159C1931.44 55.0538 1936.8 60.8309 1938.03 67.2411C1944.02 64.0756 1951.62 63.0995 1958.49 64.6296C1961.62 65.3154 1964.82 66.7135 1966.15 69.1668C1966.28 69.4306 1966.37 69.668 1966.47 69.9318C1967.45 72.8599 1965.36 76.0518 1962.19 77.872Z" fill="white"/>
<path d="M1966.47 69.9318H1966.44C1964.6 69.7735 1962.86 69.1932 1961.08 68.7447C1954.02 66.9509 1946.17 67.3994 1939.49 69.9846C1938.79 70.2484 1938.03 70.5385 1937.3 70.3011C1936.38 69.9846 1936.19 69.0085 1936.03 68.1644C1935.11 63.2578 1931 58.9844 1925.84 56.4783C1920.67 53.9723 1914.53 53.1018 1908.58 53.1809C1906.33 53.2073 1904.11 53.3919 1901.93 53.6557C1901.99 53.6293 1902.08 53.6029 1902.15 53.5766C1909.37 50.965 1916.75 49.646 1924.28 52.4159C1931.44 55.0538 1936.79 60.8309 1938.03 67.2411C1944.01 64.0756 1951.61 63.0995 1958.49 64.6296C1961.62 65.3154 1964.82 66.7135 1966.15 69.1668C1966.28 69.4306 1966.37 69.668 1966.47 69.9318Z" fill="white"/>
<path d="M1962.19 77.871C1961.21 78.4514 1960.14 78.8998 1959 79.1636C1953.93 80.377 1948.51 79.0845 1943.48 77.8183C1940.63 83.8064 1931.06 86.8136 1924.16 83.8591C1920.49 82.3027 1917.38 79.2955 1913.27 79.2691C1910.1 79.2691 1907.37 81.0102 1904.49 82.039C1898.16 84.2549 1890.18 82.7249 1885.68 78.3986C1882.04 74.8902 1880.9 69.7726 1882.48 65.3672C1883.65 65.6837 1884.73 66.2113 1885.56 67.0027C1887.61 68.9548 1888.06 71.962 1890.59 73.4393C1892.65 74.6 1895.47 74.3626 1897.68 73.4657C1899.9 72.5688 1901.74 71.1179 1903.7 69.9045C1905.7 68.6646 1907.98 67.5831 1910.45 67.6095C1914.18 67.6358 1917.19 70.1419 1919.35 72.7007C1921.47 75.2858 1923.34 78.1876 1926.57 79.7703C1929.57 81.274 1933.6 81.3004 1936.67 79.8759C1939.74 78.425 1941.77 75.576 1941.8 72.6215C1947.44 76.4993 1954.94 78.3986 1962.19 77.871Z" fill="white"/>
<path d="M1387.54 206.226C1387.02 206.561 1386.48 206.861 1385.95 207.165C1380.51 209.911 1373.15 209.935 1367.72 207.133C1366.45 211.164 1362.52 214.554 1357.7 215.767C1352.88 216.954 1347.38 215.925 1343.64 213.124C1340.23 210.547 1338.12 206.542 1333.81 205.199C1328.76 203.606 1323.18 206.381 1317.81 205.946C1314.16 205.651 1310.73 203.693 1309.08 200.968C1308.85 200.602 1308.66 200.24 1308.51 199.858C1307.18 196.571 1308.52 192.632 1311.82 190.477C1319.27 185.626 1331.13 191.261 1339.38 187.889C1339.85 187.71 1340.3 187.499 1340.76 187.235C1344.23 185.275 1346.89 181.426 1351.02 181.867C1355.06 182.292 1357.64 186.845 1361.63 186.259C1364.88 185.8 1366.36 182.455 1368.94 181.002C1371.48 179.567 1375.5 178.635 1378.58 179.145C1384.61 180.165 1391.43 185.697 1393.31 190.417C1393.82 191.733 1394.09 193.112 1394.09 194.495C1394.2 198.95 1391.78 203.466 1387.54 206.226Z" fill="white"/>
<path d="M1394.1 194.488C1394 194.253 1393.9 194.042 1393.76 193.829C1391.94 190.771 1388.81 188.358 1385.25 186.646C1382.64 185.387 1379.62 184.453 1376.64 184.883C1373.41 185.374 1370.83 187.316 1368.21 188.925C1365.55 190.552 1362.24 191.948 1359.09 191.101C1355.29 190.046 1353.04 185.96 1349.02 186.028C1346.32 186.052 1344.1 188.089 1341.4 188.194C1340.71 188.223 1339.99 188.112 1339.38 187.885C1339.85 187.706 1340.3 187.495 1340.76 187.231C1344.23 185.271 1346.89 181.423 1351.02 181.863C1355.06 182.288 1357.64 186.841 1361.63 186.255C1364.88 185.796 1366.36 182.451 1368.94 180.998C1371.48 179.563 1375.5 178.632 1378.58 179.141C1384.61 180.162 1391.43 185.693 1393.31 190.413C1393.82 191.729 1394.09 193.106 1394.1 194.488Z" fill="white"/>
<path d="M1385.95 207.164C1380.51 209.91 1373.15 209.934 1367.72 207.133C1366.45 211.163 1362.52 214.553 1357.7 215.767C1352.88 216.954 1347.38 215.925 1343.64 213.123C1340.23 210.546 1338.12 206.542 1333.81 205.199C1328.76 203.606 1323.18 206.381 1317.81 205.945C1314.15 205.65 1310.73 203.693 1309.08 200.968C1310.81 201.274 1312.66 201.303 1314.42 201.152C1318.61 200.794 1322.68 199.625 1326.88 199.591C1331.47 199.551 1336.04 200.889 1339.58 203.355C1341.98 205.033 1343.85 207.18 1346.29 208.813C1348.73 210.472 1352.06 211.572 1355 210.699C1357.76 209.876 1359.41 207.565 1361.13 205.568C1362.82 203.566 1365.27 201.543 1368.2 201.754C1370.37 201.899 1372.11 203.26 1373.94 204.262C1376.39 205.626 1379.26 206.42 1382.21 206.579C1383.49 206.639 1384.86 206.631 1385.95 207.164Z" fill="white"/>
<path d="M744.675 128.072C744.675 135.168 727.951 140.919 707.349 140.919C698.96 140.919 691.257 139.969 685.031 138.36C681.233 139.996 676.88 140.919 672.237 140.919C667.463 140.919 663.005 139.943 659.153 138.228C658.784 139.204 658.336 140.154 657.782 141.051C653.323 148.754 643.431 154.109 631.956 154.109C620.006 154.109 609.797 148.305 605.603 140.101C602.886 140.629 600.09 140.919 597.188 140.919C593.099 140.919 589.221 140.365 585.581 139.389C577.219 152.79 559.756 162.022 539.47 162.022C525.067 162.022 512.035 157.353 502.723 149.835C496.735 158.646 484.917 164.66 471.279 164.66C460.991 164.66 451.732 161.205 445.242 155.718C433.847 169.224 414.352 178.114 392.193 178.114C374.836 178.114 359.114 172.653 347.639 163.79C338.854 169.277 327.775 172.574 315.667 172.574C294.194 172.574 275.834 162.234 268.157 147.54C264.121 146.511 260.428 144.955 257.157 142.95C250.958 151.207 239.562 156.747 226.478 156.747C210.993 156.747 197.856 148.965 192.976 138.123C188.307 139.917 183.084 140.919 177.544 140.919C165.805 140.919 155.438 136.461 148.949 129.602C144.121 133.348 137.5 135.643 130.193 135.643C125.26 135.643 120.67 134.588 116.713 132.768C114.313 132.926 111.859 133.005 109.327 133.005C100.463 133.005 92.3385 131.95 85.9547 130.182C77.4342 127.808 72 124.194 72 120.158C72 113.563 86.5087 108.129 105.159 107.417C108.931 99.4241 118.692 93.6998 130.193 93.6998C136.63 93.6998 142.539 95.4936 147.155 98.4744C153.301 90.5606 164.328 85.2319 176.964 85.0737C176.937 84.8099 176.911 84.5725 176.911 84.335C176.911 72.0158 189.626 62.0445 205.295 62.0445C212.945 62.0445 219.883 64.4186 224.974 68.27C230.488 65.5529 236.977 63.9438 243.967 63.9438C251.802 63.9438 259.03 65.9486 264.886 69.2988C275.174 52.627 296.964 41.0992 322.156 41.0992C322.921 41.0992 323.686 41.1255 324.451 41.1519C329.727 17.7798 355.711 0 387.023 0C418.81 0 445.137 18.3338 449.833 42.2599C466.135 45.0297 480.09 52.6797 489.085 63.1788C494.941 61.3586 501.325 60.3297 507.999 60.3297C522.112 60.3297 534.88 64.8142 544.165 72.0422C550.602 67.0301 559.439 63.9438 569.199 63.9438C586.082 63.9438 600.169 73.1766 603.836 85.5485C608.742 86.2872 613.279 87.7908 617.236 89.9011C621.985 82.7523 631.481 77.8721 642.429 77.8721C657.623 77.8721 669.995 87.2632 670.76 99.0284C671.261 99.002 671.736 98.9757 672.237 98.9757C685.111 98.9757 695.847 106.124 698.38 115.621C701.255 115.384 704.236 115.252 707.349 115.252C727.951 115.252 744.675 121.002 744.675 128.072Z" fill="white"/>
<path d="M373.823 5.28495C405.611 5.28495 431.948 23.6028 436.643 47.529C452.927 50.3015 466.89 57.9621 475.893 68.4664C481.752 66.6383 488.12 65.6041 494.81 65.6041C508.918 65.6041 521.688 70.0755 530.966 77.3087C534.358 74.6708 538.436 72.5815 542.952 71.1808C533.786 64.4699 521.524 60.3309 508 60.3309C501.313 60.3309 494.942 61.365 489.083 63.1931C480.077 52.6888 466.117 45.0256 449.833 42.2558C445.138 18.3323 418.8 0.0117188 387.013 0.0117188C374.048 0.0117188 362.021 3.09551 351.971 8.32919C358.787 6.36656 366.142 5.28495 373.823 5.28495Z" fill="white"/>
<path d="M155.225 91.2905C157.96 90.7207 160.812 90.3778 163.766 90.3409C163.756 90.0982 163.719 89.8608 163.719 89.6155C163.719 88.8003 163.782 87.9984 163.89 87.207C160.738 88.2358 157.839 89.626 155.225 91.2905Z" fill="white"/>
<path d="M75.5039 114.756C80.3234 113.653 85.9159 112.92 91.9594 112.688C92.6927 111.131 93.7136 109.696 94.869 108.338C86.3195 109.575 79.4133 111.875 75.5039 114.756Z" fill="white"/>
<path d="M312.663 41.668C303.274 42.7706 294.572 45.4983 286.998 49.4578C293.844 47.4794 301.238 46.3873 308.959 46.3873C309.727 46.3873 310.489 46.411 311.251 46.4321C311.618 44.8124 312.106 43.2296 312.663 41.668Z" fill="white"/>
<path d="M556.012 69.2134C572.889 69.2134 586.992 78.4462 590.65 90.8235C595.546 91.5515 600.089 93.0578 604.054 95.1866C606.014 92.2268 608.823 89.6865 612.184 87.6895C609.554 86.7293 606.771 85.9855 603.84 85.5476C600.181 73.1703 586.079 63.9375 569.201 63.9375C560.691 63.9375 552.888 66.2879 546.766 70.2C549.717 69.5748 552.807 69.2134 556.012 69.2134Z" fill="white"/>
<path d="M707.333 115.243C704.238 115.243 701.249 115.388 698.374 115.631C695.836 106.121 685.097 98.9746 672.232 98.9746C671.736 98.9746 671.251 99.0116 670.763 99.0327C670.006 87.249 657.634 77.8711 642.439 77.8711C635.108 77.8711 628.477 80.087 623.443 83.6693C625.324 83.3606 627.25 83.147 629.249 83.147C644.447 83.147 656.816 92.5249 657.573 104.309C658.064 104.287 658.546 104.251 659.042 104.251C671.91 104.251 682.649 111.394 685.184 120.906C688.06 120.664 691.049 120.519 694.143 120.519C714.764 120.519 731.483 126.269 731.483 133.36C731.483 135.302 730.193 137.138 727.948 138.789C738.022 136.489 744.673 132.556 744.673 128.084C744.673 120.991 727.953 115.243 707.333 115.243Z" fill="white"/>
<path d="M117.001 98.9751C123.443 98.9751 129.355 100.766 133.969 103.75C136.251 100.811 139.208 98.2338 142.661 96.1419C138.936 94.5935 134.699 93.6992 130.191 93.6992C123.124 93.6992 116.724 95.8702 111.955 99.3919C113.593 99.1439 115.268 98.9751 117.001 98.9751Z" fill="white"/>
<path d="M136.041 135.128C135.954 135.038 135.853 134.959 135.766 134.869C135.587 135.009 135.384 135.133 135.199 135.27C135.481 135.228 135.761 135.178 136.041 135.128Z" fill="white"/>
<path d="M192.115 67.3189C199.757 67.3189 206.679 69.7009 211.784 73.5549C217.286 70.8194 223.789 69.2129 230.785 69.2129C238.614 69.2129 245.832 71.2229 251.709 74.5863C253.521 71.645 255.708 68.8752 258.19 66.29C253.838 64.7864 249.039 63.937 243.974 63.937C236.979 63.937 230.476 65.5435 224.973 68.279C219.869 64.425 212.947 62.043 205.305 62.043C198 62.043 191.363 64.2272 186.33 67.7831C188.198 67.4824 190.131 67.3189 192.115 67.3189Z" fill="white"/>
<path d="M657.782 141.051C653.324 148.753 643.432 154.108 631.956 154.108C620.007 154.108 609.798 148.305 605.603 140.101C602.886 140.629 600.09 140.919 597.188 140.919C593.1 140.919 589.222 140.365 585.581 139.389C577.219 152.789 559.756 162.022 539.47 162.022C525.067 162.022 512.036 157.353 502.724 149.835C496.736 158.646 484.918 164.66 471.279 164.66C460.991 164.66 451.732 161.205 445.243 155.718C433.847 169.224 414.353 178.114 392.194 178.114C374.836 178.114 359.114 172.653 347.639 163.79C338.855 169.277 327.775 172.574 315.667 172.574C294.194 172.574 275.834 162.233 268.158 147.54C264.122 146.511 260.429 144.955 257.158 142.95C250.958 151.207 239.562 156.746 226.478 156.746C210.994 156.746 197.857 148.965 192.976 138.123C188.307 139.916 183.084 140.919 177.544 140.919C165.806 140.919 155.438 136.461 148.949 129.602C144.122 133.348 137.5 135.643 130.193 135.643C125.26 135.643 120.67 134.588 116.713 132.768C114.313 132.926 102.032 131.5 99.5 131.5C90.6365 131.5 78.5 129.5 75 125.5C90.9332 127.003 118.797 124.959 128.189 111.875C146.047 125.487 172.427 126.753 191.499 114.856C208.039 132.134 237.32 135.247 257.158 121.873C272.932 132.214 292.163 137.199 310.998 135.775C342.363 159.991 390.769 158.672 420.816 132.794C439.255 147.276 468.299 145.878 485.234 129.655C499.136 142.633 523.537 141.868 536.595 128.019C554.77 138.413 579.488 135.722 595.025 121.662C605.155 135.485 627.235 138.439 640.662 127.782C644.645 134.034 650.818 138.597 657.782 141.051Z" fill="white"/>
<path d="M1326.68 138.072C1326.68 145.168 1309.95 150.919 1289.35 150.919C1280.96 150.919 1273.26 149.969 1267.03 148.36C1263.23 149.996 1258.88 150.919 1254.24 150.919C1249.46 150.919 1245 149.943 1241.15 148.228C1240.78 149.204 1240.34 150.154 1239.78 151.051C1235.32 158.754 1225.43 164.109 1213.96 164.109C1202.01 164.109 1191.8 158.305 1187.6 150.101C1184.89 150.629 1182.09 150.919 1179.19 150.919C1175.1 150.919 1171.22 150.365 1167.58 149.389C1159.22 162.79 1141.76 172.022 1121.47 172.022C1107.07 172.022 1094.04 167.353 1084.72 159.835C1078.74 168.646 1066.92 174.66 1053.28 174.66C1042.99 174.66 1033.73 171.205 1027.24 165.718C1015.85 179.224 996.352 188.114 974.193 188.114C956.836 188.114 941.114 182.653 929.639 173.79C920.854 179.277 909.775 182.574 897.667 182.574C876.194 182.574 857.834 172.234 850.157 157.54C846.121 156.511 842.428 154.955 839.157 152.95C832.958 161.207 821.562 166.747 808.478 166.747C792.993 166.747 779.856 158.965 774.976 148.123C770.307 149.917 765.084 150.919 759.544 150.919C747.805 150.919 737.438 146.461 730.949 139.602C726.121 143.348 719.5 145.643 712.193 145.643C707.26 145.643 702.67 144.588 698.713 142.768C696.313 142.926 693.859 143.005 691.327 143.005C682.463 143.005 674.339 141.95 667.955 140.182C659.434 137.808 654 134.194 654 130.158C654 123.563 668.509 118.129 687.159 117.417C690.931 109.424 700.692 103.7 712.193 103.7C718.63 103.7 724.539 105.494 729.155 108.474C735.301 100.561 746.328 95.2319 758.964 95.0737C758.937 94.8099 758.911 94.5725 758.911 94.335C758.911 82.0158 771.626 72.0445 787.295 72.0445C794.945 72.0445 801.883 74.4186 806.974 78.27C812.488 75.5529 818.977 73.9438 825.967 73.9438C833.802 73.9438 841.03 75.9486 846.886 79.2988C857.174 62.627 878.964 51.0992 904.156 51.0992C904.921 51.0992 905.686 51.1255 906.451 51.1519C911.727 27.7798 937.711 10 969.023 10C1000.81 10 1027.14 28.3338 1031.83 52.2599C1048.14 55.0297 1062.09 62.6797 1071.09 73.1788C1076.94 71.3586 1083.33 70.3297 1090 70.3297C1104.11 70.3297 1116.88 74.8142 1126.17 82.0422C1132.6 77.0301 1141.44 73.9438 1151.2 73.9438C1168.08 73.9438 1182.17 83.1766 1185.84 95.5485C1190.74 96.2872 1195.28 97.7908 1199.24 99.9011C1203.98 92.7523 1213.48 87.8721 1224.43 87.8721C1239.62 87.8721 1252 97.2632 1252.76 109.028C1253.26 109.002 1253.74 108.976 1254.24 108.976C1267.11 108.976 1277.85 116.124 1280.38 125.621C1283.25 125.384 1286.24 125.252 1289.35 125.252C1309.95 125.252 1326.68 131.002 1326.68 138.072Z" fill="white"/>
<path d="M967.49 15.2849C1000.51 15.2849 1027.86 33.6028 1032.74 57.529C1049.65 60.3015 1064.15 67.9621 1073.51 78.4664C1079.59 76.6383 1086.2 75.6041 1093.15 75.6041C1107.81 75.6041 1121.07 80.0755 1130.71 87.3087C1134.23 84.6708 1138.47 82.5815 1143.16 81.1808C1133.64 74.4699 1120.9 70.3309 1106.85 70.3309C1099.91 70.3309 1093.29 71.365 1087.2 73.1931C1077.85 62.6888 1063.35 55.0256 1046.44 52.2558C1041.56 28.3323 1014.21 10.0117 981.19 10.0117C967.723 10.0117 955.232 13.0955 944.793 18.3292C951.873 16.3666 959.512 15.2849 967.49 15.2849Z" fill="white"/>
<path d="M740.443 101.29C743.285 100.721 746.246 100.378 749.315 100.341C749.304 100.098 749.266 99.8608 749.266 99.6155C749.266 98.8003 749.332 97.9984 749.444 97.207C746.17 98.2358 743.159 99.626 740.443 101.29Z" fill="white"/>
<path d="M657.641 124.756C662.646 123.653 668.455 122.92 674.732 122.688C675.494 121.131 676.554 119.696 677.754 118.338C668.874 119.575 661.701 121.875 657.641 124.756Z" fill="white"/>
<path d="M903.967 51.668C894.216 52.7706 885.177 55.4983 877.311 59.4578C884.421 57.4794 892.101 56.3873 900.12 56.3873C900.918 56.3873 901.709 56.411 902.501 56.4321C902.882 54.8124 903.389 53.2296 903.967 51.668Z" fill="white"/>
<path d="M1156.72 79.2114C1174.25 79.2114 1188.9 88.4443 1192.7 100.822C1197.78 101.55 1202.5 103.056 1206.62 105.185C1208.66 102.225 1211.57 99.6845 1215.06 97.6876C1212.33 96.7274 1209.44 95.9835 1206.4 95.5456C1202.6 83.1684 1187.95 73.9355 1170.42 73.9355C1161.58 73.9355 1153.48 76.2859 1147.12 80.198C1150.18 79.5728 1153.39 79.2114 1156.72 79.2114Z" fill="white"/>
<path d="M1313.89 125.243C1310.68 125.243 1307.57 125.388 1304.58 125.631C1301.95 116.121 1290.79 108.975 1277.43 108.975C1276.92 108.975 1276.41 109.012 1275.91 109.033C1275.12 97.249 1262.27 87.8711 1246.49 87.8711C1238.87 87.8711 1231.99 90.087 1226.76 93.6693C1228.71 93.3606 1230.71 93.147 1232.79 93.147C1248.57 93.147 1261.42 102.525 1262.21 114.309C1262.72 114.287 1263.22 114.251 1263.73 114.251C1277.1 114.251 1288.25 121.394 1290.89 130.906C1293.87 130.664 1296.98 130.519 1300.19 130.519C1321.61 130.519 1338.97 136.269 1338.97 143.36C1338.97 145.302 1337.63 147.138 1335.3 148.789C1345.77 146.489 1352.67 142.556 1352.67 138.084C1352.67 130.991 1335.31 125.243 1313.89 125.243Z" fill="white"/>
<path d="M700.741 108.975C707.432 108.975 713.572 110.766 718.364 113.75C720.735 110.811 723.806 108.234 727.392 106.142C723.524 104.593 719.123 103.699 714.441 103.699C707.101 103.699 700.454 105.87 695.5 109.392C697.201 109.144 698.941 108.975 700.741 108.975Z" fill="white"/>
<path d="M720.519 145.128C720.428 145.038 720.324 144.959 720.234 144.869C720.047 145.009 719.836 145.133 719.645 145.27C719.938 145.228 720.228 145.178 720.519 145.128Z" fill="white"/>
<path d="M778.759 77.3189C786.696 77.3189 793.886 79.7009 799.187 83.5549C804.903 80.8194 811.657 79.2129 818.923 79.2129C827.055 79.2129 834.551 81.2229 840.656 84.5863C842.538 81.645 844.809 78.8752 847.388 76.29C842.867 74.7864 837.883 73.937 832.622 73.937C825.356 73.937 818.602 75.5435 812.887 78.279C807.585 74.425 800.396 72.043 792.458 72.043C784.871 72.043 777.978 74.2272 772.75 77.7831C774.69 77.4824 776.698 77.3189 778.759 77.3189Z" fill="white"/>
<path d="M1262.42 151.051C1257.79 158.753 1247.52 164.108 1235.6 164.108C1223.19 164.108 1212.58 158.305 1208.23 150.101C1205.41 150.629 1202.5 150.919 1199.49 150.919C1195.24 150.919 1191.21 150.365 1187.43 149.389C1178.75 162.789 1160.61 172.022 1139.54 172.022C1124.58 172.022 1111.04 167.353 1101.37 159.835C1095.15 168.646 1082.88 174.66 1068.71 174.66C1058.03 174.66 1048.41 171.205 1041.67 165.718C1029.83 179.224 1009.58 188.114 986.569 188.114C968.541 188.114 952.211 182.653 940.292 173.79C931.168 179.277 919.661 182.574 907.085 182.574C884.782 182.574 865.712 172.233 857.739 157.54C853.547 156.511 849.711 154.955 846.313 152.95C839.875 161.207 828.038 166.746 814.448 166.746C798.365 166.746 784.72 158.965 779.652 148.123C774.802 149.916 769.377 150.919 763.623 150.919C751.431 150.919 740.663 146.461 733.923 139.602C728.909 143.348 722.031 145.643 714.442 145.643C709.318 145.643 704.551 144.588 700.441 142.768C697.948 142.926 685.193 141.5 682.562 141.5C673.356 141.5 660.751 139.5 657.115 135.5C673.664 137.003 702.606 134.959 712.36 121.875C730.909 135.487 758.308 136.753 778.117 124.856C795.296 142.134 825.709 145.247 846.313 131.873C862.698 142.214 882.672 147.199 902.235 145.775C934.812 169.991 985.09 168.672 1016.3 142.794C1035.45 157.276 1065.62 155.878 1083.21 139.655C1097.64 152.633 1122.99 151.868 1136.55 138.019C1155.43 148.413 1181.1 145.722 1197.24 131.662C1207.76 145.485 1230.69 148.439 1244.64 137.782C1248.78 144.034 1255.19 148.597 1262.42 151.051Z" fill="white"/>
<path d="M725.226 123.976C725.226 126.271 722.958 128.329 719.317 129.753C716.02 131.072 711.614 131.89 706.761 131.89C706.523 131.89 706.312 131.89 706.075 131.864C696.182 131.732 688.295 128.25 688.295 123.976C688.295 123 688.691 122.077 689.429 121.233C690.854 119.597 693.492 118.199 696.895 117.302C699.744 116.511 703.12 116.062 706.761 116.062C716.969 116.063 725.226 119.597 725.226 123.976Z" fill="white"/>
<path d="M725.226 123.976C725.226 126.271 722.957 128.329 719.317 129.753C717.893 126.403 715.545 123.449 712.538 121.391C708.053 118.278 702.223 117.197 696.947 118.463L696.895 117.302C699.744 116.511 703.12 116.062 706.76 116.062C716.969 116.063 725.226 119.597 725.226 123.976Z" fill="white"/>
<path d="M706.075 131.865C696.182 131.733 688.295 128.251 688.295 123.978C688.295 123.002 688.691 122.079 689.429 121.234C689.245 123.002 690.062 124.901 691.329 126.22C692.964 127.908 695.206 128.832 697.449 129.597C700.271 130.573 703.147 131.338 706.075 131.865Z" fill="white"/>
<path d="M89.4839 176.734C89.4839 179.029 87.2153 181.087 83.5749 182.511C80.2775 183.83 75.8721 184.648 71.0183 184.648C70.7809 184.648 70.5699 184.648 70.3325 184.622C60.4402 184.49 52.5527 181.008 52.5527 176.734C52.5527 175.758 52.9484 174.835 53.687 173.991C55.1115 172.355 57.7495 170.957 61.1524 170.06C64.0014 169.269 67.378 168.82 71.0183 168.82C81.2272 168.82 89.4839 172.355 89.4839 176.734Z" fill="white"/>
<path d="M89.4839 176.734C89.4839 179.029 87.2152 181.087 83.5749 182.511C82.1504 179.161 79.8026 176.207 76.7953 174.149C72.3108 171.036 66.481 169.955 61.2051 171.221L61.1523 170.06C64.0013 169.269 67.3779 168.82 71.0183 168.82C81.2271 168.82 89.4839 172.355 89.4839 176.734Z" fill="white"/>
<path d="M70.3325 184.623C60.4402 184.491 52.5527 181.009 52.5527 176.736C52.5527 175.76 52.9484 174.836 53.687 173.992C53.5024 175.76 54.3202 177.659 55.5864 178.978C57.2219 180.666 59.4641 181.589 61.7064 182.354C64.529 183.33 67.4044 184.096 70.3325 184.623Z" fill="white"/>
<path d="M139.604 98.8458C139.604 100.779 137.01 102.513 132.85 103.71C129.081 104.821 124.048 105.509 118.5 105.509C118.228 105.509 117.988 105.509 117.717 105.488C106.41 105.377 97.3965 102.444 97.3965 98.8458C97.3965 98.0254 97.8476 97.2472 98.6917 96.5349C100.319 95.1579 103.334 93.9814 107.223 93.2243C110.478 92.5569 114.337 92.1797 118.497 92.1797C130.168 92.1823 139.604 95.1579 139.604 98.8458Z" fill="white"/>
<path d="M139.603 98.8458C139.603 100.779 137.01 102.513 132.85 103.71C131.222 100.89 128.539 98.3999 125.102 96.6695C119.976 94.0473 113.316 93.1373 107.285 94.203L107.225 93.2243C110.48 92.5569 114.339 92.1797 118.499 92.1797C130.167 92.1823 139.603 95.1579 139.603 98.8458Z" fill="white"/>
<path d="M117.717 105.488C106.41 105.377 97.3965 102.444 97.3965 98.846C97.3965 98.0256 97.8476 97.2474 98.6917 96.5352C98.4807 98.023 99.4145 99.6242 100.863 100.735C102.733 102.157 105.294 102.935 107.856 103.578C111.082 104.399 114.369 105.042 117.717 105.488Z" fill="white"/>
<path d="M287.327 57.9578C287.327 59.5089 285.248 60.8991 281.911 61.8593C278.888 62.7509 274.849 63.3022 270.402 63.3022C270.183 63.3022 269.99 63.3022 269.774 63.2837C260.705 63.194 253.477 60.8436 253.477 57.9551C253.477 57.2956 253.838 56.6731 254.516 56.1033C255.822 54.998 258.241 54.0536 261.359 53.4495C263.97 52.914 267.067 52.6133 270.402 52.6133C279.758 52.6133 287.327 55.0006 287.327 57.9578Z" fill="white"/>
<path d="M287.329 57.9578C287.329 59.5089 285.251 60.8991 281.914 61.8593C280.608 59.5959 278.455 57.6016 275.699 56.2114C271.589 54.109 266.244 53.3782 261.409 54.2329L261.361 53.4495C263.973 52.914 267.07 52.6133 270.404 52.6133C279.761 52.6133 287.329 55.0006 287.329 57.9578Z" fill="white"/>
<path d="M269.772 63.2859C260.703 63.1962 253.475 60.8458 253.475 57.9573C253.475 57.2978 253.836 56.6753 254.514 56.1055C254.345 57.3005 255.094 58.5824 256.255 59.4741C257.753 60.6137 259.811 61.2389 261.866 61.7559C264.451 62.4101 267.086 62.9271 269.772 63.2859Z" fill="white"/>
<path d="M650.231 91.872C649.413 92.4523 648.516 92.9008 647.566 93.1646C643.346 94.378 638.835 93.0855 634.64 91.8193C632.266 97.8074 624.3 100.815 618.549 97.8601C615.489 96.3037 612.904 93.2965 609.474 93.2701C606.837 93.2701 604.568 95.0112 602.167 96.04C596.891 98.2559 590.244 96.7258 586.498 92.3996C583.464 88.8912 582.515 83.7735 583.834 79.3682C584.124 78.313 584.546 77.3105 585.126 76.3609C588.292 71.1114 594.728 69.898 600.004 67.6557H600.031C600.083 67.6293 600.163 67.6029 600.215 67.5766C606.23 64.965 612.376 63.646 618.655 66.4159C624.616 69.0538 629.074 74.8309 630.103 81.2411C635.089 78.0756 641.42 77.0995 647.144 78.6296C649.756 79.3154 652.42 80.7135 653.528 83.1668C653.634 83.4306 653.713 83.668 653.792 83.9318C654.61 86.8599 652.869 90.0518 650.231 91.872Z" fill="white"/>
<path d="M653.791 83.9318H653.764C652.234 83.7735 650.783 83.1932 649.306 82.7447C643.423 80.9509 636.881 81.3994 631.315 83.9846C630.735 84.2484 630.102 84.5385 629.495 84.3011C628.73 83.9846 628.572 83.0085 628.44 82.1644C627.675 77.2578 624.246 72.9844 619.946 70.4783C615.646 67.9723 610.528 67.1018 605.569 67.1809C603.696 67.2073 601.849 67.3919 600.029 67.6557C600.082 67.6293 600.161 67.6029 600.214 67.5766C606.228 64.965 612.375 63.646 618.653 66.4159C624.615 69.0538 629.073 74.8309 630.102 81.2411C635.088 78.0756 641.419 77.0995 647.143 78.6296C649.755 79.3154 652.419 80.7135 653.527 83.1668C653.632 83.4306 653.711 83.668 653.791 83.9318Z" fill="white"/>
<path d="M650.231 91.871C649.413 92.4514 648.516 92.8998 647.566 93.1636C643.346 94.377 638.835 93.0845 634.64 91.8183C632.266 97.8064 624.3 100.814 618.549 97.8591C615.489 96.3027 612.904 93.2955 609.474 93.2691C606.837 93.2691 604.568 95.0102 602.167 96.039C596.891 98.2549 590.244 96.7249 586.498 92.3986C583.464 88.8902 582.515 83.7726 583.834 79.3672C584.81 79.6837 585.707 80.2113 586.392 81.0027C588.107 82.9548 588.476 85.962 590.587 87.4393C592.301 88.6 594.649 88.3626 596.496 87.4657C598.342 86.5688 599.872 85.1179 601.508 83.9045C603.17 82.6646 605.069 81.5831 607.127 81.6095C610.239 81.6358 612.746 84.1419 614.539 86.7007C616.307 89.2858 617.863 92.1876 620.554 93.7703C623.06 95.274 626.41 95.3004 628.969 93.8759C631.528 92.425 633.216 89.576 633.242 86.6215C637.938 90.4993 644.19 92.3986 650.231 91.871Z" fill="white"/>
<path d="M704.109 183.392C704.575 183.291 705.059 183.22 705.542 183.147C710.403 182.628 716.721 184.482 721.193 187.803C722.568 185.336 726.179 183.988 730.403 184.374C734.62 184.776 739.274 186.887 742.294 189.778C745.048 192.431 746.584 195.74 750.193 197.766C754.422 200.154 759.405 199.651 763.989 201.318C767.108 202.452 769.916 204.678 771.145 206.985C771.313 207.296 771.451 207.595 771.558 207.899C772.476 210.514 771.045 212.898 768.067 213.553C761.331 215.017 751.529 208.099 744.215 208.337C743.797 208.341 743.396 208.373 742.981 208.438C739.867 208.913 737.318 210.903 733.798 209.547C730.354 208.224 728.457 204.417 724.983 203.806C722.16 203.297 720.661 205.238 718.346 205.589C716.063 205.936 712.541 205.557 709.931 204.422C704.828 202.183 699.35 196.618 698.063 192.873C697.713 191.831 697.577 190.807 697.667 189.848C697.885 186.736 700.275 184.224 704.109 183.392Z" fill="white"/>
<path d="M697.664 196.29C697.731 196.457 697.805 196.612 697.905 196.775C699.232 199.08 701.719 201.293 704.611 203.171C706.733 204.551 709.229 205.827 711.782 206.252C714.545 206.697 716.868 206.099 719.199 205.715C721.564 205.328 724.463 205.235 727.067 206.485C730.213 208.016 731.834 211.055 735.241 211.943C737.532 212.555 739.553 211.814 741.842 212.374C742.428 212.516 743.029 212.75 743.536 213.033C743.124 213.035 742.729 213.06 742.319 213.116C739.247 213.52 736.731 215.276 733.263 214.047C729.868 212.849 728.004 209.447 724.58 208.883C721.797 208.413 720.316 210.132 718.033 210.43C715.78 210.725 712.308 210.367 709.737 209.34C704.708 207.316 699.317 202.328 698.054 198.985C697.709 198.055 697.576 197.144 697.664 196.29Z" fill="white"/>
<path d="M706.955 180.97C711.72 180.593 717.906 182.178 722.279 184.95C723.634 182.938 727.176 181.867 731.315 182.226C735.446 182.598 740.001 184.378 742.951 186.782C745.642 188.988 747.137 191.721 750.668 193.421C754.805 195.424 759.689 195.06 764.176 196.475C767.23 197.437 769.975 199.294 771.172 201.2C769.734 200.649 768.186 200.232 766.692 199.934C763.14 199.226 759.641 199.006 756.107 198.113C752.242 197.137 748.492 195.384 745.684 193.213C743.787 191.739 742.357 190.112 740.421 188.654C738.488 187.182 735.76 185.832 733.227 185.689C730.847 185.557 729.301 186.511 727.712 187.271C726.15 188.04 723.953 188.658 721.501 187.9C719.687 187.346 718.322 186.196 716.847 185.227C714.881 183.92 712.526 182.846 710.057 182.115C708.982 181.802 707.831 181.509 706.955 180.97Z" fill="white"/>
</svg>
