<svg width="378" height="74" viewBox="0 0 378 74" fill="none" xmlns="http://www.w3.org/2000/svg">
<mask id="path-1-inside-1_462_943" fill="white">
<path fill-rule="evenodd" clip-rule="evenodd" d="M37.0781 2.21533H71.5774L75.0959 7.71533L78.4784 2.21533H341.253H343.759V2.30458C361.685 3.58581 375.829 18.5025 375.829 36.7153C375.829 43.8818 373.639 50.538 369.891 56.0539L357.789 55.2153L363.087 63.4675C357.74 67.818 351.063 70.604 343.759 71.1261V71.2153H341.253H37.0781V71.2119C36.9113 71.2142 36.7442 71.2154 36.5767 71.2154C25.1648 71.2154 15.044 65.6991 8.74683 57.1931L12.0215 51.7153L3.0168 45.0542C2.35253 42.3839 2 39.5907 2 36.7154C2 17.6616 17.4805 2.21544 36.5767 2.21544C36.7442 2.21544 36.9113 2.21663 37.0781 2.21899V2.21533Z"/>
</mask>
<path fill-rule="evenodd" clip-rule="evenodd" d="M37.0781 2.21533H71.5774L75.0959 7.71533L78.4784 2.21533H341.253H343.759V2.30458C361.685 3.58581 375.829 18.5025 375.829 36.7153C375.829 43.8818 373.639 50.538 369.891 56.0539L357.789 55.2153L363.087 63.4675C357.74 67.818 351.063 70.604 343.759 71.1261V71.2153H341.253H37.0781V71.2119C36.9113 71.2142 36.7442 71.2154 36.5767 71.2154C25.1648 71.2154 15.044 65.6991 8.74683 57.1931L12.0215 51.7153L3.0168 45.0542C2.35253 42.3839 2 39.5907 2 36.7154C2 17.6616 17.4805 2.21544 36.5767 2.21544C36.7442 2.21544 36.9113 2.21663 37.0781 2.21899V2.21533Z" fill="url(#paint0_linear_462_943)"/>
<path d="M71.5774 2.21533L73.2622 1.13756L72.6722 0.215332H71.5774V2.21533ZM37.0781 2.21533V0.215332H35.0781V2.21533H37.0781ZM75.0959 7.71533L73.4111 8.7931L75.1292 11.4789L76.7995 8.76305L75.0959 7.71533ZM78.4784 2.21533V0.215332H77.3604L76.7748 1.16761L78.4784 2.21533ZM343.759 2.21533H345.759V0.215332H343.759V2.21533ZM343.759 2.30458H341.759V4.16674L343.616 4.29949L343.759 2.30458ZM369.891 56.0539L369.752 58.0491L370.899 58.1285L371.545 57.178L369.891 56.0539ZM357.789 55.2153L357.927 53.2201L353.955 52.9448L356.106 56.2959L357.789 55.2153ZM363.087 63.4675L364.35 65.0189L365.736 63.891L364.77 62.387L363.087 63.4675ZM343.759 71.1261L343.616 69.1312L341.759 69.2639V71.1261H343.759ZM343.759 71.2153V73.2153H345.759V71.2153H343.759ZM37.0781 71.2153H35.0781V73.2153H37.0781V71.2153ZM37.0781 71.2119H39.0781V69.1833L37.0498 69.2121L37.0781 71.2119ZM8.74683 57.1931L7.0302 56.1669L6.34597 57.3114L7.1394 58.3831L8.74683 57.1931ZM12.0215 51.7153L13.7382 52.7416L14.6684 51.1856L13.211 50.1074L12.0215 51.7153ZM3.0168 45.0542L1.07596 45.537L1.24949 46.2346L1.8274 46.6621L3.0168 45.0542ZM37.0781 2.21899L37.0498 4.21879L39.0781 4.24756V2.21899H37.0781ZM71.5774 0.215332H37.0781V4.21533H71.5774V0.215332ZM76.7806 6.63756L73.2622 1.13756L69.8927 3.2931L73.4111 8.7931L76.7806 6.63756ZM76.7748 1.16761L73.3923 6.66761L76.7995 8.76305L80.182 3.26305L76.7748 1.16761ZM341.253 0.215332H78.4784V4.21533H341.253V0.215332ZM343.759 0.215332H341.253V4.21533H343.759V0.215332ZM345.759 2.30458V2.21533H341.759V2.30458H345.759ZM377.829 36.7153C377.829 17.4419 362.863 1.66489 343.901 0.309668L343.616 4.29949C360.507 5.50673 373.829 19.563 373.829 36.7153H377.829ZM371.545 57.178C375.512 51.3413 377.829 44.2955 377.829 36.7153H373.829C373.829 43.4681 371.767 49.7347 368.237 54.9297L371.545 57.178ZM357.651 57.2105L369.752 58.0491L370.029 54.0586L357.927 53.2201L357.651 57.2105ZM364.77 62.387L359.472 54.1348L356.106 56.2959L361.404 64.5481L364.77 62.387ZM343.901 73.121C351.629 72.5687 358.694 69.6203 364.35 65.0189L361.825 61.9161C356.786 66.0157 350.498 68.6393 343.616 69.1312L343.901 73.121ZM345.759 71.2153V71.1261H341.759V71.2153H345.759ZM341.253 73.2153H343.759V69.2153H341.253V73.2153ZM37.0781 73.2153H341.253V69.2153H37.0781V73.2153ZM35.0781 71.2119V71.2153H39.0781V71.2119H35.0781ZM36.5767 73.2154C36.7536 73.2154 36.9302 73.2142 37.1065 73.2117L37.0498 69.2121C36.8924 69.2143 36.7347 69.2154 36.5767 69.2154V73.2154ZM7.1394 58.3831C13.7982 67.3776 24.5051 73.2154 36.5767 73.2154V69.2154C25.8244 69.2154 16.2899 64.0207 10.3543 56.0031L7.1394 58.3831ZM10.3049 50.6891L7.0302 56.1669L10.4635 58.2193L13.7382 52.7416L10.3049 50.6891ZM1.8274 46.6621L10.8321 53.3232L13.211 50.1074L4.20621 43.4463L1.8274 46.6621ZM0 36.7154C0 39.7548 0.372706 42.7101 1.07596 45.537L4.95765 44.5714C4.33235 42.0578 4 39.4267 4 36.7154H0ZM36.5767 0.215441C16.3802 0.215441 0 16.5529 0 36.7154H4C4 18.7704 18.5809 4.21544 36.5767 4.21544V0.215441ZM37.1065 0.219195C36.9302 0.216695 36.7536 0.215441 36.5767 0.215441V4.21544C36.7347 4.21544 36.8924 4.21656 37.0498 4.21879L37.1065 0.219195ZM35.0781 2.21533V2.21899H39.0781V2.21533H35.0781Z" fill="#70320D" fill-opacity="0.1" mask="url(#path-1-inside-1_462_943)"/>
<mask id="path-3-outside-2_462_943" maskUnits="userSpaceOnUse" x="0" y="0.215332" width="378" height="74" fill="black">
<rect fill="white" y="0.215332" width="378" height="74"/>
<path fill-rule="evenodd" clip-rule="evenodd" d="M37 2.21533H71.5774L75.0959 7.71533L78.4784 2.21533H340V2.23755C340.416 2.22278 340.833 2.21533 341.253 2.21533C360.349 2.21533 375.829 17.6615 375.829 36.7153C375.829 43.8818 373.639 50.538 369.891 56.0539L357.789 55.2153L363.087 63.4675C357.134 68.311 349.533 71.2153 341.253 71.2153C340.833 71.2153 340.416 71.2079 340 71.1931V71.2153H37V71.2129C36.8591 71.2146 36.718 71.2154 36.5767 71.2154C25.1648 71.2154 15.044 65.6991 8.74683 57.1931L12.0215 51.7153L3.0168 45.0542C2.35253 42.3839 2 39.5907 2 36.7154C2 17.6616 17.4805 2.21544 36.5767 2.21544C36.718 2.21544 36.8591 2.21629 37 2.21797V2.21533Z"/>
</mask>
<path d="M71.5774 2.21533L73.2622 1.13756L72.6722 0.215332H71.5774V2.21533ZM37 2.21533V0.215332H35V2.21533H37ZM75.0959 7.71533L73.4111 8.7931L75.1292 11.4789L76.7995 8.76305L75.0959 7.71533ZM78.4784 2.21533V0.215332H77.3604L76.7748 1.16761L78.4784 2.21533ZM340 2.21533H342V0.215332H340V2.21533ZM340 2.23755H338V4.30986L340.071 4.23629L340 2.23755ZM369.891 56.0539L369.752 58.0491L370.899 58.1285L371.545 57.178L369.891 56.0539ZM357.789 55.2153L357.927 53.2201L353.955 52.9448L356.106 56.2959L357.789 55.2153ZM363.087 63.4675L364.35 65.0189L365.736 63.891L364.77 62.387L363.087 63.4675ZM340 71.1931L340.071 69.1944L338 69.1208V71.1931H340ZM340 71.2153V73.2153H342V71.2153H340ZM37 71.2153H35V73.2153H37V71.2153ZM37 71.2129H39V69.1888L36.9761 69.213L37 71.2129ZM8.74683 57.1931L7.0302 56.1669L6.34597 57.3114L7.1394 58.3831L8.74683 57.1931ZM12.0215 51.7153L13.7382 52.7416L14.6684 51.1856L13.211 50.1074L12.0215 51.7153ZM3.0168 45.0542L1.07596 45.537L1.24949 46.2346L1.8274 46.6621L3.0168 45.0542ZM37 2.21797L36.9761 4.21783L39 4.24205V2.21797H37ZM71.5774 0.215332H37V4.21533H71.5774V0.215332ZM76.7806 6.63756L73.2622 1.13756L69.8927 3.2931L73.4111 8.7931L76.7806 6.63756ZM76.7748 1.16761L73.3923 6.66761L76.7995 8.76305L80.182 3.26305L76.7748 1.16761ZM340 0.215332H78.4784V4.21533H340V0.215332ZM342 2.23755V2.21533H338V2.23755H342ZM341.253 0.215332C340.81 0.215332 340.368 0.223199 339.929 0.238808L340.071 4.23629C340.463 4.22236 340.857 4.21533 341.253 4.21533V0.215332ZM377.829 36.7153C377.829 16.5528 361.449 0.215332 341.253 0.215332V4.21533C359.248 4.21533 373.829 18.7703 373.829 36.7153H377.829ZM371.545 57.178C375.512 51.3413 377.829 44.2955 377.829 36.7153H373.829C373.829 43.4681 371.767 49.7347 368.237 54.9297L371.545 57.178ZM357.651 57.2105L369.752 58.0491L370.029 54.0586L357.927 53.2201L357.651 57.2105ZM364.77 62.387L359.472 54.1348L356.106 56.2959L361.404 64.5481L364.77 62.387ZM341.253 73.2153C350.009 73.2153 358.052 70.1422 364.35 65.0189L361.825 61.9161C356.216 66.4797 349.057 69.2153 341.253 69.2153V73.2153ZM339.929 73.1919C340.368 73.2075 340.81 73.2153 341.253 73.2153V69.2153C340.857 69.2153 340.463 69.2083 340.071 69.1944L339.929 73.1919ZM342 71.2153V71.1931H338V71.2153H342ZM37 73.2153H340V69.2153H37V73.2153ZM35 71.2129V71.2153H39V71.2129H35ZM36.5767 73.2154C36.726 73.2154 36.8751 73.2145 37.0239 73.2128L36.9761 69.213C36.8431 69.2146 36.71 69.2154 36.5767 69.2154V73.2154ZM7.1394 58.3831C13.7982 67.3776 24.5051 73.2154 36.5767 73.2154V69.2154C25.8244 69.2154 16.2899 64.0207 10.3543 56.0031L7.1394 58.3831ZM10.3049 50.6891L7.0302 56.1669L10.4635 58.2193L13.7382 52.7416L10.3049 50.6891ZM1.8274 46.6621L10.8321 53.3232L13.211 50.1074L4.20621 43.4463L1.8274 46.6621ZM0 36.7154C0 39.7548 0.372706 42.7101 1.07596 45.537L4.95765 44.5714C4.33235 42.0578 4 39.4267 4 36.7154H0ZM36.5767 0.215441C16.3802 0.215441 0 16.5529 0 36.7154H4C4 18.7704 18.5809 4.21544 36.5767 4.21544V0.215441ZM37.0239 0.218115C36.8751 0.216334 36.726 0.215441 36.5767 0.215441V4.21544C36.7101 4.21544 36.8432 4.21624 36.9761 4.21783L37.0239 0.218115ZM35 2.21533V2.21797H39V2.21533H35Z" fill="#70320D" mask="url(#path-3-outside-2_462_943)"/>
<path d="M33.5 4.21533C16.3 4.21533 7.33333 20.2153 5 28.2153C12.2 11.0153 23 5.71533 33 5.71533H71.5L70.5 4.21533H33.5Z" fill="white" fill-opacity="0.45"/>
<path d="M35.5 69.2153C29.5 69.2153 26.8333 68.0487 25.5 67.2153C129.833 66.7153 338.6 66.7153 343 66.7153C347.4 66.7153 354.333 63.2153 357.5 62.2153L358.5 63.7153C351.7 67.7153 345.667 69.0487 343.5 69.2153H35.5Z" fill="white" fill-opacity="0.45"/>
<path d="M75 11.7153L76 10.2153L79.5 4.21533H341C348.158 4.2153 355.716 7.15076 359.019 9.44008C359.436 9.68801 359.77 9.94661 360 10.2153C359.737 9.96975 359.407 9.70937 359.019 9.44008C355.087 7.10468 343.712 5.71533 341 5.71533H80L75 11.7153Z" fill="white" fill-opacity="0.45"/>
<defs>
<linearGradient id="paint0_linear_462_943" x1="2" y1="71.2153" x2="374.699" y2="-4.25073" gradientUnits="userSpaceOnUse">
<stop stop-color="#FEA018"/>
<stop offset="1" stop-color="#FEB71E"/>
</linearGradient>
</defs>
</svg>
