<svg width="326" height="377" viewBox="0 0 326 377" fill="none" xmlns="http://www.w3.org/2000/svg">
<path d="M326 115.388C325.951 132.485 326.13 149.614 323.654 166.572C321.374 182.161 318.05 197.531 313.278 212.607C306.729 233.279 298.6 253.194 286.464 271.243C267.022 300.149 243.882 325.448 214.764 345.094C199.174 355.609 183.153 365.375 167.059 375.059C164.648 376.509 162.449 376.761 159.639 375.263C141.744 365.692 124.289 355.315 107.649 343.766C96.1728 335.8 85.4214 326.694 75.566 316.676C60.7747 301.624 47.5391 285.326 36.4293 267.358C29.9459 256.883 24.9937 245.643 20.3185 234.289C15.8306 223.399 12.369 212.192 9.23318 200.813C7.23766 193.564 5.47834 186.234 4.13442 178.919C2.19591 168.388 1.4873 157.596 0.762393 146.885C-0.719995 125.065 0.493608 103.204 0.0700687 81.3587C0.00490879 77.8808 1.31625 75.9097 4.54981 74.4029C32.8455 61.2243 60.6036 46.9054 89.1518 34.2399C103.259 27.9764 117.13 21.1917 131.082 14.5861C140.84 9.96786 150.565 5.25191 160.282 0.552252C161.724 -0.148218 162.945 -0.213377 164.485 0.535962C186.069 10.9697 207.89 20.9229 229.229 31.829C244.941 39.86 261.427 46.1153 277.097 54.2359C292.272 62.1039 307.902 69.1086 323.394 76.3495C325.568 77.3677 325.91 78.7034 325.902 80.7723C325.837 92.3056 325.316 103.839 326 115.372V115.388ZM304.22 115.714C304.22 108.017 304.123 100.964 304.285 93.9101C304.334 91.9961 303.74 91.0594 302.111 90.2775C273.758 76.6835 245.422 63.0813 217.101 49.4303C201.121 41.7333 185.092 34.134 169.29 26.0868C164.835 23.8225 161.659 23.6189 156.934 26.0053C137.24 35.9667 117.26 45.3741 97.2398 54.6757C72.308 66.2497 48.1581 79.4691 22.6724 89.8458C21.4344 90.3508 21.1982 90.9698 21.1982 92.2567C21.2389 101.884 21.1493 111.52 21.1249 121.147C21.0434 156.553 25.7186 191.178 38.8972 224.246C45.5273 240.878 53.7048 256.696 64.2689 271.341C80.005 293.161 98.543 312.147 120.469 327.582C132.825 336.272 145.702 344.336 159.37 350.974C161.83 352.163 163.678 352.383 166.122 351.137C178.869 344.613 190.842 336.875 202.677 328.844C224.465 314.053 242.929 295.792 258.592 274.81C286.456 237.482 300.148 194.892 303.406 148.767C304.196 137.575 304.839 126.319 304.22 115.706V115.714Z" fill="white"/>
<path d="M162.648 263.081C135.126 261.175 116.588 246.025 109.184 219.326C107.702 213.975 107.702 208.428 107.686 202.954C107.637 187.096 107.906 171.23 107.897 155.371C107.897 152.928 108.85 152.244 110.952 152.293C113.257 152.341 115.635 152.048 117.842 152.529C121.247 153.278 122.363 152.415 122.257 148.831C122.102 143.561 122.607 138.267 122.664 132.989C122.86 115.624 135.493 102.999 150.61 98.9673C154.56 97.9166 158.576 97.4035 162.648 97.2324C170.695 97.7293 178.425 99.2931 185.316 103.822C198.022 112.162 203.438 124.323 203.894 139.09C204.008 142.747 204.082 146.412 204.008 150.069C203.968 152.17 204.35 153.172 206.867 153.099C210.589 152.993 215.713 151.331 217.692 153.726C219.59 156.031 218.441 160.959 218.4 164.738C218.246 180.458 218.058 196.178 217.79 211.898C217.448 232.399 200.913 252.989 181.113 259.57C175.061 261.582 168.92 262.584 162.632 263.081H162.648ZM161.842 152.863C172.121 152.936 182.4 152.952 192.67 153.123C194.666 153.156 194.446 152.056 194.454 150.843C194.495 145.834 194.609 140.824 194.56 135.815C194.389 119.387 179.964 105.532 163.463 105.891C149.909 105.842 137.488 113.058 133.204 127.621C130.972 135.221 131.013 142.844 131.062 150.574C131.078 152.708 131.982 152.985 133.758 152.969C143.116 152.879 152.475 152.887 161.834 152.863H161.842ZM161.027 253.852C167.755 255.367 173.978 253.022 179.883 250.603C195.537 244.192 206.33 232.732 207.95 215.709C209.563 198.76 208.716 181.582 209.042 164.502C209.091 162.107 207.95 161.944 206.069 161.953C196.311 162.01 186.545 161.904 176.788 162.01C172.064 162.058 167.348 162.441 162.624 162.677C148.256 162.677 133.88 162.726 119.512 162.645C117.264 162.629 116.914 163.484 116.922 165.504C117.028 180.287 116.849 195.07 117.077 209.845C117.435 232.83 137.855 253.144 161.019 253.836L161.027 253.852Z" fill="white"/>
<path d="M162.643 230.501C158.75 231.25 157.203 229.874 157.602 225.744C157.919 222.445 157.471 219.073 157.349 215.734C157.292 214.235 157.243 212.72 155.37 212.248C150.035 207.206 147.282 201.122 147.877 193.685C150.133 186.453 154.564 181.712 162.481 180.963C166.431 181.606 170.316 182.095 173.558 185.027C180.685 191.462 181.532 202.311 174.503 208.721C170.797 212.101 169.094 215.49 170.096 220.311C170.235 220.963 170.161 221.663 170.186 222.339C170.381 227.645 167.87 230.365 162.652 230.501H162.643ZM156.901 197.277C156.861 200.959 160.762 206.31 163.605 206.457C166.439 206.603 170.398 201.765 170.544 197.986C170.691 194.019 167.197 190.093 163.442 190.012C159.842 189.939 156.95 193.148 156.901 197.277Z" fill="white"/>
</svg>
