<svg width="48" height="54" viewBox="0 0 48 54" fill="none" xmlns="http://www.w3.org/2000/svg">
<path d="M41.6179 31.3633C40.7731 39.7913 33.2559 48.6645 24.0981 48.6645C14.9409 48.6645 7.42372 39.7913 6.57877 31.3633H4.16931C5.02312 41.0471 13.6114 50.9372 24.0981 50.9372C34.586 50.9372 43.1737 41.0471 44.0277 31.3633H41.6179Z" fill="white"/>
<path d="M28.4439 52.0068C28.4439 52.8929 27.7139 53.6092 26.8147 53.6092H21.3816C20.4821 53.6092 19.7523 52.8929 19.7523 52.0068V47.6467C19.7523 46.7629 20.4821 46.0444 21.3816 46.0444H26.8147C27.7138 46.0444 28.4439 46.7629 28.4439 47.6467V52.0068Z" fill="white"/>
<path d="M26.9793 51.2725C26.9793 51.8601 26.4956 52.3353 25.8995 52.3353H22.2969C21.7009 52.3353 21.2168 51.8601 21.2168 51.2725V48.3812C21.2168 47.7949 21.7009 47.3196 22.2969 47.3196H25.8995C26.4955 47.3196 26.9793 47.7949 26.9793 48.3812V51.2725Z" fill="white"/>
<path d="M24 21.6301H0.563591L0 34.9259H3.38053L4.16928 33.123H6.38829L7.43675 30.4189L24 30.1936V21.6301Z" fill="white"/>
<path d="M24 0C2.58213 0.174129 1.82565 18.1673 1.91567 21.63H24V0Z" fill="white"/>
<path d="M24 21.6301H47.4364L48 34.9259H44.6195L43.8307 33.123L41.2395 33.0106L40.5632 30.4189L24 30.1936V21.6301Z" fill="white"/>
<path d="M24 0C45.4178 0.174129 46.1743 18.1673 46.0843 21.63H24V0Z" fill="white"/>
<path d="M22.0676 7.93466C22.0676 8.99147 21.211 9.84817 20.1542 9.84817H13.2051C12.1482 9.84817 11.2915 8.9914 11.2915 7.93466C11.2915 6.87785 12.1482 6.02124 13.2051 6.02124H20.1542C21.211 6.02124 22.0676 6.87792 22.0676 7.93466Z" fill="white"/>
<path d="M36.6706 16.3188C36.6706 17.3755 35.8139 18.2323 34.757 18.2323H27.808C26.7512 18.2323 25.8945 17.3754 25.8945 16.3188C25.8945 15.2619 26.7512 14.4053 27.808 14.4053H34.757C35.8139 14.4052 36.6706 15.2619 36.6706 16.3188Z" fill="white"/>
<path d="M14.9172 13.524C14.9172 14.553 14.0831 15.3872 13.0542 15.3872H8.22019C7.19107 15.3872 6.35706 14.5529 6.35706 13.524C6.35706 12.4951 7.19107 11.6609 8.22019 11.6609H13.0542C14.0831 11.6608 14.9172 12.4951 14.9172 13.524Z" fill="white"/>
<path d="M40.9507 11.6607C40.9507 12.6896 40.1167 13.5237 39.0876 13.5237H34.2536C33.2247 13.5237 32.3905 12.6896 32.3905 11.6607C32.3905 10.6318 33.2247 9.79761 34.2536 9.79761H39.0876C40.1166 9.79761 40.9507 10.6318 40.9507 11.6607Z" fill="white"/>
<path d="M31.9372 5.13985C31.9372 6.68338 30.686 7.93463 29.1425 7.93463H28.6894C27.1458 7.93463 25.8947 6.68345 25.8947 5.13985C25.8947 3.59639 27.1458 2.34521 28.6894 2.34521H29.1425C30.6861 2.34521 31.9372 3.59632 31.9372 5.13985Z" fill="white"/>
<path d="M22.7737 16.3188C22.7737 17.8622 21.5226 19.1134 19.979 19.1134H19.5258C17.9824 19.1134 16.7312 17.8623 16.7312 16.3188C16.7312 14.7753 17.9824 13.5239 19.5258 13.5239H19.979C21.5226 13.5239 22.7737 14.7752 22.7737 16.3188Z" fill="white"/>
<path d="M12.9549 18.9119C12.9549 19.4681 12.5041 19.919 11.9479 19.919H6.35704C5.80075 19.919 5.34985 19.4682 5.34985 18.9119C5.34985 18.3558 5.80075 17.9048 6.35704 17.9048H11.9479C12.5041 17.9048 12.9549 18.3558 12.9549 18.9119Z" fill="white"/>
</svg>
