<svg width="16" height="16" viewBox="0 0 16 16" fill="none" xmlns="http://www.w3.org/2000/svg">
<path d="M12.9083 3.09009C11.9091 2.62172 10.8519 2.28863 9.76467 2.09961C9.61624 2.37198 9.48171 2.6517 9.36162 2.9377C8.20689 2.76171 7.03216 2.76171 5.87743 2.9377C5.75641 2.65136 5.62035 2.3716 5.46981 2.09961C4.38175 2.28821 3.32376 2.62131 2.32391 3.09009C0.563614 5.69845 -0.210978 8.84814 0.138765 11.9754C1.27547 12.8346 2.55582 13.485 3.9201 13.8962C4.23248 13.4665 4.50905 13.0124 4.746 12.5362C4.29475 12.3646 3.85975 12.1529 3.44619 11.9038C3.55515 11.823 3.66181 11.7385 3.76467 11.6524C4.96716 12.2312 6.28459 12.5318 7.61915 12.5318C8.9537 12.5318 10.2711 12.2312 11.4736 11.6524C11.578 11.7385 11.6847 11.823 11.7921 11.9038C11.3776 12.1537 10.9418 12.3655 10.4892 12.5377C10.7262 13.0132 11.0025 13.4682 11.3151 13.8977C12.7063 13.4676 14.0119 12.7986 15.1734 11.9206C15.4937 8.80127 14.6905 5.67007 12.9083 3.09009ZM5.0881 10.143C4.7007 10.1154 4.33971 9.93655 4.08311 9.64502C3.8265 9.35349 3.69488 8.97271 3.71667 8.58494C3.69223 8.19639 3.82289 7.814 4.07998 7.52163C4.33707 7.22926 4.69961 7.05078 5.0881 7.02532C5.28085 7.03684 5.4694 7.08643 5.64288 7.17122C5.81636 7.25601 5.97133 7.37432 6.09884 7.51932C6.22635 7.66433 6.32387 7.83315 6.38578 8.01605C6.44768 8.19895 6.47275 8.3923 6.45953 8.58494C6.48354 8.97325 6.3527 9.35524 6.09565 9.64727C5.83861 9.93931 5.47631 10.1176 5.0881 10.143ZM10.1502 10.143C9.76272 10.1156 9.40162 9.9368 9.14497 9.64522C8.88833 9.35364 8.75677 8.97276 8.77877 8.58494C8.75433 8.19639 8.88498 7.814 9.14207 7.52163C9.39916 7.22926 9.7617 7.05078 10.1502 7.02532C10.343 7.03674 10.5316 7.08626 10.7051 7.17102C10.8786 7.25578 11.0336 7.37409 11.1612 7.51911C11.2887 7.66414 11.3862 7.833 11.4481 8.01595C11.51 8.19889 11.5349 8.39228 11.5216 8.58494C11.5456 8.97325 11.4148 9.35524 11.1577 9.64727C10.9007 9.93931 10.5384 10.1176 10.1502 10.143Z" fill="#9CA3AF"/>
</svg>
