<svg width="41" height="40" viewBox="0 0 41 40" fill="none" xmlns="http://www.w3.org/2000/svg">
<rect x="0.15625" width="40" height="40" rx="20" fill="#1B1B1B"/>
<path d="M20.1563 12C18.574 12 17.0273 12.4692 15.7117 13.3482C14.3961 14.2273 13.3707 15.4767 12.7652 16.9385C12.1597 18.4003 12.0013 20.0089 12.31 21.5607C12.6187 23.1126 13.3806 24.538 14.4994 25.6569C15.6182 26.7757 17.0437 27.5376 18.5955 27.8463C20.1474 28.155 21.7559 27.9965 23.2177 27.391C24.6795 26.7855 25.929 25.7602 26.808 24.4446C27.6871 23.129 28.1563 21.5823 28.1563 20C28.1539 17.879 27.3103 15.8456 25.8105 14.3458C24.3107 12.846 22.2773 12.0024 20.1563 12ZM20.1563 24C19.0954 24 18.078 23.5786 17.3278 22.8284C16.5777 22.0783 16.1563 21.0609 16.1563 20C16.1563 18.9391 16.5777 17.9217 17.3278 17.1716C18.078 16.4214 19.0954 16 20.1563 16C21.2171 16 22.2345 16.4214 22.9847 17.1716C23.7348 17.9217 24.1563 18.9391 24.1563 20C24.1563 21.0609 23.7348 22.0783 22.9847 22.8284C22.2345 23.5786 21.2171 24 20.1563 24Z" fill="#F7B748"/>
</svg>
