<svg width="1136" height="179" viewBox="0 0 1136 179" fill="none" xmlns="http://www.w3.org/2000/svg">
<g clip-path="url(#clip0_4718_217)">
<path d="M97.65 52.7298C93.34 57.4498 91.44 63.1698 89.45 68.7098C83.39 85.5598 77.73 102.56 71.75 119.44C64.73 139.26 52.66 153.61 30.18 156.49C35.16 159.22 41.52 159.44 49.79 157.22C68.69 152.13 80.29 139.63 86.97 121.58C93.99 102.61 98.97 82.9498 106.97 64.3198C120.26 33.3898 142.73 13.1498 176.23 7.39983C206.03 2.28983 231.44 12.0498 252.26 33.8998C264.55 46.7898 272.84 61.9098 277.01 79.1698C279.07 87.6798 278.28 96.3798 277.07 104.99C274.25 124.96 268.11 143.65 255.12 159.46C246.63 169.79 235.78 176.07 222.03 176.3C182.92 176.94 143.82 178.5 104.69 178.18C88.55 178.05 72.42 177.52 56.42 175.23C41.42 173.09 28.18 166.77 18.11 155.56C-6.05003 128.68 -5.54003 91.2498 16.76 66.7098C36.66 44.8098 61.2 39.2198 89.24 48.3998C92.28 49.3998 94.95 50.9798 97.66 52.7398L97.65 52.7298Z" fill="#45B9EA"/>
<path d="M1007.03 89.5396C1007.03 67.5597 1007.03 45.5696 1007.03 23.5896C1007.03 17.2196 1007.57 16.5096 1013.67 16.4296C1036.31 16.1096 1058.94 14.4096 1081.59 16.1896C1089.57 16.8196 1097.38 18.2196 1105.01 20.6996C1119.77 25.4996 1127.15 36.9897 1130.69 50.8297C1137.55 77.6197 1137.39 104.56 1128.65 130.98C1122.18 150.55 1107.66 160.47 1087.57 163.13C1062.66 166.44 1037.7 164.9 1012.75 164.11C1007.86 163.95 1006.99 160.6 1007 156.49C1007.05 134.17 1007.02 111.86 1007.02 89.5396H1007.03ZM1029.06 90.1996C1029.06 105.68 1029.04 121.17 1029.07 136.65C1029.09 143.22 1029.79 144.18 1036.41 144.6C1050.87 145.52 1065.34 145.71 1079.79 144.13C1094.1 142.57 1103.06 135.06 1107.24 121.17C1110.65 109.85 1111.67 98.3396 1111.55 86.6796C1111.45 76.8796 1110.93 67.0697 1107.96 57.5797C1103.72 44.0097 1095.88 37.7296 1081.77 36.0796C1066.81 34.3196 1051.84 35.1396 1036.87 35.3296C1029.88 35.4196 1029.07 36.5096 1029.06 43.7496C1029.04 59.2296 1029.06 74.7196 1029.06 90.1996Z" fill="#252525"/>
<path d="M905.92 97.9198C895.93 97.9198 885.93 97.9698 875.94 97.8998C870.07 97.8598 868.73 95.8098 871.09 90.4498C874.42 82.8998 879.18 78.2298 888.57 78.6298C903.03 79.2498 917.54 78.7899 932.02 78.4099C941.72 78.1599 946.07 74.1498 947.83 64.6098C948.77 59.5098 948.75 54.2998 947.78 49.1998C946.36 41.7498 940.89 37.2798 932.15 36.1998C916.36 34.2398 900.58 35.0798 884.82 36.6498C880.19 37.1098 875.58 37.8198 870.95 38.3098C866.18 38.8198 864.57 37.0198 866.47 32.6298C869.47 25.6798 874.06 20.1498 881.85 18.1198C896.85 14.2098 912.12 14.0598 927.45 14.8098C935.25 15.1898 943.04 15.5798 950.59 18.0098C959.31 20.8198 965.17 26.4498 967.98 35.0998C972.91 50.2598 971.05 65.0798 964.59 79.2698C962.38 84.1198 962.55 87.3499 965.56 91.8699C977.21 109.4 977.69 128.03 968.72 146.77C964.35 155.89 956.17 161.02 946.47 162.93C923.56 167.45 900.56 167.41 877.53 163.28C868.76 161.71 864.06 156.02 860.96 148.44C859.04 143.76 860.73 141.78 865.74 142.55C882.88 145.18 900.08 146.8 917.45 146.16C923.61 145.93 929.75 145.38 935.76 144.06C938.32 143.5 940.93 142.64 943.2 141.35C954.54 134.91 955.04 107.09 944.01 100.15C941.53 98.5898 938.73 98.1898 935.89 98.1798C925.9 98.1498 915.91 98.1698 905.92 98.1698C905.92 98.0898 905.92 97.9998 905.92 97.9198Z" fill="#252525"/>
<path d="M583 81.7196C583 56.4096 583.09 31.0996 582.91 5.78963C582.88 1.50963 583.95 -0.360366 588.48 0.0596338C592.11 0.399634 595.82 0.379634 599.46 0.0596338C603.68 -0.310366 605.03 1.38963 604.98 5.44963C604.83 18.4396 604.92 31.4296 604.93 44.4196C604.93 51.2496 605.73 51.7696 612.5 50.7296C628 48.3696 643.55 46.9696 659.23 49.0596C676.31 51.3396 685.09 60.5996 685.93 77.6796C687.26 104.81 686.26 131.96 686.59 159.09C686.64 162.9 685.21 164.54 681.25 164.23C677.61 163.94 673.92 164.03 670.26 164.2C666.46 164.38 664.66 162.52 664.44 158.97C664.25 155.82 664.25 152.65 664.24 149.49C664.2 130.51 664.18 111.52 664.15 92.5396C664.15 90.7096 664.1 88.8696 663.97 87.0496C663.04 73.6496 658.82 68.7596 645.51 67.4696C634.4 66.3896 623.2 66.8196 612.16 68.6896C605.61 69.7996 604.95 70.8096 604.95 77.7096C604.92 101.69 604.94 125.67 604.94 149.65C604.94 152.98 604.83 156.32 604.97 159.64C605.11 163.09 603.64 164.42 600.2 164.22C596.55 164 592.85 163.9 589.22 164.24C584.49 164.67 582.87 163.1 582.91 158.15C583.14 132.67 583.02 107.2 583.02 81.7196H583Z" fill="#252525"/>
<path d="M391.31 113.18C379.82 113.18 368.33 113.14 356.85 113.2C350.66 113.23 349.87 114.12 350.07 120.16C350.64 136.67 358.17 144.69 374.78 146.08C390.78 147.41 406.69 146.49 422.48 143.6C427.41 142.7 429.03 144.48 427.28 149.35C424.59 156.8 420.19 162.11 411.59 163.47C393.85 166.27 376.19 166.78 358.55 163.09C343.59 159.96 334.07 150.85 330.52 136.02C325.97 116.95 325.79 97.81 331.13 78.83C335.93 61.76 347.17 51.92 364.78 49.06C378.56 46.82 392.18 46.73 405.85 49.88C418.1 52.7 425.61 60.12 428.83 72.13C431.86 83.48 432.46 95.08 432.48 106.75C432.48 111.65 430.12 113.36 425.27 113.25C413.95 113 402.63 113.17 391.31 113.17V113.18ZM379.49 96.4C379.49 96.4 379.49 96.47 379.49 96.51C386.49 96.51 393.48 96.51 400.48 96.51C409.82 96.51 410.66 95.59 409.87 86.13C409.75 84.65 409.38 83.18 409.13 81.71C407.35 71.47 402.2 66.44 392.06 65.24C386.44 64.58 380.85 64.31 375.14 64.95C359.06 66.77 351.43 74.57 350.26 90.72C349.96 94.79 351.33 96.52 355.52 96.44C363.51 96.27 371.51 96.39 379.5 96.39L379.49 96.4Z" fill="#252525"/>
<path d="M833.48 104.77C833.26 116.57 832.24 127.91 828.3 138.9C823.53 152.2 814.55 160.67 800.88 163.93C785.3 167.65 769.58 168.03 753.87 164.67C736.53 160.95 726.41 150.11 722.94 132.87C719.55 116.01 719.56 99.1201 723.35 82.3601C728 61.8001 741.58 51.0801 762.06 48.4801C775.35 46.8001 788.59 46.9701 801.81 49.5401C818.7 52.8201 827.31 63.8401 830.94 79.7901C832.84 88.1201 833.22 96.5901 833.48 104.78V104.77ZM811.97 105.44C812.29 101.08 811.62 95.9601 810.96 90.8401C809.11 76.4501 802.92 68.7801 790.6 66.5901C782.56 65.1601 774.36 65.3201 766.24 66.5901C753.65 68.5401 746.67 76.2701 744.09 88.3501C741.31 101.38 741.48 114.46 744.1 127.49C746.19 137.9 751.94 144.93 762.84 146.85C771.93 148.46 781.01 148.46 790.13 146.85C800.69 144.99 806.71 138.68 809.28 128.47C811.12 121.16 812.07 113.79 811.95 105.44H811.97Z" fill="#252525"/>
<path d="M515.89 165.71C508.6 165.57 501.1 165.44 493.7 164.08C477.14 161.04 466.38 151.44 462.5 135.05C458.14 116.63 458.02 98.0002 463.34 79.7702C468.38 62.5102 479.69 51.6802 498.07 48.9802C512.69 46.8302 527.23 46.7302 541.82 49.1602C549 50.3602 552.84 54.8502 554.68 61.4202C556.1 66.4802 554.3 68.6702 549.04 68.2202C536.26 67.1202 523.5 66.1302 510.64 67.0502C492.4 68.3502 484.62 75.1802 482.26 93.4502C480.89 104.04 480.92 114.72 482.81 125.31C484.98 137.45 490.9 143.32 503.13 145.15C517.24 147.26 531.33 146.69 545.43 144.76C548.42 144.35 552.18 142.21 554.34 145.04C556.62 148.04 553.66 151.28 552.45 154.27C549.83 160.74 544.45 163.09 538 164.15C530.73 165.34 523.4 165.27 515.89 165.71Z" fill="#252525"/>
</g>
<defs>
<clipPath id="clip0_4718_217">
<rect width="1135.56" height="178.21" fill="white"/>
</clipPath>
</defs>
</svg>
