<svg width="319" height="391" viewBox="0 0 319 391" fill="none" xmlns="http://www.w3.org/2000/svg">
<path d="M222.255 195.305C214.421 197.797 206.739 200.646 199.739 205.07C197.587 206.078 195.534 207.245 193.807 208.911C190.178 210.389 188.488 213.806 186.367 216.677C181.079 223.829 174.055 228.011 165.411 229.663C151.607 232.307 140.523 226.859 131.583 217.132C121.272 205.919 108.34 199.517 94.2024 195.471C81.7319 191.903 68.8373 190.054 55.7835 190.229C40.4114 190.433 25.0393 190.819 9.65964 191.145C7.12162 191.198 4.62905 191.016 2.20467 190.229C1.35614 189.297 0.196981 188.577 0 187.168L2.05315 179.614C2.17437 179.129 2.29559 178.645 2.40923 178.16C3.53808 174.856 4.66693 171.553 5.80336 168.258C5.84882 168 5.89428 167.742 5.93973 167.485C7.48528 163.795 8.81869 160.03 9.75813 156.136C14.2432 143.65 17.8647 130.877 22.4786 118.421C24.6757 112.474 27.2137 106.459 27.9258 99.9961C31.8276 100.11 35.7293 100.276 39.6311 100.322C41.8054 100.345 42.4797 100.936 41.7372 103.269C35.6005 122.573 29.5926 141.915 23.5241 161.25C22.221 165.401 22.2361 165.379 26.5091 165.303C32.1912 165.204 37.7825 164.273 43.4116 163.735C75.4816 160.666 104.4 169.894 131.333 186.637C132.826 187.562 134.212 188.683 135.53 189.842C136.576 190.759 137.152 191.774 136.765 193.464C133.894 205.919 141.296 217.579 153.766 220.488C168.873 224.011 184.041 210.055 181.541 194.502C180.874 190.372 182.374 188.319 185.321 186.448C199.034 177.72 213.709 171.258 229.559 167.508C243.499 164.212 257.568 162.288 271.894 163.719C278.531 164.386 285.122 165.371 291.812 165.492C295.009 165.545 295.6 164.507 294.676 161.53C288.698 142.173 282.903 122.747 276.895 103.398C276.114 100.875 276.235 100.132 279.099 100.087C290.38 99.9203 290.373 99.8294 293.646 110.345C294.085 111.762 294.615 113.148 295.108 114.55C295.214 115.035 295.32 115.52 295.426 116.005C296.07 117.808 296.706 119.603 297.35 121.406C297.472 122.134 297.593 122.853 297.706 123.581C304.631 144.112 311.518 164.659 318.541 185.152C319.647 188.38 318.776 189.979 315.692 191.1C314.419 191.562 313.283 191.577 312.063 191.539C298.653 191.13 285.244 190.706 271.834 190.289C266.515 190.327 261.151 189.282 255.924 191.069C251.59 191.206 247.226 190.175 242.931 191.501C242.461 191.592 241.999 191.683 241.529 191.774C240.211 191.842 238.824 191.35 237.612 192.244C235.385 192.607 233.157 192.971 230.93 193.327C229.854 193.183 228.771 192.979 227.808 193.736C225.96 194.259 224.111 194.782 222.263 195.305H222.255Z" fill="white"/>
<path d="M262.732 37.4312C258.596 38.507 254.512 39.7419 250.572 41.439C248.686 42.2496 246.602 43.1361 244.966 41.2647C237.791 33.0673 227.935 31.8021 218.108 31.4611C201.873 30.9005 185.728 28.4685 169.447 29.2792C167.962 29.355 166.765 28.9307 165.916 27.6049C162.984 22.9985 161.325 22.3697 155.961 23.7789C152.711 24.9684 150.052 26.7488 149.256 30.4232C148.332 35.4311 149.43 38.1433 153.271 40.3632C156.938 42.4845 162.083 41.9769 165.136 38.9919C166.204 37.9539 167.227 37.2645 168.727 37.3175C186.22 37.9312 203.767 37.5448 221.124 40.3101C225.2 40.9617 229.177 42.2496 233.185 43.3179C234.594 43.6967 235.981 44.6816 235.913 46.0908C235.844 47.5227 234.071 47.4848 232.912 47.7954C212.479 53.326 192.615 60.531 172.833 67.9708C168.954 69.433 165.09 70.9558 161.257 72.5393C159.31 73.3423 157.605 72.759 155.794 72.1074C140.884 66.751 125.967 61.4098 111.027 56.1368C105.655 54.2428 100.208 52.5457 94.7984 50.7577C79.646 45.7726 64.486 40.795 48.2578 35.4614C55.0385 33.1734 60.9782 31.2111 66.8877 29.158C72.5622 27.1882 78.5702 26.2033 83.9947 23.4758C86.0554 23.044 88.1692 22.7788 90.1769 22.1576C111.572 15.5133 132.361 7.05824 153.87 0.716964C157.082 -0.23006 159.825 -0.275517 162.954 0.800302C186.743 8.97501 210.737 16.5209 234.875 23.6198C246.216 26.9533 257.436 30.6884 268.71 34.2416C267.346 36.4842 265.043 36.9615 262.732 37.4312Z" fill="white"/>
<path d="M11.8828 221.26C12.0571 216.782 11.9207 212.441 15.8073 208.88C22.1031 203.107 31.3309 203.728 35.9296 211.108C37.5888 213.774 39.3617 214.381 42.2179 214.479C62.9009 215.206 83.5915 214.994 104.282 214.85C112.328 214.797 119.003 217.585 124.518 223.351C125.397 224.267 126.389 225.124 126.321 226.533C124.98 254.769 126.132 283.021 125.798 311.257C125.677 321.478 125.806 331.698 125.723 341.918C125.707 344.176 126.094 345.774 128.147 347.305C132.42 350.479 133.776 357.381 131.738 362.904C129.837 368.064 124.927 371.549 119.245 371.783C114.237 371.988 108.153 368.056 106.259 363.404C103.638 356.942 108.01 347.525 114.934 345.646C117.669 344.903 118.177 343.767 118.139 341.274C118.018 334.122 118.116 334.099 110.873 334.069C108.479 334.062 106.085 334.153 103.691 334.206C101.57 334.168 99.4408 334.221 97.3271 334.062C94.5315 333.849 92.4935 334.456 90.7737 337.107C88.7811 340.176 84.1824 341.304 81.4701 340.153C77.7426 338.577 76.4244 335.721 77.0305 330.539C78.2957 327.773 80.0231 325.364 82.5081 323.553C86.6219 321.834 90.5919 321.993 94.4027 324.425C95.9255 325.394 97.5923 325.841 99.4105 325.857C102.562 325.887 105.714 326.107 108.858 326.099C118.722 326.061 118.662 326.038 118.139 316.015C118.04 314.098 117.343 313.235 115.54 313.106C114.783 313.053 114.033 312.977 113.275 312.962C99.9106 312.704 86.5462 312.492 73.1893 312.144C70.9241 312.083 69.6134 312.356 68.9164 314.924C67.8709 318.818 64.6207 320.993 61.272 322.887C55.4914 325.076 50.6729 323.038 46.2181 319.447C45.9302 319.03 45.6347 318.621 45.3468 318.205C42.2785 314.674 42.5285 310.204 43.5286 306.431C44.9302 301.143 48.7789 297.226 54.5671 296.347C60.2795 295.476 64.9843 297.476 68.1815 302.469C68.8785 303.56 69.4846 304.408 71.0832 304.378C83.4399 304.136 95.8043 304.984 108.153 304.219C111.366 304.022 115.775 305.416 117.465 303.211C119.078 301.105 117.836 296.923 118.146 293.688C118.45 290.544 117.184 289.445 114.146 289.4C100.024 289.211 85.9249 288.089 71.7802 288.347C62.2039 288.521 52.6124 288.332 43.0664 287.309C41.6118 285.96 40.3541 284.362 41.2633 282.362C42.18 280.346 44.3165 280.899 46.006 280.983C53.8625 281.377 61.575 279.49 69.4013 279.634C84.5309 279.915 99.6757 280.059 114.798 280.627C117.896 280.74 118.192 279.74 118.056 277.361C117.949 275.604 118.018 273.831 118.018 272.066C118.018 266.3 118.018 266.194 112.048 266.065C100.32 265.808 88.5842 265.618 76.8562 265.543C67.0147 265.474 57.1809 265.573 47.3394 265.679C46.0742 265.694 44.4604 265.149 43.718 266.899C40.8769 273.566 35.1341 274.77 28.7853 274.839C20.8909 272.535 18.012 268.565 17.9438 259.883C18.2847 258.375 18.6256 256.875 18.9741 255.368C19.209 255.08 19.5272 254.83 19.6787 254.504C21.997 249.534 26.1715 247.14 31.3764 247.307C36.3994 247.466 40.7102 249.731 42.7785 254.686C43.824 257.178 45.6196 257.08 47.6803 257.057C70.0073 256.822 92.3268 257.307 114.646 257.868C116.904 257.921 117.965 257.33 117.972 255.057C117.98 252.027 117.995 249.004 118.071 245.973C118.109 244.541 117.518 244.041 116.078 243.935C101.229 242.852 86.3719 242.155 71.4847 242.518C70.1664 242.549 69.3482 242.647 68.7194 244.261C66.742 249.345 60.1507 252.39 55.4232 250.731C49.3547 248.602 45.059 242.011 46.4302 236.677C47.847 231.185 51.4987 227.533 56.9233 226.381C61.7569 225.358 65.3631 228.063 68.0224 231.995C68.8861 233.268 69.674 234.26 71.568 234.185C85.5764 233.654 99.5621 234.404 113.555 234.874C115.661 234.942 118.139 235.457 117.919 231.995C117.745 229.184 119.54 225.624 114.374 225.002C106.737 224.078 99.0848 223.283 91.4177 222.767C74.4091 221.631 57.3778 222.881 40.3693 222.245C38.9374 222.192 38.2025 222.586 37.4979 223.98C33.725 231.488 28.4141 233.738 20.0121 231.624C15.8679 229.29 12.6404 226.237 11.9131 221.237L11.8828 221.26ZM30.293 218.51C30.2323 215.115 27.914 212.63 24.7699 212.6C22.0198 212.57 19.6333 215.267 19.6181 218.411C19.6105 221.479 22.3455 224.366 25.2396 224.328C28.2322 224.29 30.346 221.858 30.2854 218.51H30.293ZM114.01 357.934C113.98 360.828 116.624 363.715 119.344 363.775C121.935 363.828 124.541 360.753 124.707 357.442C124.829 355.108 122.139 352.146 119.798 352.04C117.063 351.919 114.033 355.002 114.002 357.934H114.01ZM31.5051 255.307C28.7853 255.224 25.8154 257.868 25.8685 260.323C25.9215 262.701 29.4368 266.224 31.8764 266.346C34.172 266.459 36.9221 263.626 36.8994 261.171C36.8691 258.383 34.1114 255.383 31.5127 255.3L31.5051 255.307ZM62.2039 309.697C62.1508 306.696 59.5598 304.333 56.4611 304.461C53.5973 304.575 51.3169 307.106 51.4533 310.007C51.5896 312.879 54.0822 315.417 56.7642 315.401C59.5067 315.386 62.2569 312.507 62.2039 309.697ZM58.0976 234.276C56.0369 235.382 54.1807 236.851 54.3019 239.579C54.3928 241.761 55.8929 243.026 58.0294 242.965C60.7795 242.89 62.113 241.094 61.9235 238.503C61.772 236.412 60.6659 234.745 58.09 234.276H58.0976ZM87.622 329.895C86.3568 330.387 84.8415 330.614 84.8718 332.44C84.8946 334.183 85.8567 335.327 87.5462 335.471C88.5917 335.562 90.1373 335.312 89.9252 333.812C89.7206 332.334 89.6221 330.493 87.622 329.895Z" fill="white"/>
<path d="M196.082 371.383C189.907 370.163 186.513 366.049 185.293 360.231C184.179 354.912 186.149 350.276 190.059 346.647C191.233 345.556 191.634 344.601 191.634 343.131C191.559 312.471 191.513 281.81 191.475 251.141C191.475 245.762 189.801 240.368 191.589 234.996C193.589 234.959 195.597 234.913 197.597 234.875C199.582 236.148 201.764 235.512 203.847 235.39C217.697 234.61 231.546 233.754 245.425 234.307C247.138 234.375 248.145 233.905 249.153 232.481C251.305 229.42 254.138 227.034 257.979 226.496C263.972 225.655 269.54 229.511 270.874 235.163C272.51 242.11 269.268 247.959 262.229 250.778C257.305 252.747 252.206 250.52 249.176 244.8C248.297 243.148 247.426 242.436 245.494 242.436C230.735 242.414 216.022 243.694 201.271 243.989C199.574 244.02 199.112 244.641 199.256 246.255C199.559 249.512 199.87 252.785 199.87 256.058C199.87 258.316 201.006 258.513 202.726 258.346C205.484 258.066 208.241 257.755 210.999 257.581C230.781 256.316 250.592 257.051 270.389 256.808C273.382 256.77 275.147 256.005 276.624 253.24C279.511 247.846 285.466 245.247 291.072 247.005C297.247 248.937 301.52 252.52 301.641 259.907C301.671 261.665 301.474 263.43 301.383 265.188C298.534 272.021 293.375 274.885 286.026 274.976C281.564 275.029 279.67 272.021 278.071 269.18C276.079 265.642 273.639 264.983 269.881 265.028C247.926 265.301 225.977 265.339 204.021 265.991C200.514 266.097 199.248 267.112 199.786 270.567C200.279 273.749 198.332 278.067 200.68 279.901C202.658 281.446 206.734 280.317 209.878 280.348C220.485 280.454 231.084 279.332 241.63 279.431C253.153 279.537 264.858 278.931 276.223 281.923C277.291 282.204 278.73 282.098 278.852 283.575C278.973 285.03 277.859 285.954 276.594 286.242C274.018 286.825 271.397 287.174 268.79 287.621C260.479 287.052 252.183 287.689 243.88 287.916C230.281 288.287 216.689 288.795 203.097 289.136C200.559 289.196 199.514 289.969 199.756 292.666C199.999 295.417 199.938 298.22 199.703 300.97C199.461 303.803 200.43 304.637 203.287 304.561C217.136 304.205 230.993 303.985 244.842 303.917C247.592 303.902 249.395 303.197 251.191 300.985C257.585 293.136 267.101 293.962 272.442 302.629C273.162 303.803 273.715 305.076 274.344 306.311C275.215 311.433 274.723 316.137 270.518 319.857C264.714 324.994 253.888 326.055 249.471 315.296C248.395 312.683 247.054 312.152 244.516 312.077C230.879 311.667 217.295 313.092 203.673 312.918C200.582 312.88 199.65 314.046 199.733 317.168C199.999 326.585 199.862 326.6 209.249 326.07C215.09 325.736 220.886 326.108 226.553 323.388C231 321.251 237.357 325.183 238.599 329.782C240.061 335.176 237.122 340.745 232.091 342.093C227.727 343.268 224.394 341.654 222.576 336.972C221.697 334.722 220.591 333.896 218.197 333.995C212.787 334.229 207.363 333.995 201.961 334.729C200.036 334.995 199.226 335.548 199.552 337.525C199.711 338.51 199.718 339.555 199.589 340.548C199.218 343.298 200.044 344.677 203.014 345.548C208.522 347.17 212.348 353.852 211.726 359.602C211.06 365.807 206.484 370.481 200.211 371.269C198.847 371.444 197.453 371.375 196.074 371.413L196.082 371.383ZM198.665 362.958C201.718 363.019 204.347 360.473 204.287 357.526C204.234 355.094 201.082 352.117 198.408 351.965C195.809 351.821 193.157 354.496 193.142 357.284C193.127 360.087 195.862 362.898 198.665 362.951V362.958ZM293.64 260.74C293.724 258.089 290.951 254.763 288.504 254.581C285.784 254.384 283.246 256.801 283.109 259.718C282.965 262.846 285.867 266.142 288.738 266.112C291.064 266.089 293.557 263.354 293.633 260.74H293.64ZM266.389 309.584C266.427 306.682 264.04 303.94 261.411 303.879C258.866 303.819 256.661 306.304 256.676 309.22C256.684 312.061 259.161 314.986 261.623 315.062C264.002 315.137 266.351 312.44 266.389 309.584ZM263.502 239.004C263.298 236.724 262.419 234.655 259.979 234.39C257.275 234.095 256.312 236.413 256.115 238.542C255.911 240.823 256.903 242.777 259.669 242.785C262.093 242.785 263.199 241.292 263.495 239.004H263.502ZM231.705 333.116C231.758 331.252 231.273 330.411 230.053 330.381C228.424 330.35 227.985 331.54 227.917 332.881C227.856 333.979 228.205 334.949 229.531 334.896C231.046 334.835 231.675 333.835 231.705 333.108V333.116Z" fill="white"/>
<path d="M258.196 214.395C265.189 215.933 272.182 214.221 279.182 214.433C280.947 214.486 282.122 213.645 283.016 212.047C286.501 205.849 293.243 203.402 299.373 205.978C306.115 208.812 309.328 215.464 307.35 222.54C307.115 223.373 306.82 224.191 306.547 225.017C305.312 226.517 304.085 228.017 302.85 229.517C302.07 229.926 301.297 230.336 300.517 230.737C293.372 234.374 286.599 232.268 283.107 224.941C282.031 222.684 280.803 222.138 278.538 222.168C261.81 222.426 245.066 222.267 228.353 222.888C218.08 223.275 207.845 224.805 197.594 225.82C195.829 225.623 193.95 226.085 192.344 224.957C195.321 217.941 201.481 216.562 208.125 216.047C215.466 215.479 222.815 214.91 230.164 214.35C232.695 214.35 235.217 214.35 237.748 214.342C239.513 214.342 241.278 214.342 243.044 214.342C248.097 214.357 253.15 214.38 258.196 214.395ZM294.691 212.562C292.327 212.562 289.471 215.607 289.478 218.108C289.486 221.024 292.44 224.138 295.168 224.108C297.668 224.078 300.486 221.29 300.592 218.744C300.714 215.721 297.698 212.562 294.698 212.569L294.691 212.562Z" fill="white"/>
<path d="M223.292 58.947C223.58 66.3869 222.921 73.463 223.959 80.4786C224.307 82.8499 222.368 83.1984 220.959 83.6227C209.61 87.0547 198.677 91.5853 187.874 96.381C178.237 100.662 168.486 104.851 160.417 111.927C159.425 112.791 158.554 113.033 157.41 112.208C142.318 101.298 124.915 95.2218 107.808 88.5321C103.823 86.9714 99.9292 85.191 95.9517 83.6075C94.6637 83.0999 93.694 82.6302 93.8531 80.9937C94.4819 74.5691 93.9061 68.1369 93.9515 61.7123C93.9667 59.6213 94.4213 59.2425 96.5274 59.9698C113.642 65.8717 131.007 71.1977 147.583 78.4254C157.508 82.7514 165.85 79.6603 174.683 76.3723C190.7 70.4174 206.663 64.3034 223.3 58.9395L223.292 58.947Z" fill="white"/>
<path d="M246.767 156.71C228.183 158.392 210.94 164.384 194.333 172.642C184.794 177.385 176.627 183.84 169.642 191.696C164.528 197.439 152.52 197.78 147.269 192.053C130.238 173.476 108.002 164.074 83.993 158.513C68.2951 154.876 52.3548 153.816 36.3463 156.717C34.5356 157.043 33.8537 156.626 34.2932 154.535C35.672 147.929 35.6266 148.353 42.2709 147.717C55.1959 146.474 67.9087 147.391 80.5685 149.997C102.176 154.452 122.23 162.551 140.133 175.605C145.012 179.158 149.671 183.029 154.323 186.878C157.459 189.469 160.422 189.537 163.316 186.704C174.225 176.021 186.9 167.945 200.689 161.604C222.061 151.778 244.661 147.368 268.11 147.111C270.61 147.08 273.11 147.618 275.618 147.755C283.679 148.194 283.679 148.171 284.997 156.914C281.588 156.657 278.231 156.399 274.868 156.141C272.375 155.543 269.852 155.263 267.284 155.558C262.473 155.384 257.67 155.293 252.897 156.081C250.851 156.247 248.73 155.679 246.775 156.717L246.767 156.71Z" fill="white"/>
<path d="M249.051 131.467C256.984 131.626 264.833 129.884 272.818 130.634C276.386 130.967 278.341 132.05 278.508 135.786C278.568 137.126 279.098 138.452 279.515 140.21C271.469 139.475 263.673 139.005 255.908 139.475C233.21 140.846 211.792 146.816 191.775 157.711C181.191 163.469 171.668 170.644 162.88 178.864C158.296 183.152 157.713 183.031 153.038 178.629C132.226 159.029 107.52 147.21 79.5795 141.801C67.3743 139.437 55.1236 138.49 42.7365 140.013C41.6379 140.149 40.5091 140.028 39.0469 140.028C39.8803 137.43 40.7439 135.073 41.3576 132.657C41.7364 131.156 42.691 131.134 43.8805 131.05C62.9952 129.785 81.4054 133.073 99.6943 138.521C119.158 144.324 136.052 154.324 151.394 167.31C152.356 168.121 153.273 168.992 154.175 169.871C158.342 173.924 158.463 174.06 162.668 170.113C174.835 158.688 188.593 149.809 203.92 143.21C214.746 138.551 226.035 135.626 237.551 133.407C238.157 133.293 238.74 133.066 239.339 132.891C242.574 132.414 245.809 131.937 249.044 131.452L249.051 131.467Z" fill="white"/>
<path d="M233.798 126.095C207.092 130.913 183.523 141.99 163.923 161.013C159.824 164.991 157.597 165.142 153.453 161.225C139.49 148.05 123.193 138.936 105.139 132.595C87.1762 126.284 68.9403 122.026 49.7574 122.852C47.9997 122.928 46.2421 122.86 44.2344 122.86C44.9768 120.481 45.6739 118.382 46.2724 116.261C46.6891 114.783 47.5527 114.488 49.0453 114.45C71.1677 113.844 92.3205 118.223 112.822 126.36C126.762 131.89 139.399 139.535 150.93 149.051C151.991 149.929 152.945 150.952 153.907 151.945C157.741 155.899 158.779 155.975 162.938 152.21C172.31 143.724 182.507 136.376 193.841 130.815C205.047 125.322 216.691 120.89 229.048 118.594C231.306 118.178 233.192 118.102 234.313 120.746C235.397 123.322 237.852 123.716 240.359 123.716C240.791 124.769 240.155 124.981 239.314 125.117C237.473 125.42 235.647 125.769 233.813 126.102L233.798 126.095Z" fill="white"/>
<path d="M54.952 97.6701C69.7635 96.8215 84.8325 100.829 99.7121 104.958C120.319 110.671 139.389 119.861 155.306 134.596C157.375 136.513 158.776 136.74 160.996 134.816C176.739 121.156 194.816 111.709 214.681 105.595C218.158 104.527 221.719 103.701 225.234 102.731C227.235 102.178 228.068 102.739 227.773 104.928C226.954 110.974 227 110.997 220.833 112.497C198.96 117.823 179.633 127.899 163.072 143.211C159.102 146.885 156.284 146.87 152.397 142.991C137.002 127.657 118.084 118.899 97.5529 112.815C82.8021 108.443 67.8315 106.201 52.4973 106.155C50.0351 106.148 49.2774 105.398 50.179 103.057C50.679 101.769 51.1336 100.443 51.4064 99.0944C51.717 97.5261 52.4367 96.8594 54.952 97.6776V97.6701Z" fill="white"/>
<path d="M233.252 88.4719C234.585 87.2218 234.35 85.4869 233.858 84.2217C232.835 81.6079 233.373 78.9941 233.214 76.3879C233.07 74.1605 233.736 72.7134 236.411 73.0695C238.911 73.4029 239.54 72.2285 239.426 69.7511C239.123 63.0765 239.191 56.3943 239.017 49.7121C238.956 47.4089 239.017 45.1588 241.888 44.924C244.669 44.6967 245.457 46.9695 245.858 49.1287C246.957 55.1064 246.896 61.1597 246.858 67.2131C246.843 69.7284 245.305 73.3574 250.397 73.024C251.7 72.9407 251.45 74.5166 251.442 75.4712C251.389 86.5627 251.306 97.6467 251.23 108.738C251.23 109.617 251.351 110.776 250.397 111.072C246.01 112.443 241.775 114.542 236.956 114.034C234.82 113.807 234.04 112.966 234.327 110.61C235.04 104.708 234.176 98.7755 234.191 92.8509C234.191 91.9494 234.055 91.0857 233.267 90.4872C233.964 89.8053 233.782 89.131 233.252 88.4643V88.4719Z" fill="white"/>
<path d="M143 200.765C143.189 199.682 142.515 198.083 143.848 197.424C145.182 196.765 146.083 198.242 147.053 198.894C155.478 204.576 161.182 204.515 169.425 198.538C170.138 198.022 170.812 197.439 171.562 196.992C173.676 195.719 174.85 196.318 175.054 198.81C175.358 202.5 174.274 205.758 172.001 208.637C168.077 213.629 162.523 215.614 156.644 214.955C150.871 214.311 146.053 211.182 143.697 205.288C143.113 203.826 143.037 202.371 143 200.758V200.765Z" fill="white"/>
<path d="M249.609 121.239C250.996 120.526 252.329 119.451 252.807 118.132C254.261 114.125 257.413 114.162 260.731 114.284C262.246 114.344 263.754 114.375 265.269 114.428C270.335 114.614 273.406 117.448 274.482 122.928H254.42C252.95 121.981 250.261 124.519 249.617 121.239H249.609Z" fill="white"/>
<path d="M263.258 105.79C262.25 105.79 261.243 105.843 260.243 105.782C256.485 105.547 254.742 102.994 255.886 99.4559C255.924 99.3423 255.901 99.1529 255.97 99.1074C258.932 97.2891 262.288 98.5544 265.409 97.8877C267.107 97.524 267.425 98.8953 267.804 100.123C269.026 104.062 267.508 105.951 263.25 105.79H263.258Z" fill="white"/>
<path d="M158.966 390.057C151.481 389.648 146.685 386.595 145.632 380.542C144.586 374.579 145.42 366.745 152.92 363.579C154.587 362.874 154.579 361.7 154.572 360.23C154.488 320.978 154.443 281.718 154.398 242.466C154.398 237.465 154.398 237.662 159.307 237.806C161.959 237.882 162.004 239.2 162.004 241.14C162.004 251.739 162.118 262.346 162.11 272.945C162.095 301.848 162.05 330.751 161.966 359.647C161.966 361.904 162.231 363.238 164.762 364.366C172.239 367.715 174.141 377.655 168.921 384.352C168.073 385.436 167.012 386.36 166.05 387.36L165.944 387.444C163.883 388.285 161.822 389.133 159.762 389.974C159.496 390.004 159.239 390.027 158.974 390.057H158.966ZM164.231 375.852C164.194 372.875 161.337 370.344 158.117 370.435C155.231 370.518 153.019 372.882 153.041 375.875C153.064 379.436 155.595 381.966 158.966 381.807C161.625 381.678 164.262 378.693 164.231 375.852Z" fill="white"/>
<path d="M178.523 235.283C179.94 238.367 179.895 241.7 179.933 244.897C180.319 280.483 180.357 316.068 179.948 351.653C179.933 352.661 179.72 353.684 179.819 354.676C180.22 358.76 177.478 358.987 174.561 359.116C173.144 359.177 172.455 358.578 172.387 357.169C172.265 354.775 171.985 352.388 171.978 349.994C171.894 313.523 171.864 277.051 171.758 240.587C171.758 238.662 172.106 237.541 174.213 237.132C175.644 236.851 176.963 235.973 178.516 235.283H178.523Z" fill="white"/>
<path d="M139.291 359.116C136.677 358.73 137.177 356.585 137.132 354.972C136.912 347.032 136.707 339.084 136.7 331.137C136.67 301.87 136.7 272.611 136.738 243.344C136.738 241.079 137.064 238.798 136.973 236.541C136.867 234.078 137.95 234.442 139.708 234.821C143.374 235.624 144.837 237.162 144.806 241.405C144.556 278.869 144.64 316.333 144.625 353.797C144.746 357.479 143.17 359.449 139.291 359.116Z" fill="white"/>
<path d="M192.344 224.957C193.957 226.086 195.829 225.624 197.594 225.821C197.594 228.844 197.594 231.866 197.594 234.882C195.594 234.92 193.586 234.965 191.586 235.003C191.639 231.639 191.525 228.26 192.344 224.957Z" fill="white"/>
</svg>
