<svg width="50" height="35" viewBox="0 0 50 35" fill="none" xmlns="http://www.w3.org/2000/svg">
<path d="M45.4665 8.26392H10.0479V30.4403H45.4665V8.26392Z" fill="white" stroke="white" stroke-width="1.93108" stroke-miterlimit="10"/>
<path d="M44.1901 10.8169H11.3241V28.9422H44.1901V10.8169Z" fill="white" stroke="white" stroke-width="1.93108" stroke-miterlimit="10"/>
<path d="M11.8546 28.4564V11.3716H43.4351L11.8546 28.4564Z" fill="white"/>
<path d="M6.51428 30.4702C6.54631 32.2962 7.34989 33.7609 8.34325 33.7609H47.1712C48.1642 33.7609 48.9681 32.2962 49 30.4702H6.51428Z" fill="white" stroke="white" stroke-width="1.93108" stroke-miterlimit="10"/>
<path d="M40.8573 32.0059C40.8573 32.4519 40.4957 32.8136 40.0495 32.8136C39.6034 32.8136 39.2421 32.452 39.2421 32.0059C39.2421 31.5597 39.6034 31.1982 40.0495 31.1982C40.4957 31.1982 40.8573 31.5597 40.8573 32.0059Z" fill="white" stroke="white" stroke-width="1.93108" stroke-miterlimit="10"/>
<path d="M44.1188 32.0059C44.1188 32.4519 43.7573 32.8136 43.3112 32.8136C42.865 32.8136 42.5034 32.452 42.5034 32.0059C42.5034 31.5597 42.865 31.1982 43.3112 31.1982C43.7572 31.1982 44.1188 31.5597 44.1188 32.0059Z" fill="white" stroke="white" stroke-width="1.93108" stroke-miterlimit="10"/>
<path d="M27.7572 10.366C28.2032 10.366 28.5648 10.0044 28.5648 9.55835C28.5648 9.11232 28.2032 8.75073 27.7572 8.75073C27.3112 8.75073 26.9496 9.11232 26.9496 9.55835C26.9496 10.0044 27.3112 10.366 27.7572 10.366Z" fill="white" stroke="white" stroke-width="1.93108" stroke-miterlimit="10"/>
<path d="M32.2442 30.5403H23.2699V31.8565H32.2442V30.5403Z" fill="white" stroke="white" stroke-width="1.93108" stroke-miterlimit="10"/>
<path d="M3.00028 20.1666L2.05062 20.1578L1.9005 14.0721C1.30781 13.0334 1.67076 11.7061 2.70962 11.1134L11.4961 6.10035C12.57 5.4876 13.6557 5.50885 14.0214 6.14959L14.4377 6.87938L13.6496 7.32899L13.2332 6.5992C13.1545 6.52855 12.6303 6.49817 11.9462 6.88851L3.15968 11.9014C2.55561 12.2461 2.34457 13.0179 2.68911 13.622L3.00028 20.1666Z" fill="white" stroke="white" stroke-width="1.52499" stroke-miterlimit="10"/>
<path d="M13.3068 5.68457C13.4147 5.7597 13.5045 5.854 13.57 5.96909L13.9866 6.69888L13.4611 6.99867L13.6495 7.32899L14.4377 6.87938L14.0213 6.14959C13.8787 5.89935 13.6253 5.74504 13.3068 5.68457Z" fill="white"/>
<path d="M12.7817 6.41891C12.703 6.34827 12.1788 6.31773 11.4946 6.70822L2.70804 11.7211C2.10398 12.0658 1.89294 12.8376 2.23748 13.4417L2.5223 19.986H2.85427L2.68859 13.6221C2.34405 13.018 2.55508 12.2462 3.15915 11.9015L11.9457 6.88857C12.3134 6.67874 12.6341 6.59118 12.8651 6.56529L12.7817 6.41891Z" fill="white"/>
<path d="M23.3649 8.38421C23.3649 8.38421 19.2659 9.88196 18.1308 14.54C13.3737 12.9848 9.81801 16.1132 9.81801 16.1132L6.97803 11.1354L20.5249 3.40649L23.3649 8.38421Z" fill="white" stroke="white" stroke-width="1.52499" stroke-miterlimit="10"/>
<path d="M13.9396 7.16382L6.97803 11.1356L9.81801 16.1133C9.81801 16.1133 13.3737 12.9849 18.1308 14.5401C18.1326 14.5331 18.1346 14.5264 18.1362 14.5195L13.9396 7.16382Z" fill="white"/>
<path d="M1.6593 21.7682C1.65331 22.4232 1 25.0279 1 25.0279L3.51011 25.0509C3.51011 25.0509 3.17545 23.0638 3.18713 21.7823C3.19296 21.1594 2.85561 20.6514 2.43354 20.6475C2.01177 20.6436 1.66513 21.1453 1.6593 21.7682Z" fill="white" stroke="white" stroke-width="1.52499" stroke-miterlimit="10"/>
<path d="M2.10156 20.7573C2.20259 20.6868 2.31499 20.6465 2.43383 20.6477C2.85575 20.6516 3.19325 21.1596 3.18742 21.7825C3.17559 23.064 3.5104 25.0512 3.5104 25.0512L2.84812 25.0452C2.84812 25.0452 2.5133 23.0579 2.52513 21.7764C2.52902 21.3287 2.3557 20.9418 2.10156 20.7573Z" fill="white"/>
<path d="M3.15535 20.5111C3.15371 20.7007 3.08126 20.8537 2.99401 20.8529L2.0445 20.8441C1.95709 20.8434 1.8875 20.689 1.88944 20.4996C1.89124 20.3101 1.96338 20.157 2.05079 20.1577L3.00044 20.1665C3.0877 20.1671 3.15715 20.3216 3.15535 20.5111Z" fill="white" stroke="white" stroke-width="1.52499" stroke-miterlimit="10"/>
<path d="M2.89419 20.2949L2.55848 20.2917C2.62509 20.2923 2.67822 20.3887 2.67702 20.5071C2.67598 20.6254 2.62105 20.7207 2.55444 20.7201L2.8903 20.7232C2.95691 20.7237 3.01168 20.6285 3.01273 20.5101C3.01408 20.3919 2.96095 20.2953 2.89419 20.2949Z" fill="white"/>
<path d="M23.9701 1.44095C24.2094 1.86018 24.0635 2.3939 23.6441 2.63307L4.43322 13.5935C4.014 13.8327 3.48012 13.6868 3.2411 13.2674C3.00193 12.8482 3.14786 12.3145 3.56708 12.0753L22.7779 1.11497C23.1972 0.875799 23.7309 1.02188 23.9701 1.44095Z" fill="white" stroke="white" stroke-width="1.52499" stroke-miterlimit="10"/>
<path d="M3.2467 13.2763C3.48842 13.6886 4.01705 13.8311 4.43329 13.5937L23.644 2.63328C24.0602 2.39575 24.2066 1.86817 23.9746 1.45044L3.2467 13.2763Z" fill="white"/>
<path d="M14.57 5.44987C14.6667 5.61915 14.6075 5.83467 14.4383 5.93136L12.599 6.98069C12.4297 7.07738 12.214 7.01841 12.1175 6.84913C12.0209 6.67986 12.0798 6.46418 12.2492 6.36764L14.0885 5.31816C14.2579 5.22162 14.4734 5.28044 14.57 5.44987Z" fill="white" stroke="white" stroke-width="1.52499" stroke-miterlimit="10"/>
<path d="M12.1479 6.89158C12.2544 7.02644 12.4452 7.06804 12.5991 6.98034L14.4383 5.931C14.5921 5.8433 14.6536 5.65785 14.5913 5.49756L12.1479 6.89158Z" fill="white"/>
</svg>
