<svg width="48" height="48" viewBox="0 0 48 48" fill="none" xmlns="http://www.w3.org/2000/svg">
<path fill-rule="evenodd" clip-rule="evenodd" d="M5.31999 29.2614C5.74532 30.7205 6.33632 32.1283 7.08331 33.4488L4.95473 36.1325C4.26006 37.0112 4.33757 38.2621 5.11944 39.0536L8.78558 42.7198C9.5752 43.5094 10.827 43.5791 11.7047 42.8835L14.371 40.7723C15.7439 41.5629 17.203 42.1791 18.7241 42.6141L19.1233 46.0458C19.2541 47.1581 20.1929 47.9923 21.3042 47.9923H26.4904C27.6027 47.9923 28.5405 47.1581 28.6704 46.0458L29.0531 42.7363C30.6856 42.3109 32.2503 41.6763 33.7181 40.8508L36.2982 42.8912C37.176 43.5879 38.4267 43.5094 39.2173 42.7275L42.8835 39.0604C43.6741 38.2708 43.7438 37.019 43.0482 36.1422L41.0417 33.5951C41.8759 32.1534 42.5279 30.6159 42.962 29.0085L46.0545 28.653C47.1668 28.5231 48 27.5843 48 26.473V21.2867C48 20.1745 47.1668 19.2367 46.0545 19.1059L43.0046 18.7493C42.587 17.1594 41.9621 15.6393 41.1628 14.2132L43.0395 11.8423C43.7351 10.9646 43.6566 9.71473 42.8748 8.92318L39.2173 5.26478C38.4267 4.47516 37.176 4.4054 36.2982 5.10104L33.9952 6.92539C32.5012 6.0476 30.9026 5.37814 29.2255 4.92665L28.8777 1.94741C28.7469 0.835163 27.8081 0 26.6968 0H21.5096C20.3983 0 19.4595 0.834194 19.3287 1.94741L18.9818 4.92665C17.2611 5.38686 15.6189 6.08152 14.091 6.99321L11.7018 5.10104C10.8241 4.4054 9.57229 4.48291 8.78268 5.26478L5.11653 8.93193C4.32594 9.72252 4.25618 10.9733 4.95182 11.852L6.95057 14.3788C6.1503 15.8204 5.54283 17.359 5.14269 18.9586L1.94643 19.3229C0.834187 19.4537 0 20.3915 0 21.5038V26.6901C0 27.8013 0.834187 28.7402 1.94643 28.87L5.31999 29.2614ZM24.0034 7.81678C32.9382 7.81678 40.1833 15.0619 40.1833 23.9957C40.1833 32.9324 32.9382 40.1746 24.0034 40.1746C15.0676 40.1746 7.82351 32.9314 7.82351 23.9957C7.82351 15.0609 15.0676 7.81678 24.0034 7.81678Z" fill="white"/>
<path fill-rule="evenodd" clip-rule="evenodd" d="M25.1244 25.2106C26.041 25.4325 26.6998 25.7474 27.098 26.1621C27.5049 26.5738 27.7064 27.0679 27.7064 27.6347C27.7064 28.2761 27.4691 28.8303 26.9837 29.3031C26.508 29.774 25.8859 30.0801 25.1244 30.2206V25.2106ZM18.6612 31.4433C19.755 32.3569 21.1725 32.8985 22.9135 33.0787V35.4369H25.1244V33.0526C27.1096 32.791 28.6559 32.135 29.7691 31.079C30.8853 30.021 31.4404 28.7237 31.4404 27.1822C31.4404 25.8016 30.9996 24.67 30.1131 23.7873C29.2314 22.9105 27.5659 22.1897 25.1244 21.6385V16.645C26.1117 17.0044 26.7211 17.6855 26.9594 18.6902L30.8184 18.2698C30.5539 16.9909 29.9426 15.9678 28.9882 15.2043C28.0291 14.4389 26.7405 13.9758 25.1254 13.814V12.5564H22.9145V13.814C21.1831 13.9584 19.7977 14.5048 18.7561 15.4572C17.7146 16.4047 17.1885 17.5789 17.1885 18.978C17.1885 20.3586 17.6517 21.528 18.5759 22.4998C19.4925 23.4628 20.9409 24.1836 22.9154 24.6603V30.0113C22.3709 29.7884 21.8788 29.4348 21.4321 28.9417C20.9874 28.4485 20.6803 27.8614 20.5195 27.1813L16.5675 27.5737C16.8727 29.2381 17.5683 30.5306 18.6612 31.4433ZM22.9135 16.5907V21.0213C22.2615 20.7849 21.7732 20.471 21.4563 20.0854C21.1405 19.6969 20.9855 19.2783 20.9855 18.8278C20.9855 18.3327 21.157 17.8832 21.5038 17.4733C21.8497 17.0645 22.3177 16.7719 22.9135 16.5907Z" fill="white"/>
</svg>
