<svg width="70" height="65" viewBox="0 0 70 65" fill="none" xmlns="http://www.w3.org/2000/svg">
<path d="M33.8648 35.3601L35.783 35.2616C35.783 35.2616 36.8749 37.802 38.9383 38.6576C42.1315 39.9843 45.0147 37.1437 45.0147 37.1437C45.0147 37.1437 50.4203 46.915 54.4534 46.8041C58.4865 46.6933 58.1109 37.8177 58.1109 37.8177C58.1109 37.8177 55.8821 19.3733 49.9897 16.9831C49.8642 16.4125 49.5422 15.756 49.5422 15.756C49.5422 15.756 46.8231 14.6135 43.7509 14.707C43.1024 15.1891 43.1024 15.1891 43.1024 15.1891C43.1024 15.1891 36.8898 17.1748 32.9319 17.1857C28.9935 17.5801 22.6104 16.2411 22.6104 16.2411C22.6104 16.2411 22.6104 16.2411 21.916 15.8281C18.8501 16.0495 16.2624 17.4646 16.2624 17.4646C16.2624 17.4646 16.0092 18.1507 15.9428 18.7312C10.3263 21.712 9.99755 40.2878 9.99755 40.2878C9.99755 40.2878 10.5329 49.155 14.5559 48.8525C18.5791 48.5498 22.9559 38.2764 22.9559 38.2764C22.9559 38.2764 26.1147 40.8067 29.1556 39.1601C31.1204 38.0978 31.9467 35.459 31.9467 35.459L33.8648 35.3601Z" fill="white" stroke="white" stroke-width="0.616655" stroke-miterlimit="10"/>
<path d="M10.7118 44.4843C10.7118 44.4843 11.6074 47.6084 14.0095 47.2607C17.0446 47.1049 22.5374 35.3479 22.5374 35.3479C22.5374 35.3479 23.6726 38.3829 27.0395 38.2099C30.4065 38.037 30.7723 34.1239 30.7723 34.1239L31.9467 35.4581C31.9467 35.4581 30.6744 38.8947 28.8653 39.3038C25.9719 40.5143 22.9562 38.2754 22.9562 38.2754C22.9562 38.2754 19.9987 44.3021 18.6305 45.8369C17.2623 47.3719 16.0459 48.8514 14.3798 48.8586C12.7136 48.8657 11.5306 46.6588 11.5306 46.6588L10.7118 44.4843Z" stroke="white" stroke-width="0.616655" stroke-miterlimit="10"/>
<path d="M57.7761 42.0554C57.7761 42.0554 57.205 45.2548 54.7801 45.1549C51.745 45.3108 45.0774 34.1778 45.0774 34.1778C45.0774 34.1778 44.2588 37.3131 40.8921 37.4858C37.5252 37.6585 36.7606 33.8034 36.7606 33.8034L35.7291 35.2507C35.7291 35.2507 37.3465 38.5389 39.1882 38.7609C42.1903 39.6687 44.961 37.1328 44.961 37.1328C44.961 37.1328 48.5201 42.8248 50.038 44.2117C51.556 45.5986 52.9176 46.9456 54.5757 46.7824C56.2338 46.6189 57.1847 44.3023 57.1847 44.3023L57.7761 42.0554Z" stroke="white" stroke-width="0.616655" stroke-miterlimit="10"/>
<path d="M33.6039 28.2078L33.6039 28.208C33.6159 28.4405 33.4372 28.6387 33.2042 28.6507C32.9718 28.6627 32.7735 28.484 32.7615 28.251C32.7495 28.0185 32.9282 27.8203 33.1612 27.8083C33.394 27.7965 33.5921 27.9755 33.6039 28.2078Z" fill="white" stroke="white" stroke-width="0.741083"/>
<path d="M33.3372 31.2418L33.3372 31.2418C33.5702 31.2298 33.7489 31.0315 33.737 30.7991C33.725 30.5664 33.5267 30.3876 33.2942 30.3993L33.3372 31.2418ZM33.3372 31.2418C33.1049 31.2538 32.9065 31.075 32.8945 30.8421M33.3372 31.2418L32.8945 30.8421M32.8945 30.8421C32.8827 30.6094 33.0614 30.4114 33.2941 30.3994L32.8945 30.8421Z" fill="white" stroke="white" stroke-width="0.741083"/>
<path d="M26.738 36.366L26.738 36.366C25.3268 36.4384 24.1241 35.3532 24.0518 33.9421L24.0518 33.9421C23.9793 32.5309 25.0646 31.3282 26.4757 31.2559L26.4757 31.2559C27.8869 31.1834 29.0894 32.2686 29.1619 33.6798C29.2344 35.091 28.1491 36.2937 26.738 36.366Z" fill="white" stroke="white" stroke-width="0.741083"/>
<path d="M27.4571 34.9529L27.2214 34.6898L27.4571 34.9529C27.7697 34.6728 27.9058 34.277 27.9706 33.9207C28.0288 33.6009 28.0371 33.2671 28.0384 32.9924C28.4074 33.7032 28.2656 34.5999 27.6416 35.159C27.0175 35.7181 26.1107 35.761 25.4447 35.3165C25.7179 35.3452 26.0506 35.3734 26.3749 35.3505C26.7362 35.325 27.1445 35.233 27.4571 34.9529ZM27.678 32.5201C27.678 32.5201 27.6783 32.5203 27.6791 32.5209L27.678 32.5201ZM25.0146 34.9065C25.0146 34.9065 25.0148 34.9069 25.0152 34.9078L25.0146 34.9065Z" fill="white" stroke="white" stroke-width="0.741083"/>
<path d="M40.9261 35.6382L40.9261 35.6382C39.5149 35.7107 38.3122 34.6255 38.2397 33.2143C38.1672 31.8031 39.2524 30.6004 40.6635 30.5281L40.6636 30.5281C42.0747 30.4556 43.2775 31.5409 43.35 32.952C43.4224 34.3632 42.3372 35.5659 40.9261 35.6382Z" fill="white" stroke="white" stroke-width="0.741083"/>
<path d="M42.2273 32.264C42.226 32.5387 42.2176 32.8725 42.1594 33.1923C42.0946 33.5487 41.9585 33.9445 41.646 34.2246L41.6459 34.2247C41.3333 34.5047 40.925 34.5967 40.5637 34.6222C40.2394 34.645 39.9067 34.6168 39.6336 34.5881C40.2996 35.0325 41.2063 34.9896 41.8305 34.4306L42.2273 32.264ZM42.2273 32.264C42.5963 32.9747 42.4544 33.8714 41.8305 34.4305L42.2273 32.264ZM39.2034 34.178C39.2034 34.178 39.2036 34.1785 39.204 34.1793L39.2034 34.178ZM41.8667 31.7916C41.8667 31.7915 41.8671 31.7918 41.8679 31.7923L41.8667 31.7916Z" fill="white" stroke="white" stroke-width="0.741083"/>
<path d="M37.7303 24.9136L28.4231 25.3912C27.4088 25.4432 26.5363 24.6561 26.4843 23.6418L26.3269 20.5763C26.2749 19.5621 27.0621 18.6896 28.0763 18.6376L37.3835 18.1599C38.3978 18.1079 39.2703 18.8951 39.3223 19.9093L39.4797 22.9748C39.5319 23.9891 38.7445 24.8616 37.7303 24.9136Z" fill="white" stroke="white" stroke-width="0.616655" stroke-miterlimit="10"/>
<path d="M51.6178 23.528C51.7725 26.5414 49.455 29.1096 46.4415 29.2644C43.4281 29.4191 40.8599 27.1016 40.7051 24.0881C40.5504 21.0747 42.8679 18.5065 45.8814 18.3518C48.8948 18.197 51.463 20.5145 51.6178 23.528Z" fill="white" stroke="white" stroke-width="0.741083"/>
<path d="M46.3953 28.3325L46.3953 28.3325C45.7601 28.3652 45.2187 27.8767 45.1861 27.2414C45.1534 26.6063 45.6419 26.0649 46.2774 26.0322L46.2774 26.0322C46.9126 25.9996 47.454 26.4881 47.4866 27.1233C47.5193 27.7585 47.0308 28.2999 46.3953 28.3325Z" fill="white" stroke="white" stroke-width="0.741083"/>
<path d="M45.9306 19.2835L45.9307 19.2835C46.5656 19.2508 47.107 19.7392 47.1397 20.3745C47.1723 21.0097 46.6839 21.5511 46.0486 21.5837C45.4134 21.6164 44.872 21.1279 44.8394 20.4927C44.8067 19.8575 45.2955 19.3159 45.9306 19.2835Z" fill="white" stroke="white" stroke-width="0.741083"/>
<path d="M49.4785 22.4844L49.4784 22.4844C48.8434 22.5169 48.3548 23.0581 48.3872 23.6936L49.4785 22.4844ZM49.4785 22.4844C50.1137 22.4517 50.6551 22.9402 50.6877 23.5755C50.7204 24.2106 50.2319 24.752 49.5964 24.7847L49.5964 24.7847M49.4785 22.4844L49.5964 24.7847M49.5964 24.7847C48.9613 24.8173 48.4199 24.3289 48.3872 23.6937L49.5964 24.7847Z" fill="white" stroke="white" stroke-width="0.741083"/>
<path d="M42.7294 22.8311L42.7295 22.8311C43.3646 22.7984 43.906 23.2869 43.9387 23.9224L43.9387 23.9224C43.9713 24.5576 43.4828 25.0989 42.8476 25.1316C42.2123 25.1642 41.6708 24.6757 41.6384 24.0406L41.6384 24.0404C41.6056 23.405 42.0943 22.8635 42.7294 22.8311ZM42.7105 22.4612L42.7105 22.4612L42.7105 22.4612Z" fill="white" stroke="white" stroke-width="0.741083"/>
<path d="M23.5174 21.1854C25.7148 23.2535 25.8196 26.7114 23.7515 28.9088C21.6833 31.1062 18.2255 31.211 16.0281 29.1429C13.8307 27.0747 13.7259 23.6168 15.794 21.4194C17.8621 19.2221 21.32 19.1173 23.5174 21.1854Z" fill="white" stroke="white" stroke-width="0.741083"/>
<path d="M19.7096 23.9789L18.8347 23.3561L18.7533 21.7712L20.4349 21.6849L20.5163 23.27L19.7096 23.9789Z" fill="white" stroke="white" stroke-width="0.741083"/>
<path d="M19.1038 28.6007L19.0223 27.0157L19.829 26.3066L20.7039 26.9294L20.7853 28.5145L19.1038 28.6007Z" fill="white" stroke="white" stroke-width="0.741083"/>
<path d="M20.9334 25.1039L21.5562 24.229L23.1411 24.1476L23.2274 25.8291L21.6425 25.9106L20.9334 25.1039Z" fill="white" stroke="white" stroke-width="0.741083"/>
<path d="M16.3991 26.1802L16.3128 24.4986L17.8977 24.4172L18.6068 25.2239L17.984 26.0988L16.3991 26.1802Z" fill="white" stroke="white" stroke-width="0.741083"/>
</svg>
