<svg width="403" height="257" viewBox="0 0 403 257" fill="none" xmlns="http://www.w3.org/2000/svg">
<path d="M0.072303 164.871C1.12187 145.215 1.7866 125.567 5.79246 106.183C7.22687 99.2367 7.33183 92.1066 12.3435 86.2378C13.8479 84.4771 13.8654 81.2887 14.189 78.7135C16.0258 64.2167 21.6322 51.3229 30.4049 39.7168C33.9822 34.9867 38.2154 31.045 43.577 28.5135C45.2825 27.7077 45.8598 26.7967 45.9997 24.9397C47.0406 10.6969 55.1485 4.29385 68.7492 1.23683C78.6589 -0.988053 88.9097 0.0105155 98.4695 2.4719C103.919 3.8734 109.971 7.27204 112.787 13.3686C113.916 15.8037 115.376 16.627 118.096 16.627C173.453 16.6095 228.8 16.6796 284.156 16.811C286.439 16.811 287.864 16.2066 289.115 14.2182C295.369 4.30261 304.789 0.439725 316.15 0.273297C326.856 0.115628 337.387 0.211981 346.859 6.52749C353.34 10.8459 357.451 16.3818 357.985 24.2127C358.194 27.2784 359.533 28.9602 362.052 30.7472C375.897 40.5752 384.329 54.1084 388.545 70.5147C396.924 103.135 401.725 136.21 402.714 169.907C403.011 180.129 403.51 190.247 401.725 200.364C398.804 216.91 392.839 231.967 379.859 243.285C368.681 253.025 355.221 258.535 340.675 256.625C318.477 253.708 301.894 241.174 290.917 221.544C285.503 211.865 281.278 201.634 277.64 191.175C276.879 188.976 276.529 188.565 274.238 189.502C256.92 196.597 238.972 190.404 225.852 176.083C223.771 173.805 222.109 172.535 218.444 172.719C206.986 173.288 195.459 173.726 184.009 172.115C182.33 171.878 181.237 172.22 180.065 173.858C170.619 187.076 149.129 198.34 128.461 189.607C126.231 188.661 125.933 189.195 125.172 191.447C118.822 210.235 109.989 227.632 95.0934 241.226C65.3993 268.319 22.8217 257.124 7.43679 221.071C4.9528 215.255 3.07232 209.158 1.28806 203.079C-0.478721 197.053 0.273471 190.755 0.0985422 184.571C-0.093879 178.01 0.0548101 171.44 0.0548101 164.879L0.072303 164.871ZM382.335 199.978C383.647 200.118 383.113 200.802 382.737 201.397C381.084 203.964 379.509 206.6 377.725 209.07C366.888 224.005 353.331 230.566 334.693 227.456C326.288 226.055 319.098 222.131 311.821 218.163C310.229 217.296 308.812 215.614 306.372 216.104C309.381 221.158 312.932 225.372 316.859 229.305C325.938 238.406 336.914 243.171 349.667 241.428C368.463 238.861 382.265 224.215 385.081 203.482C385.422 200.977 384.81 199.847 382.247 200.031C386.131 196.886 386.891 192.647 386.69 187.952C386.043 172.807 385.676 157.644 384.836 142.508C384.285 132.47 383.104 122.467 382.212 112.437C374.507 126.618 363.635 136.911 348.949 143.323C334.089 149.805 319.177 149.288 303.879 144.006C304.448 158.117 300.284 169.811 290.401 179.245C289.631 179.981 289.789 180.734 290.2 181.601C293.908 189.511 296.41 197.946 300.634 205.628C301.605 207.397 302.506 209.71 304.483 210.227C310.168 211.707 314.891 215.439 320.646 216.7C341.681 221.316 360.757 217.602 377.428 203.464C378.958 202.168 380.279 200.556 382.361 200.013L382.335 199.978ZM99.003 145.749C64.0786 151.372 37.402 140.362 19.9792 107.944C19.2095 119.707 18.3173 130.534 17.8363 141.378C17.1978 155.805 17.0404 170.249 16.3581 184.667C15.8858 194.723 17.1366 204.393 20.6264 213.844C26.8713 230.75 44.2417 242.917 61.1048 241.042C76.1049 239.378 86.8193 230.408 95.347 218.487C95.4345 218.364 95.2333 218.023 95.0759 217.471C89.6969 219.634 84.3178 221.701 79.0262 223.961C70.8571 227.448 62.513 229.068 53.6529 227.159C40.7694 224.391 30.9996 217.208 23.6614 206.416C23.0404 205.497 22.4719 204.559 23.1803 203.692C24.1599 202.483 25.0958 203.71 25.6993 204.279C27.641 206.092 30.055 207.056 32.3291 208.247C44.7315 214.703 57.5625 219.319 71.9154 218.452C79.7959 217.979 86.8543 215.044 94.1575 212.618C97.796 211.409 100.254 209.491 101.749 206.092C105.143 198.384 108.449 190.632 112.009 183.003C113.163 180.524 112.936 178.781 111.108 176.818C102.869 168.007 98.9068 157.487 99.003 145.731V145.749ZM78.9213 133.381C103.884 133.924 130.35 110.773 130.35 82.8304C130.35 60.6254 110.715 33.2611 80.4082 33.5239C53.9852 33.7604 30.2824 57.2355 29.7576 83.8202C29.1804 113.532 56.6266 133.985 78.9213 133.381ZM256.753 92.7022C256.753 73.817 256.745 54.5814 256.771 35.3458C256.771 33.0334 256.386 31.7808 253.439 31.7895C219.791 31.9297 186.135 31.8771 152.487 31.9297C145.893 31.9384 145.901 32.0348 146.269 38.2977C146.365 39.9007 146.347 41.5037 146.347 43.1066C146.347 58.4268 146.435 73.7469 146.251 89.0583C146.216 92.0715 146.916 92.8336 149.951 92.781C185.584 92.1591 221.217 90.8452 256.753 92.6934V92.7022ZM374.813 82.6815C373.99 73.5017 371.673 63.1919 364.693 54.4062C362.157 51.2091 359.078 48.6864 356.025 46.0235C347.987 39.0248 338.944 34.3473 328.325 33.6553C311.873 32.5779 297.8 39.3051 287.13 50.885C278.103 60.6779 271.369 72.6432 273.214 87.2801C274.587 98.1856 279.38 107.181 286.544 115.538C295.351 125.804 306.547 131.401 319.247 133.214C343.457 136.665 374.174 117.465 374.813 82.6727V82.6815ZM230.812 148.561C231.328 165.081 244.683 178.054 260.593 177.484C275.987 176.932 289.841 162.155 289.325 146.835C288.757 129.877 275.436 116.948 259.063 117.456C242.995 117.955 230.296 131.944 230.812 148.569V148.561ZM165.266 107.427C165.117 107.944 164.969 108.46 164.82 108.977C165.887 109.914 166.893 110.922 168.03 111.771C182.155 122.291 188.505 136.254 186.52 153.834C186.231 156.357 187.377 156.733 189.38 156.908C196.937 157.574 204.494 157.732 212.068 157.6C215.666 157.542 217.249 155.74 216.817 152.196C215.392 140.493 217.552 129.842 225.354 120.566C229.421 115.739 233.549 111.079 239.077 107.584C214.386 106.595 189.817 107.287 165.257 107.427H165.266ZM143.986 177.256C158.584 177.388 172.394 163.39 172.324 148.534C172.246 132.084 159.266 117.885 143.907 117.815C131.435 117.763 113.872 128.002 114.327 147.002C114.72 163.714 127.368 177.099 143.986 177.248V177.256ZM110.872 31.5793C118.884 39.4978 124.018 49.0105 130.578 57.8224C131.444 49.8513 131.461 42.1431 131.426 34.4349C131.426 33.2611 132.056 31.5881 129.878 31.5881C123.545 31.5705 117.204 31.5881 110.872 31.5881V31.5793ZM293.392 31.8859C286.631 31.8859 279.862 31.9297 273.101 31.8596C271.386 31.8421 271.273 32.8144 271.273 34.0582C271.273 42.2482 271.273 50.4295 271.273 59.2414C274.981 54.1084 277.001 48.6075 280.771 44.2016C284.558 39.7693 288.625 35.705 293.401 31.8859H293.392ZM82.4811 14.2971C76.9883 13.9992 71.9241 14.4022 67.1136 16.2066C65.0145 16.9949 61.3322 16.8635 61.7608 20.1045C62.2331 23.6608 65.7667 22.1192 67.8396 21.9703C77.1108 21.3133 86.3645 20.7527 95.6619 21.5498C96.7115 21.6374 98.8106 22.8988 98.2946 20.4899C97.9185 18.7556 100.236 15.4533 95.9855 15.2781C91.3587 15.0854 86.7843 14.0168 82.4898 14.3058L82.4811 14.2971ZM323.742 21.1907C327.582 20.9191 333.18 22.0491 338.839 22.3206C339.967 22.3732 341.183 22.7498 341.541 21.0243C341.839 19.5877 341.795 18.4052 340.247 17.7833C338.769 17.1876 337.317 16.4694 335.786 16.0752C326.62 13.7365 317.454 13.8941 308.174 15.681C305.305 16.2329 304.404 17.0738 304.728 19.8943C305.121 23.3017 307.71 22.3644 309.337 22.0841C313.518 21.3746 317.699 21.3396 323.751 21.1907H323.742Z" fill="white"/>
<path d="M88.161 105.43C88.161 106.7 88.1347 107.576 88.161 108.443C88.4234 115.88 88.4059 116.169 81.0764 115.599C69.7323 114.723 71.9889 116.379 71.053 105.5C70.432 98.3345 74.123 94.2877 78.2163 89.8729C79.1347 88.8831 79.8344 88.489 81.0939 89.5138C85.607 93.1752 89.7353 96.9593 88.2572 103.651C88.0998 104.352 88.1697 105.097 88.161 105.421V105.43Z" fill="white"/>
<path d="M59.0343 91.5282C46.0896 91.0902 47.0867 93.1049 46.7106 80.43C46.5881 76.3657 47.9526 74.7452 52.1246 74.8941C58.7019 75.1306 65.4279 73.9656 70.8944 79.3176C73.0286 81.4111 73.4397 82.7425 71.7691 85.5017C68.3055 91.2391 63.4075 92.4742 59.0343 91.5369V91.5282Z" fill="white"/>
<path d="M101.83 91.7039C96.5817 93.193 92.0598 90.2061 88.1326 85.3709C86.5058 83.365 86.4096 81.9985 88.2463 80.2116C91.0364 77.4962 94.0802 75.4991 98.1298 75.3677C100.736 75.2889 103.334 74.991 105.94 74.8596C112.911 74.5093 113.042 74.5268 113.042 81.7533C113.042 93.1229 114.897 91.0995 101.83 91.7039Z" fill="white"/>
<path d="M88.1786 60.5294C88.3623 66.4419 88.9133 71.2333 83.7704 73.9575C81.7937 74.9999 79.9657 77.6977 77.6654 76.1999C74.7529 74.2991 71.263 72.3545 71.1056 68.115C70.9482 63.7616 71.0794 59.3994 70.9482 55.0372C70.8869 53.0576 71.8141 52.5496 73.5458 52.5408C75.1377 52.5321 76.7295 52.243 78.3214 52.2518C89.9716 52.278 87.5314 50.9729 88.1874 60.5294H88.1786Z" fill="white"/>
<path d="M189.793 41.4773C207.329 41.8189 222.435 42.5109 237.513 43.8949C239.464 44.07 240.443 44.4555 240.338 46.584C240.233 48.73 238.834 48.1344 237.566 48.1957C215.192 49.2731 192.81 50.2629 170.402 50.2542C168.81 50.2542 167.096 50.1053 165.635 50.6045C161.201 52.1287 160.457 50.298 160.23 46.1811C159.994 41.9766 161.288 41.2408 165.154 41.3809C174.163 41.6963 183.189 41.4773 189.802 41.4773H189.793Z" fill="white"/>
<path d="M336.874 57.2366C336.874 63.4995 331.32 68.5537 324.366 68.5975C316.486 68.65 312.401 61.9579 311.658 55.6424C311.054 50.5444 318.909 44.1501 324.9 44.2552C330.594 44.3515 336.882 51.1663 336.874 57.2278V57.2366Z" fill="white"/>
<path d="M324.55 99.1318C331.101 99.0705 337.792 105.193 337.705 111.158C337.6 117.675 332.002 122.826 324.996 122.861C318.235 122.896 312.576 117.483 312.524 110.922C312.471 104.554 317.938 99.1931 324.559 99.123L324.55 99.1318Z" fill="white"/>
<path d="M365.15 83.2508C365.202 89.6977 359.937 94.5767 352.887 94.6205C346.266 94.6555 340.581 89.5838 340.555 83.6099C340.537 77.5134 347.001 70.6724 352.738 70.7249C359.534 70.7862 365.088 76.3922 365.15 83.2508Z" fill="white"/>
<path d="M309.652 83.6445C309.53 90.1702 304.194 94.9178 297.101 94.8039C290.786 94.7076 285.512 89.557 285.547 83.5218C285.591 76.2866 291.066 70.5229 297.687 70.7507C303.67 70.9609 309.766 77.5304 309.661 83.6532L309.652 83.6445Z" fill="white"/>
<path d="M259.599 131.428C267.943 131.699 276.051 140.301 275.701 148.5C275.325 157.224 267.392 165.002 259.293 164.599C250.774 164.179 243.864 156.164 244.091 146.958C244.31 138.102 251.246 131.165 259.608 131.437L259.599 131.428Z" fill="white"/>
<path d="M201.649 135.229C204.194 135.256 206.258 135.702 206.171 138.418C206.083 141.142 204.229 142.649 201.649 142.649C199.008 142.649 198.57 140.406 198.413 138.339C198.229 135.816 199.83 135.133 201.649 135.229Z" fill="white"/>
<path d="M127.649 147.763C127.964 138.749 135.005 131.453 143.244 131.628C151.597 131.803 159.39 140.256 159.075 148.805C158.734 157.959 151.806 165.141 143.497 164.949C135.179 164.756 127.351 156.277 127.649 147.763Z" fill="white"/>
</svg>
