<svg width="81" height="76" viewBox="0 0 81 76" fill="none" xmlns="http://www.w3.org/2000/svg">
<path d="M58.9479 10.5851C58.9292 10.5086 58.9097 10.4326 58.8896 10.3568L61.7802 9.0933C61.6357 8.62368 61.464 8.15707 61.2625 7.6961C61.061 7.23512 60.8352 6.7922 60.5885 6.36713L57.696 7.63143C56.9921 6.52242 56.0788 5.57867 55.0249 4.84078L56.4349 1.9988C56.0222 1.73184 55.5909 1.48481 55.1401 1.26128C54.6893 1.03756 54.2317 0.843548 53.7696 0.676418L52.3596 3.51839C51.1465 3.13018 49.8474 2.97357 48.5277 3.08806L47.78 0C47.2923 0.0609116 46.8031 0.148894 46.3142 0.267334C45.8252 0.385773 45.3499 0.531285 44.8884 0.700296L45.636 3.78836C44.4114 4.28957 43.3289 5.0222 42.4282 5.92102L39.8652 4.03219C39.5308 4.39221 39.2125 4.77403 38.9141 5.17917C38.6156 5.58431 38.3451 6.00129 38.1003 6.4273L40.6624 8.31556C40.0636 9.45069 39.6833 10.7041 39.5633 12.0086L36.394 12.2086C36.3692 12.6995 36.3709 13.1966 36.4027 13.6987C36.4344 14.2009 36.4952 14.6942 36.5815 15.1781L39.7442 14.9784C39.7616 15.0594 39.7803 15.1407 39.7998 15.2217C40.0948 16.4395 40.6058 17.5491 41.2818 18.5207L38.9905 20.7035C39.287 21.0955 39.6079 21.4751 39.9549 21.8394C40.302 22.2038 40.6657 22.5425 41.0427 22.8578L43.3312 20.6776C44.3558 21.4725 45.5321 22.0631 46.7907 22.4076L46.4397 25.5421C46.9188 25.6517 47.4087 25.7363 47.9086 25.7923C48.4086 25.8483 48.905 25.8741 49.3964 25.8731L49.7463 22.7482C50.3905 22.7236 51.0416 22.6352 51.6919 22.4779C52.331 22.3231 52.9404 22.1083 53.5158 21.8419L55.2561 24.4601C55.6936 24.2362 56.1232 23.9862 56.5422 23.7076C56.9613 23.429 57.3581 23.1297 57.7339 22.8131L55.994 20.1954C56.9607 19.3148 57.7407 18.2513 58.2923 17.0752L61.3146 17.964C61.5058 17.5113 61.674 17.0436 61.8161 16.5608C61.9581 16.078 62.0698 15.5937 62.1542 15.1096L59.1358 14.2219C59.2968 13.0407 59.2449 11.8114 58.9479 10.5851ZM50.8543 21.1107C46.2593 21.9676 41.8396 18.9373 40.9827 14.3422C40.1258 9.74717 43.1562 5.32751 47.7512 4.47061C52.3463 3.61371 56.7659 6.64406 57.6228 11.2391C58.4797 15.8342 55.4494 20.2538 50.8543 21.1107Z" fill="#087071"/>
<path d="M52.9879 13.5498C53.4051 11.5153 52.0941 9.52775 50.0595 9.11051C48.025 8.69326 46.0375 10.0043 45.6202 12.0388C45.203 14.0734 46.514 16.0609 48.5486 16.4781C50.5831 16.8954 52.5706 15.5843 52.9879 13.5498Z" stroke="#087071" stroke-width="0.563996" stroke-miterlimit="10"/>
<path d="M49.1293 6.51991C49.0302 5.98881 48.5195 5.63838 47.9882 5.73746C47.4571 5.83654 47.1066 6.34732 47.2057 6.87861C47.3048 7.4097 47.8156 7.76014 48.3469 7.66106C48.878 7.56199 49.2284 7.05119 49.1293 6.51991Z" fill="#087071"/>
<path d="M44.7463 8.4801C44.3007 8.17461 43.6916 8.28816 43.3861 8.73372C43.0806 9.17928 43.1942 9.7882 43.6397 10.0939C44.0853 10.3994 44.6942 10.2858 44.9999 9.84028C45.3054 9.39472 45.1918 8.78579 44.7463 8.4801Z" fill="#087071"/>
<path d="M43.0324 12.965C42.5013 13.0641 42.1508 13.5751 42.2499 14.1062C42.349 14.6373 42.8598 14.9877 43.3911 14.8886C43.9222 14.7895 44.2726 14.2787 44.1735 13.7475C44.0744 13.2162 43.5636 12.8659 43.0324 12.965Z" fill="#087071"/>
<path d="M44.9921 17.3481C44.6866 17.7936 44.8001 18.4025 45.2457 18.7082C45.6912 19.0139 46.3002 18.9002 46.6059 18.4546C46.9113 18.0091 46.7978 17.4001 46.3522 17.0944C45.9067 16.7888 45.2978 16.9025 44.9921 17.3481Z" fill="#087071"/>
<path d="M49.4777 19.0612C49.5768 19.5923 50.0876 19.9428 50.6188 19.8437C51.1499 19.7446 51.5004 19.2338 51.4013 18.7025C51.3022 18.1714 50.7914 17.821 50.2601 17.9201C49.729 18.0192 49.3786 18.5301 49.4777 19.0612Z" fill="#087071"/>
<path d="M53.8604 17.1017C54.306 17.4072 54.9149 17.2936 55.2206 16.8481C55.5261 16.4025 55.4125 15.7936 54.967 15.4879C54.5214 15.1824 53.9123 15.296 53.6068 15.7415C53.3013 16.1873 53.4149 16.7962 53.8604 17.1017Z" fill="#087071"/>
<path d="M55.5737 12.6161C56.1048 12.5171 56.4552 12.0061 56.3561 11.475C56.2571 10.9439 55.7463 10.5935 55.215 10.6925C54.6839 10.7916 54.3335 11.3024 54.4325 11.8337C54.5316 12.3648 55.0424 12.7152 55.5737 12.6161Z" fill="#087071"/>
<path d="M53.6137 8.23285C53.9192 7.78729 53.8056 7.17818 53.36 6.87268C52.9145 6.56719 52.3054 6.68074 51.9999 7.12629C51.6944 7.57185 51.8079 8.18078 52.2535 8.48646C52.6992 8.79196 53.3082 8.67841 53.6137 8.23285Z" fill="#087071"/>
<mask id="mask0_1953_4058" style="mask-type:luminance" maskUnits="userSpaceOnUse" x="7" y="11" width="24" height="24">
<path d="M19.012 34.4859C25.3078 34.4859 30.4117 29.3821 30.4117 23.0862C30.4117 16.7903 25.3078 11.6865 19.012 11.6865C12.7161 11.6865 7.6123 16.7903 7.6123 23.0862C7.6123 29.3821 12.7161 34.4859 19.012 34.4859Z" fill="white"/>
</mask>
<g mask="url(#mask0_1953_4058)">
<path d="M-4.95129 23.8681L19.7946 -0.87793" stroke="#087071" stroke-width="0.187999" stroke-miterlimit="10"/>
<path d="M-4.49744 24.323L20.2486 -0.422852" stroke="#087071" stroke-width="0.187999" stroke-miterlimit="10"/>
<path d="M-4.04346 24.7771L20.7026 0.03125" stroke="#087071" stroke-width="0.187999" stroke-miterlimit="10"/>
<path d="M-3.58838 25.2314L21.1577 0.485352" stroke="#087071" stroke-width="0.187999" stroke-miterlimit="10"/>
<path d="M-3.1333 25.6855L21.6126 0.939453" stroke="#087071" stroke-width="0.187999" stroke-miterlimit="10"/>
<path d="M-2.68042 26.1404L22.0657 1.39453" stroke="#087071" stroke-width="0.187999" stroke-miterlimit="10"/>
<path d="M-2.22534 26.5945L22.5207 1.84863" stroke="#087071" stroke-width="0.187999" stroke-miterlimit="10"/>
<path d="M-1.77136 27.0488L22.9747 2.30273" stroke="#087071" stroke-width="0.187999" stroke-miterlimit="10"/>
<path d="M-1.31628 27.5029L23.4296 2.75684" stroke="#087071" stroke-width="0.187999" stroke-miterlimit="10"/>
<path d="M-0.862305 27.957L23.8838 3.21094" stroke="#087071" stroke-width="0.187999" stroke-miterlimit="10"/>
<path d="M-0.408325 28.4119L24.3377 3.66602" stroke="#087071" stroke-width="0.187999" stroke-miterlimit="10"/>
<path d="M0.0467529 28.8662L24.7928 4.12012" stroke="#087071" stroke-width="0.187999" stroke-miterlimit="10"/>
<path d="M0.500732 29.3203L25.2466 4.57422" stroke="#087071" stroke-width="0.187999" stroke-miterlimit="10"/>
<path d="M0.954712 29.7754L25.7006 5.0293" stroke="#087071" stroke-width="0.187999" stroke-miterlimit="10"/>
<path d="M1.40979 30.2293L26.1559 5.4834" stroke="#087071" stroke-width="0.187999" stroke-miterlimit="10"/>
<path d="M1.86377 30.6836L26.6098 5.9375" stroke="#087071" stroke-width="0.187999" stroke-miterlimit="10"/>
<path d="M2.31775 31.1377L27.0636 6.3916" stroke="#087071" stroke-width="0.187999" stroke-miterlimit="10"/>
<path d="M2.77283 31.5916L27.5187 6.8457" stroke="#087071" stroke-width="0.187999" stroke-miterlimit="10"/>
<path d="M3.22681 32.0467L27.9729 7.30078" stroke="#087071" stroke-width="0.187999" stroke-miterlimit="10"/>
<path d="M3.68079 32.5008L28.4269 7.75488" stroke="#087071" stroke-width="0.187999" stroke-miterlimit="10"/>
<path d="M4.13586 32.9551L28.8817 8.20898" stroke="#087071" stroke-width="0.187999" stroke-miterlimit="10"/>
<path d="M4.58984 33.4101L29.3357 8.66406" stroke="#087071" stroke-width="0.187999" stroke-miterlimit="10"/>
<path d="M5.04382 33.864L29.7899 9.11816" stroke="#087071" stroke-width="0.187999" stroke-miterlimit="10"/>
<path d="M5.49878 34.3182L30.2449 9.57227" stroke="#087071" stroke-width="0.187999" stroke-miterlimit="10"/>
<path d="M5.95276 34.7724L30.6986 10.0264" stroke="#087071" stroke-width="0.187999" stroke-miterlimit="10"/>
<path d="M6.40784 35.2275L31.1537 10.4814" stroke="#087071" stroke-width="0.187999" stroke-miterlimit="10"/>
<path d="M6.86182 35.6814L31.6079 10.9355" stroke="#087071" stroke-width="0.187999" stroke-miterlimit="10"/>
<path d="M7.3158 36.1357L32.0619 11.3896" stroke="#087071" stroke-width="0.187999" stroke-miterlimit="10"/>
<path d="M7.77087 36.5898L32.5168 11.8438" stroke="#087071" stroke-width="0.187999" stroke-miterlimit="10"/>
<path d="M8.22485 37.0439L32.9707 12.2979" stroke="#087071" stroke-width="0.187999" stroke-miterlimit="10"/>
<path d="M8.67883 37.4988L33.4249 12.7529" stroke="#087071" stroke-width="0.187999" stroke-miterlimit="10"/>
<path d="M9.13391 37.9529L33.88 13.207" stroke="#087071" stroke-width="0.187999" stroke-miterlimit="10"/>
<path d="M9.58789 38.4072L34.3338 13.6611" stroke="#087071" stroke-width="0.187999" stroke-miterlimit="10"/>
<path d="M10.0419 38.8623L34.7878 14.1162" stroke="#087071" stroke-width="0.187999" stroke-miterlimit="10"/>
<path d="M10.4969 39.3162L35.243 14.5703" stroke="#087071" stroke-width="0.187999" stroke-miterlimit="10"/>
<path d="M10.9509 39.7703L35.697 15.0244" stroke="#087071" stroke-width="0.187999" stroke-miterlimit="10"/>
<path d="M11.4049 40.2246L36.151 15.4785" stroke="#087071" stroke-width="0.187999" stroke-miterlimit="10"/>
<path d="M11.86 40.6787L36.6059 15.9326" stroke="#087071" stroke-width="0.187999" stroke-miterlimit="10"/>
<path d="M12.314 41.1336L37.06 16.3877" stroke="#087071" stroke-width="0.187999" stroke-miterlimit="10"/>
<path d="M12.7679 41.5877L37.514 16.8418" stroke="#087071" stroke-width="0.187999" stroke-miterlimit="10"/>
<path d="M13.2219 42.042L37.9678 17.2959" stroke="#087071" stroke-width="0.187999" stroke-miterlimit="10"/>
<path d="M13.677 42.497L38.4229 17.751" stroke="#087071" stroke-width="0.187999" stroke-miterlimit="10"/>
<path d="M14.131 42.951L38.8771 18.2051" stroke="#087071" stroke-width="0.187999" stroke-miterlimit="10"/>
<path d="M14.585 43.4051L39.331 18.6592" stroke="#087071" stroke-width="0.187999" stroke-miterlimit="10"/>
<path d="M15.04 43.8594L39.7859 19.1133" stroke="#087071" stroke-width="0.187999" stroke-miterlimit="10"/>
<path d="M15.494 44.3144L40.2399 19.5684" stroke="#087071" stroke-width="0.187999" stroke-miterlimit="10"/>
<path d="M15.948 44.7683L40.6941 20.0225" stroke="#087071" stroke-width="0.187999" stroke-miterlimit="10"/>
<path d="M16.4031 45.2224L41.1492 20.4766" stroke="#087071" stroke-width="0.187999" stroke-miterlimit="10"/>
<path d="M16.8569 45.6767L41.603 20.9307" stroke="#087071" stroke-width="0.187999" stroke-miterlimit="10"/>
<path d="M17.312 46.1308L42.0579 21.3848" stroke="#087071" stroke-width="0.187999" stroke-miterlimit="10"/>
<path d="M17.7661 46.5859L42.5122 21.8398" stroke="#087071" stroke-width="0.187999" stroke-miterlimit="10"/>
<path d="M18.22 47.0398L42.966 22.2939" stroke="#087071" stroke-width="0.187999" stroke-miterlimit="10"/>
</g>
<path d="M32.9641 24.2104L38.0252 22.7438C38.0035 22.0025 37.9389 21.2554 37.828 20.5047L37.6407 19.4435C37.4882 18.7003 37.2935 17.976 37.0604 17.2721L31.8062 17.6248C31.3975 16.7006 30.8916 15.8292 30.3012 15.0233L33.2353 10.647C32.7424 10.0932 32.2124 9.56226 31.6451 9.05861L30.8196 8.36584C30.2251 7.89453 29.6102 7.46495 28.9792 7.07561L25.1807 10.7233C24.2885 10.284 23.3427 9.93732 22.3557 9.69518L21.7905 4.45923C21.0568 4.35188 20.3097 4.28589 19.5513 4.26465H18.4737C17.7153 4.2857 16.9682 4.35188 16.2344 4.45923L15.6693 9.69518C14.6823 9.93732 13.7365 10.2842 12.8443 10.7233L9.04574 7.07561C8.41463 7.46495 7.79988 7.89453 7.20542 8.36584L6.37992 9.05861C5.81254 9.56226 5.28257 10.0932 4.78964 10.647L7.72374 15.0233C7.13342 15.8292 6.62752 16.7006 6.21881 17.6248L0.96462 17.2721C0.731502 17.976 0.536736 18.7003 0.384269 19.4435L0.197211 20.5047C0.0862921 21.2552 0.0216198 22.0025 0 22.7438L5.06111 24.2104C5.12841 25.231 5.30495 26.2216 5.57961 27.1708L1.3284 30.2776C1.60231 30.9667 1.91871 31.6468 2.27948 32.314L2.81829 33.2475C3.21572 33.8938 3.64661 34.5076 4.10645 35.0895L8.92618 32.9596C9.62045 33.6827 10.3918 34.3313 11.2269 34.8921L9.96675 40.0068C10.6195 40.3587 11.2989 40.6762 12.0045 40.9554L13.0172 41.3241C13.7371 41.5636 14.4618 41.757 15.1878 41.9072L17.5106 37.1787C18.0043 37.2315 18.5053 37.2592 19.0129 37.2592C19.5205 37.2592 20.0217 37.2313 20.5152 37.1787L22.8379 41.9072C23.5641 41.7572 24.2887 41.5638 25.0085 41.3243L26.0213 40.9556C26.7266 40.6764 27.4063 40.3589 28.059 40.007L26.7988 34.8923C27.6339 34.3315 28.4051 33.6829 29.0996 32.9598L33.9193 35.0895C34.3791 34.5078 34.8098 33.8938 35.2074 33.2475L35.7463 32.314C36.1072 31.6467 36.4236 30.9667 36.6973 30.2776L32.4461 27.1708C32.7202 26.2216 32.8968 25.2308 32.9641 24.2104ZM19.0125 34.4719C12.7241 34.4719 7.62635 29.3741 7.62635 23.0858C7.62635 16.7974 12.7241 11.6996 19.0125 11.6996C25.3009 11.6996 30.3986 16.7974 30.3986 23.0858C30.3986 29.3741 25.3009 34.4719 19.0125 34.4719Z" fill="#087071"/>
<path d="M22.6809 26.7554C24.7075 24.7288 24.7075 21.443 22.6809 19.4164C20.6543 17.3898 17.3685 17.3898 15.3419 19.4164C13.3153 21.443 13.3153 24.7288 15.3419 26.7554C17.3685 28.7821 20.6543 28.7821 22.6809 26.7554Z" fill="white" stroke="#087071" stroke-width="0.563996" stroke-miterlimit="10"/>
<path d="M57.1456 51.0202C57.4686 49.842 56.7753 48.6249 55.5971 48.3019C54.4189 47.9789 53.2018 48.6723 52.8788 49.8505C52.5558 51.0286 53.2492 52.2457 54.4274 52.5687C55.6056 52.8917 56.8227 52.1984 57.1456 51.0202Z" fill="#087071"/>
<path d="M55.4583 48.8111L59.8505 32.79" stroke="#087071" stroke-width="1.12799" stroke-miterlimit="10"/>
<path d="M50.1372 68.2232L54.5294 52.2021" stroke="#087071" stroke-width="1.12799" stroke-miterlimit="10"/>
<path d="M56.689 50.9707L72.71 55.3629" stroke="#087071" stroke-width="1.12799" stroke-miterlimit="10"/>
<path d="M37.2773 45.6494L53.2984 50.0416" stroke="#087071" stroke-width="1.12799" stroke-miterlimit="10"/>
<path d="M74.9916 55.913C75.1766 55.2379 75.3257 54.5617 75.4406 53.8858L80.2819 54.3376L80.5677 51.2757L75.7295 50.8243C75.7568 49.4237 75.6414 48.0394 75.3923 46.6894L80.0926 45.459L79.3139 42.4841L74.6102 43.7153C74.1588 42.4029 73.5771 41.1408 72.877 39.9478L76.8782 37.1805L75.1289 34.6513L71.1292 37.4175C70.2639 36.344 69.2898 35.3529 68.2164 34.4643L71.026 30.5007L68.5172 28.7224L65.7073 32.6862C64.5382 31.9823 63.2846 31.3865 61.9564 30.9154L63.2421 26.2254L60.2764 25.4123L58.9907 30.1023C57.608 29.8301 56.2258 29.7034 54.8611 29.7126L54.4656 24.8701L51.4006 25.1203L51.7962 29.9626C50.4197 30.1796 49.0762 30.5355 47.7845 31.0175L45.7548 26.5982L42.9602 27.8817L44.9908 32.3025C43.7801 32.9717 42.6361 33.7606 41.5786 34.6594L38.1604 31.2013L35.9735 33.3631L39.3892 36.8187C38.4864 37.8529 37.6811 38.9849 36.9903 40.2035L32.5983 38.1244L31.2827 40.904L35.6775 42.9844C35.4318 43.6243 35.2151 44.2819 35.0299 44.957C34.8449 45.6321 34.696 46.3083 34.581 46.9842L29.7396 46.5325L29.4539 49.5944L34.292 50.0458C34.2647 51.4462 34.3802 52.8306 34.6293 54.1806L29.9287 55.4111L30.7074 58.3859L35.4113 57.1546C35.8625 58.467 36.4444 59.729 37.1445 60.922L33.1433 63.6894L34.8927 66.2185L38.8923 63.4523C39.7577 64.5256 40.7317 65.5169 41.8052 66.4054L38.9955 70.369L41.5044 72.1475L44.3142 68.1837C45.4834 68.8876 46.737 69.4833 48.0652 69.9545L46.7794 74.6444L49.7451 75.4575L51.0308 70.7675C52.4136 71.0398 53.7957 71.1665 55.1604 71.1573L55.556 75.9997L58.6209 75.7495L58.2254 70.9072C59.6019 70.6903 60.9453 70.3344 62.2371 69.8524L64.2667 74.2717L67.0611 72.9882L65.0307 68.5672C66.2414 67.8979 67.3854 67.1091 68.4429 66.2103L71.8611 69.6683L74.0481 67.5065L70.6323 64.0509C71.5351 63.0167 72.3405 61.8848 73.0312 60.6662L77.4232 62.7453L78.7388 59.9657L74.344 57.8853C74.5897 57.2459 74.8065 56.5881 74.9916 55.913ZM50.8549 65.5934C42.4833 63.2984 37.5573 54.6514 39.8524 46.2796C42.1475 37.908 50.7945 32.9819 59.1663 35.277C67.5379 37.5721 72.4638 46.2191 70.1687 54.5908C67.8736 62.9626 59.2265 67.8885 50.8549 65.5934Z" fill="#087071"/>
</svg>
