<svg width="16" height="16" viewBox="0 0 16 16" fill="none" xmlns="http://www.w3.org/2000/svg">
<path fill-rule="evenodd" clip-rule="evenodd" d="M7.99988 0.266606C6.11566 0.264571 4.29231 0.933621 2.85658 2.15385C1.42085 3.37408 0.466604 5.06573 0.164853 6.92563C-0.136899 8.78553 0.233571 10.6921 1.20987 12.3037C2.18616 13.9152 3.70447 15.1264 5.49268 15.7202C5.89268 15.7938 6.03508 15.5482 6.03508 15.3386C6.03508 15.149 6.02708 14.525 6.02388 13.8626C3.81828 14.3426 3.35348 12.9274 3.35348 12.9274C3.20791 12.4479 2.89582 12.0363 2.47348 11.7666C1.75348 11.2746 2.52948 11.2866 2.52948 11.2866C2.7807 11.3214 3.02066 11.4131 3.2311 11.5546C3.44154 11.6962 3.61692 11.8839 3.74388 12.1034C3.8513 12.299 3.99643 12.4713 4.17087 12.6104C4.3453 12.7495 4.54559 12.8527 4.76014 12.9139C4.97469 12.9751 5.19925 12.9932 5.42084 12.9671C5.64242 12.941 5.85663 12.8712 6.05108 12.7618C6.08628 12.3594 6.26548 11.9834 6.55508 11.7018C4.79508 11.5018 2.94228 10.8218 2.94228 7.78181C2.93134 6.99402 3.22413 6.23227 3.75988 5.65461C3.51703 4.97099 3.54421 4.22046 3.83588 3.55621C3.83588 3.55621 4.50148 3.34341 6.01668 4.36901C7.31604 4.01381 8.68692 4.01381 9.98628 4.36901C11.4983 3.34341 12.1599 3.55621 12.1599 3.55621C12.4527 4.22021 12.4815 4.97061 12.2399 5.65461C12.7754 6.23229 13.0677 6.99417 13.0559 7.78181C13.0559 10.8274 11.2007 11.497 9.43588 11.693C9.62491 11.8851 9.77073 12.1154 9.86358 12.3684C9.95643 12.6215 9.99417 12.8914 9.97428 13.1602C9.97428 14.221 9.96468 15.0754 9.96468 15.3362C9.96468 15.5466 10.1087 15.7938 10.5095 15.7162C12.2949 15.1202 13.8101 13.9084 14.7839 12.2976C15.7578 10.6868 16.1268 8.78208 15.825 6.92413C15.5232 5.06618 14.5703 3.3762 13.1366 2.15648C11.703 0.936759 9.88218 0.266859 7.99988 0.266606Z" fill="#9CA3AF"/>
</svg>
