<?xml version="1.0" encoding="UTF-8"?>
<svg version="1.1" xmlns="http://www.w3.org/2000/svg" width="443" height="524">
<path d="M0 0 C24.09 0 48.18 0 73 0 C67.05159432 44.43895487 67.05159432 44.43895487 65.21630859 58.10058594 C65.08770407 59.05790226 64.95909956 60.01521857 64.82659793 61.00154448 C60.24921222 95.0655109 55.60532919 129.1204701 50.96391857 163.17576003 C49.6522707 172.79993866 48.34162181 182.42425328 47.03101504 192.04857373 C44.35504128 211.6991897 41.67794592 231.3496527 39 251 C41.6003307 242.95696153 44.20024659 234.91378912 46.79968262 226.87046146 C48.0077034 223.13257351 49.21584875 219.39472593 50.42431641 215.65698242 C56.3117077 197.44714655 62.17979164 179.23144832 68 161 C74.52587459 140.57037026 81.10879048 120.15951935 87.70785522 99.75344849 C89.03586042 95.6468803 90.36373107 91.54026864 91.69140625 87.43359375 C91.91027937 86.75659235 92.12915249 86.07959095 92.35465813 85.38207436 C99.93524865 61.9317394 107.46744114 38.46579853 115 15 C118.97076926 15 119.54626693 15.0319722 122.5546875 17.09765625 C123.24038818 17.56163818 123.92608887 18.02562012 124.63256836 18.50366211 C125.3725708 19.01807861 126.11257324 19.53249512 126.875 20.0625 C128.05171265 20.86409546 128.05171265 20.86409546 129.25219727 21.68188477 C130.95062653 22.84027504 132.64624262 24.0027983 134.33935547 25.16894531 C137.02297206 27.01580936 139.71514544 28.8494972 142.41015625 30.6796875 C146.10345939 33.18824129 149.79016913 35.70606795 153.47265625 38.23046875 C157.17036816 40.76172241 160.88688413 43.26120984 164.62109375 45.73828125 C165.50611572 46.3300415 166.3911377 46.92180176 167.30297852 47.53149414 C168.98419053 48.65480229 170.67069733 49.77023661 172.36303711 50.87670898 C173.10690674 51.37630127 173.85077637 51.87589355 174.6171875 52.390625 C175.27315918 52.82407227 175.92913086 53.25751953 176.60498047 53.70410156 C177.06533691 54.13174805 177.52569336 54.55939453 178 55 C178 59.29463957 175.59388931 61.81276418 173.1875 65.1875 C172.17038934 66.63919431 171.1534674 68.09102087 170.13671875 69.54296875 C169.35240479 70.65551025 169.35240479 70.65551025 168.55224609 71.79052734 C166.17441023 75.17514745 163.83808676 78.58786254 161.5 82 C160.57703017 83.34259042 159.65385272 84.68503813 158.73046875 86.02734375 C156.96049867 88.60167457 155.19232315 91.17722191 153.42578125 93.75390625 C148.06622779 101.56706086 142.6683704 109.35250818 137.25 117.125 C131.32866824 125.62094557 125.47059319 134.15728627 119.64990234 142.72241211 C114.43726266 150.38270824 109.15083289 157.9900718 103.85083008 165.59008789 C98.01374973 173.96540188 92.24514247 182.38614024 86.49072266 190.81835938 C82.78078395 196.24777508 79.04864405 201.66197313 75.32080078 207.07910156 C74.02354442 208.96575832 72.72825495 210.85374916 71.43359375 212.7421875 C70.55994478 214.01565858 69.68624629 215.28909569 68.8125 216.5625 C68.37873047 217.19526855 67.94496094 217.82803711 67.49804688 218.47998047 C64.61645444 222.67463896 61.70767086 226.84936226 58.78515625 231.015625 C58.05643311 232.0564624 57.32770996 233.0972998 56.5769043 234.16967773 C55.12705243 236.23908045 53.67416535 238.30636048 52.21801758 240.37133789 C51.55568115 241.3174292 50.89334473 242.26352051 50.2109375 243.23828125 C49.61587402 244.08430908 49.02081055 244.93033691 48.40771484 245.80200195 C46.8533178 248.03112451 46.8533178 248.03112451 46 251 C53.50517839 244.55082661 60.46512301 237.61082609 67.40185547 230.56103516 C70.81738938 227.10662889 74.24097329 223.73338956 77.9296875 220.5703125 C82.88363844 216.31165292 87.41804791 211.6513756 92 207 C97.18179994 201.73968794 102.37060882 196.60749253 107.9765625 191.80078125 C111.99813052 188.22174099 115.72516986 184.33542131 119.5 180.5 C124.50920469 175.41039074 129.54022781 170.46995399 134.95898438 165.81835938 C138.98496894 162.23157312 142.71921498 158.34147178 146.5 154.5 C151.50920469 149.41039074 156.54022781 144.46995399 161.95898438 139.81835938 C165.98496894 136.23157312 169.71921498 132.34147178 173.5 128.5 C178.50820244 123.41140908 183.53720909 118.46852441 188.95507812 113.81787109 C192.97486915 110.24440357 196.71827847 106.38425604 200.5 102.5625 C201.32242187 101.73556641 202.14484375 100.90863281 202.9921875 100.05664062 C204.99712113 98.04005041 206.99966253 96.02114764 209 94 C212 95 212 95 213.30834961 97.125 C213.75186768 98.07375 214.19538574 99.0225 214.65234375 100 C215.1723999 101.09578369 215.69245605 102.19156738 216.22827148 103.32055664 C216.79824389 104.54693109 217.36797939 105.77341567 217.9375 107 C219.17287966 109.62568874 220.41476541 112.24828719 221.65625 114.87109375 C222.15680153 115.93256874 222.15680153 115.93256874 222.66746521 117.01548767 C225.507233 123.01726029 228.44714033 128.96648109 231.40625 134.91015625 C232.79145296 137.70376842 234.17591255 140.49774815 235.56033325 143.29174805 C236.47832849 145.13868278 237.40010469 146.98374306 238.32565308 148.8269043 C239.63294296 151.43274005 240.92529541 154.04550592 242.21484375 156.66015625 C242.81220337 157.8365139 242.81220337 157.8365139 243.42163086 159.03663635 C243.95530273 160.12850502 243.95530273 160.12850502 244.49975586 161.24243164 C244.97269325 162.19044395 244.97269325 162.19044395 245.45518494 163.15760803 C246.15057604 165.50920047 245.93114473 166.744208 245 169 C242.7458889 170.34997062 240.66173787 171.40085901 238.265625 172.43359375 C237.56969742 172.74743515 236.87376984 173.06127655 236.15675354 173.3846283 C233.86046172 174.41620703 231.55551121 175.42671505 229.25 176.4375 C227.63960926 177.15635247 226.02983291 177.87658278 224.4206543 178.59814453 C221.15614595 180.05923802 217.88819473 181.51213928 214.61669922 182.95751953 C209.4683822 185.23238191 204.33548708 187.54049252 199.20288086 189.85058594 C195.71300315 191.41973668 192.22013256 192.98205728 188.7265625 194.54296875 C179.70603262 198.57444613 170.6970087 202.63146805 161.6875 206.6875 C159.97827511 207.45687655 158.26904658 208.226245 156.55981445 208.99560547 C153.09892081 210.55346483 149.63807148 212.11142259 146.17724609 213.66943359 C139.44173477 216.70157643 132.70574869 219.73266401 125.96972656 222.76367188 C122.66559578 224.25044155 119.36156491 225.73743294 116.05761719 227.22460938 C108.32629939 230.70446913 100.59435951 234.18292566 92.86019897 237.65646362 C89.25282685 239.27669639 85.64581024 240.89771976 82.03881836 242.51879883 C80.33814835 243.28286334 78.637309 244.04655105 76.9362793 244.80981445 C74.55993754 245.87612471 72.18421294 246.94379985 69.80859375 248.01171875 C69.13815536 248.3121257 68.46771698 248.61253265 67.77696228 248.92204285 C62.89907542 251.11695491 58.04962446 253.37063664 53.20375061 255.63508606 C52.50970643 255.95920172 51.81566224 256.28331738 51.10058641 256.61725473 C49.40030221 257.41131319 47.70013889 258.20563046 46 259 C46.88786697 258.83030386 47.77573395 258.66060772 48.69050598 258.48576927 C70.44920349 254.3271154 92.20802031 250.16908628 113.96696472 246.01172447 C124.49007781 244.00111606 135.01315267 241.99030803 145.53613281 239.97900391 C154.72444276 238.2228018 163.91282926 236.46700086 173.10130215 234.71165144 C177.95150987 233.78506275 182.80168297 232.85829378 187.65176392 231.93104172 C205.2246128 228.57156542 222.79764699 225.21271011 240.37924385 221.89925694 C241.78123695 221.63483414 243.1831192 221.3698229 244.58488274 221.10418582 C246.48406909 220.74449176 248.38374454 220.3873829 250.28344727 220.03042603 C251.3458815 219.83012598 252.40831573 219.62982594 253.50294495 219.42345619 C256 219 256 219 258 219 C258 247.38 258 275.76 258 305 C241.56215588 301.89764632 225.12459324 298.79382631 208.6875 295.6875 C206.83661459 295.33776312 206.83661459 295.33776312 204.94833755 294.98096085 C175.84412751 289.48121818 146.74337156 283.96451554 117.65625 278.375 C116.5010618 278.1530427 115.3458736 277.9310854 114.1556797 277.70240211 C103.07421739 275.57283594 91.99338006 273.44005371 80.91362572 271.30161858 C76.870581 270.5215728 72.82728108 269.74285555 68.78393555 268.96437073 C66.01754953 268.43113976 63.25156816 267.89584498 60.4855957 267.36047363 C58.84157421 267.04383377 57.19753254 266.72729868 55.5534668 266.41088867 C54.80907191 266.26616969 54.06467703 266.12145071 53.29772472 265.97234631 C49.67482357 265.25122834 49.67482357 265.25122834 46 265 C65.33532868 273.86767048 84.69073377 282.68434488 104.11117554 291.36434937 C112.51840381 295.12362162 120.91482289 298.90695468 129.3125 302.6875 C131.01366716 303.45321685 132.71483906 304.21892319 134.41601562 304.98461914 C140.48218455 307.71508644 146.54815869 310.44598636 152.61413574 313.17687988 C178.95812131 325.03749946 178.95812131 325.03749946 205.3125 336.875 C206.45195068 337.38691895 207.59140137 337.89883789 208.76538086 338.42626953 C214.09771409 340.81843744 219.43552802 343.19657908 224.78996277 345.53881836 C227.33507237 346.65218097 229.87835527 347.76968778 232.42172241 348.88702393 C234.20912691 349.66960451 235.99967352 350.44499606 237.7902832 351.22021484 C238.854646 351.68766113 239.91900879 352.15510742 241.015625 352.63671875 C241.95696289 353.04623779 242.89830078 353.45575684 243.86816406 353.87768555 C246 355 246 355 247 357 C245.78263143 359.77940221 244.49685492 362.44281904 243.109375 365.13671875 C242.69343582 365.96020309 242.27749664 366.78368744 241.84895325 367.63212585 C240.95432814 369.40148352 240.05614695 371.16904667 239.15481567 372.93499756 C236.82107667 377.50757061 234.51186571 382.09251544 232.19921875 386.67578125 C231.7442955 387.57550659 231.28937225 388.47523193 230.82066345 389.40222168 C226.4763703 398.00519691 222.3050043 406.68290505 218.19140625 415.3984375 C215.87335708 420.30538047 213.44529778 425.15545765 211 430 C209.3452691 428.58658403 207.69135399 427.17220444 206.04101562 425.75366211 C204.76164239 424.65441116 203.47950866 423.55835607 202.19335938 422.46704102 C195.81089543 416.98684989 189.96362564 411.01922155 184.06640625 405.02734375 C180.48093941 401.40701013 176.90058108 397.84892946 173.03125 394.53125 C167.1631264 389.49390761 161.84516638 383.88827496 156.421875 378.3828125 C152.08610736 374.00714516 147.69875327 369.80953594 143.0234375 365.80078125 C138.14125184 361.45582451 133.64880498 356.68329623 129.06640625 352.02734375 C125.47063773 348.39660828 121.87853044 344.82942643 118 341.5 C112.37187243 336.66867614 107.26563402 331.31002622 102.06640625 326.02734375 C98.47063773 322.39660828 94.87853044 318.82942643 91 315.5 C85.37187243 310.66867614 80.26563402 305.31002622 75.06640625 300.02734375 C70.84633546 295.766235 66.56336678 291.69204102 62.01367188 287.78662109 C58.17720422 284.38273284 54.60491985 280.70802987 51 277.0625 C50.22527344 276.28326172 49.45054687 275.50402344 48.65234375 274.70117188 C46.76589243 272.8030758 44.88183755 270.90266851 43 269 C47.87329846 276.91311823 53.11771298 284.51769876 58.46582031 292.11499023 C62.47902869 297.81860743 66.44835435 303.54898075 70.375 309.3125 C75.1665933 316.34198183 80.008021 323.33501448 84.875 330.3125 C90.7557547 338.7456119 96.5719289 347.21982783 102.35058594 355.72314453 C107.56307986 363.38318481 112.84933496 370.99031249 118.14916992 378.59008789 C123.98625027 386.96540188 129.75485753 395.38614024 135.50927734 403.81835938 C139.21921605 409.24777508 142.95135595 414.66197313 146.67919922 420.07910156 C147.97645558 421.96575832 149.27174505 423.85374916 150.56640625 425.7421875 C151.44002672 427.01567813 152.31372563 428.28911496 153.1875 429.5625 C153.62344482 430.19816895 154.05938965 430.83383789 154.50854492 431.48876953 C157.35547265 435.63167549 160.22598355 439.75737958 163.109375 443.875 C163.82456299 444.89779053 164.53975098 445.92058105 165.27661133 446.97436523 C166.68794127 448.99130258 168.10173464 451.00651903 169.51831055 453.01977539 C172.93269315 457.90173979 176.15927526 462.76173264 179 468 C177.83723958 468.79557292 176.67447917 469.59114583 175.51171875 470.38671875 C174.75270264 470.9060498 173.99368652 471.42538086 173.21166992 471.96044922 C171.50221317 473.13006882 169.79274003 474.29966446 168.08325195 475.46923828 C163.04886285 478.91365114 158.01472298 482.35842578 152.98193359 485.80517578 C151.44666251 486.85559003 149.91052235 487.90473513 148.37353516 488.95263672 C143.91559664 491.99360406 139.47718538 495.06001139 135.0546875 498.15234375 C134.05735596 498.84473145 133.06002441 499.53711914 132.0324707 500.25048828 C130.08571386 501.60209603 128.14393484 502.96090818 126.20776367 504.32763672 C125.32580322 504.93752441 124.44384277 505.54741211 123.53515625 506.17578125 C122.755354 506.72145752 121.97555176 507.26713379 121.17211914 507.8293457 C119 509 119 509 115 509 C91.59846152 436.97591673 91.59846152 436.97591673 81.8862915 406.53442383 C76.09472626 388.38314822 70.24016436 370.25258441 64.375 352.125 C56.17298916 326.77435285 48.03998843 301.40256925 40 276 C40.71412212 287.67737467 42.45220865 299.22999382 44.05102539 310.81103516 C44.36671477 313.11491189 44.68212164 315.41882734 44.99726868 317.72277832 C45.67366883 322.66326587 46.35204986 327.60347583 47.03199959 332.5434761 C48.10639485 340.34930214 49.17634318 348.15573381 50.24571228 355.96224976 C51.74421747 366.89877749 53.24492691 377.83500104 54.74731445 388.77099609 C56.29335231 400.02479395 57.83881859 411.27866986 59.38305664 422.53271484 C59.47837778 423.22738832 59.57369891 423.9220618 59.67190856 424.63778599 C60.71200839 432.21797454 61.75177128 439.79820922 62.79101467 447.37851524 C62.8822589 448.04405558 62.97350314 448.70959591 63.06751234 449.39530414 C63.5222492 452.71224971 63.97694959 456.02920027 64.43161577 459.34615552 C65.49641062 467.11326115 66.56278071 474.88014846 67.63042271 482.64686322 C68.29222898 487.46292191 68.95296921 492.27912643 69.61344719 497.09536743 C69.92096983 499.33605765 70.22896155 501.57668354 70.53744507 503.81724167 C70.95681238 506.86356028 71.37455465 509.91009738 71.79188538 512.95669556 C71.9157136 513.85316634 72.03954183 514.74963712 72.16712242 515.67327368 C73 521.77189052 73 521.77189052 73 524 C48.91 524 24.82 524 0 524 C3.42254738 496.98922567 7.00753543 470.0066283 10.71413612 443.03362465 C11.63653575 436.32129799 12.55603726 429.60857604 13.47514343 422.89579773 C15.91777898 405.05891462 18.36407769 387.22253434 20.81199664 369.38637561 C22.43345906 357.57184399 24.05339885 345.75710586 25.67042893 333.94196671 C26.58391723 327.2683229 27.49985404 320.59502121 28.417647 313.9219681 C28.98420028 309.79863814 29.54853076 305.67500628 30.11222649 301.55128479 C30.37413162 299.6386966 30.63696356 297.72623506 30.90077972 295.81390953 C31.25987377 293.20999552 31.61568045 290.60565291 31.97065735 288.00117493 C32.0761933 287.24178456 32.18172926 286.4823942 32.29046327 285.699992 C32.73472174 282.41686617 33 279.32238461 33 276 C24.69645894 301.32112783 16.4425496 326.65675821 8.34130859 352.043396 C2.66004726 369.84447046 -3.07189423 387.62880112 -8.82307434 405.40737152 C-15.55588445 426.22098671 -22.2725791 447.03951565 -28.9375 467.875 C-29.25879883 468.87909912 -29.58009766 469.88319824 -29.91113281 470.91772461 C-33.96920371 483.60288342 -37.9984916 496.29688617 -42 509 C-46.34681759 509 -47.12568798 508.56159885 -50.53515625 506.17578125 C-51.4171167 505.56589355 -52.29907715 504.95600586 -53.20776367 504.32763672 C-54.14982666 503.6626416 -55.09188965 502.99764648 -56.0625 502.3125 C-58.05987382 500.92574954 -60.05727003 499.53903134 -62.0546875 498.15234375 C-63.0559668 497.45222168 -64.05724609 496.75209961 -65.08886719 496.03076172 C-69.26800791 493.11545708 -73.47744122 490.24537348 -77.6875 487.375 C-79.21898959 486.32717301 -80.75023908 485.27899502 -82.28125 484.23046875 C-87.41591532 480.71504751 -92.55168933 477.20124766 -97.6875 473.6875 C-99.29557673 472.58724516 -100.90365002 471.48698529 -102.51171875 470.38671875 C-103.18678467 469.92483154 -103.86185059 469.46294434 -104.55737305 468.98706055 C-105.27147339 468.49846558 -105.27147339 468.49846558 -106 468 C-101.48444237 460.82374873 -96.85502218 453.74407083 -92.0625 446.75 C-91.41990234 445.80962891 -90.77730469 444.86925781 -90.11523438 443.90039062 C-84.78006936 436.10681463 -79.38664783 428.3543455 -73.98266602 420.60839844 C-69.44680222 414.10015696 -64.95870536 407.56130359 -60.5 401 C-54.67522595 392.42877815 -48.77861779 383.91014949 -42.85083008 375.40991211 C-37.01374973 367.03459812 -31.24514247 358.61385976 -25.49072266 350.18164062 C-21.78078395 344.75222492 -18.04864405 339.33802687 -14.32080078 333.92089844 C-13.02354442 332.03424168 -11.72825495 330.14625084 -10.43359375 328.2578125 C-5.02924468 320.37866947 0.41325952 312.52697815 5.875 304.6875 C11.05889264 297.24101757 16.23498114 289.78935476 21.375 282.3125 C21.91624512 281.5289917 22.45749023 280.7454834 23.01513672 279.93823242 C23.51287598 279.21224854 24.01061523 278.48626465 24.5234375 277.73828125 C25.1719165 276.79529175 25.1719165 276.79529175 25.83349609 275.83325195 C27.03531417 273.94450102 28.03426456 272.01822528 29 270 C28.15405273 270.85380249 28.15405273 270.85380249 27.29101562 271.72485352 C24.69673231 274.34011844 22.09840077 276.95132619 19.5 279.5625 C18.1696875 280.90538086 18.1696875 280.90538086 16.8125 282.27539062 C12.33932052 286.76501562 7.81633648 291.09055181 3.00585938 295.21459961 C-1.00951233 298.78865186 -4.73074392 302.67024222 -8.5 306.5 C-17.4536549 315.59737328 -17.4536549 315.59737328 -21.96875 319.46875 C-26.91167665 323.71188046 -31.43106357 328.36183726 -36 333 C-41.18179994 338.26031206 -46.37060882 343.39250747 -51.9765625 348.19921875 C-55.99813052 351.77825901 -59.72516986 355.66457869 -63.5 359.5 C-68.50920469 364.58960926 -73.54022781 369.53004601 -78.95898438 374.18164062 C-82.98496894 377.76842688 -86.71921498 381.65852822 -90.5 385.5 C-95.50920469 390.58960926 -100.54022781 395.53004601 -105.95898438 400.18164062 C-109.98496894 403.76842688 -113.71921498 407.65852822 -117.5 411.5 C-131.3338438 425.55589587 -131.3338438 425.55589587 -138 430 C-163.4768982 379.28955384 -163.4768982 379.28955384 -174 356 C-165.13808352 351.49443255 -156.21830648 347.21206055 -147.125 343.1875 C-145.23794805 342.34754082 -143.3514508 341.50634335 -141.46495056 340.66514587 C-140.11896955 340.06506665 -138.77282596 339.46535196 -137.42652893 338.86598206 C-129.67954238 335.41609945 -121.94735723 331.93341318 -114.21502686 328.45083618 C-110.80400197 326.91459413 -107.39262179 325.37914182 -103.98126221 323.84364319 C-101.37988421 322.67270487 -98.77856067 321.50164562 -96.17724609 320.33056641 C-91.104044 318.04674968 -86.03058379 315.76350684 -80.95703125 313.48046875 C-79.72346642 312.92537628 -79.72346642 312.92537628 -78.46498108 312.35906982 C-74.31237442 310.49045918 -70.15973649 308.62191803 -66.00708008 306.75341797 C-58.48736149 303.36981777 -50.96782872 299.98580799 -43.44927979 296.59960938 C-19.98215976 286.03056561 3.50166525 275.49946067 27 265 C8.06192723 268.3298332 -10.83745229 271.83268968 -29.72067165 275.460742 C-33.30661461 276.14924643 -36.89298442 276.83552081 -40.47930908 277.52203369 C-48.04290537 278.97022427 -55.60609411 280.4205338 -63.16918945 281.87133789 C-75.89692041 284.31282247 -88.62512226 286.75185119 -101.35361671 289.18935204 C-102.8135157 289.46893201 -104.27340927 289.74854033 -105.73329735 290.02817726 C-132.14299612 295.08682212 -158.5666167 300.06604839 -185 305 C-185 276.62 -185 248.24 -185 219 C-152.84422116 224.74210337 -152.84422116 224.74210337 -140.3918457 227.13452148 C-138.94376956 227.41138475 -137.49566354 227.68809185 -136.04753113 227.96466064 C-132.99764501 228.54745179 -129.9479553 229.13125499 -126.89843178 229.71594048 C-122.03577266 230.64821541 -117.17260178 231.57780279 -112.30937195 232.50709534 C-102.84786391 234.31539448 -93.38681516 236.1260888 -83.92584991 237.93722534 C-71.90390396 240.23859144 -59.88183382 242.53930336 -47.85916013 244.83686501 C-43.83360964 245.60623471 -39.80817566 246.37620182 -35.78304482 247.14776421 C-14.54326379 251.2190203 6.71510632 255.17131308 28 259 C-1.98210412 245.41767193 -1.98210412 245.41767193 -32.00463867 231.92504883 C-42.34295914 227.29784893 -52.67194083 222.65004947 -63 218 C-74.49602114 212.82441433 -85.99398905 207.6533477 -97.5 202.5 C-110.8390803 196.52541373 -124.16812418 190.52861825 -137.49609375 184.52929688 C-138.69466507 183.99018677 -138.69466507 183.99018677 -139.91744995 183.44018555 C-141.50810895 182.72354014 -143.09790365 182.00497303 -144.6867981 181.28442383 C-148.98178128 179.33989093 -153.29133475 177.44074585 -157.62841797 175.59179688 C-158.55162338 175.19236877 -159.4748288 174.79294067 -160.42601013 174.38140869 C-162.20878285 173.61091898 -163.99663793 172.85205742 -165.78993225 172.10638428 C-166.58878342 171.75835754 -167.38763458 171.41033081 -168.21069336 171.05175781 C-168.91963242 170.75134583 -169.62857147 170.45093384 -170.35899353 170.14141846 C-172 169 -172 169 -172.87097168 167.18736267 C-173.04517453 164.23417519 -172.17318985 162.59357303 -170.85375977 159.95043945 C-170.35896622 158.94451248 -169.86417267 157.93858551 -169.35438538 156.9021759 C-168.80560226 155.81684067 -168.25681915 154.73150543 -167.69140625 153.61328125 C-167.13186752 152.48286911 -166.5723288 151.35245697 -165.99583435 150.18778992 C-164.49973827 147.16999919 -162.99372186 144.15760578 -161.48236084 141.14746094 C-159.3891275 136.97182779 -157.31581332 132.78625973 -155.23788452 128.60299683 C-154.08845944 126.28972297 -152.93761689 123.97715284 -151.78530884 121.66531372 C-147.39107827 112.83714061 -143.13242413 103.95345355 -139 95 C-135 95 -135 95 -132.46972656 97.09204102 C-131.51650905 98.05266362 -130.57410934 99.02409687 -129.640625 100.00390625 C-129.1325531 100.52000961 -128.6244812 101.03611298 -128.10101318 101.56785583 C-126.47430447 103.22355839 -124.86174023 104.89223424 -123.25 106.5625 C-121.13450664 108.73469269 -119.01351836 110.90144714 -116.890625 113.06640625 C-116.37471802 113.594086 -115.85881104 114.12176575 -115.32727051 114.66543579 C-112.00841639 118.03963967 -108.5789451 121.19062002 -104.97558594 124.25366211 C-99.87150545 128.76546237 -95.20026752 133.76639509 -90.421875 138.6171875 C-86.08610736 142.99285484 -81.69875327 147.19046406 -77.0234375 151.19921875 C-72.14125184 155.54417549 -67.64880498 160.31670377 -63.06640625 164.97265625 C-59.47063773 168.60339172 -55.87853044 172.17057357 -52 175.5 C-46.37187243 180.33132386 -41.26563402 185.68997378 -36.06640625 190.97265625 C-32.47063773 194.60339172 -28.87853044 198.17057357 -25 201.5 C-19.37187243 206.33132386 -14.26563402 211.68997378 -9.06640625 216.97265625 C-5.48904768 220.58480274 -1.91840911 224.13486781 1.9453125 227.44140625 C8.02570028 232.65815433 13.51127969 238.50618114 19.10546875 244.23242188 C20.39517578 245.53856445 20.39517578 245.53856445 21.7109375 246.87109375 C22.48743652 247.66443115 23.26393555 248.45776855 24.06396484 249.27514648 C25.81672808 251.22173694 25.81672808 251.22173694 28 251 C26.96166016 249.54207031 26.96166016 249.54207031 25.90234375 248.0546875 C19.44964677 238.9675503 13.11789153 229.80552261 6.85571289 220.58618164 C2.23917513 213.7974309 -2.42852556 207.04616259 -7.125 200.3125 C-13.63944543 190.9712239 -20.08982625 181.58836103 -26.50927734 172.18164062 C-30.21921605 166.75222492 -33.95135595 161.33802687 -37.67919922 155.92089844 C-38.97645558 154.03424168 -40.27174505 152.14625084 -41.56640625 150.2578125 C-46.9707539 142.37867154 -52.41298177 134.52678309 -57.875 126.6875 C-64.47051538 117.21976915 -71.00521884 107.71234021 -77.50927734 98.18164062 C-79.8742802 94.72050968 -82.2492093 91.26623106 -84.625 87.8125 C-85.06706787 87.16933838 -85.50913574 86.52617676 -85.96459961 85.86352539 C-88.28922644 82.48244363 -90.61850204 79.10465678 -92.953125 75.73046875 C-93.44216309 75.02237061 -93.93120117 74.31427246 -94.43505859 73.5847168 C-95.35839646 72.24792771 -96.28308124 70.91206737 -97.20947266 69.57739258 C-100.27643774 65.13338703 -103.17265227 60.59991796 -106 56 C-98.50430744 50.47864805 -90.90189039 45.14808626 -83.1875 39.9375 C-80.99848275 38.45604555 -78.80965249 36.97431882 -76.62109375 35.4921875 C-75.79751877 34.93486687 -75.79751877 34.93486687 -74.95730591 34.36628723 C-71.17880018 31.80679653 -67.4161427 29.22521184 -63.66015625 26.6328125 C-62.66411377 25.94711182 -61.66807129 25.26141113 -60.6418457 24.55493164 C-58.75626913 23.25580202 -56.87316638 21.95307229 -54.99291992 20.64624023 C-53.72025269 19.77140991 -53.72025269 19.77140991 -52.421875 18.87890625 C-51.68549805 18.3691626 -50.94912109 17.85941895 -50.19042969 17.33422852 C-47.86656624 15.9187232 -45.5324164 14.98228676 -43 14 C-39.67879136 21.89424213 -36.97418621 29.94313918 -34.359375 38.09375 C-33.91627925 39.46617307 -33.4728869 40.83850041 -33.02922058 42.21073914 C-31.84468845 45.87751809 -30.66452396 49.54568878 -29.48527145 53.21416855 C-28.49416162 56.29535716 -27.50038768 59.37568367 -26.50657177 62.45600033 C-19.99024995 82.65338602 -13.51039582 102.86244897 -7.05639648 123.07983398 C-3.32760654 134.75560415 0.42361104 146.42396744 4.1953125 158.0859375 C4.42002731 158.78074848 4.64474213 159.47555946 4.87626648 160.19142532 C6.70649131 165.84993412 8.5374284 171.50821244 10.36830139 177.16651154 C17.99891058 200.75041202 25.55270817 224.35748366 33 248 C31.61925958 233.96538458 29.85279316 220.00621253 27.92724609 206.03686523 C27.62127998 203.80091803 27.31557789 201.56493468 27.01011658 199.32891846 C26.35761183 194.55663756 25.70328112 189.78461209 25.04746628 185.01278496 C24.01097883 177.4710116 22.97869199 169.92866679 21.94692993 162.38624573 C20.50124031 151.82113474 19.05370341 141.25627876 17.60449219 130.69165039 C16.11388859 119.82520907 14.62377346 108.95870113 13.13476562 98.09204102 C13.04269421 97.42011557 12.95062279 96.74819013 12.85576133 96.05590331 C11.32250276 84.86603234 9.79033274 73.67601246 8.25868094 62.48592144 C7.23148494 54.98224754 6.2027489 47.47878683 5.17277122 39.97549427 C4.5349989 35.32769542 3.89829484 30.67975068 3.26185799 26.0317688 C2.96562148 23.87008818 2.66891687 21.70847165 2.37172127 19.54692268 C1.96773486 16.60826524 1.56537222 13.66938998 1.16342163 10.73045349 C0.98453889 9.43376453 0.98453889 9.43376453 0.80204237 8.11087984 C0 2.22811935 0 2.22811935 0 0 Z M34 251 C35 254 35 254 35 254 Z M34 269 C35 273 35 273 35 273 Z M38 270 C39 273 39 273 39 273 Z " fill="#F95495" transform="translate(185,0)"/>
</svg>
