<svg width="48" height="46" viewBox="0 0 48 46" fill="none" xmlns="http://www.w3.org/2000/svg">
<path d="M5.13897 15.57C6.23061 17.6282 7.8224 19.4407 9.56627 21.0742C10.0462 21.5236 10.7768 22.1405 11.5415 22.7654C11.5374 22.7644 11.5331 22.7637 11.5291 22.7627C13.0874 24.0358 14.7827 25.3396 14.7908 25.3332C14.7908 25.3332 14.7932 25.3319 14.7936 25.3315C14.8074 25.3415 14.817 25.3481 14.8177 25.3477C14.8292 25.3577 18.7239 22.5955 20.2386 21.2868C22.0475 19.724 23.7121 17.9765 24.8866 15.9634C27.0688 12.223 24.9839 6.53901 20.0271 6.02908C18.1488 5.83588 15.7606 6.80868 15.1623 8.42942C14.6306 6.78631 11.7647 5.72448 9.8798 5.8427C4.90616 6.15475 3.11096 11.7457 5.13897 15.57ZM10.4566 14.6596C10.457 14.5397 10.5591 14.4387 10.6786 14.4391C11.0375 14.4404 11.3964 14.4417 11.7553 14.4427C12.4706 14.4453 13.1858 14.4476 13.9011 14.45C13.9013 14.358 13.9017 14.2659 13.902 14.1739C13.9054 13.1918 13.9088 12.2096 13.912 11.2274C13.9124 11.1075 14.0144 11.0066 14.1339 11.007C14.7444 11.0091 15.3549 11.0112 15.9651 11.0132C16.085 11.0136 16.186 11.1156 16.1856 11.2351C16.1843 11.594 16.183 11.9529 16.182 12.3116C16.1796 13.0269 16.1771 13.7422 16.1745 14.4574C16.2665 14.4576 16.3585 14.4581 16.4506 14.4583C17.4327 14.4617 18.4149 14.4651 19.397 14.4683C19.517 14.4687 19.6179 14.5708 19.6175 14.6902C19.6154 15.3007 19.6135 15.911 19.6113 16.5214C19.6109 16.6414 19.5089 16.7423 19.3894 16.7419C19.0305 16.7406 18.6715 16.7394 18.3128 16.7383C17.5976 16.7359 16.8823 16.7334 16.1671 16.731C16.1668 16.8231 16.1664 16.9151 16.1662 17.0071C16.1628 17.9893 16.1594 18.9714 16.1562 19.9536C16.156 20.0232 16.1294 20.0756 16.0893 20.111C16.0537 20.1491 16.002 20.1743 15.9342 20.174C15.3238 20.1719 14.7133 20.1698 14.103 20.1679C13.9831 20.1674 13.8821 20.0654 13.8826 19.9459C13.8839 19.587 13.8849 19.2281 13.8862 18.8694C13.8885 18.1541 13.8911 17.4389 13.8934 16.7236C13.8014 16.7234 13.7094 16.7229 13.6174 16.7227C12.6352 16.7193 11.6531 16.7161 10.6709 16.7127C10.6012 16.7125 10.5489 16.6859 10.5135 16.6458C10.4754 16.6103 10.4502 16.5585 10.4504 16.4908C10.4526 15.8805 10.4545 15.27 10.4566 14.6596Z" fill="white"/>
<path d="M42.9126 2.09276C39.9572 1.94302 37.4399 4.21748 37.29 7.17291C37.1526 9.88509 39.0573 12.2269 41.6557 12.71L41.0866 23.9382C40.7302 24.0765 40.4648 24.3438 40.4544 24.7455C40.4378 25.3899 40.3732 26.0344 40.3002 26.6756C40.2207 27.3729 40.1193 28.0686 39.9968 28.7617C39.9613 28.9624 39.9234 29.1628 39.885 29.3632C39.8808 29.3856 39.8776 29.4029 39.875 29.4165C39.8733 29.4246 39.8714 29.4338 39.869 29.4446C39.8443 29.5609 39.8205 29.6772 39.7951 29.7935C39.6993 30.2346 39.5943 30.6743 39.4792 31.1124C38.9783 33.0207 38.2975 34.9103 37.3111 36.7023C37.2614 36.7924 37.2105 36.8819 37.1594 36.9715C37.1822 36.9304 37.0691 37.1251 37.0344 37.182C36.8919 37.4157 36.7434 37.647 36.5883 37.8758C36.2967 38.3058 35.9819 38.7265 35.6401 39.1338C35.4801 39.3242 35.3144 39.5118 35.1421 39.6959C35.0611 39.7823 34.9789 39.8682 34.8952 39.953C34.8396 40.0094 34.7827 40.0648 34.7265 40.1208C34.709 40.1383 34.6709 40.1741 34.6421 40.2009C34.2726 40.5366 33.884 40.8587 33.4638 41.1575C33.2563 41.3051 33.0418 41.4472 32.8212 41.5831C32.7168 41.6472 32.6099 41.7083 32.5042 41.7712C32.7905 41.601 32.3338 41.8602 32.259 41.8979C31.7625 42.149 31.2375 42.368 30.6903 42.5488C30.6353 42.5669 30.5784 42.5833 30.5239 42.6025C30.5169 42.6049 30.5107 42.6072 30.5045 42.6093C30.5015 42.6102 30.499 42.6108 30.4958 42.6115C30.3659 42.6447 30.2376 42.6818 30.1071 42.7137C29.7974 42.7897 29.483 42.8539 29.1647 42.9063C28.8678 42.9553 28.569 42.9895 28.2682 43.0221C28.2482 43.0243 28.2181 43.0268 28.1898 43.0287C28.2113 43.0272 28.2377 43.0258 28.2703 43.0236C28.2256 43.0264 28.1807 43.0296 28.1357 43.0324C28.1191 43.0334 28.1093 43.0341 28.1119 43.0339C28.0989 43.0347 28.0859 43.0356 28.0731 43.0362C27.8718 43.0449 27.6709 43.0545 27.4692 43.0575C26.7618 43.0681 26.0672 43.0155 25.365 42.9523C25.3611 42.9518 25.3566 42.9514 25.352 42.951C25.2861 42.9418 25.2201 42.9327 25.1545 42.9227C25.0077 42.9003 24.8614 42.876 24.7157 42.8494C24.3696 42.7861 24.0273 42.7101 23.6905 42.6213C23.4226 42.5505 23.1636 42.4658 22.9003 42.3855C22.8943 42.3836 22.889 42.3821 22.8837 42.3804C22.8786 42.3782 22.8734 42.3763 22.8677 42.374C22.8132 42.3522 22.7569 42.3329 22.702 42.3118C22.5382 42.2489 22.3765 42.1827 22.2174 42.1133C21.981 42.0102 21.7498 41.9002 21.5245 41.7835C21.4001 41.7192 21.2776 41.6527 21.1568 41.5844C21.0946 41.5492 20.7585 41.3396 20.8399 41.3954C20.4128 41.113 20.0075 40.8152 19.6319 40.4919C19.4517 40.337 19.2784 40.1777 19.1109 40.0147C19.0647 39.9698 18.8349 39.7293 18.9263 39.8292C18.8383 39.7344 18.7508 39.6394 18.666 39.5427C17.9726 38.7516 17.4167 37.9015 16.9372 37.0254C16.9268 37.0065 16.917 36.9871 16.9068 36.9681C16.8942 36.9438 16.878 36.9127 16.8687 36.8938C16.8186 36.7918 16.7677 36.6902 16.7189 36.5877C16.6047 36.3481 16.497 36.107 16.3949 35.8644C16.2002 35.4013 16.0266 34.9331 15.8714 34.4617C15.8362 34.355 15.8058 34.2472 15.7725 34.1401C18.0728 33.9803 20.2967 33.0778 22.1413 31.6835C27.7067 27.4758 30.0381 20.0957 30.0677 13.3511C30.0841 9.59605 30.0677 5.84058 30.0677 2.08531C30.0677 1.21093 29.4144 0.757658 28.736 0.723577C28.7115 0.71953 28.6874 0.714418 28.6623 0.714418C27.7742 0.712288 26.886 0.710159 25.998 0.708028L25.9993 0.00852385L22.4053 1.86508e-06C22.0451 -0.000850151 21.7526 0.290323 21.752 0.650513L21.7494 1.97945C21.7488 2.33921 22.0398 2.63145 22.3995 2.63231L25.9944 2.64082L25.9954 2.02418C26.4117 2.02524 26.8279 2.0261 27.2441 2.02716C27.2434 2.04676 27.2413 2.06529 27.2413 2.08531C27.2413 5.51468 27.2413 8.94404 27.2413 12.3734C27.2413 17.7854 26.1237 23.4699 22.4008 27.6264C20.7066 29.5181 18.4536 31.0628 15.866 31.3105C13.3264 31.5536 10.869 30.574 8.96853 28.9157C4.5406 25.0518 2.83423 18.8555 2.82635 13.1647C2.82124 9.47165 2.82635 5.77859 2.82635 2.08552C2.82635 2.0655 2.82422 2.04676 2.82358 2.02716C3.19612 2.02631 3.56868 2.02546 3.94143 2.02439L3.9425 2.64104L7.53736 2.63252C7.89712 2.63167 8.1883 2.33943 8.18745 1.97966L8.1849 0.650728C8.18426 0.290751 7.89159 -0.000635639 7.53161 0.000216377L3.9376 0.00873186L3.93887 0.708237C3.05086 0.710367 2.16285 0.712496 1.27462 0.714626C1.21327 0.714839 1.15469 0.729755 1.09889 0.75212C0.511422 0.867569 0 1.31083 0 2.08552C0 5.6691 0 9.25269 0 12.8363C0 18.9834 1.65334 25.422 5.99415 29.9786C7.91395 31.9939 10.3543 33.4702 13.0855 33.9799C13.8857 36.9326 15.3141 39.8433 18.0201 42.0417C21.9207 45.2108 28.6644 46.0389 33.4414 43.6677C38.0027 41.4035 40.2207 37.182 41.4838 33.2855C42.0628 31.4997 42.4602 29.6755 42.7299 27.8447C42.8711 26.8856 43.0064 25.9122 43.0234 24.9447C43.0243 24.9 43.0273 24.8552 43.0283 24.8105C43.0379 24.4418 42.8258 24.1757 42.5207 24.0136L43.0899 12.7828C45.7239 12.5649 47.8554 10.4276 47.993 7.71543C48.1428 4.75979 45.8681 2.2425 42.9126 2.09276ZM46.3199 7.63045C46.2293 9.41649 44.8808 10.8396 43.1757 11.0877L43.2456 9.71064L41.8116 9.63801L41.7418 11.0151C40.0705 10.5959 38.8728 9.04373 38.9634 7.25769C39.0662 5.22627 40.7967 3.66282 42.8281 3.7657C44.8595 3.86879 46.4228 5.59903 46.3199 7.63045Z" fill="white"/>
</svg>
