<?xml version="1.0" encoding="UTF-8"?>
<svg version="1.1" xmlns="http://www.w3.org/2000/svg" width="123" height="113">
<path d="M0 0 C4.24941105 2.23550744 8.22487466 4.67046108 11.99926758 7.640625 C12.94801758 6.733125 13.89676758 5.825625 14.87426758 4.890625 C22.79057095 -1.75088598 31.03224401 -3.18394781 41.15551758 -2.7421875 C50.56936259 -1.80462976 58.2154315 2.60209394 64.68676758 9.41796875 C71.06919653 17.22048815 73.33579983 25.46678457 73.43676758 35.390625 C73.44691895 36.09952881 73.45707031 36.80843262 73.4675293 37.53881836 C73.45608887 38.2272583 73.44464844 38.91569824 73.43286133 39.625 C73.42311279 40.23053711 73.41336426 40.83607422 73.40332031 41.45996094 C72.99926758 43.640625 72.99926758 43.640625 69.99926758 50.640625 C62.40926758 50.640625 54.81926758 50.640625 46.99926758 50.640625 C45.82787248 46.53775392 44.6619601 42.4334621 43.49926758 38.328125 C43.16540039 37.16087891 42.8315332 35.99363281 42.48754883 34.79101562 C42.17172852 33.67275391 41.8559082 32.55449219 41.53051758 31.40234375 C41.23725586 30.37069092 40.94399414 29.33903809 40.6418457 28.27612305 C39.99926758 25.640625 39.99926758 25.640625 39.99926758 22.640625 C37.68926758 22.640625 35.37926758 22.640625 32.99926758 22.640625 C32.89743164 23.57003906 32.7955957 24.49945312 32.69067383 25.45703125 C31.95158596 30.63064633 30.4107422 35.57481905 28.93676758 40.578125 C28.65510742 41.54814453 28.37344727 42.51816406 28.08325195 43.51757812 C27.39280292 45.89319091 26.69804757 48.26745205 25.99926758 50.640625 C24.64381836 50.73150391 24.64381836 50.73150391 23.26098633 50.82421875 C22.08149414 50.90800781 20.90200195 50.99179687 19.68676758 51.078125 C18.51500977 51.15933594 17.34325195 51.24054687 16.13598633 51.32421875 C12.973358 51.5273621 12.973358 51.5273621 9.99926758 52.640625 C9.16674411 55.28929397 8.50836829 57.81051874 7.93676758 60.515625 C6.23700466 68.28401938 6.23700466 68.28401938 3.99926758 71.640625 C1.9703208 65.73250695 0.14561755 59.80409259 -1.48120117 53.7734375 C-1.69891678 52.97203339 -1.91663239 52.17062927 -2.14094543 51.34494019 C-2.59513243 49.66977371 -3.04797594 47.99424243 -3.49951172 46.31835938 C-4.19244982 43.74999326 -4.89227429 41.18356709 -5.5925293 38.6171875 C-6.0350021 36.98188321 -6.47707397 35.34647036 -6.91870117 33.7109375 C-7.1280278 32.94532501 -7.33735443 32.17971252 -7.55302429 31.39089966 C-8.35703456 28.38841417 -9.00073242 25.76384982 -9.00073242 22.640625 C-11.31073242 22.640625 -13.62073242 22.640625 -16.00073242 22.640625 C-16.34104492 24.55875 -16.34104492 24.55875 -16.68823242 26.515625 C-18.30438786 34.67897945 -20.73204555 42.64051866 -23.00073242 50.640625 C-31.25073242 50.640625 -39.50073242 50.640625 -48.00073242 50.640625 C-51.64020516 39.72220678 -51.90196072 26.77714749 -46.67260742 16.2890625 C-36.74813482 0.56758488 -17.87226132 -8.45677607 0 0 Z " fill="#FFFFFF" transform="translate(50.000732421875,2.359375)"/>
<path d="M0 0 C2.25417683 2.25417683 2.54351542 3.38378727 3.32861328 6.41796875 C3.56871124 7.33231689 3.8088092 8.24666504 4.05618286 9.1887207 C4.30834564 10.17831787 4.56050842 11.16791504 4.8203125 12.1875 C5.08383514 13.20094482 5.34735779 14.21438965 5.61886597 15.25854492 C6.17509353 17.40297109 6.72799308 19.54826282 7.27783203 21.69433594 C8.12198763 24.98824567 8.97609134 28.2794475 9.83203125 31.5703125 C10.3703762 33.65089051 10.90815581 35.7316149 11.4453125 37.8125 C11.82962936 39.29689575 11.82962936 39.29689575 12.22171021 40.8112793 C12.45550385 41.72562744 12.68929749 42.63997559 12.93017578 43.58203125 C13.24089523 44.79209839 13.24089523 44.79209839 13.55789185 46.02661133 C14 48 14 48 14 50 C16.31 50 18.62 50 21 50 C21.226875 48.741875 21.45375 47.48375 21.6875 46.1875 C23.37124309 37.695044 25.75213249 29.35657616 28 21 C33.28 20.67 38.56 20.34 44 20 C44.26554687 18.80761719 44.53109375 17.61523438 44.8046875 16.38671875 C45.16113217 14.82023825 45.51792097 13.25383602 45.875 11.6875 C46.04902344 10.90181641 46.22304687 10.11613281 46.40234375 9.30664062 C46.57636719 8.54931641 46.75039062 7.79199219 46.9296875 7.01171875 C47.08679199 6.31522217 47.24389648 5.61872559 47.40576172 4.90112305 C48 3 48 3 50 0 C50.83752161 2.95716407 51.66930031 5.915913 52.5 8.875 C52.85771484 10.13763672 52.85771484 10.13763672 53.22265625 11.42578125 C53.44824219 12.23144531 53.67382812 13.03710938 53.90625 13.8671875 C54.11572266 14.61081543 54.32519531 15.35444336 54.54101562 16.12060547 C55 18 55 18 55 20 C67.87 20.495 67.87 20.495 81 21 C74.52956108 40.41131675 56.23985331 55.75347348 39.69287109 66.85839844 C38.0535861 67.96386377 36.44214923 69.11028082 34.83203125 70.2578125 C33.87683594 70.91523437 32.92164062 71.57265625 31.9375 72.25 C31.12152344 72.81203125 30.30554688 73.3740625 29.46484375 73.953125 C26.10817538 75.37877813 24.48844694 75.04222736 21 74 C18.35601665 72.72240971 15.90550807 71.21256361 13.4375 69.625 C12.74076172 69.18309326 12.04402344 68.74118652 11.32617188 68.28588867 C4.36006631 63.7622064 -1.80560056 58.50803939 -8 53 C-8.72445313 52.41992188 -9.44890625 51.83984375 -10.1953125 51.2421875 C-19.02842357 44.12563242 -27.56769105 33.48081895 -32 23 C-32 22.34 -32 21.68 -32 21 C-19.625 20.505 -19.625 20.505 -7 20 C-4.66680019 15.33360038 -3.16516179 11.56921206 -1.8125 6.625 C-1.46832031 5.37976562 -1.12414062 4.13453125 -0.76953125 2.8515625 C-0.51558594 1.91054688 -0.26164062 0.96953125 0 0 Z " fill="#FFFFFF" transform="translate(37,38)"/>
</svg>
