<svg width="304" height="61" viewBox="0 0 304 61" fill="none" xmlns="http://www.w3.org/2000/svg">
<g clip-path="url(#clip0_4718_284)">
<path d="M55.5164 59.8981H65.7457L73.765 30.0117H63.6407L55.5164 59.8981Z" fill="#004A7F"/>
<path d="M107.962 59.8981H118.191L126.21 30.0117H115.981L107.962 59.8981Z" fill="#004A7F"/>
<path d="M160.502 59.8981H170.631L178.555 30.0117H168.326L160.502 59.8981Z" fill="#004A7F"/>
<path d="M98.4339 40.2414H108.663C110.067 33.5253 105.756 30.1172 95.7274 30.1172C84.0946 30.1172 76.2759 35.8308 73.5695 45.5591C71.259 54.5806 75.9752 59.9986 86.9013 59.9986C97.9326 59.9986 104.448 56.5904 107.16 48.867H96.9302C95.4267 52.2751 92.8204 53.9792 89.2118 53.9792C84.2951 53.9792 82.2903 50.972 83.7939 45.2583C85.3977 39.3392 89.2118 36.0313 94.1236 36.0313C97.3312 36.0313 98.7346 37.4347 98.4339 40.2414Z" fill="#004A7F"/>
<path d="M150.979 40.2414H161.209C162.612 33.5253 158.197 30.1172 148.168 30.1172C136.635 30.1172 128.716 35.8308 126.11 45.5591C123.704 54.5806 128.416 59.9986 139.347 59.9986C150.278 59.9986 156.793 56.5904 159.6 48.867H149.376C147.967 52.2751 145.261 53.9792 141.652 53.9792C136.74 53.9792 134.736 50.972 136.334 45.2583C137.843 39.3392 141.652 36.0313 146.564 36.0313C149.777 36.0313 151.28 37.4347 150.979 40.2414Z" fill="#004A7F"/>
<path d="M16.1072 13.4727C29.7448 -0.0646645 46.2893 -3.57805 52.9102 5.64899C59.531 14.876 53.7121 33.5256 40.0745 47.0629C26.4369 60.7005 9.8924 64.2089 3.17135 54.8816C-3.34422 45.5593 2.47467 27.005 16.1072 13.4727Z" fill="#F06321"/>
<path d="M25.1337 6.25022C23.6302 7.35286 22.1266 8.65597 20.623 10.0643C8.68947 21.8926 3.67245 38.1364 9.59161 46.2608C15.7062 54.3802 30.3461 51.373 42.5804 39.4395C49.2012 33.0242 53.6117 25.6015 55.416 18.6849C55.9172 13.5727 55.2157 9.05693 52.9101 5.64879C47.6976 -1.56845 36.4658 -0.97203 25.1337 6.25022Z" fill="#AE282E"/>
<path d="M42.38 7.75377V8.05449C42.28 9.75856 41.2774 11.8636 39.4731 13.6679C36.7666 16.2741 33.158 17.2765 31.6494 15.7779C29.9453 14.1741 30.9528 10.6607 33.6592 7.85401C36.4659 5.14754 40.0745 4.24539 41.5781 5.84922C42.0793 6.35042 42.38 6.95185 42.38 7.75377ZM31.9551 53.7787C25.5348 58.5902 18.919 61.001 12.4987 59.9986C15.2051 60.0988 17.4154 57.0866 19.2197 53.077C21.024 48.9672 22.0264 45.1581 22.9285 41.5445C24.2316 35.8308 24.3319 31.8213 23.6302 30.9191C22.5276 29.5107 20.1218 29.8165 17.3101 31.4203C15.9068 32.2222 14.1025 31.721 16.2125 29.1148C18.4178 26.5086 26.9381 20.2887 29.9453 19.2863C33.3584 18.3842 37.1676 19.6873 35.8645 23.3961C34.9573 26.1026 23.1291 56.9864 31.9551 53.7787Z" fill="white"/>
<path d="M193.897 55.1822L196.202 46.5616H201.816V41.9506H197.505L199.51 34.6281H201.816V30.1123H194.193L186.274 59.9987H201.816V55.1822H193.897ZM201.816 46.5616H202.918C208.036 46.5616 210.441 47.4637 209.439 50.9721C208.637 54.0795 206.131 55.1822 201.816 55.1822V59.9987C206.031 59.9987 209.138 59.5977 212.246 57.4877C214.351 56.0843 215.859 53.9793 216.461 51.5736C217.558 47.4638 215.754 44.652 211.043 44.0556C215.453 43.2537 218.265 40.9432 219.162 37.3346C219.964 34.6281 219.262 32.6233 217.358 31.3202C215.754 30.2176 213.048 30.1123 209.439 30.1123H201.816V34.6281H205.73C210.542 34.6281 212.747 35.2295 212.045 38.2367C211.143 41.1436 208.537 41.9506 203.625 41.9506H201.816V46.5616Z" fill="#004A7F"/>
<path d="M229.893 39.0437V42.7475C229.091 43.1535 228.389 43.8552 228.089 44.8576H222.074C223.072 41.9506 225.783 39.9408 229.893 39.0437ZM229.893 56.5906C229.191 56.7911 228.389 56.8913 227.587 56.8913C224.881 56.8913 223.678 55.7836 224.279 53.7789C224.881 51.4733 226.685 50.6714 229.893 50.3707V46.8623C222.971 47.3635 219.162 49.1679 217.959 53.6786C216.857 57.7884 219.468 60.4999 224.881 60.4999C226.685 60.4999 228.389 60.1992 229.893 59.5978V56.5906ZM235.712 50.3707L235.611 50.6714C234.81 53.7789 232.7 55.8889 229.893 56.5906V59.5978C231.397 58.9913 232.699 58.1944 233.902 57.0918L233.401 59.9987H239.421C239.721 58.5904 240.022 56.9865 240.423 55.3827L242.728 46.9626C242.929 46.2609 243.029 45.5592 243.029 44.8575V43.8552C242.829 40.442 239.922 38.6377 234.509 38.6377C232.8 38.6377 231.296 38.8382 229.893 39.0437V42.7475C230.795 42.2513 231.898 42.0508 233.306 42.0508C236.408 42.0508 237.616 43.4492 236.709 46.4614L236.614 46.7621H233.401C232.203 46.7621 230.996 46.8623 229.893 46.8623V50.3707L235.712 50.3707Z" fill="#004A7F"/>
<path d="M244.833 59.9987H250.953L253.86 49.2681C254.862 45.459 258.371 42.7475 262.08 42.7475C265.688 42.7475 266.996 44.8575 265.794 49.0676L262.882 59.9987H269.001L272.409 47.2633C273.813 41.8504 271.106 38.6377 265.092 38.6377C261.178 38.6377 258.07 40.041 255.364 42.8477L256.065 39.1389H249.951C249.349 42.4468 248.948 44.4566 248.743 45.2585L244.833 59.9987Z" fill="#004A7F"/>
<path d="M274.414 59.9986H280.434L283.441 48.7667L291.565 59.9986H299.885L290.658 48.0651L303.093 39.1387H295.374L283.842 47.4636L288.453 30.1172H282.438L274.414 59.9986Z" fill="#004A7F"/>
</g>
<defs>
<clipPath id="clip0_4718_284">
<rect width="303.593" height="61" fill="white"/>
</clipPath>
</defs>
</svg>
