<svg width="2524" height="783" viewBox="0 0 2524 783" fill="none" xmlns="http://www.w3.org/2000/svg">
<g clip-path="url(#clip0_4717_194)">
<path d="M623.95 0C623.58 2.8 625.91 1.8 627.04 1.96C669.34 7.9 705.26 26.37 734.45 57.43C761.52 86.22 776.89 120.69 781.65 159.83C782.71 168.57 782.84 177.43 782.84 186.27C782.78 324.22 782.98 462.17 782.7 600.11C782.57 663.61 756.47 714.28 704.61 751.11C681.88 767.25 656.24 776.75 628.61 780.76C626.2 781.11 626.2 781.08 624.96 782.8H621.96C619.63 780.83 617.29 781.58 614.96 782.8H165.99C164.32 781.38 162.66 780.95 160.99 782.8H154.99C157.11 780.68 154.55 780.96 153.81 780.79C149.29 779.78 144.71 779.02 140.19 778.01C106.7 770.52 77.68 754.61 53.43 730.47C24.68 701.85 7.58001 667.23 1.98001 626.99C1.82001 625.82 2.72001 623.57 0.0100098 623.84V620.84C1.91001 619.51 1.28001 618.17 0.0100098 616.84V165.96C1.26001 164.63 1.87001 163.29 0.0100098 161.96V158.96C1.76001 157.7 1.73001 157.7 2.03001 155.81C12.92 88.33 49.74 40.91 112.37 13.6C125.85 7.72 140.08 4.25 154.62 2.05C155.63 1.9 158.01 2.73 156.99 0H161.99C163.32 1.89 164.66 1.33 165.99 0H615.96C617.63 1.35 619.29 1.87 620.96 0H623.96L623.95 0ZM519.63 367.42C519.63 311.77 519.66 256.13 519.61 200.48C519.59 183.14 509.9 173.45 492.69 173.44C437.87 173.41 383.04 173.48 328.22 173.32C323.81 173.31 323.13 174.83 323.17 178.74C323.38 202.23 323.43 225.72 323.35 249.21C323.28 269.34 308.66 283.88 288.63 283.91C265.3 283.95 241.97 284.01 218.64 283.78C214.23 283.74 212.81 284.65 212.82 289.39C212.99 370.69 212.94 452 212.95 533.3C212.95 550.66 222.52 560.32 239.73 560.32C323.88 560.32 408.03 560.31 492.18 560.29C510.05 560.29 519.62 550.72 519.62 532.86C519.62 477.71 519.62 422.57 519.62 367.42H519.63ZM570.09 416.35C570.09 403.02 570.09 389.7 570.09 376.37C570.09 334.23 570.09 292.09 570.07 249.95C570.06 232.42 560.51 222.96 542.85 222.84C541.52 222.84 540.16 222.99 538.86 222.8C534.32 222.14 533.1 223.9 533.1 228.51C533.25 330.12 533.22 431.72 533.23 533.33C533.23 558.23 517.6 574 492.81 574C418.18 574.01 343.54 574 268.91 574C267.91 574 266.91 574.04 265.91 573.99C264.22 573.91 263.67 574.74 263.49 576.36C261.1 598.01 272.5 610.05 291.85 609.94C375.81 609.5 459.78 609.76 543.74 609.75C560.12 609.75 570.1 599.69 570.1 583.26C570.1 527.63 570.1 471.99 570.1 416.36L570.09 416.35ZM89.23 578.15C89.23 578.15 89.23 578.14 89.23 578.13C85.07 578.13 80.9 578.26 76.74 578.09C73.89 577.97 73.1 579.01 73.16 581.83C73.7 604.61 77.86 626.56 89.06 646.62C115.49 693.94 159.05 713.56 210.17 720.74C212.72 721.1 213.27 719.98 213.38 717.73C213.78 709.42 214.2 701.1 214.89 692.81C215.14 689.74 214.13 688.89 211.18 688.54C200.08 687.2 189.21 684.67 178.69 680.88C153.39 671.77 131.99 657.6 118.4 633.59C109.51 617.89 105.73 600.78 105.43 582.9C105.36 578.74 103.92 577.81 100.21 578.09C96.57 578.36 92.89 578.15 89.22 578.15H89.23ZM710.21 586.38C710.26 585.55 710.23 584.7 710.38 583.89C711.2 579.47 709.8 577.68 704.94 578C697.98 578.45 690.95 578.43 683.98 578.05C679.38 577.8 678.28 579.27 678.13 583.82C677.02 618.58 663.6 647 634.02 666.59C616.25 678.36 596.49 685.01 575.48 688.11C568.67 689.12 568.63 689.1 568.96 695.74C569.3 702.55 570.03 709.37 570.01 716.18C570 720.48 571.71 721.09 575.4 720.59C588.3 718.84 600.88 715.86 613.27 711.88C672.14 692.96 707.36 647.42 710.21 586.38ZM89.05 204.5V204.54C91.05 204.54 93.05 204.54 95.04 204.54C101.727 204.547 105.28 201.2 105.7 194.5C108.11 156.34 125.98 128.05 159.81 110.05C175.85 101.52 193.03 96.45 211.02 94.21C214.26 93.81 215.19 92.87 214.89 89.63C214.21 82.17 213.58 74.68 213.61 67.2C213.63 62.22 211.61 61.57 207.37 62.17C185.61 65.25 164.73 71.17 145.31 81.56C97.77 106.98 74.61 147.22 73.16 200.63C73.07 203.83 74.12 204.68 77.08 204.55C81.07 204.37 85.07 204.51 89.07 204.51L89.05 204.5ZM693.36 204.54C698.44 204.54 702.78 204.46 707.11 204.57C709.73 204.64 710.54 203.59 710.47 201C709.82 175.06 704.2 150.52 690.15 128.34C672.56 100.55 647.01 83.11 616.63 72.04C602.97 67.06 588.92 63.66 574.44 62.08C572.27 61.84 570.18 61.39 570.08 64.92C569.83 73.41 569.31 81.89 568.74 90.37C568.57 92.91 569.4 93.78 571.97 94.1C585.24 95.74 598.15 98.93 610.57 103.95C649.52 119.69 673.08 147.39 677.69 189.96C678.2 194.68 676.13 201.01 679.5 203.72C683 206.52 689.13 204.19 693.34 204.54H693.36ZM256.98 270.21C267.81 270.21 278.64 270.3 289.47 270.19C300.84 270.07 309.56 261.72 309.67 250.38C309.88 228.56 309.73 206.73 309.75 184.91C309.75 180.08 307.68 176.53 303.23 174.65C298.85 172.8 295.09 174.2 291.88 177.42C266.91 202.37 241.94 227.32 216.98 252.28C213.64 255.62 212.07 259.44 214.11 264.03C216.09 268.48 219.62 270.31 224.5 270.25C235.33 270.11 246.16 270.21 256.99 270.21H256.98Z" fill="#DC2A4B"/>
<path d="M2523.81 535.87C2461.01 535.87 2398.21 535.83 2335.41 535.97C2331.2 535.97 2329.61 535.22 2329.79 530.6C2330.19 520.79 2330 510.95 2329.86 501.13C2329.82 498.29 2330.58 496.08 2332.46 493.92C2363.27 458.49 2393.92 422.92 2424.86 387.6C2432.2 379.22 2440.42 371.61 2448.33 363.74C2449.61 362.47 2451.33 361.65 2452.85 360.62C2450.71 358.17 2449.13 358.91 2447.77 358.91C2410.96 359.06 2374.15 359.28 2337.33 359.43C2329.59 359.46 2330.86 360.04 2330.81 352.68C2330.74 341.69 2330.91 330.69 2330.72 319.7C2330.66 316.22 2331.26 314.82 2335.26 314.83C2395.56 314.97 2455.86 314.96 2516.17 314.84C2519.6 314.84 2520.34 315.98 2520.29 319.11C2520.14 329.6 2520.19 340.1 2520.26 350.59C2520.28 352.91 2519.54 354.65 2518.02 356.4C2486.36 392.86 2454.83 429.44 2423.07 465.81C2416.51 473.32 2409.1 480.1 2402.1 487.23C2400.85 488.5 2399.68 489.83 2398.42 491.2C2399.97 492.6 2401.52 492.07 2402.91 492.03C2441.55 490.97 2480.19 491.25 2518.84 491.22C2520.49 491.22 2522.15 491.01 2523.8 490.9V535.89L2523.81 535.87Z" fill="#DC2A4B"/>
<path d="M1866.43 531.26C1845.04 522.62 1835.98 507.29 1837.81 485.62C1839.54 465.07 1852.95 454.05 1870.49 446.52C1869.78 444.55 1867.8 444.13 1866.37 443.16C1844.55 428.4 1835.3 407.6 1836.32 381.65C1837.73 345.82 1863.05 325.34 1891.01 317.03C1920.88 308.16 1951.08 308.39 1981.16 316.36C1984.98 317.37 1985.29 315.82 1985.86 313.02C1989.16 296.81 1996.55 283.05 2010.19 273.11C2021.3 265.01 2033.9 262.24 2047.4 262.54C2049.53 262.59 2050.59 263.17 2050.96 265.6C2052.75 277.26 2054.76 288.89 2056.75 300.51C2057.31 303.82 2057.13 305.56 2052.67 305.24C2042.6 304.51 2032.73 305.89 2023.74 311.01C2017.88 314.35 2013.9 319.33 2011.21 325.46C2010 328.22 2010.15 330.04 2012.89 332.1C2042.63 354.48 2043.84 397.54 2028.01 422.17C2016.66 439.84 1999.64 449.43 1980.02 454.8C1955.04 461.63 1929.6 462.08 1904.34 457.15C1895.01 455.33 1883.59 464.58 1881.96 472.16C1879.91 481.71 1885.2 489.9 1895.59 492.69C1901.41 494.25 1907.4 494.57 1913.42 494.58C1938.41 494.65 1963.4 494.57 1988.39 494.91C1999.61 495.06 2010.53 497.55 2020.75 502.3C2044.32 513.24 2054.37 533.21 2052.37 558.71C2049.78 591.68 2029.31 610.1 2000.2 620.78C1973.95 630.41 1946.59 631.91 1918.97 630.39C1900.83 629.39 1882.84 627.37 1865.66 620.88C1855.4 617 1846.25 611.41 1838.72 603.34C1817.41 580.52 1825.59 545.75 1854.87 534.91C1858.29 533.64 1861.83 532.71 1866.47 531.26H1866.43ZM1938.41 542.91C1924.41 542.91 1910.42 542.76 1896.42 542.96C1885.94 543.11 1876.72 549.73 1875 557.83C1872.91 567.67 1877.1 575.38 1887.68 580.69C1890.93 582.32 1894.35 583.8 1897.86 584.72C1922.13 591.11 1946.62 590.76 1971.07 586.19C1981.22 584.29 1991.14 581.01 1998.72 573.35C2008.03 563.96 2004.93 550.18 1992.56 545.5C1987.7 543.66 1982.6 542.9 1977.39 542.9C1964.39 542.9 1951.4 542.9 1938.4 542.9L1938.41 542.91ZM1935.06 348.6C1931.95 348.67 1926.51 349.05 1921.24 350.89C1908.11 355.48 1899.1 364.08 1897.14 378.08C1895.1 392.69 1898.12 405.94 1911.42 414.94C1921.61 421.83 1932.89 423.22 1944.79 421.88C1960.43 420.13 1973.36 409.27 1976.61 395.04C1980.46 378.14 1974.73 363 1961.26 354.58C1953.97 350.02 1945.89 348.53 1935.06 348.6Z" fill="#DC2A4B"/>
<path d="M1298.8 535.87C1284.91 535.87 1271.95 535.87 1259 535.87C1250.5 535.87 1242 535.7 1233.51 535.95C1230.24 536.05 1228.48 534.94 1226.79 532.19C1201.02 490.42 1175.08 448.76 1149.38 406.95C1146.91 402.93 1145.85 403.27 1143.06 406.53C1132 419.42 1120.75 432.15 1109.36 444.76C1106.3 448.15 1104.75 451.46 1104.8 456.23C1105.07 481.22 1104.85 506.21 1105.02 531.19C1105.05 534.93 1104.1 535.91 1100.34 535.86C1083.18 535.64 1066.02 535.69 1048.86 535.84C1045.38 535.87 1043.94 535.28 1043.94 531.28C1044.06 437.16 1044.06 343.03 1043.94 248.91C1043.94 245 1045.24 244.22 1048.8 244.25C1065.79 244.41 1082.79 244.46 1099.78 244.22C1103.98 244.16 1105.03 245.36 1105.01 249.48C1104.86 291.79 1104.92 334.11 1104.92 376.42C1104.92 377.9 1104.92 379.37 1104.92 382.18C1108.6 378.07 1111.54 374.86 1114.4 371.57C1150.19 330.3 1185.96 289.01 1221.72 247.72C1223.38 245.8 1224.94 244.24 1227.9 244.26C1249.39 244.39 1270.89 244.33 1292.38 244.34C1292.84 244.34 1293.31 244.53 1293.76 244.63C1294.35 246.18 1293.07 246.82 1292.39 247.6C1259.48 284.98 1226.58 322.36 1193.54 359.62C1190.96 362.53 1190.83 364.44 1192.89 367.69C1226.77 421.26 1260.51 474.92 1294.28 528.57C1295.6 530.67 1296.89 532.79 1298.8 535.87Z" fill="#DC2A4B"/>
<path d="M1465.49 509.2C1448.15 530.01 1425.47 538.69 1399.45 539.96C1386.57 540.59 1373.85 539.44 1361.52 535.27C1334.62 526.18 1320.75 505.6 1322.5 477.32C1324.16 450.42 1339.14 432.15 1367.75 423.02C1385.83 417.25 1404.71 414.87 1423.21 410.88C1434.25 408.5 1445.34 406.34 1456.4 404.07C1457.8 403.78 1459.26 403.91 1459.81 401.88C1463.35 388.73 1455.52 368.37 1443.37 360.97C1428.64 352 1413.21 352.89 1397.93 359.5C1386.01 364.65 1378.98 374.43 1375.04 386.43C1373.79 390.22 1372.33 390.58 1368.8 389.45C1355.05 385.03 1341.25 380.73 1327.34 376.85C1322.26 375.43 1322.02 373.38 1323.64 368.89C1333.13 342.54 1351.61 325.35 1377.88 317.12C1407.52 307.83 1437.63 307.91 1467.31 317.25C1501.1 327.89 1519.5 354.45 1519.71 391.93C1519.87 420.75 1520.15 449.58 1519.6 478.4C1519.26 496.29 1528.05 501.09 1543.89 498.06C1549.51 496.99 1549.51 496.96 1549.04 502.75C1548.3 511.71 1547.46 520.66 1546.85 529.62C1546.63 532.8 1545.55 534.86 1542.32 535.85C1523.13 541.73 1504.26 541.59 1486 532.62C1477.06 528.23 1472.92 523.14 1465.5 509.21L1465.49 509.2ZM1459.83 452.3C1459.83 449.31 1459.68 446.96 1459.87 444.64C1460.13 441.42 1459.19 440.77 1455.9 441.5C1445.04 443.91 1434.06 445.8 1423.17 448.06C1412.94 450.18 1402.56 451.76 1393.12 456.73C1386.63 460.15 1383.17 465.35 1382.91 472.65C1382.43 486.36 1390.13 495.05 1403.98 496.93C1413.42 498.21 1422.63 497.16 1431.6 494.45C1445.26 490.33 1454.9 481.88 1458.31 467.49C1459.54 462.29 1460.1 457 1459.83 452.3Z" fill="#DC2A4B"/>
<path d="M2221.62 508.98C2204.53 529.51 2182.54 538.26 2157.28 539.86C2143.75 540.72 2130.35 539.63 2117.36 535.23C2090.52 526.13 2076.63 505.44 2078.46 477.21C2080.21 450.25 2095.35 431.98 2123.81 422.98C2141.75 417.31 2160.46 414.97 2178.79 410.92C2189.98 408.45 2201.24 406.31 2212.47 404.03C2213.9 403.74 2215.28 403.81 2215.78 401.76C2219.86 385.01 2209.6 364.28 2193.5 357.91C2180.13 352.62 2166.75 353.65 2153.76 359.52C2141.92 364.88 2134.9 374.53 2130.93 386.53C2129.81 389.92 2128.73 390.79 2125.07 389.6C2111.02 385.01 2096.89 380.66 2082.68 376.63C2078.26 375.38 2078 373.48 2079.31 369.67C2088.4 343.41 2106.58 326.05 2132.54 317.5C2160.87 308.17 2189.95 307.71 2218.6 315.94C2256.54 326.84 2275.43 352.59 2275.63 392.09C2275.78 420.75 2276.1 449.41 2275.51 478.06C2275.13 496.73 2284.47 501.22 2299.97 497.9C2304.42 496.95 2305.94 497.08 2305.16 502.39C2303.86 511.27 2303.47 520.28 2302.77 529.24C2302.54 532.21 2302.03 534.66 2298.59 535.73C2279.06 541.83 2259.9 541.67 2241.38 532.3C2231.75 527.42 2225.6 519.25 2221.61 508.99L2221.62 508.98ZM2215.77 452.38C2215.77 449.28 2215.62 446.94 2215.81 444.62C2216.08 441.34 2215.05 440.79 2211.8 441.51C2200.94 443.91 2189.96 445.82 2179.06 448.07C2168.66 450.22 2158.11 451.84 2148.56 456.96C2143.01 459.94 2139.7 464.52 2138.95 470.7C2137.22 484.84 2145.24 494.88 2159.46 496.89C2168.88 498.22 2178.11 497.26 2187.1 494.61C2200.98 490.53 2210.79 482.03 2214.28 467.46C2215.52 462.27 2216.04 456.96 2215.76 452.37L2215.77 452.38Z" fill="#DC2A4B"/>
<path d="M1723.55 509.32C1701.18 535.09 1672.36 542.2 1640.02 539.52C1632.2 538.87 1624.56 537.26 1617.18 534.54C1592.09 525.27 1579.18 505.32 1580.48 477.89C1581.75 450.93 1596.97 432.2 1625.7 423.05C1643.78 417.29 1662.67 414.91 1681.17 410.91C1692.21 408.52 1703.29 406.36 1714.36 404.09C1715.76 403.8 1717.23 403.97 1717.8 401.94C1722.29 386.08 1711.59 364.28 1695.68 358C1682.15 352.65 1668.62 353.66 1655.49 359.73C1643.68 365.19 1636.78 374.9 1632.87 386.91C1631.79 390.22 1630.45 390.68 1627.27 389.67C1613.19 385.17 1599.09 380.74 1584.86 376.73C1580.15 375.4 1580.02 373.47 1581.44 369.42C1590.74 343.01 1609.12 325.62 1635.35 317.29C1665.11 307.83 1695.4 307.9 1725.26 317.26C1758.99 327.83 1777.51 354.54 1777.69 391.93C1777.83 420.75 1778.09 449.59 1777.56 478.4C1777.23 496.08 1785.77 501.16 1801.84 498.08C1807.49 497 1807.49 496.95 1807.01 502.7C1806.26 511.66 1805.41 520.61 1804.82 529.57C1804.59 533.02 1803.24 534.97 1799.86 536C1781.71 541.51 1763.77 541.51 1746.25 533.76C1735.74 529.11 1730.88 523.56 1723.54 509.35L1723.55 509.32ZM1717.8 452.13C1717.8 449.42 1717.62 447.4 1717.84 445.42C1718.27 441.51 1717.13 440.72 1713.13 441.65C1702.62 444.09 1691.95 445.84 1681.38 448.02C1670.99 450.17 1660.43 451.75 1650.87 456.84C1644.61 460.18 1641.18 465.29 1640.89 472.39C1640.32 486.16 1647.96 494.99 1661.7 496.9C1671.12 498.21 1680.35 497.19 1689.33 494.53C1703.22 490.42 1712.94 481.84 1716.36 467.26C1717.58 462.06 1718.1 456.76 1717.8 452.12V452.13Z" fill="#DC2A4B"/>
<path d="M519.64 367.42C519.64 422.57 519.64 477.71 519.64 532.86C519.64 550.72 510.06 560.29 492.2 560.29C408.05 560.31 323.9 560.32 239.75 560.32C222.54 560.32 212.97 550.66 212.97 533.3C212.97 452 213.01 370.69 212.84 289.39C212.84 284.65 214.24 283.73 218.66 283.78C241.99 284.01 265.32 283.95 288.65 283.91C308.68 283.88 323.3 269.34 323.37 249.21C323.45 225.72 323.4 202.23 323.19 178.74C323.15 174.83 323.83 173.31 328.24 173.32C383.06 173.48 437.89 173.41 492.71 173.44C509.92 173.44 519.61 183.14 519.63 200.48C519.68 256.13 519.65 311.77 519.65 367.42H519.64ZM371.15 335.8C344.18 335.8 317.21 335.8 290.24 335.8C288.91 335.8 287.57 335.73 286.25 335.84C280.03 336.35 275.73 340.88 275.65 346.92C275.57 353.24 279.4 357.66 285.73 358.41C287.54 358.62 289.38 358.61 291.21 358.61C344.65 358.61 398.1 358.61 451.54 358.6C453.53 358.6 455.56 358.62 457.51 358.29C461.82 357.57 464.69 354.98 466.1 350.86C468.83 342.9 463.26 335.84 454.07 335.82C426.43 335.76 398.79 335.8 371.16 335.8H371.15ZM371.05 420.18V420.21C398.68 420.21 426.32 420.17 453.95 420.25C459.06 420.27 463.15 418.77 465.51 414.04C469.5 406.06 464.03 397.74 454.62 397.69C433.48 397.59 412.34 397.66 391.2 397.66C357.24 397.66 323.28 397.66 289.32 397.66C285.97 397.66 282.66 397.63 279.84 399.94C276.26 402.88 274.65 408.06 276.06 412.55C277.47 417.07 281.72 420.14 287.16 420.15C315.13 420.21 343.09 420.18 371.06 420.18H371.05ZM328.45 478.26C342.26 478.26 356.06 478.29 369.87 478.25C377.55 478.23 382.45 473.89 382.5 467.22C382.55 460.45 377.41 455.75 369.75 455.74C342.64 455.71 315.52 455.7 288.41 455.73C280.34 455.73 275.63 460 275.65 467.11C275.67 474.27 280.23 478.24 288.53 478.26C301.84 478.28 315.14 478.26 328.45 478.27V478.26Z" fill="#F6F4F5"/>
<path d="M570.09 416.35C570.09 471.98 570.09 527.62 570.09 583.25C570.09 599.69 560.11 609.74 543.73 609.74C459.77 609.74 375.8 609.49 291.84 609.93C272.49 610.03 261.09 598 263.48 576.35C263.66 574.73 264.21 573.9 265.9 573.98C266.9 574.03 267.9 573.99 268.9 573.99C343.53 573.99 418.17 574.01 492.8 573.99C517.59 573.99 533.22 558.22 533.22 533.32C533.22 431.71 533.24 330.11 533.09 228.5C533.09 223.89 534.31 222.13 538.85 222.79C540.16 222.98 541.51 222.82 542.84 222.83C560.5 222.95 570.05 232.41 570.06 249.94C570.09 292.08 570.08 334.22 570.08 376.36C570.08 389.69 570.08 403.01 570.08 416.34L570.09 416.35Z" fill="#F6F4F5"/>
<path d="M89.23 578.15C92.89 578.15 96.57 578.36 100.22 578.09C103.93 577.81 105.37 578.74 105.44 582.9C105.74 600.78 109.52 617.89 118.41 633.59C132 657.6 153.4 671.76 178.7 680.88C189.23 684.67 200.09 687.2 211.19 688.54C214.14 688.89 215.15 689.74 214.9 692.81C214.21 701.1 213.79 709.42 213.39 717.73C213.28 719.98 212.73 721.09 210.18 720.74C159.07 713.57 115.51 693.94 89.07 646.62C77.87 626.57 73.71 604.61 73.17 581.83C73.1 579 73.89 577.97 76.75 578.09C80.91 578.26 85.07 578.13 89.24 578.13C89.24 578.13 89.24 578.14 89.24 578.15H89.23Z" fill="#F6F4F5"/>
<path d="M710.21 586.38C707.35 647.41 672.13 692.95 613.27 711.88C600.88 715.86 588.3 718.84 575.4 720.59C571.71 721.09 570 720.47 570.01 716.18C570.03 709.37 569.3 702.56 568.96 695.74C568.63 689.1 568.67 689.11 575.48 688.11C596.49 685 616.25 678.35 634.02 666.59C663.6 647 677.03 618.59 678.13 583.82C678.27 579.27 679.38 577.8 683.98 578.05C690.95 578.43 697.98 578.46 704.94 578C709.8 577.68 711.2 579.47 710.38 583.89C710.23 584.7 710.26 585.55 710.21 586.38Z" fill="#F6F4F5"/>
<path d="M89.05 204.5C85.05 204.5 81.05 204.36 77.06 204.54C74.1 204.67 73.06 203.82 73.14 200.62C74.59 147.21 97.76 106.97 145.29 81.5502C164.72 71.1602 185.59 65.2402 207.35 62.1602C211.59 61.5602 213.61 62.2102 213.59 67.1902C213.56 74.6702 214.19 82.1602 214.87 89.6202C215.17 92.8602 214.23 93.8002 211 94.2002C193.02 96.4402 175.84 101.51 159.79 110.04C125.95 128.04 108.09 156.33 105.68 194.49C105.26 201.19 101.707 204.537 95.02 204.53C93.02 204.53 91.02 204.53 89.03 204.53V204.49L89.05 204.5Z" fill="#F6F4F5"/>
<path d="M693.36 204.54C689.14 204.19 683.01 206.52 679.52 203.72C676.14 201.01 678.22 194.68 677.71 189.96C673.1 147.39 649.54 119.69 610.59 103.95C598.17 98.9304 585.26 95.7404 571.99 94.1004C569.43 93.7804 568.59 92.9105 568.76 90.3705C569.32 81.8905 569.85 73.4104 570.1 64.9204C570.2 61.3804 572.29 61.8404 574.46 62.0804C588.93 63.6604 602.99 67.0604 616.65 72.0404C647.03 83.1204 672.58 100.56 690.17 128.34C704.21 150.52 709.84 175.06 710.49 201C710.55 203.59 709.75 204.64 707.13 204.57C702.8 204.46 698.47 204.54 693.38 204.54H693.36Z" fill="#F6F4F5"/>
<path d="M256.98 270.2C246.15 270.2 235.32 270.1 224.49 270.24C219.61 270.3 216.08 268.47 214.1 264.02C212.06 259.43 213.63 255.6 216.97 252.27C241.94 227.32 266.9 202.36 291.87 177.41C295.09 174.19 298.85 172.8 303.22 174.64C307.68 176.52 309.75 180.08 309.74 184.9C309.72 206.72 309.87 228.55 309.66 250.37C309.55 261.71 300.83 270.06 289.46 270.18C278.63 270.29 267.8 270.2 256.97 270.2H256.98Z" fill="#F6F4F5"/>
<path d="M371.15 335.8C398.79 335.8 426.43 335.76 454.06 335.82C463.26 335.84 468.82 342.9 466.09 350.86C464.68 354.97 461.81 357.57 457.5 358.29C455.55 358.62 453.52 358.6 451.53 358.6C398.09 358.62 344.64 358.62 291.2 358.61C289.37 358.61 287.53 358.62 285.72 358.41C279.39 357.66 275.56 353.24 275.64 346.92C275.72 340.87 280.02 336.35 286.24 335.84C287.56 335.73 288.9 335.8 290.23 335.8C317.2 335.8 344.17 335.8 371.14 335.8H371.15Z" fill="#DC2A4B"/>
<path d="M371.05 420.18C343.08 420.18 315.12 420.21 287.15 420.15C281.71 420.14 277.46 417.06 276.05 412.55C274.65 408.05 276.25 402.88 279.83 399.94C282.65 397.63 285.96 397.66 289.31 397.66C323.27 397.66 357.23 397.66 391.19 397.66C412.33 397.66 433.47 397.6 454.61 397.69C464.02 397.73 469.49 406.06 465.5 414.04C463.14 418.77 459.04 420.26 453.94 420.25C426.31 420.17 398.67 420.21 371.04 420.21V420.18H371.05Z" fill="#DC2A4B"/>
<path d="M328.45 478.25C315.14 478.25 301.84 478.26 288.53 478.25C280.23 478.24 275.67 474.26 275.65 467.1C275.63 460 280.34 455.73 288.41 455.72C315.52 455.7 342.64 455.7 369.75 455.73C377.41 455.73 382.55 460.43 382.5 467.21C382.45 473.88 377.55 478.22 369.87 478.24C356.06 478.28 342.26 478.25 328.45 478.24V478.25Z" fill="#DC2A4B"/>
</g>
<defs>
<clipPath id="clip0_4717_194">
<rect width="2523.81" height="782.81" fill="white"/>
</clipPath>
</defs>
</svg>
