<svg width="20" height="20" viewBox="0 0 20 20" fill="none" xmlns="http://www.w3.org/2000/svg">
<path d="M4.69729 14.1248L5.8758 15.3033L12.9469 8.2322L14.1254 9.41071L15.3039 8.2322L14.1254 7.05369L15.3039 5.87518L14.1254 4.69667L12.9469 5.87518L11.7684 4.69667L10.5898 5.87518L11.7684 7.05369L4.69729 14.1248ZM8.23282 5.87518L9.41133 4.69667L10.5898 5.87518L9.41133 7.05369L8.23282 5.87518ZM8.23282 5.87518L7.05431 7.05369L5.8758 5.87518L7.05431 4.69667L8.23282 5.87518ZM14.1254 11.7677L15.3039 10.5892L14.1254 9.41071L12.9469 10.5892L14.1254 11.7677ZM14.1254 11.7677L12.9469 12.9462L14.1254 14.1248L15.3039 12.9462L14.1254 11.7677Z" fill="white"/>
</svg>
