<svg width="48" height="34" viewBox="0 0 48 34" fill="none" xmlns="http://www.w3.org/2000/svg">
<path opacity="0.5" d="M39.6784 3.73193H36.8674V4.28404H39.6784V3.73193Z" fill="white"/>
<path opacity="0.5" d="M39.6784 10.594H36.8674V11.1461H39.6784V10.594Z" fill="white"/>
<path opacity="0.5" d="M39.6784 17.4561H36.8674V18.0082H39.6784V17.4561Z" fill="white"/>
<path d="M34.0027 0V33.2056L29.5281 32.1992V3.15254L34.0027 0Z" fill="white"/>
<path d="M48 0.0788574H34.0026V33.2056H48V0.0788574Z" fill="white"/>
<path d="M39.2803 4.02246H36.5267V9.22811H39.2803V4.02246Z" fill="white"/>
<path d="M43.124 4.02271H40.313V9.22835H43.124V4.02271Z" fill="white"/>
<path d="M46.9101 4.02271H44.1565V9.22835H46.9101V4.02271Z" fill="white"/>
<path d="M39.2803 10.8845H36.5267V16.0902H39.2803V10.8845Z" fill="white"/>
<path d="M43.124 10.8845H40.313V16.0902H43.124V10.8845Z" fill="white"/>
<path d="M46.9101 10.8845H44.1565V16.0902H46.9101V10.8845Z" fill="white"/>
<path d="M39.2803 17.7466H36.5267V22.9522H39.2803V17.7466Z" fill="white"/>
<path d="M43.124 17.7466H40.313V22.9522H43.124V17.7466Z" fill="white"/>
<path d="M46.9101 17.7466H44.1565V22.9522H46.9101V17.7466Z" fill="white"/>
<path d="M39.2803 24.6084H36.5267V29.814H39.2803V24.6084Z" fill="white"/>
<path d="M43.124 24.6084H40.313V29.814H43.124V24.6084Z" fill="white"/>
<path d="M46.9101 24.6084H44.1565V29.814H46.9101V24.6084Z" fill="white"/>
<path opacity="0.5" d="M39.2803 4.02246H36.5267V4.57457H39.2803V4.02246Z" fill="white"/>
<path opacity="0.5" d="M39.2803 10.8845H36.5267V11.4366H39.2803V10.8845Z" fill="white"/>
<path opacity="0.5" d="M39.2803 17.7463H36.5267V18.2984H39.2803V17.7463Z" fill="white"/>
<path opacity="0.5" d="M39.2803 24.6084H36.5267V25.1605H39.2803V24.6084Z" fill="white"/>
<path opacity="0.1" d="M48 32.6558V33.2056H34.0025L29.528 32.1991V27.2838C29.8274 26.2356 30.1888 25.2149 30.6179 24.3718C32.2626 21.138 31.7268 19.8232 32.071 17.457C32.4152 15.0908 31.6505 2.26125 34.0025 0.0788574C36.2014 3.73305 36.0488 3.5753 36.1251 7.4669C36.1658 9.54838 36.1629 11.3892 36.5266 12.7562C36.8421 13.944 37.4347 14.773 38.5729 15.0908C38.8121 15.1578 39.0485 15.2643 39.2803 15.4071C40.0203 15.8606 40.7161 16.6801 41.3059 17.7465C42.0815 19.1465 42.6763 20.9716 42.9534 22.9521C43.0297 23.494 43.0819 24.0485 43.1072 24.6085C43.1158 24.7946 43.1215 24.9823 43.1238 25.1701C43.1261 25.3333 43.1261 25.4966 43.1238 25.6599C43.1227 25.7174 43.1227 25.7742 43.1238 25.8302C43.1347 27.2452 43.5592 28.2209 44.1564 28.9694C44.4094 29.2864 44.6934 29.5625 44.9905 29.8141C46.1774 30.8189 47.5691 31.4254 48 32.6558Z" fill="white"/>
<path d="M21.0036 3.1167V27.5199L17.1027 26.7805V5.43401L20.6502 3.3267L20.9588 3.14296L21.0036 3.1167Z" fill="white"/>
<path d="M31.8458 3.09277H21.0035V27.52H31.8458V3.09277Z" fill="white"/>
<path d="M24.4455 5.79053H23.0687V25.9156H24.4455V5.79053Z" fill="white"/>
<path d="M27.3713 5.79053H25.9371V25.9156H27.3713V5.79053Z" fill="white"/>
<path d="M30.2396 5.79053H28.8054V25.9156H30.2396V5.79053Z" fill="white"/>
<path opacity="0.5" d="M24.4455 5.79053H23.9866V25.9156H24.4455V5.79053Z" fill="white"/>
<path opacity="0.5" d="M27.3712 5.79053H26.9122V25.9156H27.3712V5.79053Z" fill="white"/>
<path opacity="0.5" d="M30.2969 5.79053H29.838V25.9156H30.2969V5.79053Z" fill="white"/>
<path opacity="0.1" d="M31.8458 27.5184V27.5198H21.0036L17.1027 26.7804V24.2976C18.9097 21.5326 18.3148 20.3827 18.7049 18.3315C19.0859 16.3292 18.2822 5.77882 20.6502 3.3266C20.7357 3.23693 20.8252 3.15889 20.9193 3.09253C20.9325 3.10931 20.9456 3.12608 20.9588 3.14286C20.9738 3.16183 20.9886 3.18076 21.0036 3.19973C22.2358 4.76673 22.8003 5.51484 23.0688 6.31037C23.3304 7.08549 23.3109 7.90509 23.3533 9.57121C23.406 11.6202 23.3952 13.403 23.9866 14.6302C24.1105 14.8891 24.2614 15.1224 24.4455 15.3288C24.8029 15.7306 25.2848 16.0288 25.937 16.2031C26.0093 16.2227 26.0833 16.241 26.1596 16.257C26.4137 16.311 26.665 16.3955 26.9122 16.5071C27.0671 16.5764 27.2203 16.6566 27.3711 16.7478C27.8777 17.0503 28.3613 17.466 28.8053 17.9713C29.1805 18.3978 29.5275 18.8879 29.8379 19.4267C29.9796 19.6732 30.1138 19.9298 30.2395 20.196C30.259 20.2368 30.2779 20.2776 30.2968 20.3192C30.999 21.8534 31.4155 23.6727 31.3787 25.5248C31.3628 26.3313 31.5418 26.9803 31.8458 27.5184Z" fill="white"/>
<path d="M32.1505 22.5566H8.94934V33.1714H32.1505V22.5566Z" fill="white"/>
<g opacity="0.1">
<path d="M27.7828 29.3556C26.0389 28.8245 23.9462 29.0901 22.551 28.2935C18.2624 26.4279 13.79 22.9248 8.94922 22.6389V33.1712H32.1505V32.1387C30.7433 31.0989 29.3624 30.057 27.7828 29.3556Z" fill="white"/>
</g>
<path d="M9.10106 33.1229L5.18127 32.0556V23.9091L9.00414 22.5942L9.10106 33.1229Z" fill="white"/>
<path d="M29.5345 28.8381H24.7605V33.1646H29.5345V28.8381Z" fill="white"/>
<path opacity="0.5" d="M29.5345 28.8381H29.0756V33.1646H29.5345V28.8381Z" fill="white"/>
<path d="M20.6544 28.8381H15.8805V33.1646H20.6544V28.8381Z" fill="white"/>
<path opacity="0.5" d="M20.5795 28.8381H20.1206V33.1646H20.5795V28.8381Z" fill="white"/>
<path d="M13.559 10.0478C13.559 12.9447 9.50044 18.2311 7.66375 20.4751C7.20671 21.0335 6.35229 21.0335 5.89521 20.4751C4.05852 18.2311 0 12.9448 0 10.0478C0 6.30359 3.03529 3.26831 6.77946 3.26831C10.5237 3.26831 13.559 6.30359 13.559 10.0478Z" fill="white"/>
<path d="M10.4614 10.9231C10.9413 8.89082 9.68283 6.85436 7.6506 6.37449C5.61836 5.89463 3.5819 7.15307 3.10203 9.1853C2.62216 11.2175 3.88061 13.254 5.91284 13.7339C7.94508 14.2137 9.98154 12.9553 10.4614 10.9231Z" fill="white"/>
<g opacity="0.3">
<path d="M6.74956 17.6918C7.17967 14.8593 9.05017 13.9526 8.7291 11.278C8.35885 8.19342 5.62768 7.37189 5.56176 4.62662C5.55113 4.18465 5.6113 3.75845 5.72469 3.35034C2.48146 3.857 0 6.6626 0 10.048C0 12.9449 4.05852 18.2313 5.89521 20.4753C6.16424 20.804 6.57091 20.939 6.95319 20.8807C6.62453 19.6401 6.61456 18.5806 6.74956 17.6918Z" fill="white"/>
</g>
</svg>
