<svg width="744" height="1602" viewBox="0 0 744 1602" fill="none" xmlns="http://www.w3.org/2000/svg">
<path d="M284.482 1593.82C241.772 1612.46 227.535 1594.93 223.976 1583.84L223.231 1015.09L691.856 1289.08C565.261 1491.88 325.246 1576.04 284.482 1593.82Z" fill="#2E82FE"/>
<path d="M743.848 1069.78C743.848 1144.18 716.22 1260.31 691.778 1289.14L20.6107 896.769C-16.7177 880.798 5.05719 861.279 20.6107 853.516C232.805 728.195 665.192 473.561 697.187 457.59C729.183 441.62 741.626 468.681 743.848 484.207V1069.78Z" fill="#FFBB22"/>
<path d="M223.231 528.664L223.231 26.2685C223.231 -8.33358 249.894 -1.45752 263.226 6.30577C394.319 81.7206 664.505 237.208 696.501 255.84C728.497 274.472 709.832 292.438 696.501 299.093C570.962 375.616 310.553 532.657 273.224 548.627C235.896 564.597 224.342 541.973 223.231 528.664Z" fill="#FF77FF"/>
</svg>
