<svg width="15" height="32" viewBox="0 0 15 32" fill="none" xmlns="http://www.w3.org/2000/svg">
<path d="M5.68246 31.8365C4.82933 32.2087 4.54496 31.8586 4.47386 31.6371L4.45898 20.2764L13.8197 25.7493C11.291 29.8001 6.49673 31.4813 5.68246 31.8365Z" fill="#FBFBFB"/>
<path d="M14.8583 21.3688C14.8583 22.8549 14.3064 25.1746 13.8182 25.7506L0.411702 17.9129C-0.33393 17.5939 0.101022 17.204 0.411702 17.049C4.65026 14.5457 13.2872 9.45937 13.9263 9.14036C14.5654 8.82136 14.8139 9.36189 14.8583 9.67203V21.3688Z" fill="white"/>
<path d="M4.45898 10.56L4.45898 0.524712C4.45898 -0.166463 4.99158 -0.0291139 5.25787 0.125957C7.87646 1.63236 13.2734 4.73822 13.9125 5.11039C14.5516 5.48256 14.1788 5.84144 13.9125 5.97436C11.4049 7.50291 6.20323 10.6398 5.4576 10.9588C4.71197 11.2778 4.48118 10.8259 4.45898 10.56Z" fill="white"/>
</svg>
