<svg width="16" height="16" viewBox="0 0 16 16" fill="none" xmlns="http://www.w3.org/2000/svg">
<path d="M13.9829 10.7757C13.7925 11.3697 13.4659 11.6667 13.0031 11.6667C12.4181 11.6667 11.8431 11.3157 11.2779 10.6137C10.8855 10.1262 10.335 9.19973 9.62659 7.83433C9.32259 7.2482 9.04065 6.7306 8.78085 6.2815C8.98719 5.95581 9.17125 5.69451 9.33312 5.49761C9.97125 4.72143 10.6391 4.33333 11.3365 4.33333C11.8931 4.33333 12.4233 4.69056 12.9271 5.40502C13.4448 6.13931 13.8075 7.04627 14.0151 8.12587C14.2194 9.188 14.2087 10.0713 13.9829 10.7757ZM8.00319 7.61973C8.14319 7.87673 8.28985 8.15293 8.44305 8.44833C9.19239 9.89267 9.79119 10.8931 10.2393 11.4499C11.0713 12.4833 11.9926 13 13.0031 13C13.5738 13 14.062 12.8198 14.4679 12.4595C14.8177 12.1489 15.0793 11.7233 15.2526 11.1827C15.5477 10.2621 15.5717 9.1592 15.3245 7.87413C15.0807 6.60652 14.6448 5.52737 14.0167 4.63665C13.2474 3.54555 12.3539 3 11.3365 3C10.2191 3 9.20799 3.55029 8.30319 4.65085C8.20872 4.76575 8.10872 4.89779 8.00319 5.04697C7.89765 4.89779 7.79765 4.76575 7.70312 4.65085C6.79832 3.55029 5.78727 3 4.66992 3C3.65245 3 2.75903 3.54555 1.98967 4.63665C1.3616 5.52737 0.925679 6.60651 0.681905 7.87413C0.43477 9.1592 0.458736 10.2621 0.753806 11.1827C0.927079 11.7233 1.18865 12.1489 1.53851 12.4595C1.9444 12.8198 2.43265 13 3.00327 13C4.01383 13 4.93509 12.4833 5.76705 11.4499C6.21523 10.8931 6.81399 9.89267 7.56325 8.4484C7.71659 8.15293 7.86319 7.87673 8.00319 7.61973ZM7.22552 6.28151C6.96572 6.7306 6.68379 7.2482 6.37973 7.83433C5.67135 9.19973 5.12092 10.1262 4.72845 10.6137C4.16335 11.3157 3.58829 11.6667 3.00327 11.6667C2.54048 11.6667 2.21389 11.3697 2.02351 10.7757C1.79775 10.0713 1.78699 9.188 1.99125 8.12587C2.19887 7.04627 2.56157 6.13931 3.07934 5.40501C3.58313 4.69056 4.11332 4.33333 4.66992 4.33333C5.36733 4.33333 6.0351 4.72143 6.67325 5.49761C6.83512 5.69451 7.01919 5.95581 7.22552 6.28151Z" fill="#F6F6F6" fill-opacity="0.682"/>
</svg>
