<svg width="463" height="92" viewBox="0 0 463 92" fill="none" xmlns="http://www.w3.org/2000/svg">
<path d="M181.061 30.9497C176.161 43.2897 171.371 55.6797 166.291 67.9497C165.051 70.9497 165.541 75.4797 160.011 75.4997C154.431 75.5197 154.981 70.8097 153.741 67.9097C148.581 55.8997 143.871 43.6997 138.851 31.2097C137.231 33.0797 137.831 34.7797 137.821 36.2897C137.761 47.9497 137.641 59.5997 137.861 71.2597C137.931 75.1697 136.061 75.4597 132.981 75.4797C129.821 75.4997 128.171 75.0397 128.221 71.1897C128.421 54.2097 128.401 37.2197 128.231 20.2397C128.201 16.8297 129.401 16.0597 132.551 16.0197C142.901 15.9197 142.891 15.8097 146.601 25.3697C150.921 36.4897 155.261 47.5897 160.171 60.1897C163.421 52.3797 166.141 45.9097 168.811 39.4197C171.341 33.2697 174.071 27.1797 176.221 20.8897C177.521 17.0797 179.501 15.8597 183.491 15.9897C192.221 16.2897 192.221 16.0597 192.221 24.7497C192.221 39.8997 192.071 55.0597 192.321 70.2097C192.391 74.3797 191.181 75.5097 187.031 75.5697C182.541 75.6397 181.921 73.8297 181.981 69.9897C182.181 57.0397 182.061 44.0797 182.061 31.1197C181.721 31.0697 181.371 31.0197 181.031 30.9597L181.061 30.9497Z" fill="#787878"/>
<path d="M23.7411 0.329919C30.2411 0.329919 36.7311 0.449919 43.2211 0.269919C46.1111 0.189919 46.9111 1.21992 46.8811 4.00992C46.7511 15.8299 46.7311 27.6499 46.8911 39.4599C46.9311 42.6299 45.7811 43.3799 42.8211 43.3499C29.8311 43.2199 16.8411 43.2399 3.8511 43.3399C1.2311 43.3599 -0.0389027 42.8799 0.0010973 39.8199C0.161097 27.8399 0.151097 15.8499 0.0010973 3.86992C-0.0389027 0.93992 1.0111 0.20992 3.7411 0.27992C10.4011 0.43992 17.0611 0.329919 23.7211 0.329919H23.7411Z" fill="#F05528"/>
<path d="M74.6811 43.5603C68.1911 43.5603 61.7011 43.4603 55.2111 43.6103C52.4411 43.6703 51.3811 42.7703 51.4111 39.9103C51.5211 27.7703 51.5111 15.6303 51.4111 3.49032C51.3911 0.900318 52.3211 -0.0196817 54.9011 0.000318275C68.3811 0.0803183 81.8611 0.0803183 95.3411 0.000318275C97.7211 -0.00968172 98.5611 0.850319 98.5411 3.20032C98.4711 15.5103 98.4311 27.8203 98.5711 40.1203C98.6011 43.1803 97.2311 43.6603 94.6411 43.6103C87.9911 43.4903 81.3311 43.5703 74.6711 43.5703L74.6811 43.5603Z" fill="#83BC44"/>
<path d="M75.0811 91.4303C68.5911 91.4303 62.0911 91.3303 55.6011 91.4803C52.7211 91.5403 51.3911 90.8203 51.4311 87.6003C51.5811 75.6203 51.5511 63.6303 51.4411 51.6503C51.4111 48.8103 52.4411 47.9003 55.2311 47.9203C68.3911 48.0203 81.5411 48.0603 94.7011 47.9003C97.9411 47.8603 98.5711 49.1703 98.5511 52.0403C98.4311 63.8603 98.4211 75.6803 98.5511 87.4903C98.5911 90.5203 97.6411 91.5803 94.5711 91.4903C88.0811 91.3003 81.5811 91.4303 75.0911 91.4303H75.0811Z" fill="#FDBA1B"/>
<path d="M23.5311 47.9205C30.0211 47.9205 36.5011 48.0205 42.9911 47.8805C45.9511 47.8205 47.1611 48.8205 47.1311 51.9005C47.0211 63.7005 47.0311 75.5105 47.1311 87.3105C47.1511 90.1805 46.3511 91.5605 43.2011 91.5405C30.0611 91.4305 16.9211 91.4405 3.7811 91.5405C0.991099 91.5605 -0.0289015 90.5905 0.00109854 87.7705C0.101099 75.8005 0.121099 63.8305 0.00109854 51.8605C-0.0289015 48.7705 1.1111 47.8105 4.0911 47.8805C10.5711 48.0405 17.0611 47.9305 23.5511 47.9305L23.5311 47.9205Z" fill="#38A2DB"/>
<path d="M417.211 58.1302C417.211 53.6302 417.081 49.1302 417.251 44.6402C417.361 41.8702 416.441 40.5102 413.571 40.9202C410.521 41.3502 409.881 39.7402 410.081 37.1202C410.241 34.9902 409.641 32.4102 413.151 32.8702C417.161 33.4002 417.221 31.0202 417.261 28.0302C417.401 17.0702 424.091 11.1102 434.731 11.7002C439.071 11.9402 438.121 14.6402 438.391 17.2002C438.761 20.7002 436.871 20.1502 434.491 20.0002C429.101 19.6502 425.071 26.3902 427.391 31.4502C427.931 32.6402 428.851 32.6602 429.821 32.7002C431.151 32.7502 432.491 32.7502 433.821 32.7302C436.311 32.6802 439.261 33.4002 441.181 32.3202C443.511 31.0002 441.731 27.7102 442.251 25.3602C443.281 20.7702 447.631 21.4602 450.611 20.9502C453.261 20.5002 451.851 23.6302 452.191 25.1602C452.401 26.1102 452.361 27.1702 452.211 28.1502C451.601 32.0302 453.381 33.0602 457.011 32.8402C459.101 32.7102 462.211 31.4002 462.391 35.7802C462.541 39.4702 461.771 41.6202 457.581 40.8202C453.031 39.9502 451.831 41.9802 452.151 46.2902C452.531 51.2602 452.231 56.2702 452.271 61.2702C452.301 65.6502 454.061 68.3402 458.921 67.7802C460.641 67.5802 462.431 67.1502 462.191 69.8702C462.001 72.0002 463.181 74.5302 459.831 75.6102C449.891 78.7902 442.311 73.5002 442.181 63.0402C442.111 56.8802 442.061 50.7102 442.251 44.5602C442.341 41.6902 441.311 40.9402 438.531 40.8702C427.241 40.5702 427.241 40.4702 427.241 51.4902C427.241 58.3202 427.081 65.1502 427.301 71.9702C427.431 76.1502 424.691 75.4402 422.301 75.3802C420.031 75.3102 416.991 76.4302 417.151 72.1302C417.331 67.4702 417.191 62.8102 417.191 58.1402L417.211 58.1302Z" fill="#787878"/>
<path d="M387.861 31.8301C400.731 31.8301 408.991 40.4401 408.961 53.8401C408.931 67.7101 400.141 76.6601 386.651 76.5301C373.691 76.4101 365.431 67.8201 365.501 54.5201C365.571 40.7001 374.311 31.8401 387.861 31.8401V31.8301ZM376.021 54.8401C375.921 57.1701 376.251 59.8001 377.461 62.2301C379.761 66.8501 383.741 68.1901 388.621 67.9701C393.381 67.7601 396.431 65.3401 397.851 60.9801C399.321 56.4601 399.291 51.7901 397.841 47.2601C396.641 43.5501 394.151 41.1301 390.111 40.3701C381.751 38.7901 376.031 44.4601 376.031 54.8301L376.021 54.8401Z" fill="#787878"/>
<path d="M284.911 54.5201C284.991 40.4001 293.411 31.7901 307.081 31.8401C319.951 31.8901 328.191 40.4901 328.171 53.8501C328.141 67.6501 319.271 76.6701 305.851 76.5401C292.721 76.4101 284.841 68.1201 284.911 54.5301V54.5201ZM318.101 53.0901C317.971 52.3601 317.761 50.3801 317.281 48.4601C315.941 43.1701 312.681 40.4301 307.531 40.0901C302.531 39.7601 297.981 42.6501 296.261 47.3901C294.811 51.4001 294.781 55.5401 295.771 59.6401C297.071 65.0001 300.601 67.7601 306.091 67.9401C313.931 68.1901 318.031 63.5401 318.111 53.0801L318.101 53.0901Z" fill="#787878"/>
<path d="M358.351 42.34C355.061 41.28 352.001 39.3999 348.381 39.7699C346.111 39.9999 344.001 40.44 343.361 43.02C342.701 45.69 343.881 47.51 346.281 48.66C349.281 50.09 352.341 51.41 355.241 53.02C359.601 55.44 361.491 59.3199 361.151 64.2499C360.811 69.2499 358.001 72.66 353.601 74.56C347.511 77.19 341.251 76.5499 335.011 74.8199C333.381 74.3699 332.981 73.3199 332.981 71.8699C332.981 69.7299 332.981 67.5899 332.981 64.9399C337.441 66.5799 341.331 68.52 345.761 68.06C347.991 67.83 350.251 67.5899 350.831 64.9399C351.371 62.4799 349.991 60.7499 347.961 59.6399C345.631 58.3699 343.141 57.3999 340.791 56.1699C334.671 52.9699 332.501 49.2299 333.191 42.9699C333.841 37.0199 337.871 34.1299 343.081 32.3399C345.341 31.5599 347.661 31.5499 349.991 31.6099C358.771 31.8199 359.871 33.21 358.361 42.34H358.351Z" fill="#787878"/>
<path d="M251.711 64.8905C252.491 74.6905 252.381 74.8305 243.231 76.0605C233.571 77.3505 225.231 73.4805 221.211 65.8105C216.851 57.5105 218.321 45.7305 224.591 38.6705C230.021 32.5505 241.141 30.0305 249.021 33.1405C251.411 34.0805 253.121 40.1005 251.531 42.0905C250.401 43.5105 249.481 42.1605 248.521 41.7905C242.021 39.2705 236.071 40.2105 232.401 44.3905C228.611 48.7005 227.971 56.8905 231.001 62.2605C233.881 67.3705 240.571 69.4505 246.771 67.1005C248.301 66.5205 249.761 65.7705 251.691 64.9005L251.711 64.8905Z" fill="#787878"/>
<path d="M269.561 37.9504C273.361 33.5004 277.861 30.5404 282.901 32.9004C286.001 34.3504 283.751 38.8404 284.071 42.0104C273.161 40.4104 269.401 43.7404 269.311 54.8404C269.261 60.5004 269.101 66.1604 269.361 71.8004C269.571 76.3504 266.491 75.2604 264.021 75.3904C261.371 75.5404 259.191 75.6104 259.261 71.6904C259.481 60.3804 259.371 49.0704 259.311 37.7604C259.291 34.9104 259.091 32.3804 263.281 32.7804C266.521 33.0904 270.551 31.9004 269.571 37.9304L269.561 37.9504Z" fill="#787878"/>
<path d="M211.901 54.1898C211.901 59.9998 211.701 65.8098 211.961 71.6098C212.151 75.9198 209.431 75.3498 206.761 75.4298C203.891 75.5198 201.691 75.5898 201.781 71.4498C202.031 59.8398 202.041 48.2198 201.781 36.6098C201.681 32.2098 204.331 32.9298 206.941 32.8298C209.771 32.7298 212.191 32.5798 211.971 36.7598C211.671 42.5498 211.891 48.3698 211.891 54.1798L211.901 54.1898Z" fill="#787878"/>
<path d="M200.941 20.1599C201.331 16.7299 203.551 14.9499 206.931 14.9699C210.671 14.9899 212.981 17.2899 212.821 20.9299C212.661 24.6499 209.891 26.5399 206.321 26.2899C202.921 26.0599 201.001 23.8799 200.931 20.1599H200.941Z" fill="#787878"/>
</svg>
