<svg width="359" height="100" viewBox="0 0 359 100" fill="none" xmlns="http://www.w3.org/2000/svg">
<g clip-path="url(#clip0_4718_261)">
<mask id="mask0_4718_261" style="mask-type:luminance" maskUnits="userSpaceOnUse" x="271" y="0" width="64" height="100">
<path d="M296.94 12.5C296.94 19.41 291.34 25 284.44 25C298.22 25 309.44 36.22 309.44 50C309.44 63.78 298.23 75 284.44 75C277.54 75 271.94 80.6 271.94 87.5C271.94 94.4 277.54 100 284.44 100C312.05 100 334.44 77.62 334.44 50C334.44 22.38 312.05 0 284.44 0C291.34 0 296.94 5.6 296.94 12.5Z" fill="white"/>
</mask>
<g mask="url(#mask0_4718_261)">
<mask id="mask1_4718_261" style="mask-type:luminance" maskUnits="userSpaceOnUse" x="271" y="0" width="64" height="100">
<path d="M334.44 0H271.94V100H334.44V0Z" fill="url(#paint0_linear_4718_261)"/>
</mask>
<g mask="url(#mask1_4718_261)">
<path d="M334.44 0H271.94V100H334.44V0Z" fill="url(#paint1_linear_4718_261)"/>
</g>
</g>
<mask id="mask2_4718_261" style="mask-type:luminance" maskUnits="userSpaceOnUse" x="234" y="0" width="63" height="100">
<path d="M234.44 50C234.44 77.61 256.83 100 284.44 100C277.54 100 271.94 94.4 271.94 87.5C271.94 80.6 277.54 75 284.44 75C270.66 75 259.44 63.78 259.44 50C259.44 36.22 270.66 25 284.44 25C291.34 25 296.94 19.41 296.94 12.5C296.94 5.59 291.34 0 284.44 0C256.83 0 234.44 22.39 234.44 50Z" fill="white"/>
</mask>
<g mask="url(#mask2_4718_261)">
<mask id="mask3_4718_261" style="mask-type:luminance" maskUnits="userSpaceOnUse" x="234" y="0" width="63" height="100">
<path d="M296.94 0H234.44V100H296.94V0Z" fill="url(#paint2_linear_4718_261)"/>
</mask>
<g mask="url(#mask3_4718_261)">
<path d="M296.94 0H234.44V100H296.94V0Z" fill="url(#paint3_linear_4718_261)"/>
</g>
</g>
<path d="M334.49 0.120117V2.17012H338.09V11.8601H340.54V2.17012H344.13V0.120117H334.49Z" fill="#0153FF"/>
<path d="M355.39 0.120117L352.16 8.01012H352.02L348.79 0.120117H345.73V11.8601H348.14V4.19012H348.23L351.27 11.8001H352.91L355.95 4.22012H356.05V11.8601H358.46V0.120117H355.39Z" fill="#0153FF"/>
<path d="M102.5 0C90.79 0 80.18 4.74 72.5 12.4C64.81 4.74 54.21 0 42.5 0C19.03 0 0 19.03 0 42.5V100H25V42.5C25 32.85 32.85 25 42.5 25C52.15 25 60 32.85 60 42.5V100H85V42.5C85 32.85 92.85 25 102.5 25C112.15 25 120 32.85 120 42.5V100H145V42.5C145 19.03 125.97 0 102.5 0Z" fill="#0153FF"/>
<path d="M216.08 0.139648C182.04 0.139648 164.04 18.3996 164.04 52.9596V99.9996H189.09V52.9596C189.09 36.1196 199.94 24.8096 216.08 24.8096H227.73V0.139648H216.08Z" fill="#0153FF"/>
</g>
<defs>
<linearGradient id="paint0_linear_4718_261" x1="304.452" y1="-2.28" x2="304.452" y2="97.765" gradientUnits="userSpaceOnUse">
<stop stop-color="#333333"/>
<stop offset="0.11" stop-color="#696969"/>
<stop offset="0.2" stop-color="#979797"/>
<stop offset="0.3" stop-color="#BCBCBC"/>
<stop offset="0.39" stop-color="#D9D9D9"/>
<stop offset="0.49" stop-color="#EEEEEE"/>
<stop offset="0.58" stop-color="#FAFAFA"/>
<stop offset="0.67" stop-color="white"/>
<stop offset="1" stop-color="white"/>
</linearGradient>
<linearGradient id="paint1_linear_4718_261" x1="304.452" y1="-2.28" x2="304.452" y2="97.765" gradientUnits="userSpaceOnUse">
<stop stop-color="#0153FF"/>
<stop offset="0.67" stop-color="#0153FF"/>
<stop offset="1" stop-color="#0153FF"/>
</linearGradient>
<linearGradient id="paint2_linear_4718_261" x1="264.79" y1="102.172" x2="264.79" y2="2.1275" gradientUnits="userSpaceOnUse">
<stop stop-color="#333333"/>
<stop offset="0.11" stop-color="#696969"/>
<stop offset="0.2" stop-color="#979797"/>
<stop offset="0.3" stop-color="#BCBCBC"/>
<stop offset="0.39" stop-color="#D9D9D9"/>
<stop offset="0.49" stop-color="#EEEEEE"/>
<stop offset="0.58" stop-color="#FAFAFA"/>
<stop offset="0.67" stop-color="white"/>
<stop offset="1" stop-color="white"/>
</linearGradient>
<linearGradient id="paint3_linear_4718_261" x1="264.79" y1="102.172" x2="264.79" y2="2.1275" gradientUnits="userSpaceOnUse">
<stop stop-color="#0153FF"/>
<stop offset="0.67" stop-color="#0153FF"/>
<stop offset="1" stop-color="#0153FF"/>
</linearGradient>
<clipPath id="clip0_4718_261">
<rect width="358.46" height="100" fill="white"/>
</clipPath>
</defs>
</svg>
