<svg width="440" height="550" viewBox="0 0 440 550" fill="none" xmlns="http://www.w3.org/2000/svg">
<g clip-path="url(#clip0_1763_1849)">
<mask id="mask0_1763_1849" style="mask-type:alpha" maskUnits="userSpaceOnUse" x="-660" y="-220" width="1760" height="954">
<rect width="1760" height="924" transform="translate(-660 -205)" fill="url(#paint0_linear_1763_1849)"/>
<rect x="0.458333" y="-72.5417" width="72.4167" height="72.4167" stroke="white" stroke-width="0.916667"/>
<rect x="73.7918" y="-72.5417" width="72.4167" height="72.4167" stroke="white" stroke-width="0.916667"/>
<rect x="147.125" y="-72.5417" width="72.4167" height="72.4167" stroke="white" stroke-width="0.916667"/>
<rect x="0.458333" y="0.791341" width="72.4167" height="72.4167" stroke="white" stroke-width="0.916667"/>
<rect x="73.7918" y="0.791341" width="72.4167" height="72.4167" stroke="white" stroke-width="0.916667"/>
<rect opacity="0.57" x="147.125" y="0.791341" width="72.4167" height="72.4167" fill="black" stroke="white" stroke-width="0.916667"/>
<rect x="0.458333" y="74.1248" width="72.4167" height="72.4167" stroke="white" stroke-width="0.916667"/>
<rect x="147.125" y="74.1248" width="72.4167" height="72.4167" stroke="white" stroke-width="0.916667"/>
<rect x="0.458333" y="147.458" width="72.4167" height="72.4167" stroke="white" stroke-width="0.916667"/>
<rect x="73.7918" y="147.458" width="72.4167" height="72.4167" fill="#D9D9D9" fill-opacity="0.56" stroke="white" stroke-width="0.916667"/>
<rect x="147.125" y="147.458" width="72.4167" height="72.4167" stroke="white" stroke-width="0.916667"/>
<rect x="73.7918" y="220.791" width="72.4167" height="72.4167" stroke="white" stroke-width="0.916667"/>
<rect x="147.125" y="220.791" width="72.4167" height="72.4167" stroke="white" stroke-width="0.916667"/>
<rect x="0.458333" y="294.125" width="72.4167" height="72.4167" stroke="white" stroke-width="0.916667"/>
<rect x="73.7918" y="294.125" width="72.4167" height="72.4167" stroke="white" stroke-width="0.916667"/>
<rect x="147.125" y="294.125" width="72.4167" height="72.4167" stroke="white" stroke-width="0.916667"/>
<rect x="0.458333" y="367.458" width="72.4167" height="72.4167" stroke="white" stroke-width="0.916667"/>
<rect x="73.7918" y="367.458" width="72.4167" height="72.4167" stroke="white" stroke-width="0.916667"/>
<rect x="147.125" y="367.458" width="72.4167" height="72.4167" stroke="white" stroke-width="0.916667"/>
<rect x="73.7918" y="440.791" width="72.4167" height="72.4167" stroke="white" stroke-width="0.916667"/>
<rect x="0.458333" y="514.125" width="72.4167" height="72.4167" stroke="white" stroke-width="0.916667"/>
<rect x="73.7918" y="514.125" width="72.4167" height="72.4167" stroke="white" stroke-width="0.916667"/>
<rect x="147.125" y="514.125" width="72.4167" height="72.4167" stroke="white" stroke-width="0.916667"/>
<rect x="220.458" y="-72.5417" width="72.4167" height="72.4167" stroke="white" stroke-width="0.916667"/>
<rect x="293.792" y="-72.5417" width="72.4167" height="72.4167" stroke="white" stroke-width="0.916667"/>
<rect x="367.125" y="-72.5417" width="72.4167" height="72.4167" stroke="white" stroke-width="0.916667"/>
<rect x="220.458" y="0.791341" width="72.4167" height="72.4167" stroke="white" stroke-width="0.916667"/>
<rect x="293.791" y="0.791341" width="72.4167" height="72.4167" fill="#D9D9D9" fill-opacity="0.24" stroke="white" stroke-width="0.916667"/>
<rect x="367.125" y="0.791341" width="72.4167" height="72.4167" stroke="white" stroke-width="0.916667"/>
<rect x="220.458" y="74.1248" width="72.4167" height="72.4167" stroke="white" stroke-width="0.916667"/>
<rect x="293.791" y="74.1248" width="72.4167" height="72.4167" stroke="white" stroke-width="0.916667"/>
<rect opacity="0.22" x="367.125" y="74.1248" width="72.4167" height="72.4167" fill="#D9D9D9" stroke="white" stroke-width="0.916667"/>
<rect x="220.458" y="147.458" width="72.4167" height="72.4167" stroke="white" stroke-width="0.916667"/>
<rect opacity="0.83" x="293.791" y="147.458" width="72.4167" height="72.4167" fill="#D9D9D9" stroke="white" stroke-width="0.916667"/>
<rect x="367.125" y="147.458" width="72.4167" height="72.4167" stroke="white" stroke-width="0.916667"/>
<rect x="220.458" y="220.791" width="72.4167" height="72.4167" stroke="white" stroke-width="0.916667"/>
<rect x="293.791" y="220.791" width="72.4167" height="72.4167" stroke="white" stroke-width="0.916667"/>
<rect x="367.125" y="220.791" width="72.4167" height="72.4167" stroke="white" stroke-width="0.916667"/>
<rect x="220.458" y="294.125" width="72.4167" height="72.4167" stroke="white" stroke-width="0.916667"/>
<rect x="293.791" y="294.125" width="72.4167" height="72.4167" stroke="white" stroke-width="0.916667"/>
<rect x="367.125" y="294.125" width="72.4167" height="72.4167" stroke="white" stroke-width="0.916667"/>
<rect x="220.458" y="367.458" width="72.4167" height="72.4167" stroke="white" stroke-width="0.916667"/>
<rect x="293.791" y="367.458" width="72.4167" height="72.4167" stroke="white" stroke-width="0.916667"/>
<rect x="367.125" y="367.458" width="72.4167" height="72.4167" stroke="white" stroke-width="0.916667"/>
<rect x="220.458" y="440.791" width="72.4167" height="72.4167" stroke="white" stroke-width="0.916667"/>
<rect x="293.791" y="440.791" width="72.4167" height="72.4167" stroke="white" stroke-width="0.916667"/>
<rect x="367.125" y="440.791" width="72.4167" height="72.4167" stroke="white" stroke-width="0.916667"/>
<rect x="220.458" y="514.125" width="72.4167" height="72.4167" stroke="white" stroke-width="0.916667"/>
<rect x="293.791" y="514.125" width="72.4167" height="72.4167" stroke="white" stroke-width="0.916667"/>
<rect x="367.125" y="514.125" width="72.4167" height="72.4167" stroke="white" stroke-width="0.916667"/>
</mask>
<g mask="url(#mask0_1763_1849)">
<rect x="-614" y="-205" width="1763" height="953" fill="url(#paint1_linear_1763_1849)"/>
</g>
</g>
<defs>
<linearGradient id="paint0_linear_1763_1849" x1="880.998" y1="-228.818" x2="880.057" y2="924" gradientUnits="userSpaceOnUse">
<stop stop-color="#FF5BB1"/>
<stop offset="0.555" stop-color="#FF5BB1" stop-opacity="0"/>
</linearGradient>
<linearGradient id="paint1_linear_1763_1849" x1="268.5" y1="-441" x2="267.5" y2="748" gradientUnits="userSpaceOnUse">
<stop stop-color="#FF5BB1"/>
<stop offset="0.555" stop-color="#FF5BB1" stop-opacity="0"/>
</linearGradient>
<clipPath id="clip0_1763_1849">
<rect width="440" height="550" fill="white"/>
</clipPath>
</defs>
</svg>
