<svg width="484" height="106" viewBox="0 0 484 106" fill="none" xmlns="http://www.w3.org/2000/svg">
<g clip-path="url(#clip0_4717_202)">
<path d="M9 0C12.44 4.15 15.87 8.31 18.85 11.91C25.72 8.77 31.62 5.12 38.04 3.31C65.14 -4.34 93.62 15.09 97.97 43.49C100.11 57.43 97.78 70.33 90.07 82.13C88.5 84.53 89 85.85 90.78 87.63C93.96 90.79 96.93 94.16 100.11 97.57C97.65 100.49 95.32 103.25 92.99 106.01H91.99C88.19 101.89 84.39 97.76 80.68 93.73C54.07 108.89 33.47 107.47 15.95 89.56C1.48 74.75 -5.76 47.08 12.29 20.16C8.31 16.55 4.16 12.77 0 9C0 8.67 0 8.33 0 8C2.33 5.33 4.67 2.67 7 0H9ZM79.54 75.65C91.05 61.43 88.9 37.76 75.2 24.39C62.23 11.74 41.86 10.47 28.62 21.82C45.59 39.76 62.55 57.68 79.55 75.65H79.54ZM20.61 30.21C8.86 45.91 11.53 69.3 26.25 82.68C39.18 94.44 59.52 95.2 71.54 84.11C54.65 66.24 37.76 48.37 20.61 30.21Z" fill="black"/>
<path d="M484 54.9997C483.55 56.2097 483.1 57.4297 482.52 58.9897H398.91C401.97 74.0497 409.76 84.9797 424.15 89.5597C438.18 94.0397 451.12 90.7297 460.76 79.3197C464.61 74.7597 468.43 73.1597 473.89 73.8697C475.36 74.0597 476.87 73.8997 479.14 73.8997C473.56 86.6497 465.05 95.7097 452.71 100.79C424.31 112.5 391.92 93.8397 387.1 63.1497C383.71 41.5497 389.96 23.3697 407.76 10.3997C435.36 -9.71034 473.83 6.03966 481.93 40.3297C482.76 43.8497 483.32 47.4397 484 50.9897V54.9897V54.9997ZM399.23 46.8197H469.9C470.1 32.2197 454.73 16.3897 439.16 14.9497C419.1 13.0897 402.38 26.2897 399.23 46.8197Z" fill="black"/>
<path d="M365.27 101.78H353.74C353.74 99.7999 353.74 97.8999 353.74 95.9899C353.74 77.4899 353.81 58.9899 353.71 40.4899C353.65 29.4799 349.44 20.5999 339.01 15.8899C323.34 8.8299 306.17 20.8799 306 38.9999C305.83 57.9999 305.96 76.9999 305.96 95.9999C305.96 97.7899 305.96 99.5899 305.96 101.66H294.57C294.48 100.15 294.31 98.5699 294.31 96.9899C294.29 77.8199 294.24 58.6599 294.31 39.4899C294.38 22.4899 304.82 7.5999 319.67 3.0899C340.44 -3.2101 362.27 11.3699 364.87 33.3599C365.26 36.6599 365.25 40.0099 365.26 43.3399C365.29 62.6499 365.28 81.9599 365.28 101.76L365.27 101.78Z" fill="black"/>
<path d="M179.02 4.29004H189.98C190.26 4.81004 190.55 5.10004 190.55 5.39004C190.4 27.85 191.07 50.36 189.77 72.76C188.71 90.95 172.04 104.89 154.69 104.47C136.32 104.03 120.66 89.24 120.07 70.45C119.4 49.16 119.82 27.83 119.78 6.52004C119.78 5.89004 119.97 5.25004 120.11 4.35004H131.01C131.1 6.13004 131.26 7.89004 131.26 9.64004C131.28 28.29 131.23 46.94 131.29 65.59C131.33 77.97 137.71 87.64 147.83 90.95C163.52 96.09 178.87 84.13 179 66.49C179.13 47.67 179.03 28.86 179.03 10.04C179.03 8.24004 179.03 6.44004 179.03 4.29004H179.02Z" fill="black"/>
<path d="M274.76 89.5503V101.57H213.33V89.7603H237.83C237.94 87.7003 238.09 86.2403 238.09 84.7803C238.1 64.1303 238.11 43.4803 238.09 22.8303C238.09 17.0303 237.34 16.3103 231.4 16.2803C225.45 16.2503 219.5 16.2803 213.28 16.2803V4.17028C221.28 4.17028 229.1 3.67028 236.82 4.31028C244.57 4.96028 249.83 12.2603 249.87 21.2903C249.95 42.1103 249.9 62.9303 249.9 83.7403C249.9 85.5303 249.9 87.3303 249.9 89.5503H274.75H274.76Z" fill="black"/>
</g>
<defs>
<clipPath id="clip0_4717_202">
<rect width="484" height="106" fill="white"/>
</clipPath>
</defs>
</svg>
