<svg width="440" height="542" viewBox="0 0 440 542" fill="none" xmlns="http://www.w3.org/2000/svg">
<path d="M220.002 -190.197H174.525L220.002 220.75L265.479 -190.197H220.002Z" fill="#1B1B1B"/>
<path d="M79.1774 -135.144L39.793 -101.965L220 220.747L118.562 -168.321L79.1774 -135.144Z" fill="#1B1B1B"/>
<path d="M-23.9101 15.275L-46.6484 72.7391L220.002 220.748L-1.17179 -42.1904L-23.9101 15.275Z" fill="#1B1B1B"/>
<path d="M-61.6445 220.749V287.104L220.001 220.749L-61.6445 154.394V220.749Z" fill="#1B1B1B"/>
<path d="M-23.9101 426.222L-1.17179 483.687L220.002 220.749L-46.6484 368.757L-23.9101 426.222Z" fill="#1B1B1B"/>
<path d="M79.1774 576.639L118.562 609.816L220 220.749L39.793 543.462L79.1774 576.639Z" fill="#1B1B1B"/>
<path d="M220.002 631.696H265.479L220.002 220.749L174.525 631.696H220.002Z" fill="#1B1B1B"/>
<path d="M360.825 576.639L400.209 543.462L220.002 220.749L321.44 609.816L360.825 576.639Z" fill="#1B1B1B"/>
<path d="M463.914 426.222L486.653 368.757L220.002 220.749L441.176 483.687L463.914 426.222Z" fill="#1B1B1B"/>
<path d="M501.648 220.749V154.394L220.002 220.749L501.648 287.104V220.749Z" fill="#1B1B1B"/>
<path d="M463.914 15.275L441.176 -42.1904L220.002 220.748L486.653 72.7391L463.914 15.275Z" fill="#1B1B1B"/>
<path d="M360.825 -135.144L321.44 -168.321L220.002 220.747L400.209 -101.965L360.825 -135.144Z" fill="#1B1B1B"/>
</svg>
