<?xml version="1.0" encoding="UTF-8"?>
<svg version="1.1" xmlns="http://www.w3.org/2000/svg" width="346" height="577">
<path d="M0 0 C25.08 0 50.16 0 76 0 C83.30976591 31.34595633 90.53638589 62.70988157 97.71062851 94.08708954 C98.57415553 97.86347205 99.43799398 101.63978321 100.3019104 105.41607666 C112.92535668 160.59766872 125.47325957 215.79637772 138 271 C136.6962276 254.8418714 135.24000505 238.7040058 133.66162109 222.57055664 C133.4345744 220.23683643 133.20768617 217.9031008 132.98094177 215.5693512 C132.49784645 210.59979403 132.01380586 205.63033022 131.52903366 200.66093636 C130.762094 192.79740637 129.99827367 184.93357495 129.23501587 177.06968689 C128.9724292 174.36467272 128.70981871 171.65966087 128.44719887 168.95464993 C128.38163123 168.27929165 128.31606358 167.60393337 128.24850904 166.90810968 C127.50707836 159.27177208 126.76491137 151.6355061 126.02246094 143.99926758 C125.92098123 142.95551735 125.92098123 142.95551735 125.81745143 141.89068126 C124.71659281 130.56878094 123.61363066 119.24708619 122.5102046 107.92543585 C121.37245732 96.25077976 120.23803556 84.5758035 119.1064173 72.90055174 C118.34885757 65.08674222 117.58750935 57.27331419 116.82334495 49.46014798 C116.34968934 44.60785479 115.87965348 39.75521604 115.41064644 34.90247154 C115.1928569 32.65656621 114.97358854 30.41080371 114.75271797 28.16519928 C114.45104835 25.09590277 114.15473431 22.02613345 113.85971069 18.95619202 C113.77158312 18.07273277 113.68345555 17.18927352 113.59265745 16.27904278 C113.51377275 15.44687597 113.43488805 14.61470916 113.3536129 13.75732517 C113.2848285 13.05076489 113.21604411 12.34420461 113.14517534 11.61623341 C112.93062622 7.74980134 113 3.87238018 113 0 C131.48 0 149.96 0 169 0 C169 10.1249741 169 10.1249741 168.60956573 14.12553883 C168.52248085 15.03970753 168.43539596 15.95387622 168.34567213 16.89574701 C168.24839842 17.87066761 168.15112472 18.84558822 168.05090332 19.85005188 C167.94881451 20.90847595 167.8467257 21.96690002 167.74154329 23.05739754 C167.40015517 26.58595847 167.05261042 30.11388504 166.70507812 33.6418457 C166.45839869 36.1784861 166.21210626 38.71516415 165.96617126 41.25187683 C165.43667521 46.70478708 164.90456514 52.15743211 164.37010193 57.60985756 C163.59698515 65.49734801 162.82904616 73.38533603 162.06242019 81.2734597 C160.81779204 94.07886236 159.56958785 106.88391366 158.31884766 119.6887207 C157.10524796 132.11342465 155.89237586 144.53819893 154.68115234 156.96313477 C154.56914001 158.11216287 154.56914001 158.11216287 154.4548648 159.28440366 C153.63981867 167.64564584 152.82524734 176.00693412 152.01143646 184.36829662 C151.9399414 185.1028605 151.86844634 185.83742437 151.79478475 186.59424775 C151.50901788 189.53043 151.22326404 192.46661351 150.93757981 195.4028038 C150.10118009 203.99910421 149.26327131 212.59525416 148.42261398 221.1911393 C147.83364017 227.21416457 147.24650628 233.23736765 146.66003609 239.26063728 C146.41883581 241.73430694 146.17696483 244.2079113 145.9343853 246.68144608 C145.60420001 250.04908438 145.27635674 253.41694269 144.94909668 256.78486633 C144.85182297 257.77094055 144.75454926 258.75701477 144.65432787 259.77297002 C144.56724298 260.67409998 144.48015809 261.57522995 144.39043427 262.50366688 C144.3144902 263.2810121 144.23854613 264.05835733 144.16030073 264.85925847 C144.00740175 266.90115302 144 268.95238885 144 271 C144.13579908 270.40417681 144.27159817 269.80835361 144.41151237 269.19447517 C146.07628587 261.89023678 147.74107816 254.58600267 149.40588093 247.28177094 C149.71348006 245.93219583 150.02107881 244.58262063 150.32867718 243.23304534 C154.25055254 226.02598114 158.17264677 208.81896685 162.09521484 191.61206055 C162.45093878 190.05161895 162.80666247 188.49117729 163.16238594 186.93073559 C163.33908738 186.15560495 163.51578883 185.38047432 163.69784486 184.58185488 C164.05574371 183.01187121 164.4136425 181.44188753 164.77154124 179.87190384 C165.67439111 175.91140149 166.57724504 171.95090006 167.48010635 167.99040031 C171.6180495 149.83878707 175.75518316 131.68698993 179.89023399 113.53471756 C182.29193347 102.99162944 184.69425992 92.44868437 187.09707069 81.90584946 C188.49133656 75.78804265 189.8852388 69.6701535 191.27825928 63.55206299 C192.58128226 57.82925128 193.88526327 52.10665869 195.18994904 46.38422585 C195.66031438 44.32040256 196.13034011 42.25650183 196.59996796 40.1925106 C197.24488657 37.35834577 197.89110649 34.52448031 198.53759766 31.69067383 C198.71410795 30.91354601 198.89061825 30.13641819 199.07247734 29.33574104 C201.31054727 19.53975397 203.67231257 9.77628721 206 0 C231.08 0 256.16 0 282 0 C280.60593424 4.18219729 279.3108599 7.60965838 277.34765625 11.46484375 C276.81720703 12.51478516 276.28675781 13.56472656 275.74023438 14.64648438 C274.90975586 16.27553711 274.90975586 16.27553711 274.0625 17.9375 C269.87501493 26.17202033 265.80869748 34.45266193 261.8359375 42.79296875 C256.37725596 54.2507936 250.80489413 65.65056881 245.20324707 77.0390625 C242.34764179 82.84502791 239.49624446 88.65305969 236.64453125 94.4609375 C236.07515839 95.62034851 235.50578552 96.77975952 234.91915894 97.9743042 C229.84575522 108.30792212 224.79305634 118.65154437 219.75 129 C218.13805982 132.30731067 216.52607932 135.61460168 214.9140625 138.921875 C214.51540482 139.73981537 214.11674713 140.55775574 213.70600891 141.40048218 C208.85373975 151.35426361 203.98940562 161.30214559 199.125 171.25 C198.66833954 172.18394592 198.21167908 173.11789185 197.74118042 174.08013916 C193.5589588 182.63344681 189.37616681 191.18647544 185.19287109 199.73925781 C182.39916071 205.45104799 179.60568833 211.16295451 176.8125 216.875 C176.36140869 217.79747528 175.91031738 218.71995056 175.44555664 219.67037964 C165.94343827 239.10371537 156.46747094 258.54976524 147 278 C147.57137695 277.23490112 147.57137695 277.23490112 148.15429688 276.4543457 C151.23455691 272.33723783 154.34504113 268.24784319 157.5 264.1875 C163.52924045 256.38399351 169.34862504 248.42696795 175.18115234 240.47607422 C176.9670348 238.04487691 178.75788712 235.61743624 180.55078125 233.19140625 C186.28585335 225.42924163 191.98960918 217.64739684 197.625 209.8125 C202.15111241 203.52222468 206.74982873 197.2935626 211.4128418 191.10424805 C219.94805014 179.77001601 228.3390516 168.33001802 236.625 156.8125 C241.15118421 150.52227499 245.74982745 144.29356429 250.4128418 138.10424805 C258.94805014 126.77001601 267.3390516 115.33001802 275.625 103.8125 C280.1453544 97.53037691 284.73695835 91.30880564 289.39526367 85.12841797 C293.4424838 79.75571823 297.44743877 74.35277023 301.4375 68.9375 C302.30652954 67.75909546 302.30652954 67.75909546 303.19311523 66.55688477 C305.78053338 63.04186611 308.34376015 59.51647825 310.84765625 55.94140625 C311.91306641 54.48541016 311.91306641 54.48541016 313 53 C313.33 53 313.66 53 314 53 C314.23380727 69.30722264 314.41004079 85.6139001 314.51812172 101.92239475 C314.56964448 109.4951391 314.63985811 117.06684095 314.75439453 124.63891602 C314.85420127 131.24036056 314.91861234 137.84105011 314.94088495 144.44322819 C314.95390205 147.93817095 314.98438774 151.43095433 315.05730057 154.92520332 C315.13811967 158.83017948 315.13989107 162.73306133 315.13525391 166.63891602 C315.18918304 168.3684552 315.18918304 168.3684552 315.24420166 170.13293457 C315.14530519 177.82936181 315.14530519 177.82936181 311.79773998 181.25097179 C309.26776898 183.0409975 306.73810057 184.55412025 304 186 C303.05842041 186.62350342 302.11684082 187.24700684 301.14672852 187.8894043 C300.39834717 188.36289307 299.64996582 188.83638184 298.87890625 189.32421875 C298.01652344 189.87142578 297.15414063 190.41863281 296.265625 190.98242188 C294.92757812 191.82643555 294.92757812 191.82643555 293.5625 192.6875 C292.60730469 193.29271484 291.65210938 193.89792969 290.66796875 194.52148438 C287.78026656 196.35023476 284.8904723 198.17563183 282 200 C280.37368785 201.02732781 278.74738518 202.05467063 277.12109375 203.08203125 C274.80967353 204.54181171 272.4980341 206.00124002 270.18579102 207.4597168 C264.11393538 211.29094188 258.05535769 215.14276242 252 219 C244.40541918 223.8377163 236.79984917 228.65743071 229.18359375 233.4609375 C223.11263987 237.29202359 217.05465239 241.14321169 211 245 C204.17538243 249.34725292 197.34408625 253.68346079 190.5 258 C180.91958313 264.04270346 171.36383808 270.12393888 161.81079102 276.20979309 C158.932249 278.04315095 156.05312655 279.87559402 153.17382812 281.70776367 C151.71305847 282.6373011 151.71305847 282.6373011 150.22277832 283.58561707 C149.48926147 284.05236343 148.75574463 284.5191098 148 285 C173.48711149 278.5312544 198.88948816 271.77005436 224.27044678 264.89770508 C229.00285708 263.61667888 233.73580422 262.33763987 238.46875 261.05859375 C239.40352551 260.80596645 240.33830101 260.55333916 241.30140305 260.29305649 C243.18447951 259.78415857 245.0675603 259.27527664 246.95064545 258.76641083 C248.81329105 258.26305644 250.67592645 257.75966427 252.53855133 257.25623322 C265.85130884 253.65812819 279.1651278 250.06397987 292.48281479 246.48415756 C294.31265567 245.9921301 296.14238165 245.49967508 297.97198868 245.00677872 C300.48474535 244.32996727 302.9979234 243.65474471 305.51123047 242.97998047 C306.26029537 242.77789852 307.00936028 242.57581657 307.78112411 242.36761093 C312.88564727 241 312.88564727 241 314 241 C314 272.02 314 303.04 314 335 C301.62580886 332.75014707 301.62580886 332.75014707 296.19604492 331.27026367 C294.9643306 330.93703598 293.73261627 330.60380829 292.46357727 330.26048279 C291.13585731 329.89637386 289.80815506 329.53220035 288.48046875 329.16796875 C287.04924245 328.77908474 285.61789833 328.39063413 284.18644714 328.00257874 C281.12014739 327.17044973 278.05461984 326.3355555 274.98968506 325.49841309 C270.13253459 324.17182081 265.27372097 322.85139901 260.41455078 321.53222656 C258.73864461 321.07718947 257.06274131 320.62214176 255.38684082 320.16708374 C254.54614548 319.93881268 253.70545013 319.71054161 252.83927917 319.47535324 C250.24750227 318.77136011 247.65589489 318.06674606 245.06433105 317.36196899 C226.05052381 312.19208994 207.02320554 307.07255103 187.99530411 301.9548378 C183.65845839 300.78826603 179.32178453 299.62105581 174.98510742 298.45385742 C166.99019354 296.3021183 158.99515034 294.15086037 151 292 C150.67 292.33 150.34 292.66 150 293 C150.59611084 293.37060547 151.19222168 293.74121094 151.80639648 294.12304688 C164.58592757 302.07421443 177.31580529 310.09376319 189.98339844 318.22216797 C196.96070696 322.69852766 203.95645468 327.14386961 210.9699707 331.56323242 C216.99088028 335.35845155 222.99737479 339.17593576 229 343 C235.82459371 347.34729051 242.65593415 351.6834287 249.5 356 C259.06818758 362.03555038 268.61188057 368.10929087 278.15332031 374.18701172 C282.99713903 377.27193434 287.8423983 380.35459295 292.6875 383.4375 C297.88445848 386.74461174 297.88445848 386.74461174 300.24434948 388.29194546 C302.96738003 390.04118068 302.96738003 390.04118068 305.86169147 391.41121769 C313.39050408 395.36889112 313.39050408 395.36889112 314.9946804 399.66192436 C315.35665478 402.97286132 315.36204396 406.12386018 315.2487793 409.45288086 C315.25118874 411.31246933 315.25118874 411.31246933 315.25364685 413.20962524 C315.24731321 416.59426518 315.19237085 419.9714349 315.11533332 423.3547523 C315.04634754 426.89525653 315.04009061 430.43587138 315.02705383 433.97694397 C314.99292645 440.6748232 314.90275282 447.37071644 314.79220945 454.06772286 C314.6690561 461.69502806 314.60872833 469.32243054 314.55355966 476.9504832 C314.43872364 492.63480385 314.24537387 508.31714539 314 524 C310.77734151 520.85266873 308.20861353 517.63656442 305.625 513.9375 C301.5677275 508.17792373 297.43654841 502.47880678 293.25 496.8125 C292.65783691 496.01062256 292.06567383 495.20874512 291.45556641 494.38256836 C290.24214463 492.74002553 289.02843856 491.09769269 287.81445312 489.45556641 C284.87205315 485.47350788 281.9362956 481.48656062 279 477.5 C277.83336666 475.91664211 276.66669996 474.3333088 275.5 472.75 C265 458.5 265 458.5 254.5 444.25 C253.92241943 443.46616943 253.34483887 442.68233887 252.74975586 441.87475586 C251.58379194 440.29231815 250.41793896 438.70979869 249.25219727 437.12719727 C246.32568557 433.15448113 243.39722466 429.18323006 240.46484375 425.21484375 C234.72576358 417.44399909 229.01586072 409.65500166 223.375 401.8125 C218.84888759 395.52222468 214.25017127 389.2935626 209.5871582 383.10424805 C201.05194986 371.77001601 192.6609484 360.33001802 184.375 348.8125 C179.85560191 342.53170593 175.26654552 336.31019805 170.60693359 330.1328125 C165.92483958 323.92095602 161.31565253 317.65637711 156.71899414 311.38110352 C153.88660343 307.52277525 151.03076745 303.70674745 148 300 C156.61355801 317.96325686 165.34953503 335.86536127 174.125 353.75 C174.66491577 354.85036591 175.20483154 355.95073181 175.7611084 357.08444214 C176.30368286 358.19022614 176.84625732 359.29601013 177.40527344 360.43530273 C184.0153189 373.9074524 190.61270159 387.38561346 197.1875 400.875 C198.80853763 404.20054819 200.42962254 407.52607333 202.05078125 410.8515625 C202.45255585 411.67573669 202.85433044 412.49991089 203.26828003 413.34906006 C208.12971568 423.31969098 213.00222227 433.28490852 217.875 443.25 C218.33190216 444.18442932 218.78880432 445.11885864 219.259552 446.081604 C222.50610756 452.72119671 225.75300836 459.36062055 229 466 C235.88392884 480.07611126 242.76683325 494.15272189 249.64666748 508.23083496 C251.00794982 511.01626678 252.36944637 513.80159384 253.73095703 516.58691406 C259.49798221 528.38608451 265.25759359 540.18882624 271 552 C271.32607239 552.67041321 271.65214478 553.34082642 271.98809814 554.03155518 C273.91592851 557.99675315 275.83588552 561.96565636 277.75 565.9375 C278.19819092 566.86095215 278.64638184 567.7844043 279.1081543 568.73583984 C279.50043213 569.55391113 279.89270996 570.37198242 280.296875 571.21484375 C280.63041992 571.90698975 280.96396484 572.59913574 281.30761719 573.31225586 C282 575 282 575 282 577 C256.92 577 231.84 577 206 577 C194.84267316 529.12098581 183.88592346 481.19987971 173.00558472 433.25735474 C172.74038906 432.08883091 172.47519341 430.92030708 172.20196152 429.71637344 C171.66643002 427.3566448 171.13092026 424.99691122 170.59543228 422.6371727 C164.73079392 396.79490848 158.83775225 370.95915296 152.9375 345.125 C152.47343654 343.09292671 152.00937605 341.06085274 151.5453186 339.02877808 C149.03097465 328.01901115 146.51572635 317.00945112 144 306 C146.60076985 335.90725195 149.38893601 365.7928906 152.31203461 395.67028046 C153.00380507 402.74154836 153.69201506 409.8131604 154.37969971 416.88482666 C156.3314622 436.9504824 158.28721322 457.01574736 160.24755859 477.08056641 C161.33922581 488.25447406 162.42779598 499.42867907 163.51298928 510.60321736 C164.19524549 517.62675157 164.88130861 524.64989981 165.5702672 531.67277956 C165.99584992 536.02029352 166.41780933 540.36815347 166.83874321 544.71611977 C167.03395528 546.72499768 167.23064665 548.73373249 167.42894936 550.74230766 C167.69987136 553.48861923 167.96541404 556.23540149 168.22967529 558.98236084 C168.30865673 559.76978566 168.38763816 560.55721048 168.46901298 561.36849666 C168.96939717 566.64997962 169 571.64163873 169 577 C150.52 577 132.04 577 113 577 C113 566.87501943 113 566.87501943 113.39043427 562.85605049 C113.5210616 561.4786473 113.5210616 561.4786473 113.65432787 560.07341778 C113.80023843 558.60417727 113.80023843 558.60417727 113.94909668 557.10525513 C114.05118549 556.04204194 114.1532743 554.97882875 114.25845671 553.88339698 C114.59986047 550.33868602 114.94739647 546.79460391 115.29492188 543.25048828 C115.54159841 540.70237283 115.78789092 538.15422018 116.03382874 535.60603333 C116.56332405 530.12856702 117.09542952 524.65136434 117.62989807 519.17438126 C118.40292418 511.25246291 119.17088586 503.33005987 119.93757981 495.40752648 C121.18218205 482.54773465 122.43041609 469.68829816 123.68115234 456.82910156 C124.89499651 444.34908228 126.10784256 431.86896699 127.31884766 419.38867188 C127.43085999 418.23431517 127.43085999 418.23431517 127.5451352 417.05663814 C128.36003904 408.65814056 129.17454078 400.25960406 129.98856354 391.86102104 C130.0600586 391.12338733 130.13155366 390.38575362 130.20521525 389.62576737 C130.49097031 386.6774993 130.77672103 383.72923081 131.06242019 380.78095733 C131.8991494 372.14643245 132.73713698 363.51203189 133.57738602 354.87784879 C134.16595252 348.82955216 134.75319372 342.78112767 135.33996391 336.73265648 C135.5813358 334.24729586 135.82321069 331.76198403 136.0656147 329.27672386 C136.39534875 325.89555542 136.72334252 322.51422258 137.05090332 319.13284302 C137.14817703 318.13996501 137.24545074 317.147087 137.34567213 316.12412179 C137.43275702 315.22149948 137.51984191 314.31887717 137.60956573 313.38890266 C137.72348183 312.2177586 137.72348183 312.2177586 137.83969927 311.02295506 C137.97202647 309.35301895 138 307.67517077 138 306 C133.64951267 324.98009432 129.30030445 343.96048156 124.95211744 362.94110298 C124.60981034 364.43533461 124.26750008 365.92956552 123.92518663 367.4237957 C113.62348929 412.39181489 103.34365526 457.36469491 93.11889362 502.35028362 C92.03142176 507.1346406 90.94358661 511.9189149 89.85546875 516.703125 C89.65091002 517.6025564 89.44635128 518.5019878 89.2355938 519.4286747 C84.86739102 538.6292606 80.43725999 557.81524397 76 577 C50.92 577 25.84 577 0 577 C1.45068318 572.64795047 2.89768387 568.92279017 4.88671875 564.84765625 C5.17586655 564.25272873 5.46501434 563.65780121 5.76292419 563.04484558 C6.73418092 561.04895273 7.71082082 559.05574436 8.6875 557.0625 C9.3940091 555.61374897 10.10021732 554.16485116 10.80615234 552.71582031 C12.77325761 548.68106884 14.74551382 544.64885514 16.71905518 540.61724854 C18.03077866 537.93711252 19.34146226 535.25647025 20.65185547 532.57568359 C25.94801776 521.74125652 31.24977678 510.90957784 36.5541687 500.07917786 C41.76956893 489.42988245 46.97943793 478.77788576 52.1875 468.125 C52.64215637 467.19506226 53.09681274 466.26512451 53.56524658 465.30700684 C60.46222103 451.1994895 67.34962376 437.08732216 74.23233032 422.97283936 C80.31309177 410.50326988 86.40060207 398.03701785 92.49435425 385.5737915 C93.86818627 382.7639359 95.24184001 379.95399318 96.61547852 377.14404297 C100.91322906 368.35323076 105.21305892 359.56344633 109.51818848 350.77624512 C111.51261461 346.70506079 113.5060171 342.63337566 115.49932861 338.56164551 C116.44197188 336.63683381 117.38511001 334.71226437 118.32879639 332.78796387 C123.6639191 321.90871511 128.93022996 311.00570026 134 300 C129.69183957 304.761651 125.92804407 309.81298944 122.22802734 315.05053711 C118.62782599 320.14063559 114.95421822 325.17265308 111.25 330.1875 C110.65767578 330.98961914 110.06535156 331.79173828 109.45507812 332.61816406 C108.24180765 334.26045429 107.02826433 335.90254298 105.81445312 337.54443359 C102.87205315 341.52649212 99.9362956 345.51343938 97 349.5 C95.83336666 351.08335789 94.66669996 352.6666912 93.5 354.25 C92.63375 355.425625 92.63375 355.425625 91.75 356.625 C58.5 401.75 58.5 401.75 56.74975586 404.12524414 C55.58379194 405.70768185 54.41793896 407.29020131 53.25219727 408.87280273 C50.32568557 412.84551887 47.39722466 416.81676994 44.46484375 420.78515625 C38.72576358 428.55600091 33.01586072 436.34499834 27.375 444.1875 C22.84829464 450.47859939 18.2496836 456.7086361 13.58496094 462.89794922 C7.92641785 470.41002552 2.3612499 477.99022179 -3.20898438 485.56787109 C-4.99443412 487.99244176 -6.78540193 490.41283474 -8.578125 492.83203125 C-14.95701621 501.4485623 -21.25986771 510.10380395 -27.35791016 518.92236328 C-28.54832381 520.63160129 -29.77066149 522.3185405 -31 524 C-31.33 524 -31.66 524 -32 524 C-32.58644061 507.7191112 -33.02596724 491.44168857 -33.2953043 475.15276337 C-33.42374912 467.58732834 -33.59844836 460.0284839 -33.88598633 452.46728516 C-34.1367844 445.86901189 -34.2967973 439.27550775 -34.35221237 432.67260122 C-34.38458822 429.17957186 -34.45929036 425.70016799 -34.64325142 422.21156311 C-35.71069909 401.15580963 -35.71069909 401.15580963 -29.58298874 394.2930603 C-23.61189433 389.37163147 -17.04727884 385.83817383 -10.08595085 382.52134705 C-5.6007593 380.31018645 -1.4815104 377.62304641 2.6875 374.875 C4.21028584 373.91096942 5.73480078 372.9496598 7.26171875 371.9921875 C12.51778618 368.67711148 17.75901417 365.33885022 23 362 C30.59455412 357.16224197 38.20015102 352.34256917 45.81640625 347.5390625 C51.88736013 343.70797641 57.94534761 339.85678831 64 336 C70.82461814 331.65274672 77.65598376 327.31665077 84.5 323 C99.58206796 313.48412291 114.63434789 303.92270768 129.59210205 294.21235657 C130.23107044 293.79755696 130.87003883 293.38275736 131.5283699 292.95538807 C132.2568268 292.48247097 132.2568268 292.48247097 133 292 C120.52864455 294.84411681 108.17127274 298.02774093 95.82421875 301.3671875 C93.90299135 301.88468811 91.98169965 302.40195006 90.06034851 302.91899109 C86.01635488 304.00776833 81.97280976 305.09818938 77.92962646 306.18997192 C71.64807517 307.88611754 65.36537011 309.57796175 59.08251953 311.26928711 C41.84388866 315.91098435 24.60754534 320.56107491 7.3765583 325.23107147 C3.13343132 326.38067619 -1.11027327 327.52814811 -5.35385132 328.67608643 C-8.55875122 329.54454795 -11.76244128 330.41736996 -14.96606445 331.29052734 C-16.84451467 331.79933509 -18.72301046 332.30797459 -20.6015625 332.81640625 C-21.42819901 333.04325607 -22.25483551 333.2701059 -23.10652161 333.50382996 C-26.1561067 334.32561249 -28.82616862 335 -32 335 C-32 303.98 -32 272.96 -32 241 C8.23579738 251.3463479 8.23579738 251.3463479 20.671875 254.7265625 C22.13238785 255.1217706 23.59295094 255.51679311 25.05355835 255.91165161 C28.84525258 256.93728974 32.63621202 257.96561575 36.42697906 258.99467468 C39.59919924 259.85542056 42.77188536 260.71444222 45.94456673 261.57348633 C74.6402775 269.34345675 103.32410282 277.15723596 132 285 C132.33 284.67 132.66 284.34 133 284 C131.99066406 283.3915625 130.98132813 282.783125 129.94140625 282.15625 C118.54736194 275.25585873 107.3169075 268.1164827 96.109375 260.91796875 C90.85877728 257.54619741 85.5921389 254.20107126 80.3125 250.875 C68.91344986 243.69128697 57.55239075 236.44810164 46.18847656 229.20898438 C36.63531015 223.12395321 27.07975496 217.04311043 17.5 211 C3.69192907 202.28778212 -10.094921 193.54168074 -23.8125 184.6875 C-24.53002441 184.22529053 -25.24754883 183.76308105 -25.98681641 183.28686523 C-30.88017403 180.11982597 -30.88017403 180.11982597 -32 179 C-32.09605864 177.36776544 -32.12187821 175.7313561 -32.12025452 174.09629822 C-32.12162918 173.03474014 -32.12300385 171.97318207 -32.12442017 170.87945557 C-32.12082489 169.70485779 -32.11722961 168.53026001 -32.11352539 167.32006836 C-32.11367142 166.09097244 -32.11381744 164.86187653 -32.1139679 163.59553528 C-32.11338892 160.21551328 -32.10835964 156.83555171 -32.10139394 153.45554042 C-32.09515988 149.92678806 -32.09455656 146.39803497 -32.09336853 142.86927795 C-32.09025537 136.18276881 -32.08204218 129.49627594 -32.07201904 122.80977398 C-32.06085744 115.19925697 -32.05534733 107.5887392 -32.05032361 99.97821605 C-32.03985956 84.31880126 -32.02226041 68.65940273 -32 53 C-28.41586373 56.51786621 -25.43176879 59.99762895 -22.5625 64.125 C-21.68496638 65.37466293 -20.80597833 66.62330539 -19.92578125 67.87109375 C-19.4560791 68.53737793 -18.98637695 69.20366211 -18.50244141 69.89013672 C-15.79707306 73.68925815 -13.02203771 77.43689264 -10.25 81.1875 C-9.36163452 82.39043701 -9.36163452 82.39043701 -8.45532227 83.61767578 C-7.2419957 85.26014745 -6.0283709 86.90239883 -4.81445312 88.54443359 C-1.87205315 92.52649212 1.0637044 96.51343938 4 100.5 C5.16663334 102.08335789 6.33330004 103.6666912 7.5 105.25 C33.16666667 140.08333333 58.83333333 174.91666667 84.5 209.75 C85.07758057 210.53383057 85.65516113 211.31766113 86.25024414 212.12524414 C87.41620806 213.70768185 88.58206104 215.29020131 89.74780273 216.87280273 C92.67431443 220.84551887 95.60277534 224.81676994 98.53515625 228.78515625 C104.81459725 237.28766173 111.04613334 245.82102246 117.21777344 254.40209961 C122.70615416 262.01422297 128.34023346 269.51483128 134 277 C128.48942354 265.03737601 122.73652996 253.19998402 116.9375 241.375 C115.96811346 239.39558041 114.99887839 237.41608664 114.02978516 235.43652344 C112.02061413 231.33271627 110.01080026 227.22922493 108.00048828 223.12597656 C103.74422969 214.43751135 99.49469642 205.74575912 95.24563599 197.05377197 C93.86822711 194.23614537 92.49063764 191.41860712 91.11303711 188.60107422 C84.65692715 175.39561929 78.21055559 162.18543344 71.76794434 148.97338867 C65.22785137 135.56189497 58.67928357 122.15456424 52.125 108.75 C51.66870209 107.81677917 51.21240417 106.88355835 50.74227905 105.92205811 C46.55969118 97.36801806 42.37652659 88.81426012 38.19287109 80.26074219 C37.25748491 78.3483083 36.3221008 76.43587341 35.38671875 74.5234375 C34.92427765 73.57797562 34.46183655 72.63251373 33.98538208 71.65840149 C31.68531211 66.95557133 29.38590614 62.25241842 27.08789062 57.54858398 C26.41803635 56.17746208 26.41803635 56.17746208 25.73464966 54.77864075 C24.83836145 52.94400865 23.94210073 51.10936314 23.04586792 49.27470398 C20.29732194 43.64981848 17.54297698 38.0278114 14.78465271 32.40771484 C12.98849952 28.74660091 11.19541492 25.08398949 9.40292358 21.42108154 C8.55669604 19.69370631 7.70907874 17.96701117 6.86001587 16.24102783 C5.69737837 13.87725816 4.53953319 11.51120058 3.3828125 9.14453125 C3.03712723 8.44478683 2.69144196 7.74504242 2.33528137 7.02409363 C0 2.22797649 0 2.22797649 0 0 Z M142 277 C143 280 143 280 143 280 Z M139 297 C140 299 140 299 140 299 Z M142 297 C143 299 143 299 143 299 Z " fill="#5C2686" transform="translate(32,0)"/>
</svg>
