<svg width="391" height="93" viewBox="0 0 391 93" fill="none" xmlns="http://www.w3.org/2000/svg">
<g clip-path="url(#clip0_4718_237)">
<path d="M216.24 54.37C216.24 45.72 216.19 37.06 216.29 28.41C216.31 27 215.42 24.47 218.08 24.66C220.37 24.82 223.6 22.68 224.87 26.55C225.76 29.24 227.03 29.28 229.23 27.74C241.07 19.46 252.56 23.91 255.78 37.98C257.22 44.24 257.09 50.56 255.35 56.71C252.05 68.38 239.79 72.38 230.23 65.03C229.32 64.33 228.55 63.15 227.25 63.8C225.89 64.47 226.43 65.88 226.58 66.91C227.28 71.72 226.98 76.54 227.07 81.36C227.16 86.07 223.62 84.34 221.36 84.46C219.13 84.57 216.13 85.63 216.2 81.33C216.34 72.35 216.24 63.36 216.24 54.37ZM227.07 45.83C227.07 47.16 227.05 48.49 227.07 49.82C227.18 56.43 228.95 58.94 233.92 59.53C240.14 60.27 243.28 57.85 244.8 51.37C245.74 47.37 245.53 43.44 244.52 39.53C243.26 34.61 239.63 32.14 234.54 32.59C229.58 33.03 227.31 35.67 227.07 41.33C227.01 42.83 227.07 44.32 227.06 45.82L227.07 45.83Z" fill="#020202"/>
<path d="M38.73 30.4004C27.75 30.5004 16.77 30.6504 5.79998 30.6704C2.21998 30.6704 0.189983 28.5904 0.119983 25.0504C-0.0300174 18.7304 -0.0100174 12.4004 0.0699826 6.08043C0.119983 2.29043 2.26998 0.140425 6.00998 0.0904253C14.83 -0.0295747 23.66 -0.0495747 32.48 0.100425C36.8 0.170425 38.56 2.89043 38.55 7.03043C38.55 14.8504 38.6 22.6704 38.63 30.5004L38.73 30.4004Z" fill="#F16725"/>
<path d="M38.56 61.5401C38.56 69.3401 38.6 77.1501 38.52 84.9501C38.47 90.0701 36.36 92.3001 31.3 92.3701C23.33 92.4901 15.35 92.4801 7.38 92.3701C2.12 92.3001 0.130001 90.3001 0.0400007 85.1601C-0.0499993 79.5201 6.72415e-07 73.8701 0.0300007 68.2201C0.0500007 63.7801 2.18 61.4801 6.77 61.5101C17.4 61.5901 28.03 61.5901 38.65 61.6301L38.55 61.5301L38.56 61.5401Z" fill="#F16725"/>
<path d="M38.6601 61.6404C38.6801 51.2304 38.7001 40.8104 38.7201 30.4004L38.6201 30.5004C48.7701 30.5604 58.9101 30.6104 69.0501 30.7004C74.9001 30.7504 76.7501 32.5804 76.8301 38.4404C76.9001 43.7604 76.9201 49.0804 76.8201 54.4004C76.7201 59.6504 74.8201 61.5104 69.5001 61.5304C59.1901 61.5904 48.8701 61.5404 38.5601 61.5304L38.6601 61.6304V61.6404Z" fill="#F16725"/>
<path d="M189.07 47.6996C185.24 47.6996 181.4 47.8796 177.58 47.6396C174.62 47.4596 174.2 48.7396 174.76 51.1696C175.74 55.4396 177.47 59.2496 182.18 60.2196C186.77 61.1696 191.13 60.6896 194.12 56.2196C195.33 54.4096 202.1 53.8296 203.58 55.1396C204.73 56.1596 204.18 57.1296 203.77 58.2696C201.52 64.4996 196.44 67.0596 190.53 68.2996C180.77 70.3496 171.23 66.9896 166.95 60.2496C162.18 52.7196 162.64 37.5396 167.84 30.7796C173.08 23.9696 185.31 21.4396 194.89 25.1696C202 27.9496 205.67 35.0196 205.12 44.3896C204.97 46.9296 204.19 47.8696 201.56 47.7396C197.41 47.5296 193.23 47.6896 189.07 47.6896V47.6996ZM184.6 41.0196C186.92 41.0196 189.25 40.8896 191.56 41.0496C194.48 41.2596 195.03 40.0096 194.21 37.4896C193.13 34.1996 190.97 32.0996 187.54 31.6396C183.43 31.0996 179.53 31.5796 176.9 35.3396C175.86 36.8296 174.7 38.7296 175.47 40.3696C176.11 41.7296 178.2 40.9096 179.64 40.9896C181.29 41.0896 182.95 41.0096 184.61 41.0096L184.6 41.0196Z" fill="#020202"/>
<path d="M358.36 44.7295C358.36 44.5595 358.36 44.3995 358.36 44.2295C358.31 40.9095 359.43 36.8295 357.89 34.4795C356.14 31.8095 351.74 33.6195 348.52 33.5195C344.41 33.3895 345.41 30.5595 345.2 28.2195C344.97 25.5795 345.74 24.4695 348.75 24.4395C357.8 24.3395 358.02 24.1995 358.26 15.5195C358.37 11.6695 360.7 12.0495 362.89 12.3795C365.21 12.7195 369.02 10.3295 369.27 15.3695C369.41 18.2995 367.89 22.5195 370.01 23.8395C372.44 25.3495 376.4 24.4295 379.69 24.5195C381.52 24.5695 383.36 24.6295 385.18 24.5095C388.35 24.2795 390.56 24.5295 390.5 28.8195C390.44 32.7495 388.85 33.8395 385.37 33.4695C384.55 33.3795 383.7 33.3695 382.88 33.4695C378.38 34.0295 370.92 31.3895 369.94 34.5695C368.03 40.7295 368.44 48.0295 370.06 54.7395C370.66 57.1995 372.8 58.4295 375.33 58.6195C377.98 58.8295 380.64 58.9795 383.3 59.0195C388.61 59.0895 390.03 60.8895 388.75 65.8895C388.46 67.0095 388.05 67.6895 386.83 67.6595C381.19 67.5295 375.47 68.3795 369.91 67.0795C362.85 65.4195 358.98 60.5795 358.52 53.2195C358.34 50.3995 358.49 47.5695 358.49 44.7395C358.44 44.7395 358.4 44.7395 358.35 44.7395L358.36 44.7295Z" fill="#020202"/>
<path d="M288.27 33.6305C288.27 40.7805 288.4 47.9305 288.21 55.0805C288.13 57.9805 288.7 59.5305 291.97 59.0505C293.44 58.8405 294.97 59.1505 296.45 58.9905C300.09 58.5905 301.37 59.9405 301.39 63.7405C301.41 67.9005 299.13 67.7305 296.28 67.7105C285.8 67.6505 275.32 67.5805 264.84 67.7505C261.58 67.8005 260.47 66.7905 260.52 63.4905C260.57 60.4505 261.14 58.7305 264.62 58.9805C267.43 59.1805 270.28 58.8605 273.1 59.0605C276.15 59.2705 277.53 58.6005 277.45 55.0405C277.21 43.4005 277.27 31.7605 277.42 20.1205C277.46 17.2805 276.63 16.2405 273.8 16.5405C271.83 16.7505 269.76 16.2905 267.83 16.6405C262.62 17.5705 262.15 14.6905 262.39 10.6505C262.54 8.18047 263.63 7.58047 265.83 7.61047C271.98 7.69047 278.14 7.77047 284.29 7.58047C287.45 7.48047 288.33 8.80047 288.29 11.7005C288.18 19.0205 288.25 26.3305 288.25 33.6505L288.27 33.6305Z" fill="#020202"/>
<path d="M134.02 67.6902C129.03 67.6902 124.04 67.5602 119.06 67.7402C116.28 67.8402 115.03 67.0102 115.39 64.1102C115.67 61.8302 114.44 58.8702 118.67 58.9402C121.6 58.9902 125.47 60.3102 127.27 58.2702C129.37 55.9002 127.83 51.9202 127.97 48.6502C128.11 45.3302 127.66 41.9602 128.08 38.6902C128.67 34.1502 126.94 33.0702 122.65 33.3602C116.96 33.7402 116.17 32.5402 116.74 27.2802C116.97 25.1302 117.9 24.4602 119.92 24.4902C124.41 24.5702 128.9 24.5102 133.39 24.5202C134.37 24.5202 135.76 24.3102 136.06 25.3702C137.92 31.8802 140.26 27.7502 142.81 25.8902C147.35 22.6002 152.73 23.1302 157.71 23.9502C160.52 24.4102 159.05 27.9202 159.26 30.0702C159.46 32.1502 158.17 33.0702 156.19 33.0902C153.03 33.1302 149.87 33.1102 146.71 33.1802C141.97 33.2802 139.17 35.6802 138.97 40.4402C138.74 45.7502 138.92 51.0802 138.82 56.3902C138.78 58.3502 139.65 59.0402 141.49 59.0002C143.82 58.9402 146.15 59.1202 148.47 58.9702C151.71 58.7602 153.64 59.1402 153.66 63.3602C153.68 67.6202 151.69 67.8402 148.48 67.7302C143.66 67.5702 138.84 67.6902 134.01 67.6902H134.02Z" fill="#020202"/>
<path d="M328.07 67.6796C322.41 67.6796 316.75 67.5596 311.09 67.7296C308.01 67.8196 307.47 66.2996 307.58 63.7296C307.68 61.3696 307.21 58.8696 310.88 59.0096C313.87 59.1196 316.88 58.8996 319.86 59.0596C322.09 59.1796 322.68 58.2896 322.64 56.1896C322.53 49.5396 322.52 42.8796 322.64 36.2296C322.68 34.0396 322.01 33.2596 319.82 33.4196C317.5 33.5896 315.16 33.3596 312.83 33.4796C309.68 33.6396 307.54 33.4096 307.44 29.1296C307.34 24.6096 309.54 24.3796 312.94 24.4796C318.59 24.6496 324.26 24.6596 329.91 24.4696C332.79 24.3696 333.61 25.3696 333.57 28.1796C333.42 37.1596 333.64 46.1496 333.45 55.1296C333.39 58.1396 334.13 59.4196 337.29 59.0696C339.43 58.8296 341.62 59.1096 343.78 58.9996C346.86 58.8496 349.17 58.8996 349.14 63.2696C349.11 67.3396 347.39 67.8796 344.01 67.7396C338.69 67.5196 333.36 67.6796 328.03 67.6796H328.07Z" fill="#020202"/>
<path d="M327.06 7.71974C331.19 7.46974 334.64 6.76974 334.42 12.5297C334.26 16.8197 333.19 18.7997 328.75 18.1197C327.94 17.9997 327.09 18.1097 326.26 18.0997C321.14 18.0797 318.29 13.4597 320.83 9.00974C322.44 6.17974 325.42 8.27974 327.06 7.71974Z" fill="#020202"/>
</g>
<defs>
<clipPath id="clip0_4718_237">
<rect width="390.5" height="92.46" fill="white"/>
</clipPath>
</defs>
</svg>
