<svg width="44" height="48" viewBox="0 0 44 48" fill="none" xmlns="http://www.w3.org/2000/svg">
<path d="M22.408 47.773L26.8469 45.3569C36.817 39.9302 43.0344 29.4081 43.0344 17.9616V6.40571C43.0344 5.5061 42.3291 4.75941 41.4396 4.73499C30.9496 4.44765 24.4419 1.38677 22.2999 0.201996C21.8131 -0.0673318 21.2214 -0.0673318 20.7345 0.201996C18.5924 1.38677 12.0848 4.44753 1.59481 4.73499C0.705231 4.75941 0 5.5061 0 6.40571V17.9616C0 29.4081 6.21738 39.9302 16.1874 45.3569L20.6264 47.773C21.1825 48.0757 21.8519 48.0757 22.408 47.773Z" fill="white"/>
<path d="M40.9068 7.7662V17.5727C40.9068 28.4891 35.0062 38.4805 25.5084 43.6513L22.3595 45.3645C22.0977 45.5067 21.8074 45.5793 21.5172 45.5793C21.227 45.5793 20.9367 45.5067 20.6749 45.3645L17.526 43.6513C8.02835 38.4805 2.12756 28.4891 2.12756 17.5727V7.7662C2.12756 7.30237 2.49469 6.92244 2.95706 6.88968C11.8927 6.28212 18.0282 3.91439 21.1329 2.39767C21.2567 2.3365 21.3862 2.30664 21.5171 2.30664C21.648 2.30664 21.7775 2.3365 21.9013 2.39767C25.006 3.91451 31.1429 6.28212 40.0771 6.88968C40.5397 6.92244 40.9068 7.30237 40.9068 7.7662Z" fill="white"/>
<path d="M40.9069 7.7662V17.5727C40.9069 28.4891 35.0062 38.4805 25.5084 43.6513L22.3595 45.3645C22.0977 45.5067 21.8075 45.5793 21.5172 45.5793V2.30664C21.6481 2.30664 21.7776 2.3365 21.9014 2.39767C25.0061 3.91451 31.143 6.28212 40.0772 6.88968C40.5397 6.92244 40.9069 7.30237 40.9069 7.7662Z" fill="white"/>
<path d="M28.8907 20.063H14.1439C13.2659 20.063 12.5531 20.7758 12.5531 21.6538V33.4125C12.5531 34.2904 13.2659 35.0033 14.1439 35.0033H28.8907C29.7687 35.0033 30.4815 34.2904 30.4815 33.4125V21.6538C30.4814 20.7758 29.7685 20.063 28.8907 20.063ZM22.9402 28.2787V29.454C22.9402 30.2394 22.3028 30.8769 21.5173 30.8769C20.7318 30.8769 20.0944 30.2395 20.0944 29.454V28.2787C19.4896 27.8405 19.0983 27.1275 19.0983 26.3236C19.0983 24.9875 20.1812 23.9048 21.5172 23.9048C22.8532 23.9048 23.9361 24.9875 23.9361 26.3236C23.9362 27.1276 23.5449 27.8405 22.9402 28.2787Z" fill="white"/>
<path d="M26.782 15.6577V17.5017C26.782 18.1304 26.2723 18.6401 25.6436 18.6401C25.0149 18.6401 24.5052 18.1304 24.5052 17.5017V15.731C24.5052 14.1129 23.2493 12.7329 21.6323 12.6719C19.9325 12.6077 18.5292 13.9718 18.5292 15.6578V18.9248H16.2526V15.7435C16.2526 12.8743 18.5132 10.4669 21.3814 10.3948C22.8894 10.3568 24.2566 10.9525 25.2395 11.9354C26.1929 12.8887 26.782 14.2034 26.782 15.6577Z" fill="white"/>
</svg>
