<svg width="645" height="97" viewBox="0 0 645 97" fill="none" xmlns="http://www.w3.org/2000/svg">
<path d="M220.134 26.1696C202.654 26.1396 185.174 26.1696 167.704 26.0096C164.884 25.9796 164.124 26.7896 164.084 29.6096C163.924 40.8096 163.814 40.8096 175.014 40.8096C185.834 40.8096 196.664 41.1296 207.474 40.7196C217.954 40.3296 224.184 48.4696 224.034 57.1996C223.964 61.5296 224.194 65.8596 223.974 70.1796C223.514 78.9396 217.794 84.9596 209.024 85.0796C190.384 85.3496 171.734 85.1796 153.094 85.1596C151.894 85.1596 150.214 85.6896 150.204 83.5196C150.184 79.6896 150.034 75.8496 150.264 72.0396C150.424 69.3896 152.794 70.4296 154.214 70.4196C170.864 70.3496 187.514 70.2696 204.154 70.4596C207.874 70.4996 209.314 69.7996 209.184 65.6596C208.884 55.7396 209.124 55.7296 199.304 55.7296C188.484 55.7296 177.664 55.7996 166.844 55.7296C154.794 55.6496 149.174 49.9396 149.154 37.9596C149.154 34.6296 149.144 31.2996 149.154 27.9796C149.194 17.1796 155.004 11.2896 165.724 11.2396C182.864 11.1596 200.004 11.1096 217.154 11.0496C220.404 10.5796 221.124 12.5296 221.104 15.1796C221.104 16.1796 221.104 17.1796 221.104 18.1796C220.254 20.7896 221.644 23.6696 220.144 26.1996L220.134 26.1696Z" fill="#262525"/>
<path d="M464.084 14.8496C467.804 18.4996 469.214 23.0496 469.234 28.1296C469.234 29.4596 469.234 30.7996 469.234 32.1296V47.1196C469.174 58.5996 469.034 70.0696 469.114 81.5496C469.134 84.2396 468.554 85.1996 465.614 85.2396C454.054 85.3996 454.054 85.5196 454.054 74.2096C454.054 71.0496 453.814 67.8596 454.114 64.7296C454.434 61.4496 453.044 60.9296 450.144 60.9696C438.164 61.1196 426.174 61.1596 414.194 60.9596C410.874 60.8996 409.934 61.8996 410.084 65.1396C410.334 70.7896 410.054 76.4496 410.204 82.1096C410.264 84.4496 409.604 85.1396 407.174 85.2396C395.154 85.7396 395.154 85.8196 395.154 74.1196C395.154 58.8096 395.134 43.5096 395.154 28.1996C395.174 17.1496 401.054 11.2396 412.024 11.2096C425.004 11.1796 437.994 11.3296 450.974 11.1396C455.814 11.0696 460.184 11.9396 464.074 14.8496H464.084ZM431.744 46.1796C438.064 46.1796 444.374 46.0696 450.684 46.2296C453.214 46.2896 454.224 45.6796 454.084 42.9496C453.864 38.4796 453.914 33.9796 454.064 29.4996C454.144 27.0696 453.664 25.9596 450.854 25.9896C438.394 26.1396 425.924 26.1196 413.464 25.9896C410.894 25.9696 409.954 26.6496 410.074 29.3196C410.284 33.7996 410.324 38.2996 410.064 42.7696C409.884 45.8196 411.154 46.2996 413.794 46.2196C419.774 46.0496 425.754 46.1696 431.744 46.1696V46.1796Z" fill="#262525"/>
<path d="M250.124 85.3097C238.844 82.0897 236.144 78.4297 236.114 66.4897C236.094 59.6997 236.014 52.9197 235.954 46.1297C235.954 44.1297 235.954 42.1397 235.954 40.1397C235.954 39.4697 235.954 38.7997 235.954 38.1397C236.004 34.4897 236.074 30.8397 236.114 27.1897C236.214 17.9097 242.394 11.3297 251.534 11.2497C266.324 11.1097 281.114 11.1197 295.894 11.2497C304.434 11.3297 310.814 17.4197 310.944 25.9197C311.184 40.6997 311.134 55.4897 310.964 70.2697C310.884 77.0797 307.134 81.6997 301.054 84.5297C300.694 84.7097 300.324 84.8797 299.964 85.0597C283.354 85.1497 266.734 85.2297 250.124 85.3197V85.3097ZM273.354 70.3697C279.674 70.3697 285.994 70.1997 292.304 70.4397C295.454 70.5597 296.174 69.5197 296.134 66.5097C295.964 54.2097 295.974 41.9097 296.114 29.6097C296.144 26.7697 295.284 25.9697 292.474 25.9997C279.844 26.1397 267.204 26.1497 254.564 25.9997C251.594 25.9597 251.044 27.0197 251.064 29.6997C251.184 42.1597 251.194 54.6297 251.064 67.0997C251.034 69.7097 251.764 70.5197 254.394 70.4397C260.704 70.2597 267.024 70.3797 273.344 70.3797L273.354 70.3697Z" fill="#262525"/>
<path d="M481.964 71.1097C482.024 55.4697 482.094 39.8297 482.154 24.1897C482.194 14.5797 485.484 11.2697 495.004 11.1897C513.484 11.0297 511.934 10.8697 518.394 26.9397C523.584 39.8497 528.844 52.7397 534.074 65.6297C534.384 66.3997 534.844 67.1297 535.024 67.9197C535.724 71.0097 538.144 70.3297 540.224 70.3297C543.194 70.3297 541.994 67.9997 542.004 66.6797C542.084 49.5397 542.144 32.3997 541.984 15.2597C541.954 12.0497 542.744 11.0897 546.064 11.1097C557.064 11.1897 557.064 11.0397 557.064 22.2397C557.064 39.0497 557.074 55.8597 557.064 72.6697C557.064 81.1897 553.164 85.0997 544.644 85.1497C540.154 85.1797 535.654 85.0897 531.164 85.0597C530.814 84.8797 530.464 84.6897 530.114 84.5097C526.834 82.7997 525.084 79.9697 523.744 76.5997C517.564 61.0997 511.134 45.7097 505.084 30.1697C503.644 26.4597 501.734 25.1897 498.064 26.3497C497.324 26.1397 497.204 26.4897 497.394 27.0997C497.324 44.4997 497.074 61.8997 497.294 79.2897C497.354 83.8597 496.574 86.0897 491.534 85.2097C489.784 84.8997 487.904 85.2697 486.084 85.3297C482.834 85.6897 481.874 84.1897 482.104 81.0497C482.344 77.7497 482.044 74.4097 481.974 71.0897L481.964 71.1097Z" fill="#262525"/>
<path d="M324.144 42.1202C324.144 33.1402 324.234 24.1602 324.094 15.1802C324.054 12.4002 324.414 11.1102 327.774 11.1002C339.154 11.0402 339.154 10.8802 339.154 22.3602C339.154 36.9902 339.244 51.6302 339.084 66.2602C339.044 69.4402 339.794 70.5002 343.154 70.4402C355.464 70.2302 367.774 70.4802 380.084 70.2802C383.434 70.2202 384.204 71.2602 384.194 74.4702C384.144 85.1602 384.274 85.1602 373.804 85.1602C362.494 85.1602 351.184 85.2102 339.874 85.1402C330.474 85.0802 324.324 79.0102 324.184 69.5402C324.054 60.4002 324.154 51.2502 324.154 42.1002L324.144 42.1202Z" fill="#262525"/>
<path d="M644.044 53.6897C644.044 62.9997 643.944 72.3197 644.104 81.6297C644.154 84.4197 643.384 85.2097 640.544 85.2397C629.034 85.3697 629.034 85.4797 629.034 74.1797C629.034 71.3497 628.734 68.4797 629.104 65.7097C629.664 61.5297 627.794 60.8897 624.124 60.9597C612.984 61.1797 601.824 61.2297 590.684 60.9397C586.504 60.8297 584.684 61.5897 585.114 66.2797C585.594 71.5597 585.254 76.9097 585.204 82.2397C585.194 83.2797 585.754 84.9797 584.094 85.0597C579.944 85.2497 575.784 85.1897 571.624 85.0797C569.904 85.0297 570.254 83.5097 570.254 82.4197C570.254 63.4597 570.044 44.4997 570.414 25.5397C570.584 16.9197 577.074 11.3097 585.834 11.2497C600.144 11.1497 614.454 11.1297 628.754 11.2497C637.814 11.3297 643.934 17.6297 644.014 26.7597C644.094 35.7397 644.034 44.7197 644.034 53.6997L644.044 53.6897ZM607.544 26.0597C601.394 26.0597 595.244 26.1897 589.104 25.9997C586.234 25.9097 584.854 26.4697 585.074 29.7597C585.364 34.0597 585.324 38.3997 585.074 42.7097C584.904 45.6597 586.034 46.2697 588.754 46.2397C601.054 46.1097 613.344 46.1197 625.644 46.2397C628.094 46.2597 629.224 45.8397 629.084 43.0397C628.844 38.3997 628.904 33.7397 629.064 29.0897C629.154 26.6897 628.374 25.9497 625.974 26.0097C619.834 26.1597 613.674 26.0597 607.534 26.0597H607.544Z" fill="#262525"/>
<path d="M19.8042 72.8399C20.5942 72.5999 21.3842 72.3699 22.1742 72.1299C30.4942 72.3299 38.8142 72.5399 47.1442 72.7399C48.1042 77.1899 52.0842 79.0899 54.9042 81.9699C59.5642 86.7399 65.9342 89.7699 69.1642 95.9899C60.1642 96.1099 51.1642 96.2299 42.1742 96.3599C41.1742 96.3599 40.1742 96.3599 39.1742 96.3599C37.8442 96.3599 36.5142 96.3599 35.1842 96.3599C25.0642 96.2999 14.9442 96.2599 4.83418 96.1399C3.27418 96.1199 1.26418 96.8499 0.404181 94.8699C-0.435819 92.9599 1.21418 91.7899 2.35418 90.6799C8.27418 84.8999 13.1242 78.0799 19.6542 72.9099L19.8242 72.8499L19.8042 72.8399Z" fill="#785EA8"/>
<path d="M57.2042 0.37C67.5242 0.25 77.8442 0.12 88.1642 0C93.2742 0.05 98.3842 0.1 103.504 0.17C104.794 0.19 106.294 -0.09 106.984 1.41C107.634 2.83 106.774 3.95 105.834 4.92C99.9442 11 94.0442 17.07 88.1542 23.14C87.4942 23.39 86.8442 23.64 86.1842 23.9C83.5342 23.9 80.8942 23.91 78.2442 23.92C76.6442 18.06 70.8842 16.11 67.2042 12.21C63.6442 8.44 58.4042 6.13 57.2142 0.37H57.2042Z" fill="#6CC395"/>
<path d="M57.2042 0.370117C58.3942 6.13012 63.6342 8.44012 67.1942 12.2101C70.8742 16.1101 76.6442 18.0601 78.2342 23.9201C68.5642 24.3501 58.8942 24.2601 49.2342 23.8901C49.1942 22.5301 48.9542 21.3001 47.6942 20.4301C40.6942 15.6601 35.3042 9.04012 28.6842 3.85012C27.4842 2.91012 27.1842 1.75012 27.2142 0.380117C37.2142 0.380117 47.2142 0.380117 57.2142 0.380117L57.2042 0.370117Z" fill="#59C3B4"/>
<path d="M69.1642 95.9903C65.9342 89.7703 59.5642 86.7403 54.9042 81.9703C52.0842 79.0803 48.1042 77.1803 47.1442 72.7403C53.1142 72.2003 59.0842 72.1903 65.0442 72.8703C65.1142 74.2803 65.8042 75.3603 66.8242 76.2803C71.9542 80.9003 77.0242 85.5803 82.2242 90.1103C84.1042 91.7403 86.3342 92.9703 86.1342 95.9303C80.4842 95.9503 74.8242 95.9703 69.1742 95.9903H69.1642Z" fill="#6E69AF"/>
<path d="M73.1342 36.3402C82.6042 34.8902 90.7142 36.4402 96.3342 45.3802C98.5042 48.8302 101.974 51.4602 104.814 54.5002C105.924 55.6902 107.574 56.8102 106.934 58.7102C106.224 60.8202 104.194 60.1602 102.624 60.1902C100.134 60.2302 97.6342 60.1002 95.1442 60.0402C95.0942 58.5802 94.2042 57.6002 93.2142 56.7202C88.4242 52.4602 83.5842 48.2502 78.8342 43.9502C76.4542 41.8002 73.2042 40.2502 73.1442 36.3502L73.1342 36.3402Z" fill="#59C3B4"/>
<path d="M73.1342 36.3398C73.1942 40.2398 76.4442 41.7898 78.8242 43.9398C83.5842 48.2398 88.4142 52.4498 93.2042 56.7098C94.1942 57.5998 95.0942 58.5798 95.1342 60.0298C90.1542 60.0298 85.1642 60.0298 80.1842 60.0298C78.3742 55.5498 74.2642 53.1998 71.0442 49.9998C66.4442 45.4198 60.6342 42.0598 57.1242 36.3698C62.4642 36.3698 67.7942 36.3498 73.1342 36.3398Z" fill="#42BBC8"/>
<path d="M54.1542 60.0097C49.8242 60.0097 45.4942 60.0197 41.1742 60.0297C38.4042 54.1097 32.3342 51.5097 28.0742 47.0897C24.8442 43.7397 20.2442 41.5597 19.1442 36.4297C23.1442 36.4297 27.1342 36.4297 31.1342 36.4297C35.3142 43.5297 42.6742 47.3797 48.2242 53.0897C50.3542 55.2897 53.3242 56.7097 54.1642 59.9997L54.1542 60.0097Z" fill="#6B7CBD"/>
<path d="M27.2042 0.379799C27.1742 1.7598 27.4742 2.9098 28.6742 3.8498C35.2942 9.0498 40.6942 15.6598 47.6842 20.4298C48.9442 21.2898 49.1942 22.5198 49.2242 23.8898C44.8942 23.8898 40.5642 23.8698 36.2242 23.8598C31.1442 15.6198 22.9442 10.5498 16.1042 4.0898C18.6342 -0.660201 22.9742 0.0197985 27.2042 0.379799Z" fill="#42BBC8"/>
<path d="M20.1742 60.2395C13.3242 54.4195 7.91419 47.2095 1.57419 40.8995C-0.295813 39.0395 -1.18581 37.4195 2.89419 36.9395C4.96419 36.6995 7.08419 36.3095 9.19419 36.0195C9.51419 36.1495 9.84419 36.2695 10.1642 36.3995C10.0242 38.2195 10.9442 39.5295 12.2242 40.6695C17.0142 44.8995 21.8242 49.1095 26.5942 53.3695C28.7642 55.3095 31.4742 56.8195 32.1742 59.9995C31.8442 60.1195 31.5142 60.2395 31.1842 60.3595C28.5142 60.3595 25.8542 60.3595 23.1842 60.3595C22.1842 60.3195 21.1842 60.2695 20.1842 60.2295L20.1742 60.2395Z" fill="#785EA8"/>
<path d="M57.1342 36.3701C60.6442 42.0601 66.4542 45.4101 71.0542 50.0001C74.2742 53.2101 78.3842 55.5601 80.1942 60.0301C76.5142 60.0301 72.8342 60.0301 69.1642 60.0301C65.4942 54.9501 60.4742 51.2501 56.0042 46.9901C52.5142 43.6601 47.9842 41.2601 46.1342 36.3801C48.8442 36.3801 51.5442 36.3801 54.2542 36.3801C54.5442 36.3801 54.8342 36.3801 55.1242 36.3801C55.7942 36.3801 56.4642 36.3801 57.1342 36.3801V36.3701Z" fill="#51A6D0"/>
<path d="M32.1642 59.9995C31.4542 56.8195 28.7542 55.3095 26.5842 53.3695C21.8142 49.1095 17.0042 44.8995 12.2142 40.6695C10.9342 39.5395 10.0042 38.2295 10.1542 36.3995C11.4942 36.2695 12.8342 36.1495 14.1742 36.0195C15.5042 36.0195 16.8442 36.0295 18.1742 36.0395C18.4942 36.1595 18.8142 36.2895 19.1342 36.4095C20.2442 41.5395 24.8442 43.7095 28.0642 47.0695C32.3242 51.4895 38.3942 54.0895 41.1642 60.0095C38.1642 60.0095 35.1642 59.9995 32.1542 59.9895L32.1642 59.9995Z" fill="#6E69AF"/>
<path d="M46.1242 36.3701C47.9642 41.2401 52.4942 43.6501 55.9942 46.9801C60.4742 51.2401 65.4942 54.9401 69.1542 60.0201C66.4842 60.0201 63.8142 60.0201 61.1542 60.0201C60.0042 56.3201 56.6742 54.5701 54.1542 52.0701C48.8542 46.8001 41.8742 43.2601 38.1342 36.4001C40.7942 36.4001 43.4542 36.3901 46.1242 36.3801V36.3701Z" fill="#5D98D0"/>
<path d="M38.1442 36.4004C41.8742 43.2504 48.8642 46.8004 54.1642 52.0704C56.6842 54.5804 60.0042 56.3304 61.1642 60.0204C58.8342 60.0204 56.4942 60.0204 54.1642 60.0104C53.3242 56.7104 50.3642 55.2904 48.2242 53.1004C42.6742 47.3904 35.3142 43.5304 31.1342 36.4404C33.4742 36.4304 35.8142 36.4204 38.1442 36.4104V36.4004Z" fill="#648CC8"/>
<path d="M6.93418 14.0096C8.39418 11.7996 10.0042 9.72965 12.1542 8.13965C14.3442 9.83965 16.8242 11.2696 18.6542 13.2996C21.6642 16.6196 26.1942 18.7296 27.2542 23.6596C23.6042 24.2496 19.9442 24.4996 16.3042 23.5596C15.1242 18.4596 10.2342 17.0196 6.92418 14.0096H6.93418Z" fill="#5D98D0"/>
<path d="M86.1342 95.9296C86.3342 92.9696 84.1042 91.7396 82.2242 90.1096C77.0142 85.5896 71.9442 80.8996 66.8242 76.2796C65.8042 75.3596 65.1142 74.2796 65.0442 72.8696C67.3742 72.0796 69.7242 72.2696 72.0742 72.7496C72.8442 76.7396 76.3642 78.4296 78.8942 80.9796C82.8042 84.9196 88.0042 87.6796 90.2242 93.1896C89.2442 94.6796 88.2442 96.1296 86.1442 95.9296H86.1342Z" fill="#6B7CBD"/>
<path d="M27.2542 23.6503C26.1842 18.7203 21.6642 16.6103 18.6542 13.2903C16.8242 11.2703 14.3442 9.83031 12.1542 8.13031C13.4742 6.78031 14.7942 5.43031 16.1142 4.07031C22.9442 10.5303 31.1542 15.6003 36.2342 23.8403C33.2342 24.1603 30.2342 24.3503 27.2542 23.6403V23.6503Z" fill="#51A6D0"/>
<path d="M90.2142 93.1905C88.0042 87.6705 82.7942 84.9205 78.8842 80.9805C76.3642 78.4405 72.8342 76.7405 72.0642 72.7505C74.0642 72.1105 76.0842 72.2405 78.1142 72.6505C78.6442 74.7105 80.4242 75.7905 81.7642 77.2005C85.7042 81.3505 90.9142 84.1805 94.1342 89.0805C93.1442 90.7505 91.8442 92.1305 90.2142 93.2005V93.1905Z" fill="#648CC8"/>
<path d="M92.0042 72.5603C93.4342 72.5503 94.8642 72.5403 96.2842 72.5303C98.7142 74.6703 102.634 75.2803 103.224 79.3003C102.554 80.2803 101.874 81.2603 101.204 82.2403C99.9242 83.3103 98.6342 84.3903 97.3542 85.4603C96.3642 83.4603 94.6242 82.2603 92.9342 80.8903C90.2842 78.7403 87.2342 76.8503 86.1642 73.2603C87.8742 73.1803 89.5742 73.0903 91.2842 73.0103C91.5642 72.9203 91.8042 72.7703 92.0042 72.5603Z" fill="#51A6D0"/>
<path d="M6.93419 14.0098C10.2342 17.0198 15.1342 18.4598 16.3142 23.5598C14.2642 23.8098 12.2042 24.0498 10.1542 24.2998C7.69419 24.1998 5.22419 24.2298 2.77419 23.9698C0.0241914 23.6798 -0.725808 22.1198 1.08419 19.9698C2.87419 17.8398 4.97419 15.9898 6.94419 14.0098H6.93419Z" fill="#6B7CBD"/>
<path d="M86.1642 73.2696C87.2342 76.8596 90.2842 78.7497 92.9342 80.8997C94.6142 82.2697 96.3642 83.4697 97.3542 85.4697C97.1742 85.9697 96.9842 86.4797 96.8042 86.9797C95.9142 87.6797 95.0242 88.3796 94.1442 89.0696C90.9242 84.1696 85.7142 81.3397 81.7742 77.1897C80.4342 75.7797 78.6642 74.6996 78.1242 72.6396C80.8042 72.8496 83.4842 73.0597 86.1742 73.2597L86.1642 73.2696Z" fill="#5D98D0"/>
<path d="M103.224 79.3002C102.634 75.2802 98.7142 74.6702 96.2842 72.5302C97.7642 72.4402 99.2542 72.1802 100.714 72.3102C102.854 72.5002 105.864 71.1002 106.814 73.9802C107.684 76.6302 104.824 77.7602 103.224 79.3002Z" fill="#42BBC8"/>
<path d="M86.1742 23.8996C86.8342 23.6496 87.4842 23.3996 88.1442 23.1396C87.6842 23.8996 87.0042 24.1096 86.1742 23.8996Z" fill="#59C3B4"/>
<path d="M92.0042 72.5599C91.8042 72.7699 91.5642 72.9199 91.2842 73.0099C91.4042 72.6299 91.6442 72.4799 92.0042 72.5599Z" fill="#42BBC8"/>
<path d="M55.1142 36.3696C54.8242 36.3696 54.5342 36.3696 54.2442 36.3696C54.5342 36.2596 54.8242 36.2596 55.1142 36.3696Z" fill="#42BBC8"/>
<path d="M19.8042 72.8398C19.8042 72.8398 19.6342 72.9098 19.6342 72.8998L19.8042 72.8398Z" fill="#5D98D0"/>
</svg>
