<svg width="60" height="60" viewBox="0 0 60 60" fill="none" xmlns="http://www.w3.org/2000/svg">
<g clip-path="url(#clip0_1762_613)">
<g filter="url(#filter0_f_1762_613)">
<path d="M29.3123 16.5151L42.4626 7.18265C42.5345 7.13163 42.6278 7.20793 42.5921 7.28852L34.2873 26.0277C34.2727 26.0605 34.2799 26.0988 34.3052 26.1242L41.7993 33.6183C41.8299 33.6489 41.8333 33.6973 41.8073 33.7318L26.8776 53.5669C26.8236 53.6387 26.7096 53.5911 26.7225 53.5023L28.402 41.9558C28.406 41.928 28.3964 41.9001 28.3762 41.8807L18.0267 31.9625C18.0097 31.9461 18 31.9235 18 31.8998V31.1004C18 31.0804 18.0069 31.061 18.0196 31.0455L27.689 19.2273C27.7243 19.1842 27.7905 19.185 27.8246 19.229L29.1206 20.8952C29.1713 20.9604 29.2758 20.9245 29.2758 20.8419V16.5859C29.2758 16.5578 29.2894 16.5314 29.3123 16.5151Z" fill="url(#paint0_linear_1762_613)"/>
<path d="M29.3123 16.5151L42.4626 7.18265C42.5345 7.13163 42.6278 7.20793 42.5921 7.28852L34.2873 26.0277C34.2727 26.0605 34.2799 26.0988 34.3052 26.1242L41.7993 33.6183C41.8299 33.6489 41.8333 33.6973 41.8073 33.7318L26.8776 53.5669C26.8236 53.6387 26.7096 53.5911 26.7225 53.5023L28.402 41.9558C28.406 41.928 28.3964 41.9001 28.3762 41.8807L18.0267 31.9625C18.0097 31.9461 18 31.9235 18 31.8998V31.1004C18 31.0804 18.0069 31.061 18.0196 31.0455L27.689 19.2273C27.7243 19.1842 27.7905 19.185 27.8246 19.229L29.1206 20.8952C29.1713 20.9604 29.2758 20.9245 29.2758 20.8419V16.5859C29.2758 16.5578 29.2894 16.5314 29.3123 16.5151Z" fill="url(#paint1_linear_1762_613)"/>
</g>
<path d="M28.779 18.8731V21.4831L28.236 20.7849C28.071 20.5728 27.7517 20.5689 27.5816 20.7768L27.8516 20.9977L27.5816 20.7768L19.8039 30.2829L19.8039 30.2829C19.7427 30.3577 19.7093 30.4513 19.7093 30.548V31.191C19.7093 31.3051 19.7559 31.4142 19.8382 31.4932L28.0591 39.3716L26.7289 48.5169C26.6665 48.9457 27.217 49.1751 27.4776 48.8289L27.1989 48.6191L27.4776 48.8288L39.4864 32.8743C39.6119 32.7076 39.5955 32.474 39.448 32.3266L33.5554 26.434L40.1579 11.536L39.839 11.3947L40.1579 11.536C40.3303 11.1471 39.8799 10.7788 39.5329 11.025L39.7348 11.3095L39.5329 11.025L28.9554 18.5317L29.1573 18.8162L28.9554 18.5317C28.8448 18.6102 28.779 18.7374 28.779 18.8731ZM28.0798 39.2293L28.0797 39.2299L28.0798 39.2293Z" fill="url(#paint2_linear_1762_613)" stroke="#70320D" stroke-width="0.697674" stroke-miterlimit="16"/>
<path d="M29.1573 18.8162L39.7348 11.3095C39.7926 11.2685 39.8677 11.3298 39.839 11.3947L33.1589 26.4677C33.1472 26.494 33.153 26.5249 33.1733 26.5453L39.2013 32.5732C39.2259 32.5978 39.2286 32.6367 39.2077 32.6645L27.1989 48.6191C27.1555 48.6768 27.0637 48.6385 27.0741 48.5671L28.425 39.2795C28.4283 39.2572 28.4205 39.2347 28.4043 39.2191L20.0796 31.2413C20.0659 31.2282 20.0581 31.21 20.0581 31.191V30.548C20.0581 30.5319 20.0637 30.5163 20.0739 30.5038L27.8516 20.9977C27.8799 20.9631 27.9331 20.9637 27.9606 20.9991L29.003 22.3393C29.0438 22.3917 29.1279 22.3629 29.1279 22.2965V18.8731C29.1279 18.8504 29.1388 18.8292 29.1573 18.8162Z" fill="url(#paint3_linear_1762_613)"/>
<path d="M32.9267 26.7919L32.9267 26.7919L38.7832 32.6485L27.5764 47.5375L28.7702 39.3298C28.7897 39.1959 28.7433 39.0609 28.6456 38.9673L20.4069 31.0719V30.6476L27.9 21.4894L28.7277 22.5535C28.9724 22.8681 29.4767 22.695 29.4767 22.2965V19.0172L39.1086 12.1816L32.84 26.3263C32.7699 26.4845 32.8043 26.6696 32.9267 26.7919ZM20.321 30.9895C20.3211 30.9896 20.3213 30.9898 20.3214 30.9899L20.321 30.9895L20.1279 31.191L20.321 30.9895ZM27.6853 21.2132L27.6857 21.2138L27.6853 21.2132Z" stroke="#70320D" stroke-opacity="0.32" stroke-width="0.697674" stroke-miterlimit="16"/>
<path d="M21.453 31.5701L20.7554 30.8724L27.9065 21.9771L28.081 22.3259L21.453 31.5701Z" fill="white" fill-opacity="0.45"/>
<path d="M38.1978 13.2554L29.8257 19.8833V19.1856L38.1978 13.2554Z" fill="white" fill-opacity="0.45"/>
</g>
<rect x="0.5" y="0.5" width="59" height="59" rx="29.5" stroke="#FEA91A" stroke-opacity="0.9"/>
<defs>
<filter id="filter0_f_1762_613" x="-17.059" y="-27.893" width="94.7182" height="116.554" filterUnits="userSpaceOnUse" color-interpolation-filters="sRGB">
<feFlood flood-opacity="0" result="BackgroundImageFix"/>
<feBlend mode="normal" in="SourceGraphic" in2="BackgroundImageFix" result="shape"/>
<feGaussianBlur stdDeviation="17.5295" result="effect1_foregroundBlur_1762_613"/>
</filter>
<linearGradient id="paint0_linear_1762_613" x1="28.4084" y1="51.0189" x2="50.9471" y2="46.3088" gradientUnits="userSpaceOnUse">
<stop stop-color="#FEA018"/>
<stop offset="1" stop-color="#FEB71E"/>
</linearGradient>
<linearGradient id="paint1_linear_1762_613" x1="28.4084" y1="51.0189" x2="50.9471" y2="46.3088" gradientUnits="userSpaceOnUse">
<stop stop-color="#FEA018"/>
<stop offset="1" stop-color="#FEB71E"/>
</linearGradient>
<linearGradient id="paint2_linear_1762_613" x1="28.4302" y1="46.5696" x2="46.5593" y2="42.7809" gradientUnits="userSpaceOnUse">
<stop stop-color="#FEA018"/>
<stop offset="1" stop-color="#FEB71E"/>
</linearGradient>
<linearGradient id="paint3_linear_1762_613" x1="28.4302" y1="46.5696" x2="46.5593" y2="42.7809" gradientUnits="userSpaceOnUse">
<stop stop-color="#FEA018"/>
<stop offset="1" stop-color="#FEB71E"/>
</linearGradient>
<clipPath id="clip0_1762_613">
<rect width="60" height="60" rx="30" fill="white"/>
</clipPath>
</defs>
</svg>
