<svg width="150" height="40" viewBox="0 0 150 40" fill="none" xmlns="http://www.w3.org/2000/svg">
<g clip-path="url(#clip0_4718_249)">
<path fill-rule="evenodd" clip-rule="evenodd" d="M47.3333 2.66667H16C12.1534 2.66667 9.53667 2.67233 7.57715 2.93578C5.69434 3.18892 4.82228 3.63524 4.22876 4.22876C3.63524 4.82229 3.18892 5.69434 2.93578 7.57715C2.67233 9.53667 2.66667 12.1534 2.66667 16V24C2.66667 27.8466 2.67233 30.4633 2.93578 32.4228C3.18892 34.3057 3.63524 35.1777 4.22876 35.7712C4.82228 36.3648 5.69434 36.8111 7.57715 37.0642C9.53667 37.3277 12.1534 37.3333 16 37.3333H47.3333C51.1799 37.3333 53.7966 37.3277 55.7561 37.0642C57.639 36.8111 58.511 36.3648 59.1045 35.7712C59.6981 35.1777 60.1444 34.3057 60.3975 32.4229C60.661 30.4633 60.6666 27.8466 60.6666 24V16C60.6666 12.1534 60.661 9.53667 60.3975 7.57715C60.1444 5.69434 59.6981 4.82229 59.1045 4.22876C58.511 3.63524 57.639 3.18892 55.7561 2.93578C53.7966 2.67233 51.1799 2.66667 47.3333 2.66667ZM2.34314 2.34315C0 4.68629 0 8.45753 0 16V24C0 31.5425 0 35.3137 2.34314 37.6569C4.68629 40 8.45752 40 16 40H47.3333C54.8758 40 58.647 40 60.9902 37.6569C63.3333 35.3137 63.3333 31.5425 63.3333 24V16C63.3333 8.45753 63.3333 4.68629 60.9902 2.34315C58.647 0 54.8758 0 47.3333 0H16C8.45752 0 4.68629 0 2.34314 2.34315Z" fill="#121315"/>
<path fill-rule="evenodd" clip-rule="evenodd" d="M16.2059 10.5393C16.8285 9.91659 17.8381 9.91659 18.4608 10.5393L26.7941 18.8726C27.4168 19.4953 27.4168 20.5049 26.7941 21.1276L18.4608 29.4609C17.8381 30.0836 16.8285 30.0836 16.2059 29.4609C15.5832 28.8382 15.5832 27.8286 16.2059 27.206L23.4117 20.0001L16.2059 12.7942C15.5832 12.1715 15.5832 11.162 16.2059 10.5393Z" fill="#121315"/>
<path d="M31.4153 28.3809C31.4153 27.4969 32.1319 26.7803 33.0159 26.7803H46.7116C47.6007 26.7803 48.3215 27.5011 48.3215 28.3902C48.3215 29.2793 47.6007 30.0001 46.7116 30.0001H39.8684L33.0116 29.9815C32.1293 29.9792 31.4153 29.2632 31.4153 28.3809Z" fill="#121315"/>
<path d="M75.219 29.8006C74.3043 29.8006 73.5577 29.5206 72.979 28.9606C72.419 28.3819 72.139 27.6166 72.139 26.6646V18.8246H68.667V15.9126H72.139V11.6006H75.667V15.9126H79.475V18.8246H75.667V26.0486C75.667 26.6086 75.9283 26.8886 76.451 26.8886H79.139V29.8006H75.219Z" fill="#121315"/>
<path d="M85.8605 30.1925C84.8712 30.1925 83.9845 30.0245 83.2005 29.6885C82.4165 29.3338 81.7912 28.8298 81.3245 28.1765C80.8765 27.5045 80.6525 26.6925 80.6525 25.7405C80.6525 24.7885 80.8765 23.9952 81.3245 23.3605C81.7912 22.7072 82.4258 22.2218 83.2285 21.9045C84.0498 21.5685 84.9832 21.4005 86.0285 21.4005H89.8365V20.6165C89.8365 19.9632 89.6312 19.4312 89.2205 19.0205C88.8098 18.5912 88.1565 18.3765 87.2605 18.3765C86.3832 18.3765 85.7298 18.5818 85.3005 18.9925C84.8712 19.3845 84.5912 19.8978 84.4605 20.5325L81.2125 19.4405C81.4365 18.7312 81.7912 18.0872 82.2765 17.5085C82.7805 16.9112 83.4432 16.4352 84.2645 16.0805C85.1045 15.7072 86.1218 15.5205 87.3165 15.5205C89.1458 15.5205 90.5925 15.9778 91.6565 16.8925C92.7205 17.8072 93.2525 19.1325 93.2525 20.8685V26.0485C93.2525 26.6085 93.5138 26.8885 94.0365 26.8885H95.1565V29.8005H92.8045C92.1138 29.8005 91.5445 29.6325 91.0965 29.2965C90.6485 28.9605 90.4245 28.5125 90.4245 27.9525V27.9245H89.8925C89.8178 28.1485 89.6498 28.4472 89.3885 28.8205C89.1272 29.1752 88.7165 29.4925 88.1565 29.7725C87.5965 30.0525 86.8312 30.1925 85.8605 30.1925ZM86.4765 27.3365C87.4658 27.3365 88.2685 27.0658 88.8845 26.5245C89.5192 25.9645 89.8365 25.2272 89.8365 24.3125V24.0325H86.2805C85.6272 24.0325 85.1138 24.1725 84.7405 24.4525C84.3672 24.7325 84.1805 25.1245 84.1805 25.6285C84.1805 26.1325 84.3765 26.5432 84.7685 26.8605C85.1605 27.1778 85.7298 27.3365 86.4765 27.3365Z" fill="#121315"/>
<path d="M96.6161 29.8006V15.9126H100.144V29.8006H96.6161ZM98.3801 14.2886C97.7454 14.2886 97.2041 14.0833 96.7561 13.6726C96.3268 13.2619 96.1121 12.7206 96.1121 12.0486C96.1121 11.3766 96.3268 10.8353 96.7561 10.4246C97.2041 10.0139 97.7454 9.80859 98.3801 9.80859C99.0334 9.80859 99.5748 10.0139 100.004 10.4246C100.433 10.8353 100.648 11.3766 100.648 12.0486C100.648 12.7206 100.433 13.2619 100.004 13.6726C99.5748 14.0833 99.0334 14.2886 98.3801 14.2886Z" fill="#121315"/>
<path d="M102.934 29.8002V10.2002H106.461V29.8002H102.934Z" fill="#121315"/>
<path d="M115.775 30.1925C114.431 30.1925 113.208 29.9125 112.107 29.3525C111.024 28.7925 110.166 27.9805 109.531 26.9165C108.896 25.8525 108.579 24.5645 108.579 23.0525V22.6605C108.579 21.1485 108.896 19.8605 109.531 18.7965C110.166 17.7325 111.024 16.9205 112.107 16.3605C113.208 15.8005 114.431 15.5205 115.775 15.5205C117.1 15.5205 118.239 15.7538 119.191 16.2205C120.143 16.6872 120.908 17.3312 121.487 18.1525C122.084 18.9552 122.476 19.8698 122.663 20.8965L119.247 21.6245C119.172 21.0645 119.004 20.5605 118.743 20.1125C118.482 19.6645 118.108 19.3098 117.623 19.0485C117.156 18.7872 116.568 18.6565 115.859 18.6565C115.15 18.6565 114.506 18.8152 113.927 19.1325C113.367 19.4312 112.919 19.8885 112.583 20.5045C112.266 21.1018 112.107 21.8392 112.107 22.7165V22.9965C112.107 23.8738 112.266 24.6205 112.583 25.2365C112.919 25.8338 113.367 26.2912 113.927 26.6085C114.506 26.9072 115.15 27.0565 115.859 27.0565C116.923 27.0565 117.726 26.7858 118.267 26.2445C118.827 25.6845 119.182 24.9565 119.331 24.0605L122.747 24.8725C122.504 25.8618 122.084 26.7672 121.487 27.5885C120.908 28.3912 120.143 29.0258 119.191 29.4925C118.239 29.9592 117.1 30.1925 115.775 30.1925Z" fill="#121315"/>
<path d="M128.849 30.1925C127.86 30.1925 126.973 30.0245 126.189 29.6885C125.405 29.3338 124.78 28.8298 124.313 28.1765C123.865 27.5045 123.641 26.6925 123.641 25.7405C123.641 24.7885 123.865 23.9952 124.313 23.3605C124.78 22.7072 125.415 22.2218 126.217 21.9045C127.039 21.5685 127.972 21.4005 129.017 21.4005H132.825V20.6165C132.825 19.9632 132.62 19.4312 132.209 19.0205C131.799 18.5912 131.145 18.3765 130.249 18.3765C129.372 18.3765 128.719 18.5818 128.289 18.9925C127.86 19.3845 127.58 19.8978 127.449 20.5325L124.201 19.4405C124.425 18.7312 124.78 18.0872 125.265 17.5085C125.769 16.9112 126.432 16.4352 127.253 16.0805C128.093 15.7072 129.111 15.5205 130.305 15.5205C132.135 15.5205 133.581 15.9778 134.645 16.8925C135.709 17.8072 136.241 19.1325 136.241 20.8685V26.0485C136.241 26.6085 136.503 26.8885 137.025 26.8885H138.145V29.8005H135.793C135.103 29.8005 134.533 29.6325 134.085 29.2965C133.637 28.9605 133.413 28.5125 133.413 27.9525V27.9245H132.881C132.807 28.1485 132.639 28.4472 132.377 28.8205C132.116 29.1752 131.705 29.4925 131.145 29.7725C130.585 30.0525 129.82 30.1925 128.849 30.1925ZM129.465 27.3365C130.455 27.3365 131.257 27.0658 131.873 26.5245C132.508 25.9645 132.825 25.2272 132.825 24.3125V24.0325H129.269C128.616 24.0325 128.103 24.1725 127.729 24.4525C127.356 24.7325 127.169 25.1245 127.169 25.6285C127.169 26.1325 127.365 26.5432 127.757 26.8605C128.149 27.1778 128.719 27.3365 129.465 27.3365Z" fill="#121315"/>
<path d="M139.605 29.8002V10.2002H143.133V29.8002H139.605Z" fill="#121315"/>
<path d="M145.922 29.8002V10.2002H149.45V29.8002H145.922Z" fill="#121315"/>
</g>
<defs>
<clipPath id="clip0_4718_249">
<rect width="150" height="40" fill="white"/>
</clipPath>
</defs>
</svg>
