<svg width="1974" height="239" viewBox="0 0 1974 239" fill="none" xmlns="http://www.w3.org/2000/svg">
<path d="M1962.68 181.072C1962.68 188.168 1945.95 193.919 1925.35 193.919C1916.96 193.919 1909.26 192.969 1903.03 191.36C1899.23 192.996 1894.88 193.919 1890.24 193.919C1885.46 193.919 1881 192.943 1877.15 191.228C1876.78 192.204 1876.34 193.154 1875.78 194.051C1871.32 201.754 1861.43 207.109 1849.96 207.109C1838.01 207.109 1827.8 201.305 1823.6 193.101C1820.89 193.629 1818.09 193.919 1815.19 193.919C1811.1 193.919 1807.22 193.365 1803.58 192.389C1795.22 205.79 1777.76 215.022 1757.47 215.022C1743.07 215.022 1730.04 210.353 1720.72 202.835C1714.74 211.646 1702.92 217.66 1689.28 217.66C1678.99 217.66 1669.73 214.205 1663.24 208.718C1651.85 222.224 1632.35 231.114 1610.19 231.114C1592.84 231.114 1577.11 225.653 1565.64 216.79C1556.85 222.277 1545.77 225.574 1533.67 225.574C1512.19 225.574 1493.83 215.234 1486.16 200.54C1482.12 199.511 1478.43 197.955 1475.16 195.95C1468.96 204.207 1457.56 209.747 1444.48 209.747C1428.99 209.747 1415.86 201.965 1410.98 191.123C1406.31 192.917 1401.08 193.919 1395.54 193.919C1383.81 193.919 1373.44 189.461 1366.95 182.602C1362.12 186.348 1355.5 188.643 1348.19 188.643C1343.26 188.643 1338.67 187.588 1334.71 185.768C1332.31 185.926 1329.86 186.005 1327.33 186.005C1318.46 186.005 1310.34 184.95 1303.95 183.182C1295.43 180.808 1290 177.194 1290 173.158C1290 166.563 1304.51 161.129 1323.16 160.417C1326.93 152.424 1336.69 146.7 1348.19 146.7C1354.63 146.7 1360.54 148.494 1365.15 151.474C1371.3 143.561 1382.33 138.232 1394.96 138.074C1394.94 137.81 1394.91 137.572 1394.91 137.335C1394.91 125.016 1407.63 115.044 1423.3 115.044C1430.95 115.044 1437.88 117.419 1442.97 121.27C1448.49 118.553 1454.98 116.944 1461.97 116.944C1469.8 116.944 1477.03 118.949 1482.89 122.299C1493.17 105.627 1514.96 94.0992 1540.16 94.0992C1540.92 94.0992 1541.69 94.1255 1542.45 94.1519C1547.73 70.7798 1573.71 53 1605.02 53C1636.81 53 1663.14 71.3338 1667.83 95.2599C1684.14 98.0297 1698.09 105.68 1707.09 116.179C1712.94 114.359 1719.33 113.33 1726 113.33C1740.11 113.33 1752.88 117.814 1762.17 125.042C1768.6 120.03 1777.44 116.944 1787.2 116.944C1804.08 116.944 1818.17 126.177 1821.84 138.549C1826.74 139.287 1831.28 140.791 1835.24 142.901C1839.98 135.752 1849.48 130.872 1860.43 130.872C1875.62 130.872 1888 140.263 1888.76 152.028C1889.26 152.002 1889.74 151.976 1890.24 151.976C1903.11 151.976 1913.85 159.124 1916.38 168.621C1919.25 168.384 1922.24 168.252 1925.35 168.252C1945.95 168.252 1962.68 174.002 1962.68 181.072Z" fill="white"/>
<path d="M1591.82 58.2849C1623.61 58.2849 1649.95 76.6028 1654.64 100.529C1670.93 103.301 1684.89 110.962 1693.89 121.466C1699.75 119.638 1706.12 118.604 1712.81 118.604C1726.92 118.604 1739.69 123.075 1748.97 130.309C1752.36 127.671 1756.44 125.582 1760.95 124.181C1751.79 117.47 1739.52 113.331 1726 113.331C1719.31 113.331 1712.94 114.365 1707.08 116.193C1698.08 105.689 1684.12 98.0256 1667.83 95.2558C1663.14 71.3323 1636.8 53.0117 1605.01 53.0117C1592.05 53.0117 1580.02 56.0955 1569.97 61.3292C1576.79 59.3666 1584.14 58.2849 1591.82 58.2849Z" fill="white"/>
<path d="M1373.22 144.29C1375.96 143.72 1378.81 143.377 1381.77 143.34C1381.76 143.098 1381.72 142.86 1381.72 142.615C1381.72 141.8 1381.78 140.998 1381.89 140.207C1378.74 141.235 1375.84 142.625 1373.22 144.29Z" fill="white"/>
<path d="M1293.5 167.757C1298.32 166.654 1303.92 165.92 1309.96 165.688C1310.69 164.132 1311.71 162.697 1312.87 161.338C1304.32 162.576 1297.41 164.876 1293.5 167.757Z" fill="white"/>
<path d="M1530.66 94.668C1521.27 95.7706 1512.57 98.4983 1505 102.458C1511.84 100.479 1519.24 99.3873 1526.96 99.3873C1527.73 99.3873 1528.49 99.411 1529.25 99.4321C1529.62 97.8124 1530.11 96.2296 1530.66 94.668Z" fill="white"/>
<path d="M1774.01 122.212C1790.89 122.212 1804.99 131.445 1808.65 143.822C1813.55 144.551 1818.09 146.057 1822.05 148.186C1824.01 145.226 1826.82 142.685 1830.18 140.689C1827.55 139.728 1824.77 138.984 1821.84 138.547C1818.18 126.169 1804.08 116.937 1787.2 116.937C1778.69 116.937 1770.89 119.287 1764.77 123.199C1767.72 122.574 1770.81 122.212 1774.01 122.212Z" fill="white"/>
<path d="M1925.33 168.242C1922.24 168.242 1919.25 168.387 1916.37 168.63C1913.84 159.12 1903.1 151.974 1890.23 151.974C1889.74 151.974 1889.25 152.011 1888.76 152.032C1888.01 140.249 1875.63 130.871 1860.44 130.871C1853.11 130.871 1846.48 133.086 1841.44 136.669C1843.32 136.36 1845.25 136.146 1847.25 136.146C1862.45 136.146 1874.82 145.524 1875.57 157.308C1876.06 157.287 1876.55 157.25 1877.04 157.25C1889.91 157.25 1900.65 164.394 1903.18 173.906C1906.06 173.663 1909.05 173.518 1912.14 173.518C1932.76 173.518 1949.48 179.269 1949.48 186.36C1949.48 188.301 1948.19 190.137 1945.95 191.789C1956.02 189.488 1962.67 185.555 1962.67 181.084C1962.67 173.99 1945.95 168.242 1925.33 168.242Z" fill="white"/>
<path d="M1335 151.974C1341.44 151.974 1347.35 153.765 1351.97 156.749C1354.25 153.81 1357.21 151.233 1360.66 149.141C1356.94 147.592 1352.7 146.698 1348.19 146.698C1341.12 146.698 1334.72 148.869 1329.96 152.391C1331.59 152.143 1333.27 151.974 1335 151.974Z" fill="white"/>
<path d="M1354.04 188.128C1353.95 188.038 1353.85 187.959 1353.77 187.869C1353.59 188.009 1353.38 188.133 1353.2 188.27C1353.48 188.228 1353.76 188.178 1354.04 188.128Z" fill="white"/>
<path d="M1410.12 120.319C1417.76 120.319 1424.68 122.701 1429.78 126.555C1435.29 123.82 1441.79 122.213 1448.78 122.213C1456.61 122.213 1463.83 124.223 1469.71 127.587C1471.52 124.646 1473.71 121.876 1476.19 119.291C1471.84 117.787 1467.04 116.937 1461.97 116.937C1454.98 116.937 1448.48 118.544 1442.97 121.28C1437.87 117.425 1430.95 115.043 1423.3 115.043C1416 115.043 1409.36 117.228 1404.33 120.784C1406.2 120.483 1408.13 120.319 1410.12 120.319Z" fill="white"/>
<path d="M1875.78 194.051C1871.32 201.754 1861.43 207.109 1849.96 207.109C1838.01 207.109 1827.8 201.306 1823.6 193.102C1820.89 193.629 1818.09 193.919 1815.19 193.919C1811.1 193.919 1807.22 193.365 1803.58 192.389C1795.22 205.79 1777.76 215.023 1757.47 215.023C1743.07 215.023 1730.04 210.354 1720.72 202.836C1714.74 211.646 1702.92 217.661 1689.28 217.661C1678.99 217.661 1669.73 214.205 1663.24 208.718C1651.85 222.224 1632.35 231.114 1610.19 231.114C1592.84 231.114 1577.11 225.654 1565.64 216.79C1556.85 222.277 1545.78 225.575 1533.67 225.575C1512.19 225.575 1493.83 215.234 1486.16 200.541C1482.12 199.512 1478.43 197.955 1475.16 195.95C1468.96 204.207 1457.56 209.747 1444.48 209.747C1428.99 209.747 1415.86 201.965 1410.98 191.123C1406.31 192.917 1401.08 193.919 1395.54 193.919C1383.81 193.919 1373.44 189.461 1366.95 182.602C1362.12 186.348 1355.5 188.643 1348.19 188.643C1343.26 188.643 1338.67 187.588 1334.71 185.768C1332.31 185.926 1320.03 184.5 1317.5 184.5C1308.64 184.5 1296.5 182.5 1293 178.5C1308.93 180.004 1336.8 177.96 1346.19 164.875C1364.05 178.487 1390.43 179.754 1409.5 167.856C1426.04 185.135 1455.32 188.248 1475.16 174.873C1490.93 185.214 1510.16 190.2 1529 188.775C1560.36 212.992 1608.77 211.673 1638.82 185.794C1657.25 200.277 1686.3 198.879 1703.23 182.655C1717.14 195.634 1741.54 194.869 1754.59 181.02C1772.77 191.413 1797.49 188.722 1813.03 174.662C1823.15 188.485 1845.23 191.44 1858.66 180.782C1862.64 187.034 1868.82 191.598 1875.78 194.051Z" fill="white"/>
<path d="M1973.23 151.975C1973.23 154.27 1970.96 156.328 1967.32 157.752C1964.02 159.071 1959.62 159.889 1954.76 159.889C1954.53 159.889 1954.31 159.889 1954.08 159.863C1944.18 159.731 1936.3 156.249 1936.3 151.975C1936.3 150.999 1936.69 150.076 1937.43 149.232C1938.86 147.596 1941.49 146.198 1944.9 145.301C1947.75 144.51 1951.12 144.062 1954.76 144.062C1964.97 144.062 1973.23 147.596 1973.23 151.975Z" fill="white"/>
<path d="M1973.23 151.975C1973.23 154.27 1970.96 156.328 1967.32 157.752C1965.89 154.402 1963.55 151.448 1960.54 149.39C1956.05 146.277 1950.23 145.196 1944.95 146.462L1944.9 145.301C1947.75 144.51 1951.12 144.062 1954.76 144.062C1964.97 144.062 1973.23 147.596 1973.23 151.975Z" fill="white"/>
<path d="M1954.08 159.863C1944.18 159.731 1936.3 156.249 1936.3 151.975C1936.3 150.999 1936.69 150.076 1937.43 149.232C1937.25 150.999 1938.06 152.899 1939.33 154.218C1940.97 155.906 1943.21 156.829 1945.45 157.594C1948.27 158.57 1951.15 159.335 1954.08 159.863Z" fill="white"/>
<path d="M1337.48 204.734C1337.48 207.029 1335.22 209.086 1331.57 210.511C1328.28 211.83 1323.87 212.647 1319.02 212.647C1318.78 212.647 1318.57 212.647 1318.33 212.621C1308.44 212.489 1300.55 209.007 1300.55 204.734C1300.55 203.758 1300.95 202.834 1301.69 201.99C1303.11 200.355 1305.75 198.957 1309.15 198.06C1312 197.268 1315.38 196.82 1319.02 196.82C1329.23 196.82 1337.48 200.355 1337.48 204.734Z" fill="white"/>
<path d="M1337.48 204.734C1337.48 207.029 1335.22 209.086 1331.57 210.511C1330.15 207.161 1327.8 204.206 1324.8 202.148C1320.31 199.036 1314.48 197.954 1309.21 199.22L1309.15 198.06C1312 197.268 1315.38 196.82 1319.02 196.82C1329.23 196.82 1337.48 200.355 1337.48 204.734Z" fill="white"/>
<path d="M1318.33 212.621C1308.44 212.489 1300.55 209.007 1300.55 204.734C1300.55 203.758 1300.95 202.834 1301.69 201.99C1301.5 203.758 1302.32 205.657 1303.59 206.976C1305.22 208.664 1307.46 209.587 1309.71 210.352C1312.53 211.329 1315.4 212.094 1318.33 212.621Z" fill="white"/>
<path d="M1387.61 126.845C1387.61 128.779 1385.01 130.512 1380.85 131.71C1377.08 132.82 1372.05 133.509 1366.5 133.509C1366.23 133.509 1365.99 133.509 1365.72 133.488C1354.41 133.377 1345.4 130.443 1345.4 126.845C1345.4 126.025 1345.85 125.247 1346.69 124.534C1348.32 123.157 1351.34 121.981 1355.22 121.224C1358.48 120.556 1362.34 120.179 1366.5 120.179C1378.17 120.182 1387.61 123.157 1387.61 126.845Z" fill="white"/>
<path d="M1387.6 126.845C1387.6 128.779 1385.01 130.512 1380.85 131.71C1379.22 128.89 1376.54 126.399 1373.1 124.669C1367.98 122.047 1361.32 121.137 1355.29 122.202L1355.23 121.224C1358.48 120.556 1362.34 120.179 1366.5 120.179C1378.17 120.182 1387.6 123.157 1387.6 126.845Z" fill="white"/>
<path d="M1365.72 133.487C1354.41 133.377 1345.4 130.443 1345.4 126.845C1345.4 126.025 1345.85 125.246 1346.69 124.534C1346.48 126.022 1347.42 127.623 1348.86 128.734C1350.73 130.156 1353.3 130.934 1355.86 131.577C1359.08 132.398 1362.37 133.041 1365.72 133.487Z" fill="white"/>
<path d="M1535.33 85.9578C1535.33 87.5089 1533.25 88.8991 1529.91 89.8593C1526.89 90.7509 1522.85 91.3022 1518.4 91.3022C1518.18 91.3022 1517.99 91.3022 1517.78 91.2837C1508.71 91.194 1501.48 88.8436 1501.48 85.9551C1501.48 85.2956 1501.84 84.6731 1502.52 84.1033C1503.82 82.998 1506.24 82.0536 1509.36 81.4495C1511.97 80.914 1515.07 80.6133 1518.4 80.6133C1527.76 80.6133 1535.33 83.0006 1535.33 85.9578Z" fill="white"/>
<path d="M1535.33 85.9578C1535.33 87.5089 1533.25 88.8991 1529.92 89.8593C1528.61 87.5959 1526.46 85.6016 1523.7 84.2114C1519.59 82.109 1514.25 81.3782 1509.41 82.2329L1509.36 81.4495C1511.97 80.914 1515.07 80.6133 1518.41 80.6133C1527.76 80.6133 1535.33 83.0006 1535.33 85.9578Z" fill="white"/>
<path d="M1517.77 91.2869C1508.7 91.1972 1501.48 88.8468 1501.48 85.9583C1501.48 85.2988 1501.84 84.6762 1502.52 84.1064C1502.35 85.3014 1503.1 86.5834 1504.26 87.475C1505.76 88.6146 1507.81 89.2399 1509.87 89.7569C1512.45 90.4111 1515.09 90.9281 1517.77 91.2869Z" fill="white"/>
<path d="M1898.23 119.872C1897.41 120.452 1896.52 120.9 1895.57 121.164C1891.35 122.378 1886.83 121.085 1882.64 119.819C1880.27 125.807 1872.3 128.814 1866.55 125.86C1863.49 124.303 1860.9 121.296 1857.47 121.27C1854.84 121.27 1852.57 123.011 1850.17 124.04C1844.89 126.255 1838.24 124.725 1834.5 120.399C1831.46 116.891 1830.51 111.773 1831.83 107.368C1832.12 106.313 1832.55 105.31 1833.13 104.36C1836.29 99.1109 1842.73 97.8975 1848 95.6552H1848.03C1848.08 95.6288 1848.16 95.6025 1848.22 95.5761C1854.23 92.9645 1860.38 91.6455 1866.65 94.4154C1872.62 97.0533 1877.07 102.83 1878.1 109.241C1883.09 106.075 1889.42 105.099 1895.14 106.629C1897.76 107.315 1900.42 108.713 1901.53 111.166C1901.63 111.43 1901.71 111.667 1901.79 111.931C1902.61 114.859 1900.87 118.051 1898.23 119.872Z" fill="white"/>
<path d="M1901.79 111.931H1901.76C1900.23 111.773 1898.78 111.193 1897.31 110.744C1891.42 108.95 1884.88 109.399 1879.32 111.984C1878.73 112.248 1878.1 112.538 1877.5 112.301C1876.73 111.984 1876.57 111.008 1876.44 110.164C1875.67 105.257 1872.25 100.984 1867.95 98.4778C1863.65 95.9718 1858.53 95.1013 1853.57 95.1804C1851.7 95.2068 1849.85 95.3914 1848.03 95.6552C1848.08 95.6288 1848.16 95.6025 1848.21 95.5761C1854.23 92.9645 1860.37 91.6455 1866.65 94.4154C1872.61 97.0533 1877.07 102.83 1878.1 109.241C1883.09 106.075 1889.42 105.099 1895.14 106.629C1897.75 107.315 1900.42 108.713 1901.53 111.166C1901.63 111.43 1901.71 111.667 1901.79 111.931Z" fill="white"/>
<path d="M1898.23 119.871C1897.41 120.452 1896.52 120.9 1895.57 121.164C1891.35 122.378 1886.83 121.085 1882.64 119.819C1880.27 125.807 1872.3 128.814 1866.55 125.86C1863.49 124.303 1860.9 121.296 1857.47 121.27C1854.84 121.27 1852.57 123.011 1850.17 124.039C1844.89 126.255 1838.24 124.725 1834.5 120.399C1831.46 116.891 1830.51 111.773 1831.83 107.368C1832.81 107.684 1833.71 108.212 1834.39 109.003C1836.11 110.955 1836.48 113.963 1838.59 115.44C1840.3 116.6 1842.65 116.363 1844.5 115.466C1846.34 114.569 1847.87 113.118 1849.51 111.905C1851.17 110.665 1853.07 109.584 1855.13 109.61C1858.24 109.636 1860.75 112.142 1862.54 114.701C1864.31 117.286 1865.86 120.188 1868.55 121.771C1871.06 123.274 1874.41 123.301 1876.97 121.876C1879.53 120.425 1881.22 117.577 1881.24 114.622C1885.94 118.5 1892.19 120.399 1898.23 119.871Z" fill="white"/>
<path d="M1411.18 228.845C1410.75 229.18 1410.31 229.481 1409.86 229.784C1405.33 232.53 1399.2 232.554 1394.68 229.752C1393.61 233.783 1390.34 237.173 1386.33 238.386C1382.32 239.573 1377.73 238.544 1374.62 235.743C1371.78 233.166 1370.02 229.161 1366.43 227.819C1362.22 226.225 1357.58 229 1353.1 228.565C1350.06 228.27 1347.2 226.312 1345.83 223.587C1345.64 223.221 1345.48 222.859 1345.35 222.477C1344.24 219.19 1345.37 215.251 1348.11 213.096C1354.32 208.245 1364.2 213.88 1371.07 210.508C1371.46 210.329 1371.83 210.118 1372.22 209.854C1375.11 207.894 1377.32 204.045 1380.76 204.486C1384.13 204.911 1386.28 209.464 1389.61 208.878C1392.31 208.419 1393.54 205.074 1395.69 203.621C1397.81 202.186 1401.16 201.255 1403.72 201.764C1408.74 202.785 1414.42 208.316 1415.99 213.036C1416.41 214.352 1416.64 215.732 1416.64 217.114C1416.73 221.569 1414.72 226.086 1411.18 228.845Z" fill="white"/>
<path d="M1416.65 217.109C1416.57 216.874 1416.48 216.663 1416.37 216.449C1414.85 213.392 1412.24 210.978 1409.28 209.266C1407.11 208.008 1404.59 207.074 1402.1 207.504C1399.42 207.995 1397.27 209.936 1395.08 211.545C1392.87 213.173 1390.11 214.568 1387.49 213.722C1384.32 212.666 1382.45 208.58 1379.1 208.649C1376.85 208.673 1375 210.709 1372.75 210.815C1372.18 210.844 1371.58 210.733 1371.07 210.506C1371.46 210.327 1371.83 210.116 1372.22 209.852C1375.11 207.892 1377.32 204.043 1380.76 204.484C1384.13 204.908 1386.28 209.461 1389.61 208.876C1392.31 208.417 1393.54 205.072 1395.69 203.618C1397.81 202.183 1401.16 201.252 1403.72 201.761C1408.74 202.782 1414.42 208.314 1415.99 213.033C1416.42 214.35 1416.64 215.727 1416.65 217.109Z" fill="white"/>
<path d="M1409.86 229.784C1405.33 232.53 1399.2 232.554 1394.68 229.752C1393.61 233.783 1390.34 237.173 1386.33 238.386C1382.32 239.573 1377.73 238.544 1374.62 235.743C1371.77 233.166 1370.02 229.161 1366.43 227.819C1362.22 226.225 1357.57 229 1353.1 228.565C1350.06 228.27 1347.2 226.312 1345.83 223.587C1347.27 223.893 1348.81 223.922 1350.28 223.772C1353.77 223.413 1357.16 222.245 1360.65 222.21C1364.48 222.171 1368.28 223.508 1371.24 225.975C1373.23 227.652 1374.8 229.8 1376.83 231.433C1378.86 233.092 1381.63 234.192 1384.08 233.319C1386.38 232.496 1387.75 230.185 1389.19 228.188C1390.6 226.186 1392.63 224.162 1395.08 224.373C1396.88 224.518 1398.33 225.88 1399.86 226.882C1401.9 228.246 1404.29 229.04 1406.74 229.198C1407.81 229.259 1408.95 229.251 1409.86 229.784Z" fill="white"/>
<path d="M1324.6 182.255H721.092C721.197 181.335 721.27 180.448 721.408 179.528C722.223 173.544 723.711 167.845 725.835 162.429C738.121 130.674 771.222 109.538 808.324 110.775C822.804 78.3467 859.411 57.9899 898.885 63.3363C908.337 64.6095 917.187 67.3009 925.294 71.0543C947.986 23.1173 1002.79 -6.72535 1061.84 1.30921C1101.46 6.69198 1134.66 27.9691 1154.99 57.1389C1162.21 56.3968 1169.65 56.4661 1177.19 57.4918C1216.02 62.7657 1245.55 91.266 1251.53 125.608C1257.3 124.862 1263.28 124.829 1269.34 125.644C1272.91 126.139 1276.35 126.884 1279.68 127.873C1305.27 135.489 1323.33 157.403 1324.6 182.255Z" fill="white"/>
<path d="M811.862 132.025C826.342 99.5738 862.946 79.2301 902.439 84.5898C911.859 85.8695 920.722 88.5345 928.845 92.2945C951.531 44.3444 1006.33 14.5215 1065.39 22.5396C1104.99 27.9158 1138.2 49.1962 1158.54 78.3792C1165.74 77.6239 1173.17 77.6997 1180.72 78.7255C1219.56 83.9994 1249.08 112.496 1255.09 146.864C1260.84 146.122 1266.81 146.073 1272.89 146.897C1295.63 149.984 1313.95 163.939 1322.67 182.255H1324.61C1323.14 154.167 1300.3 129.858 1269.35 125.656C1263.28 124.832 1257.31 124.881 1251.55 125.623C1245.54 91.2556 1216.02 62.7586 1177.18 57.4847C1169.63 56.4589 1162.2 56.3831 1155 57.1384C1134.66 27.9553 1101.45 6.67825 1061.85 1.29878C1002.8 -6.7193 947.992 23.1003 925.306 71.0537C917.183 67.2904 908.323 64.6254 898.9 63.3457C859.407 57.9827 822.803 78.3297 808.323 110.781C764.885 109.337 726.965 138.546 721.401 179.53C721.279 180.441 721.196 181.344 721.107 182.251H730.016C742.77 151.327 775.321 130.808 811.862 132.025Z" fill="white"/>
<path d="M1378.53 182.589C1360.55 181.747 1342.54 181.424 1324.52 181.325C1322.84 156.859 1304.95 135.394 1279.68 127.877C1281.55 139.028 1277.02 151.173 1268.14 158.254C1258.22 166.077 1243.49 167.176 1232.55 160.873C1210.71 179.033 1175.24 177.691 1154.84 157.97C1124.93 182.328 1078.05 182.786 1047.68 158.96C1039.04 177.865 1013.73 186.962 995.036 177.902C982.75 171.919 971.529 159.207 958.323 162.571C948.055 165.157 942.356 176.592 932.55 180.521C931.475 180.953 930.406 181.276 929.341 181.517H920.089C907.107 178.904 894.521 166.477 880.932 161.687C863.442 155.563 844.503 162.608 826.306 165.972C808.11 169.336 785.131 166.467 777.591 149.547C762.013 158.646 743.853 162.964 725.832 162.433C723.707 167.849 722.22 173.548 721.405 179.531C721.306 180.178 721.247 180.811 721.181 181.447C713.945 181.622 706.721 181.939 699.531 182.539C697.546 182.704 697.592 185.88 699.574 186.048C721.534 187.889 743.791 187.044 765.813 187.061C787.934 187.077 810.056 187.061 832.177 187.061H1304.85C1329.44 187.061 1354.01 187.134 1378.57 185.986C1380.49 185.897 1380.46 182.678 1378.53 182.589Z" fill="white"/>
<path d="M774.16 81.2856C774.054 81.4274 773.912 81.5692 773.771 81.7111C763.15 92.7932 745.132 95.9794 731.394 89.1454C728.561 87.7304 725.837 85.9229 722.684 85.4282C718.258 84.7553 713.94 86.8102 709.586 87.8359C701.621 89.6764 693.052 87.6249 686.469 82.8787C682.963 80.4017 680.024 77.1793 678.042 73.3566C672.27 62.3107 674.925 47.5114 684.203 39.1932C693.441 30.8387 708.419 29.7041 718.792 36.6106C719.039 31.5115 719.606 26.2376 722.083 21.775C732.137 3.96772 772.141 26.3761 779.19 39.0513C786.551 52.2543 784.427 70.1342 774.16 81.2856Z" fill="white"/>
<path d="M779.204 39.0355C772.149 26.3636 732.135 3.96841 722.095 21.7922C719.591 26.2383 719.03 31.499 718.803 36.5981C708.42 29.7245 693.436 30.8394 684.184 39.1774C676.945 45.7013 673.815 56.1601 675.526 65.6954C676.651 59.6398 679.603 53.9272 684.184 49.7978C693.436 41.4598 708.417 40.3416 718.803 47.2185C719.03 42.1194 719.588 36.8587 722.095 32.4126C732.135 14.5888 772.149 36.984 779.204 49.6559C781.285 53.3929 782.581 57.5058 783.175 61.7276C784.267 53.9701 783.02 45.886 779.204 39.0355Z" fill="white"/>
<path d="M774.162 81.2862C774.056 81.428 773.914 81.5698 773.772 81.7116C763.152 92.7938 745.134 95.9799 731.396 89.1459C728.563 87.731 725.839 85.9235 722.686 85.4288C718.259 84.7559 713.942 86.8108 709.588 87.8365C701.623 89.6769 693.054 87.6254 686.471 82.8792C691.286 83.9776 696.385 83.8687 701.128 82.4537C709.908 79.8679 717.237 72.9317 720.318 64.3628C724.886 75.1976 734.902 83.5851 746.374 86.1709C755.787 88.262 765.982 86.3853 774.162 81.2862Z" fill="white"/>
<path d="M1279.05 106.973C1279.12 107.058 1279.21 107.147 1279.29 107.233C1285.79 114.008 1296.8 115.957 1305.2 111.778C1306.93 110.911 1308.6 109.809 1310.53 109.506C1313.23 109.093 1315.88 110.35 1318.54 110.977C1323.41 112.101 1328.65 110.848 1332.67 107.946C1334.82 106.428 1336.61 104.459 1337.83 102.121C1341.35 95.366 1339.73 86.3188 1334.06 81.2329C1328.41 76.1239 1319.25 75.4312 1312.91 79.653C1312.76 76.5362 1312.41 73.3105 1310.9 70.5828C1304.75 59.6952 1280.29 73.3962 1275.98 81.1471C1271.48 89.2246 1272.77 100.155 1279.05 106.973Z" fill="white"/>
<path d="M1275.97 81.1381C1280.28 73.3905 1304.75 59.6961 1310.89 70.5968C1312.42 73.3146 1312.76 76.5304 1312.9 79.6506C1319.25 75.4486 1328.41 76.1313 1334.07 81.2271C1338.49 85.2147 1340.41 91.6101 1339.36 97.4414C1338.67 93.7408 1336.87 90.2446 1334.07 87.7214C1328.41 82.6223 1319.25 81.9396 1312.9 86.1448C1312.76 83.028 1312.42 79.8122 1310.89 77.0911C1304.75 66.1936 1280.28 79.8881 1275.97 87.6357C1274.7 89.9214 1273.9 92.4346 1273.54 95.0172C1272.87 90.2743 1273.63 85.3302 1275.97 81.1381Z" fill="white"/>
<path d="M1279.05 106.973C1279.12 107.059 1279.21 107.148 1279.29 107.234C1285.79 114.008 1296.8 115.957 1305.2 111.779C1306.93 110.911 1308.6 109.809 1310.53 109.506C1313.23 109.094 1315.88 110.35 1318.54 110.977C1323.41 112.102 1328.65 110.848 1332.67 107.946C1329.73 108.616 1326.61 108.553 1323.71 107.685C1318.34 106.106 1313.86 101.864 1311.98 96.623C1309.19 103.246 1303.06 108.378 1296.05 109.958C1290.29 111.238 1284.05 110.093 1279.05 106.973Z" fill="white"/>
<path d="M780.001 188.73C780.001 190.072 779.544 191.345 778.76 192.589H136.2C135.545 191.935 134.923 191.316 134.337 190.597C133.552 191.316 132.7 191.97 131.819 192.589H70.7142C58.8777 189.809 50.9355 184.742 50.9355 178.925C50.9355 178.044 51.1006 177.192 51.4574 176.375C53.1584 172.224 58.9455 168.627 67.1175 166.24C70.5167 165.193 74.3433 164.409 78.4942 163.852C81.1769 163.492 83.954 163.262 86.8638 163.132C90.9498 153.194 101.542 146.131 114.001 146.131C120.997 146.131 127.406 148.353 132.406 152.047C139.074 142.207 151.008 135.603 164.675 135.406C164.675 135.111 164.643 134.816 164.643 134.524C164.643 119.256 178.407 106.898 195.406 106.898C203.711 106.898 211.196 109.84 216.724 114.613C222.705 111.214 229.736 109.218 237.322 109.218C247.522 109.218 256.741 112.814 263.639 118.601C276.095 107.452 293.259 100.553 312.253 100.553C316.404 100.553 320.461 100.945 324.384 101.568C323.827 98.3954 323.468 95.1613 323.468 91.8565C323.468 57.6913 354.299 30 392.352 30C426.812 30 455.255 52.7208 460.356 82.3431C478.044 85.7747 493.212 95.2586 502.988 108.301C509.329 106.046 516.228 104.769 523.486 104.769C538.786 104.769 552.616 110.294 562.686 119.253C569.65 113.074 579.228 109.215 589.823 109.215C608.099 109.215 623.399 120.692 627.355 136.025C632.65 136.906 637.588 138.772 641.872 141.42C647.004 132.561 657.302 126.511 669.203 126.511C685.68 126.511 699.085 138.118 699.902 152.731C700.423 152.699 700.948 152.667 701.47 152.667C714.645 152.667 725.73 160.547 729.259 171.334C729.489 171.956 729.651 172.643 729.816 173.294C732.923 172.999 736.192 172.805 739.527 172.805C761.888 172.808 780.001 179.936 780.001 188.73Z" fill="white"/>
<path d="M67.1175 172.776C70.5167 171.729 74.3433 170.945 78.4942 170.388C81.1769 170.028 83.954 169.798 86.8638 169.668C90.9498 159.731 101.542 152.667 114.001 152.667C120.997 152.667 127.406 154.89 132.406 158.584C139.074 148.743 151.008 142.139 164.675 141.942C164.675 141.647 164.643 141.352 164.643 141.06C164.643 125.792 178.407 113.434 195.406 113.434C203.711 113.434 211.196 116.376 216.724 121.149C222.705 117.75 229.736 115.754 237.322 115.754C247.522 115.754 256.741 119.351 263.639 125.138C276.095 113.988 293.259 107.09 312.253 107.09C316.404 107.09 320.461 107.482 324.384 108.104C324.004 105.928 323.768 103.708 323.624 101.471C319.933 100.916 316.142 100.551 312.253 100.551C293.259 100.551 276.095 107.449 263.639 118.599C256.741 112.812 247.522 109.215 237.322 109.215C229.736 109.215 222.708 111.208 216.724 114.61C211.199 109.837 203.711 106.895 195.406 106.895C178.405 106.895 164.643 119.253 164.643 134.522C164.643 134.816 164.675 135.111 164.675 135.403C151.008 135.597 139.077 142.204 132.406 152.045C127.406 148.351 120.997 146.128 114.001 146.128C101.545 146.128 90.9527 153.189 86.8638 163.13C83.954 163.259 81.174 163.489 78.4942 163.849C74.3433 164.406 70.5167 165.19 67.1175 166.237C58.9455 168.625 53.1584 172.219 51.4574 176.372C51.0977 177.189 50.9355 178.041 50.9355 178.923C50.9355 180.06 51.2481 181.166 51.8229 182.233C53.8512 178.371 59.3965 175.031 67.1175 172.776Z" fill="white"/>
<path d="M392.354 36.5417C426.814 36.5417 455.257 59.2626 460.357 88.8849C478.045 92.3164 493.213 101.797 502.989 114.843C509.33 112.587 516.229 111.311 523.487 111.311C538.787 111.311 552.617 116.836 562.688 125.795C569.651 119.616 579.229 115.757 589.825 115.757C608.1 115.757 623.4 127.233 627.357 142.566C632.651 143.448 637.589 145.314 641.873 147.961C647.006 139.102 657.303 133.053 669.205 133.053C685.681 133.053 699.086 144.66 699.903 159.273C700.425 159.241 700.949 159.208 701.471 159.208C714.646 159.208 725.731 167.089 729.26 177.876C729.49 178.498 729.652 179.182 729.817 179.836C732.924 179.541 736.194 179.347 739.528 179.347C758.962 179.347 775.17 184.733 779.085 191.914C779.631 190.882 780.002 189.833 780.002 188.73C780.002 179.936 761.889 172.808 739.528 172.808C736.194 172.808 732.924 173.002 729.817 173.297C729.655 172.643 729.49 171.956 729.26 171.337C725.728 160.547 714.646 152.669 701.471 152.669C700.949 152.669 700.425 152.702 699.903 152.734C699.086 138.121 685.681 126.514 669.205 126.514C657.303 126.514 647.006 132.564 641.873 141.423C637.589 138.775 632.654 136.912 627.357 136.028C623.4 120.695 608.1 109.218 589.825 109.218C579.232 109.218 569.651 113.077 562.688 119.256C552.617 110.297 538.787 104.772 523.487 104.772C516.229 104.772 509.33 106.046 502.989 108.304C493.213 95.2586 478.045 85.7776 460.357 82.3461C455.257 52.7267 426.814 30.0029 392.354 30.0029C354.3 30.0029 323.469 57.6942 323.469 91.8595C323.469 93.0151 323.563 94.1531 323.643 95.291C325.456 62.5792 355.467 36.5417 392.354 36.5417Z" fill="white"/>
<path d="M739.526 172.808C736.192 172.808 732.922 173.003 729.815 173.297C729.653 172.643 729.488 171.956 729.258 171.337C714.971 185.429 690.877 189.81 673.418 179.315C659.884 185.199 643.015 182.422 632.06 172.513C615.091 184.872 589.363 183.203 574.159 168.722C548.953 184.055 513.677 180.264 492.327 159.896C475.62 176.994 445.803 179.02 426.938 164.341C408.728 173.855 385.615 173.233 367.927 162.74C345.663 178.89 316.076 179.512 288.547 179.48C259.514 179.447 230.449 179.447 201.387 179.415C161.243 179.371 121.184 178.091 81.0641 177.578C70.9728 177.448 62.6622 178.147 53.9211 183.745C53.756 183.967 53.5733 184.173 53.4141 184.397C56.6334 187.846 62.7948 190.732 70.7134 192.593H131.818C132.7 191.971 133.552 191.319 134.336 190.6C134.925 191.319 135.545 191.941 136.199 192.593H778.759C779.543 191.352 780 190.075 780 188.734C780 179.936 761.887 172.808 739.526 172.808Z" fill="white"/>
<path d="M134.367 136.226C133.385 137.6 131.457 137.794 129.756 137.762C127.534 137.729 125.278 137.499 123.088 137.075C121.682 136.813 120.048 136.291 119.621 134.917C119.423 134.263 119.556 133.576 119.916 132.989C120.143 132.532 120.538 132.14 120.962 131.845C121.944 131.191 123.185 130.996 124.361 130.799L126.617 130.014C128.677 129.949 130.9 129.917 132.699 130.964C133.321 131.323 133.875 131.913 134.267 132.532C134.986 133.676 135.184 135.114 134.367 136.226Z" fill="white"/>
<path d="M134.367 136.226C133.385 137.6 131.457 137.795 129.756 137.762C127.534 137.73 125.278 137.5 123.088 137.075C121.682 136.813 120.048 136.291 119.621 134.917C119.423 134.263 119.556 133.576 119.916 132.989C121.811 134.82 124.426 135.866 127.077 135.834C129.789 135.769 132.472 134.525 134.27 132.532C134.986 133.676 135.184 135.115 134.367 136.226Z" fill="white"/>
<path d="M160.184 129.686C158.58 131.06 155.429 131.255 152.649 131.222C149.017 131.19 145.329 130.96 141.75 130.535C139.453 130.273 136.779 129.751 136.087 128.377C135.765 127.723 135.98 127.036 136.567 126.449C136.942 125.992 137.581 125.6 138.277 125.305C139.881 124.651 141.912 124.456 143.834 124.259L147.522 123.475C150.889 123.41 154.521 123.377 157.46 124.424C158.474 124.784 159.385 125.373 160.025 125.992C161.198 127.136 161.52 128.575 160.184 129.686Z" fill="white"/>
<path d="M160.184 129.687C158.58 131.06 155.429 131.255 152.649 131.223C149.017 131.19 145.329 130.96 141.75 130.536C139.453 130.273 136.779 129.751 136.087 128.378C135.765 127.723 135.98 127.036 136.567 126.45C139.666 128.28 143.94 129.327 148.268 129.295C152.705 129.23 157.086 127.986 160.022 125.993C161.198 127.137 161.52 128.575 160.184 129.687Z" fill="white"/>
<path d="M729.049 146.033C727.446 147.407 724.294 147.601 721.514 147.569C717.882 147.536 714.194 147.307 710.615 146.882C708.319 146.62 705.648 146.098 704.952 144.724C704.63 144.07 704.846 143.383 705.432 142.796C705.804 142.339 706.447 141.947 707.142 141.652C708.746 140.998 710.777 140.803 712.699 140.606L716.384 139.821C719.751 139.757 723.386 139.724 726.322 140.771C727.337 141.13 728.248 141.72 728.887 142.339C730.064 143.483 730.385 144.922 729.049 146.033Z" fill="white"/>
<path d="M729.049 146.034C727.446 147.408 724.294 147.602 721.514 147.57C717.882 147.537 714.194 147.307 710.615 146.883C708.319 146.62 705.648 146.099 704.952 144.725C704.63 144.07 704.846 143.383 705.432 142.797C708.531 144.628 712.806 145.674 717.133 145.642C721.57 145.577 725.951 144.333 728.887 142.34C730.064 143.484 730.385 144.922 729.049 146.034Z" fill="white"/>
<path d="M282.489 203.958C281.446 205.128 279.394 205.293 277.587 205.267C275.222 205.24 272.822 205.042 270.494 204.683C268.999 204.459 267.259 204.014 266.808 202.843C266.599 202.286 266.738 201.702 267.121 201.201C267.363 200.812 267.781 200.476 268.232 200.225C269.276 199.668 270.597 199.5 271.85 199.335L274.249 198.666C276.44 198.61 278.804 198.583 280.717 199.474C281.378 199.78 281.97 200.281 282.386 200.812C283.15 201.785 283.359 203.011 282.489 203.958Z" fill="white"/>
<path d="M282.489 203.957C281.446 205.127 279.394 205.293 277.587 205.266C275.222 205.239 272.822 205.042 270.494 204.682C268.999 204.458 267.259 204.013 266.808 202.843C266.599 202.286 266.738 201.702 267.121 201.201C269.137 202.76 271.92 203.651 274.736 203.624C277.622 203.568 280.473 202.51 282.386 200.812C283.15 201.784 283.359 203.011 282.489 203.957Z" fill="white"/>
<path d="M262.31 207.418C260.223 209.349 256.119 209.627 252.502 209.579C247.773 209.532 242.973 209.211 238.315 208.612C235.326 208.244 231.847 207.51 230.942 205.576C230.524 204.656 230.804 203.689 231.57 202.861C232.057 202.218 232.891 201.667 233.796 201.251C235.883 200.331 238.528 200.054 241.031 199.78L245.83 198.677C250.214 198.586 254.943 198.539 258.766 200.01C260.087 200.517 261.272 201.345 262.103 202.218C263.631 203.831 264.049 205.856 262.31 207.418Z" fill="white"/>
<path d="M262.31 207.418C260.223 209.349 256.119 209.626 252.502 209.579C247.773 209.532 242.973 209.211 238.315 208.612C235.326 208.244 231.847 207.51 230.942 205.576C230.524 204.656 230.804 203.689 231.57 202.861C235.603 205.437 241.166 206.908 246.8 206.861C252.572 206.77 258.274 205.021 262.101 202.215C263.631 203.83 264.049 205.856 262.31 207.418Z" fill="white"/>
<path d="M69.929 152.9C67.2817 155.647 63.0305 155.939 59.2039 156.04C42.9217 156.529 26.607 157.021 10.3277 157.478C7.84252 157.575 5.26001 157.608 3.06958 156.496C1.56606 155.712 0.324922 154.209 0.0625436 152.605C-0.0671718 151.886 -0.00231767 151.134 0.324919 150.447C1.17397 148.584 3.39682 147.832 5.39267 147.275C12.2263 145.477 19.2221 144.333 26.2827 143.908C29.2574 143.714 32.232 143.646 35.2095 143.714C31.3181 143.649 39.1983 133.578 40.3746 132.956C42.4353 131.877 45.3126 131.388 48.2223 131.323C50.7724 131.258 53.2901 131.517 55.2505 131.977C58.1279 132.664 62.2139 134.657 65.6809 137.34C71.1702 141.556 75.0941 147.57 69.929 152.9Z" fill="white"/>
<path d="M69.929 152.9C67.2816 155.648 63.0305 155.94 59.2039 156.04C42.9216 156.529 26.607 157.022 10.3277 157.479C7.84248 157.576 5.25996 157.608 3.06954 156.497C1.56602 155.713 0.324879 154.209 0.0625 152.606C1.59845 153.095 3.26706 153.357 4.83544 153.522C19.3193 154.896 33.933 154.112 48.352 152.213C53.1898 151.591 58.4551 150.577 61.527 146.786C63.6201 144.171 64.2392 140.704 65.5481 137.6C65.5806 137.502 65.613 137.435 65.6778 137.337C71.1701 141.556 75.094 147.57 69.929 152.9Z" fill="white"/>
<path d="M48.2189 131.323C48.0214 131.356 47.8592 131.453 47.6971 131.553C45.2443 132.895 43.2514 135.02 42.0073 137.502C41.4177 138.614 41.0256 139.858 41.0256 141.132C41.0256 142.34 41.4177 143.682 40.7632 144.728C40.0439 145.937 38.3428 146.102 36.9366 146.037C33.3075 145.875 29.6784 145.156 26.2793 143.912C29.2539 143.717 32.2285 143.649 35.2061 143.717C31.3146 143.652 39.1948 133.582 40.3711 132.959C42.4318 131.878 45.3091 131.388 48.2189 131.323Z" fill="white"/>
<path d="M270.212 106.113C267.269 107.749 263.183 107.682 259.946 107.062C258.051 106.703 249.584 100.721 249.584 100.686C242.75 102.322 235.819 103.433 228.824 104.02C227.288 104.15 225.719 104.218 224.281 103.628C222.874 103.071 221.698 101.567 221.993 100.064C222.058 99.704 222.223 99.3768 222.417 99.0495C222.842 98.3951 223.529 97.8408 224.216 97.4487C224.608 97.2188 225 97.0242 225.424 96.8591C229.151 95.1256 233.532 95.3556 237.686 95.2229C242.296 95.0608 247.429 94.144 250.109 90.3852C251.385 88.6193 252.105 86.2343 254.097 85.3823C256.191 84.4684 258.576 85.742 260.374 87.1482C262.14 88.5544 264.003 90.2554 266.291 90.3203C266.518 90.3203 266.715 90.3203 266.913 90.2879C268.646 90.0904 270.279 89.144 272.013 89.144C274.595 89.1116 276.099 89.9606 276.753 91.302C279.038 95.391 273.906 104.088 270.212 106.113Z" fill="white"/>
<path d="M270.212 106.114C267.269 107.75 263.183 107.682 259.946 107.063C258.051 106.703 249.584 100.722 249.584 100.686C242.75 102.322 235.819 103.434 228.824 104.02C227.288 104.15 225.719 104.218 224.281 103.628C222.874 103.071 221.698 101.568 221.993 100.064C222.058 99.7044 222.223 99.3772 222.417 99.05C231.442 102.484 242.099 101.6 250.371 96.5323C251.32 95.9427 252.659 95.356 253.411 96.1402C253.77 96.5323 253.868 97.0895 254 97.5789C254.622 100.259 256.845 102.484 259.492 103.104C262.172 103.726 265.147 102.712 266.88 100.618C268.646 98.4928 269.136 95.5182 270.966 93.4575C272.405 91.8567 274.628 90.9723 276.753 91.2995C279.038 95.3914 273.906 104.088 270.212 106.114Z" fill="white"/>
<path d="M266.91 90.2908C266.453 90.7153 265.864 91.0426 265.242 91.2402C263.641 91.7296 261.875 91.3374 260.339 90.6829C258.605 89.9311 256.84 88.8197 254.976 89.2118C253.34 89.5391 252.232 90.9778 250.988 92.0892C246.999 95.7507 241.277 96.5673 235.917 97.2218C232.418 97.6463 228.724 98.0384 225.422 96.8621C229.148 95.1286 233.529 95.3586 237.683 95.2259C242.294 95.0638 247.426 94.147 250.106 90.3882C251.383 88.6223 252.102 86.2372 254.095 85.3852C256.188 84.4713 258.573 85.7449 260.371 87.1511C262.137 88.5573 264 90.2584 266.288 90.3233C266.515 90.3233 266.713 90.3233 266.91 90.2908Z" fill="white"/>
<path d="M699.576 114.254C687.969 118.012 674.959 117.328 663.81 112.293C660.54 110.822 657.271 108.959 653.706 108.894C647.07 108.699 640.629 114.616 634.45 112.196C630.885 110.79 628.76 106.506 629.806 102.812C630.231 101.309 631.148 100.032 632.356 99.0857C634.122 97.6471 636.475 96.9277 638.698 97.3198C637.849 92.3848 640.334 88.4609 644.355 85.7457C652.168 80.3507 665.77 79.5017 671.654 84.4044C676.132 88.1307 677.963 94.8022 676.003 100.294C683.391 98.3664 691.303 98.4962 698.662 100.654C698.662 100.654 698.662 100.654 698.694 100.654C699.478 100.884 700.23 101.144 700.985 101.406C702.978 102.125 705.071 103.172 706.117 104.905C706.412 105.33 706.61 105.787 706.739 106.312C707.618 110.135 703.302 113.045 699.576 114.254Z" fill="white"/>
<path d="M699.576 114.254C687.969 118.013 674.959 117.329 663.81 112.293C660.54 110.822 657.271 108.959 653.706 108.894C647.07 108.7 640.629 114.616 634.45 112.196C630.885 110.79 628.76 106.506 629.806 102.812C630.231 101.309 631.148 100.032 632.356 99.0859C632.551 99.2157 632.749 99.3483 632.946 99.5429C634.155 100.719 634.647 102.42 635.299 103.989C635.953 105.557 636.932 107.193 638.536 107.715C640.531 108.369 642.557 107.093 644.42 106.147C649.225 103.597 654.815 102.647 660.177 103.399C665.67 104.216 670.738 106.733 675.903 108.697C681.1 110.69 686.79 112.164 692.152 110.79C695.162 110.006 697.875 108.369 700.655 106.966C702.388 106.117 704.219 105.333 706.114 104.905C706.409 105.33 706.607 105.787 706.736 106.312C707.618 110.135 703.302 113.045 699.576 114.254Z" fill="white"/>
<path d="M698.658 100.654C697.547 100.949 696.335 101.014 695.224 101.046C689.207 101.144 683.16 101.276 677.143 101.373C676.359 101.406 675.542 101.406 674.823 101.079C673.417 100.392 672.96 98.5934 673.089 97.025C673.187 95.4891 673.676 93.9532 673.546 92.3818C673.284 89.1773 670.342 86.8247 667.335 85.7133C660.077 83.0984 652.034 85.7133 644.352 85.7457C652.164 80.3507 665.766 79.5017 671.651 84.4044C676.129 88.1307 677.96 94.8022 675.999 100.294C683.39 98.3664 691.303 98.4962 698.658 100.654Z" fill="white"/>
<rect y="161" width="1973" height="78" fill="white"/>
</svg>
