<svg width="1985" height="189" viewBox="0 0 1985 189" fill="none" xmlns="http://www.w3.org/2000/svg">
<path d="M780.001 183.73C780.001 185.072 779.544 186.345 778.76 187.589H136.2C135.545 186.935 134.923 186.316 134.337 185.597C133.552 186.316 132.7 186.97 131.819 187.589H70.7142C58.8777 184.809 50.9355 179.742 50.9355 173.925C50.9355 173.044 51.1006 172.192 51.4574 171.375C53.1584 167.224 58.9455 163.627 67.1175 161.24C70.5167 160.193 74.3433 159.409 78.4942 158.852C81.1769 158.492 83.954 158.262 86.8638 158.132C90.9498 148.194 101.542 141.131 114.001 141.131C120.997 141.131 127.406 143.353 132.406 147.047C139.074 137.207 151.008 130.603 164.675 130.406C164.675 130.111 164.643 129.816 164.643 129.524C164.643 114.256 178.407 101.898 195.406 101.898C203.711 101.898 211.196 104.84 216.724 109.613C222.705 106.214 229.736 104.218 237.322 104.218C247.522 104.218 256.741 107.814 263.639 113.601C276.095 102.452 293.259 95.5534 312.253 95.5534C316.404 95.5534 320.461 95.9455 324.384 96.5675C323.827 93.3954 323.468 90.1613 323.468 86.8565C323.468 52.6913 354.299 25 392.352 25C426.812 25 455.255 47.7208 460.356 77.3431C478.044 80.7747 493.212 90.2586 502.988 103.301C509.329 101.046 516.228 99.7691 523.486 99.7691C538.786 99.7691 552.616 105.294 562.686 114.253C569.65 108.074 579.228 104.215 589.823 104.215C608.099 104.215 623.399 115.692 627.355 131.025C632.65 131.906 637.588 133.772 641.872 136.42C647.004 127.561 657.302 121.511 669.203 121.511C685.68 121.511 699.085 133.118 699.902 147.731C700.423 147.699 700.948 147.667 701.47 147.667C714.645 147.667 725.73 155.547 729.259 166.334C729.489 166.956 729.651 167.643 729.816 168.294C732.923 167.999 736.192 167.805 739.527 167.805C761.888 167.808 780.001 174.936 780.001 183.73Z" fill="white"/>
<path d="M67.1175 167.776C70.5167 166.729 74.3433 165.945 78.4942 165.388C81.1769 165.028 83.954 164.798 86.8638 164.668C90.9498 154.731 101.542 147.667 114.001 147.667C120.997 147.667 127.406 149.89 132.406 153.584C139.074 143.743 151.008 137.139 164.675 136.942C164.675 136.647 164.643 136.352 164.643 136.06C164.643 120.792 178.407 108.434 195.406 108.434C203.711 108.434 211.196 111.376 216.724 116.149C222.705 112.75 229.736 110.754 237.322 110.754C247.522 110.754 256.741 114.351 263.639 120.138C276.095 108.988 293.259 102.09 312.253 102.09C316.404 102.09 320.461 102.482 324.384 103.104C324.004 100.928 323.768 98.7082 323.624 96.4706C319.933 95.9164 316.142 95.5508 312.253 95.5508C293.259 95.5508 276.095 102.449 263.639 113.599C256.741 107.812 247.522 104.215 237.322 104.215C229.736 104.215 222.708 106.208 216.724 109.61C211.199 104.837 203.711 101.895 195.406 101.895C178.405 101.895 164.643 114.253 164.643 129.522C164.643 129.816 164.675 130.111 164.675 130.403C151.008 130.597 139.077 137.204 132.406 147.045C127.406 143.351 120.997 141.128 114.001 141.128C101.545 141.128 90.9527 148.189 86.8638 158.13C83.954 158.259 81.174 158.489 78.4942 158.849C74.3433 159.406 70.5167 160.19 67.1175 161.237C58.9455 163.625 53.1584 167.219 51.4574 171.372C51.0977 172.189 50.9355 173.041 50.9355 173.923C50.9355 175.06 51.2481 176.166 51.8229 177.233C53.8512 173.371 59.3965 170.031 67.1175 167.776Z" fill="white"/>
<path d="M392.354 31.5417C426.814 31.5417 455.257 54.2626 460.357 83.8849C478.045 87.3164 493.213 96.7974 502.989 109.843C509.33 107.587 516.229 106.311 523.487 106.311C538.787 106.311 552.617 111.836 562.688 120.795C569.651 114.616 579.229 110.757 589.825 110.757C608.1 110.757 623.4 122.233 627.357 137.566C632.651 138.448 637.589 140.314 641.873 142.961C647.006 134.102 657.303 128.053 669.205 128.053C685.681 128.053 699.086 139.66 699.903 154.273C700.425 154.241 700.949 154.208 701.471 154.208C714.646 154.208 725.731 162.089 729.26 172.876C729.49 173.498 729.652 174.182 729.817 174.836C732.924 174.541 736.194 174.347 739.528 174.347C758.962 174.347 775.17 179.733 779.085 186.914C779.631 185.882 780.002 184.833 780.002 183.73C780.002 174.936 761.889 167.808 739.528 167.808C736.194 167.808 732.924 168.002 729.817 168.297C729.655 167.643 729.49 166.956 729.26 166.337C725.728 155.547 714.646 147.669 701.471 147.669C700.949 147.669 700.425 147.702 699.903 147.734C699.086 133.121 685.681 121.514 669.205 121.514C657.303 121.514 647.006 127.564 641.873 136.423C637.589 133.775 632.654 131.912 627.357 131.028C623.4 115.695 608.1 104.218 589.825 104.218C579.232 104.218 569.651 108.077 562.688 114.256C552.617 105.297 538.787 99.7721 523.487 99.7721C516.229 99.7721 509.33 101.046 502.989 103.304C493.213 90.2586 478.045 80.7776 460.357 77.3461C455.257 47.7267 426.814 25.0029 392.354 25.0029C354.3 25.0029 323.469 52.6942 323.469 86.8595C323.469 88.0151 323.563 89.1531 323.643 90.291C325.456 57.5792 355.467 31.5417 392.354 31.5417Z" fill="white"/>
<path d="M739.526 167.808C736.192 167.808 732.922 168.003 729.815 168.297C729.653 167.643 729.488 166.956 729.258 166.337C714.971 180.429 690.877 184.81 673.418 174.315C659.884 180.199 643.015 177.422 632.06 167.513C615.091 179.872 589.363 178.203 574.159 163.722C548.953 179.055 513.677 175.264 492.327 154.896C475.62 171.994 445.803 174.02 426.938 159.341C408.728 168.855 385.615 168.233 367.927 157.74C345.663 173.89 316.076 174.512 288.547 174.48C259.514 174.447 230.449 174.447 201.387 174.415C161.243 174.371 121.184 173.091 81.0641 172.578C70.9728 172.448 62.6622 173.147 53.9211 178.745C53.756 178.967 53.5733 179.173 53.4141 179.397C56.6334 182.846 62.7948 185.732 70.7134 187.593H131.818C132.7 186.971 133.552 186.319 134.336 185.6C134.925 186.319 135.545 186.941 136.199 187.593H778.759C779.543 186.352 780 185.075 780 183.734C780 174.936 761.887 167.808 739.526 167.808Z" fill="white"/>
<path d="M134.367 131.226C133.385 132.6 131.457 132.794 129.756 132.762C127.534 132.729 125.278 132.499 123.088 132.075C121.682 131.813 120.048 131.291 119.621 129.917C119.423 129.263 119.556 128.576 119.916 127.989C120.143 127.532 120.538 127.14 120.962 126.845C121.944 126.191 123.185 125.996 124.361 125.799L126.617 125.014C128.677 124.949 130.9 124.917 132.699 125.964C133.321 126.323 133.875 126.913 134.267 127.532C134.986 128.676 135.184 130.114 134.367 131.226Z" fill="white"/>
<path d="M134.367 131.226C133.385 132.6 131.457 132.795 129.756 132.762C127.534 132.73 125.278 132.5 123.088 132.075C121.682 131.813 120.048 131.291 119.621 129.917C119.423 129.263 119.556 128.576 119.916 127.989C121.811 129.82 124.426 130.866 127.077 130.834C129.789 130.769 132.472 129.525 134.27 127.532C134.986 128.676 135.184 130.115 134.367 131.226Z" fill="white"/>
<path d="M160.184 124.686C158.58 126.06 155.429 126.254 152.649 126.222C149.017 126.189 145.329 125.959 141.75 125.535C139.453 125.272 136.779 124.751 136.087 123.377C135.765 122.722 135.98 122.036 136.567 121.449C136.942 120.992 137.581 120.6 138.277 120.305C139.881 119.651 141.912 119.456 143.834 119.258L147.522 118.474C150.889 118.409 154.521 118.377 157.46 119.423C158.474 119.783 159.385 120.373 160.025 120.992C161.198 122.136 161.52 123.574 160.184 124.686Z" fill="white"/>
<path d="M160.184 124.686C158.58 126.06 155.429 126.254 152.649 126.222C149.017 126.19 145.329 125.96 141.75 125.535C139.453 125.273 136.779 124.751 136.087 123.377C135.765 122.723 135.98 122.036 136.567 121.449C139.666 123.28 143.94 124.326 148.268 124.294C152.705 124.229 157.086 122.985 160.022 120.992C161.198 122.136 161.52 123.575 160.184 124.686Z" fill="white"/>
<path d="M729.049 141.033C727.446 142.407 724.294 142.602 721.514 142.569C717.882 142.537 714.194 142.307 710.615 141.882C708.319 141.62 705.648 141.098 704.952 139.725C704.63 139.07 704.846 138.383 705.432 137.796C705.804 137.339 706.447 136.947 707.142 136.653C708.746 135.998 710.777 135.804 712.699 135.606L716.384 134.822C719.751 134.757 723.386 134.725 726.322 135.771C727.337 136.131 728.248 136.72 728.887 137.339C730.064 138.483 730.385 139.922 729.049 141.033Z" fill="white"/>
<path d="M729.049 141.034C727.446 142.408 724.294 142.602 721.514 142.57C717.882 142.537 714.194 142.307 710.615 141.883C708.319 141.62 705.648 141.099 704.952 139.725C704.63 139.07 704.846 138.383 705.432 137.797C708.531 139.628 712.806 140.674 717.133 140.642C721.57 140.577 725.951 139.333 728.887 137.34C730.064 138.484 730.385 139.922 729.049 141.034Z" fill="white"/>
<path d="M69.929 147.899C67.2817 150.647 63.0305 150.939 59.2039 151.039C42.9217 151.528 26.607 152.021 10.3277 152.478C7.84252 152.575 5.26001 152.607 3.06958 151.496C1.56606 150.712 0.324922 149.208 0.0625436 147.605C-0.0671718 146.885 -0.00231767 146.133 0.324919 145.447C1.17397 143.583 3.39682 142.832 5.39267 142.274C12.2263 140.476 19.2221 139.332 26.2827 138.908C29.2574 138.713 32.232 138.645 35.2095 138.713C31.3181 138.648 39.1983 128.578 40.3746 127.956C42.4353 126.877 45.3126 126.387 48.2223 126.322C50.7724 126.257 53.2901 126.517 55.2505 126.977C58.1279 127.664 62.2139 129.657 65.6809 132.339C71.1702 136.555 75.0941 142.569 69.929 147.899Z" fill="white"/>
<path d="M69.929 147.9C67.2816 150.647 63.0305 150.939 59.2039 151.039C42.9216 151.529 26.607 152.021 10.3277 152.478C7.84248 152.575 5.25996 152.608 3.06954 151.496C1.56602 150.712 0.324879 149.209 0.0625 147.605C1.59845 148.094 3.26706 148.357 4.83544 148.522C19.3193 149.896 33.933 149.111 48.352 147.213C53.1898 146.591 58.4551 145.577 61.527 141.786C63.6201 139.171 64.2392 135.704 65.5481 132.599C65.5806 132.502 65.613 132.434 65.6778 132.337C71.1701 136.556 75.094 142.57 69.929 147.9Z" fill="white"/>
<path d="M48.2189 126.322C48.0214 126.355 47.8592 126.452 47.6971 126.552C45.2443 127.894 43.2514 130.019 42.0073 132.501C41.4177 133.613 41.0256 134.857 41.0256 136.131C41.0256 137.339 41.4177 138.681 40.7632 139.727C40.0439 140.936 38.3428 141.101 36.9366 141.036C33.3075 140.874 29.6784 140.155 26.2793 138.911C29.2539 138.716 32.2285 138.648 35.2061 138.716C31.3146 138.651 39.1948 128.581 40.3711 127.959C42.4318 126.877 45.3091 126.387 48.2189 126.322Z" fill="white"/>
<path d="M270.212 101.114C267.269 102.75 263.183 102.682 259.946 102.063C258.051 101.703 249.584 95.7216 249.584 95.6862C242.75 97.3224 235.819 98.4338 228.824 99.0205C227.288 99.1502 225.719 99.218 224.281 98.6284C222.874 98.0712 221.698 96.5677 221.993 95.0641C222.058 94.7045 222.223 94.3773 222.417 94.05C222.842 93.3956 223.529 92.8413 224.216 92.4492C224.608 92.2193 225 92.0247 225.424 91.8596C229.151 90.1261 233.532 90.3561 237.686 90.2234C242.296 90.0613 247.429 89.1444 250.109 85.3856C251.385 83.6197 252.105 81.2348 254.097 80.3828C256.191 79.4689 258.576 80.7424 260.374 82.1487C262.14 83.5549 264.003 85.2559 266.291 85.3208C266.518 85.3208 266.715 85.3208 266.913 85.2884C268.646 85.0909 270.279 84.1445 272.013 84.1445C274.595 84.1121 276.099 84.9611 276.753 86.3025C279.038 90.3915 273.906 99.0883 270.212 101.114Z" fill="white"/>
<path d="M270.212 101.114C267.269 102.75 263.183 102.682 259.946 102.063C258.051 101.704 249.584 95.722 249.584 95.6866C242.75 97.3228 235.819 98.4343 228.824 99.0209C227.288 99.1507 225.719 99.2185 224.281 98.6289C222.874 98.0717 221.698 96.5681 221.993 95.0646C222.058 94.7049 222.223 94.3777 222.417 94.0505C231.442 97.485 242.099 96.6005 250.371 91.5328C251.32 90.9432 252.659 90.3565 253.411 91.1407C253.77 91.5328 253.868 92.09 254 92.5794C254.622 95.2592 256.845 97.485 259.492 98.1041C262.172 98.7261 265.147 97.712 266.88 95.6189C268.646 93.4933 269.136 90.5187 270.966 88.458C272.405 86.8571 274.628 85.9727 276.753 86.3C279.038 90.3919 273.906 99.0887 270.212 101.114Z" fill="white"/>
<path d="M266.91 85.2913C266.453 85.7158 265.864 86.0431 265.242 86.2407C263.641 86.73 261.875 86.3379 260.339 85.6834C258.605 84.9316 256.84 83.8202 254.976 84.2123C253.34 84.5396 252.232 85.9783 250.988 87.0897C246.999 90.7512 241.277 91.5678 235.917 92.2223C232.418 92.6468 228.724 93.0389 225.422 91.8626C229.148 90.1291 233.529 90.3591 237.683 90.2264C242.294 90.0643 247.426 89.1475 250.106 85.3887C251.383 83.6228 252.102 81.2377 254.095 80.3857C256.188 79.4718 258.573 80.7454 260.371 82.1516C262.137 83.5578 264 85.2589 266.288 85.3238C266.515 85.3238 266.713 85.3237 266.91 85.2913Z" fill="white"/>
<path d="M699.576 109.254C687.969 113.012 674.959 112.328 663.81 107.293C660.54 105.822 657.271 103.959 653.706 103.894C647.07 103.699 640.629 109.616 634.45 107.196C630.885 105.79 628.76 101.506 629.806 97.8121C630.231 96.3086 631.148 95.0321 632.356 94.0857C634.122 92.6471 636.475 91.9277 638.698 92.3198C637.849 87.3848 640.334 83.4609 644.355 80.7457C652.168 75.3507 665.77 74.5017 671.654 79.4044C676.132 83.1307 677.963 89.8022 676.003 95.2945C683.391 93.3664 691.303 93.4962 698.662 95.6541C698.662 95.6541 698.662 95.6541 698.694 95.6541C699.478 95.8841 700.23 96.1435 700.985 96.4059C702.978 97.1253 705.071 98.1718 706.117 99.9052C706.412 100.33 706.61 100.787 706.739 101.312C707.618 105.135 703.302 108.045 699.576 109.254Z" fill="white"/>
<path d="M699.576 109.254C687.969 113.013 674.959 112.329 663.81 107.293C660.54 105.822 657.271 103.959 653.706 103.894C647.07 103.7 640.629 109.616 634.45 107.196C630.885 105.79 628.76 101.506 629.806 97.8123C630.231 96.3088 631.148 95.0323 632.356 94.0859C632.551 94.2157 632.749 94.3483 632.946 94.5429C634.155 95.7192 634.647 97.4202 635.299 98.9886C635.953 100.557 636.932 102.193 638.536 102.715C640.531 103.369 642.557 102.093 644.42 101.147C649.225 98.5966 654.815 97.6473 660.177 98.399C665.67 99.2156 670.738 101.733 675.903 103.697C681.1 105.69 686.79 107.164 692.152 105.79C695.162 105.006 697.875 103.369 700.655 101.966C702.388 101.117 704.219 100.333 706.114 99.9054C706.409 100.33 706.607 100.787 706.736 101.312C707.618 105.135 703.302 108.045 699.576 109.254Z" fill="white"/>
<path d="M698.658 95.6541C697.547 95.949 696.335 96.0138 695.224 96.0462C689.207 96.1435 683.16 96.2762 677.143 96.3734C676.359 96.4059 675.542 96.4059 674.823 96.0786C673.417 95.3917 672.96 93.5934 673.089 92.025C673.187 90.4891 673.676 88.9532 673.546 87.3818C673.284 84.1773 670.342 81.8247 667.335 80.7133C660.077 78.0984 652.034 80.7133 644.352 80.7457C652.164 75.3507 665.766 74.5017 671.651 79.4044C676.129 83.1307 677.96 89.8022 675.999 95.2945C683.39 93.3664 691.303 93.4962 698.658 95.6541Z" fill="white"/>
<path d="M1325.6 182.256H722.092C722.197 181.335 722.27 180.448 722.408 179.528C723.223 173.545 724.711 167.846 726.835 162.43C739.121 130.674 772.222 109.539 809.324 110.776C823.804 78.3472 860.411 57.9903 899.885 63.3368C909.337 64.61 918.187 67.3013 926.294 71.0548C948.986 23.1178 1003.79 -6.72486 1062.84 1.3097C1102.46 6.69247 1135.66 27.9696 1155.99 57.1394C1163.21 56.3973 1170.65 56.4666 1178.19 57.4923C1217.02 62.7662 1246.55 91.2665 1252.53 125.608C1258.3 124.863 1264.28 124.83 1270.34 125.644C1273.91 126.139 1277.35 126.884 1280.68 127.874C1306.27 135.49 1324.33 157.403 1325.6 182.256Z" fill="white"/>
<path d="M812.862 132.025C827.342 99.5738 863.946 79.2301 903.439 84.5898C912.859 85.8695 921.722 88.5345 929.845 92.2945C952.531 44.3444 1007.33 14.5215 1066.39 22.5396C1105.99 27.9158 1139.2 49.1962 1159.54 78.3792C1166.74 77.6239 1174.17 77.6997 1181.72 78.7255C1220.56 83.9994 1250.08 112.496 1256.09 146.864C1261.84 146.122 1267.81 146.073 1273.89 146.897C1296.63 149.984 1314.95 163.939 1323.67 182.255H1325.61C1324.14 154.167 1301.3 129.858 1270.35 125.656C1264.28 124.832 1258.31 124.881 1252.55 125.623C1246.54 91.2556 1217.02 62.7586 1178.18 57.4847C1170.63 56.4589 1163.2 56.3831 1156 57.1384C1135.66 27.9553 1102.45 6.67825 1062.85 1.29878C1003.8 -6.7193 948.992 23.1003 926.306 71.0537C918.183 67.2904 909.323 64.6254 899.9 63.3457C860.407 57.9827 823.803 78.3297 809.323 110.781C765.885 109.337 727.965 138.546 722.401 179.53C722.279 180.441 722.196 181.344 722.107 182.251H731.016C743.77 151.327 776.321 130.808 812.862 132.025Z" fill="white"/>
<path d="M1379.53 182.589C1361.55 181.747 1343.54 181.424 1325.52 181.325C1323.84 156.859 1305.95 135.394 1280.68 127.877C1282.55 139.028 1278.02 151.173 1269.14 158.254C1259.22 166.077 1244.49 167.176 1233.55 160.873C1211.71 179.033 1176.24 177.691 1155.84 157.97C1125.93 182.328 1079.05 182.786 1048.68 158.96C1040.04 177.865 1014.73 186.962 996.036 177.902C983.75 171.919 972.529 159.207 959.323 162.571C949.055 165.157 943.356 176.592 933.55 180.521C932.475 180.953 931.406 181.276 930.341 181.517H921.089C908.107 178.904 895.521 166.477 881.932 161.687C864.442 155.563 845.503 162.608 827.306 165.972C809.11 169.336 786.131 166.467 778.591 149.547C763.013 158.646 744.853 162.964 726.832 162.433C724.707 167.849 723.22 173.548 722.405 179.531C722.306 180.178 722.247 180.811 722.181 181.447C714.945 181.622 707.721 181.939 700.531 182.539C698.546 182.704 698.592 185.88 700.574 186.048C722.534 187.889 744.791 187.044 766.813 187.061C788.934 187.077 811.056 187.061 833.177 187.061H1305.85C1330.44 187.061 1355.01 187.134 1379.57 185.986C1381.49 185.897 1381.46 182.678 1379.53 182.589Z" fill="white"/>
<path d="M775.16 81.2856C775.054 81.4274 774.912 81.5692 774.771 81.7111C764.15 92.7932 746.132 95.9794 732.394 89.1454C729.561 87.7304 726.837 85.9229 723.684 85.4282C719.258 84.7553 714.94 86.8102 710.586 87.8359C702.621 89.6764 694.052 87.6249 687.469 82.8787C683.963 80.4017 681.024 77.1793 679.042 73.3566C673.27 62.3107 675.925 47.5114 685.203 39.1932C694.441 30.8387 709.419 29.7041 719.792 36.6106C720.039 31.5115 720.606 26.2376 723.083 21.775C733.137 3.96772 773.141 26.3761 780.19 39.0513C787.551 52.2543 785.427 70.1342 775.16 81.2856Z" fill="white"/>
<path d="M780.204 39.0355C773.149 26.3636 733.135 3.96841 723.095 21.7922C720.591 26.2383 720.03 31.499 719.803 36.5981C709.42 29.7245 694.436 30.8394 685.184 39.1774C677.945 45.7013 674.815 56.1601 676.526 65.6954C677.651 59.6398 680.603 53.9272 685.184 49.7978C694.436 41.4598 709.417 40.3416 719.803 47.2185C720.03 42.1194 720.588 36.8587 723.095 32.4126C733.135 14.5888 773.149 36.984 780.204 49.6559C782.285 53.3929 783.581 57.5058 784.175 61.7276C785.267 53.9701 784.02 45.886 780.204 39.0355Z" fill="white"/>
<path d="M775.162 81.2867C775.056 81.4285 774.914 81.5703 774.772 81.7121C764.152 92.7943 746.134 95.9804 732.396 89.1464C729.563 87.7315 726.839 85.924 723.686 85.4293C719.259 84.7564 714.942 86.8112 710.588 87.837C702.623 89.6774 694.054 87.6259 687.471 82.8797C692.286 83.978 697.385 83.8692 702.128 82.4542C710.908 79.8684 718.237 72.9322 721.318 64.3633C725.886 75.1981 735.902 83.5856 747.374 86.1714C756.787 88.2625 766.982 86.3858 775.162 81.2867Z" fill="white"/>
<path d="M1280.05 106.973C1280.12 107.058 1280.21 107.147 1280.29 107.233C1286.79 114.008 1297.8 115.957 1306.2 111.778C1307.93 110.911 1309.6 109.809 1311.53 109.506C1314.23 109.093 1316.88 110.35 1319.54 110.977C1324.41 112.101 1329.65 110.848 1333.67 107.946C1335.82 106.428 1337.61 104.459 1338.83 102.121C1342.35 95.366 1340.73 86.3188 1335.06 81.2329C1329.41 76.1239 1320.25 75.4312 1313.91 79.653C1313.76 76.5362 1313.41 73.3105 1311.9 70.5828C1305.75 59.6952 1281.29 73.3962 1276.98 81.1471C1272.48 89.2246 1273.77 100.155 1280.05 106.973Z" fill="white"/>
<path d="M1276.97 81.1381C1281.28 73.3905 1305.75 59.6961 1311.89 70.5968C1313.42 73.3146 1313.76 76.5304 1313.9 79.6506C1320.25 75.4486 1329.41 76.1313 1335.07 81.2271C1339.49 85.2147 1341.41 91.6101 1340.36 97.4414C1339.67 93.7408 1337.87 90.2446 1335.07 87.7214C1329.41 82.6223 1320.25 81.9396 1313.9 86.1448C1313.76 83.028 1313.42 79.8122 1311.89 77.0911C1305.75 66.1936 1281.28 79.8881 1276.97 87.6357C1275.7 89.9214 1274.9 92.4346 1274.54 95.0172C1273.87 90.2743 1274.63 85.3302 1276.97 81.1381Z" fill="white"/>
<path d="M1280.05 106.973C1280.12 107.059 1280.21 107.148 1280.29 107.234C1286.79 114.008 1297.8 115.957 1306.2 111.779C1307.93 110.911 1309.6 109.809 1311.53 109.506C1314.23 109.094 1316.88 110.35 1319.54 110.977C1324.41 112.102 1329.65 110.848 1333.67 107.946C1330.73 108.616 1327.61 108.553 1324.71 107.685C1319.34 106.106 1314.86 101.864 1312.98 96.623C1310.19 103.246 1304.06 108.378 1297.05 109.958C1291.29 111.238 1285.05 110.093 1280.05 106.973Z" fill="white"/>
<path d="M1929.6 183.256H1326.09C1326.2 182.335 1326.27 181.448 1326.41 180.528C1327.22 174.545 1328.71 168.846 1330.83 163.43C1343.12 131.674 1376.22 110.539 1413.32 111.776C1427.8 79.3472 1464.41 58.9903 1503.88 64.3368C1513.34 65.61 1522.19 68.3013 1530.29 72.0548C1552.99 24.1178 1607.79 -5.72486 1666.84 2.3097C1706.46 7.69247 1739.66 28.9696 1759.99 58.1394C1767.21 57.3973 1774.65 57.4666 1782.19 58.4923C1821.02 63.7662 1850.55 92.2665 1856.53 126.608C1862.3 125.863 1868.28 125.83 1874.34 126.644C1877.91 127.139 1881.35 127.884 1884.68 128.874C1910.27 136.49 1928.33 158.403 1929.6 183.256Z" fill="white"/>
<path d="M1416.86 133.025C1431.34 100.574 1467.95 80.2301 1507.44 85.5898C1516.86 86.8695 1525.72 89.5345 1533.85 93.2945C1556.53 45.3444 1611.33 15.5215 1670.39 23.5396C1709.99 28.9158 1743.2 50.1962 1763.54 79.3792C1770.74 78.6239 1778.17 78.6997 1785.72 79.7255C1824.56 84.9994 1854.08 113.496 1860.09 147.864C1865.84 147.122 1871.81 147.073 1877.89 147.897C1900.63 150.984 1918.95 164.939 1927.67 183.255H1929.61C1928.14 155.167 1905.3 130.858 1874.35 126.656C1868.28 125.832 1862.31 125.881 1856.55 126.623C1850.54 92.2556 1821.02 63.7586 1782.18 58.4847C1774.63 57.4589 1767.2 57.3831 1760 58.1384C1739.66 28.9553 1706.45 7.67825 1666.85 2.29878C1607.8 -5.7193 1552.99 24.1003 1530.31 72.0537C1522.18 68.2904 1513.32 65.6254 1503.9 64.3457C1464.41 58.9827 1427.8 79.3297 1413.32 111.781C1369.89 110.337 1331.97 139.546 1326.4 180.53C1326.28 181.441 1326.2 182.344 1326.11 183.251H1335.02C1347.77 152.327 1380.32 131.808 1416.86 133.025Z" fill="white"/>
<path d="M1983.53 183.589C1965.55 182.747 1947.54 182.424 1929.52 182.325C1927.84 157.859 1909.95 136.394 1884.68 128.877C1886.55 140.028 1882.02 152.173 1873.14 159.254C1863.22 167.077 1848.49 168.176 1837.55 161.873C1815.71 180.033 1780.24 178.691 1759.84 158.97C1729.93 183.328 1683.05 183.786 1652.68 159.96C1644.04 178.865 1618.73 187.962 1600.04 178.902C1587.75 172.919 1576.53 160.207 1563.32 163.571C1553.06 166.157 1547.36 177.592 1537.55 181.521C1536.47 181.953 1535.41 182.276 1534.34 182.517H1525.09C1512.11 179.904 1499.52 167.477 1485.93 162.687C1468.44 156.563 1449.5 163.608 1431.31 166.972C1413.11 170.336 1390.13 167.467 1382.59 150.547C1367.01 159.646 1348.85 163.964 1330.83 163.433C1328.71 168.849 1327.22 174.548 1326.41 180.531C1326.31 181.178 1326.25 181.811 1326.18 182.447C1318.94 182.622 1311.72 182.939 1304.53 183.539C1302.55 183.704 1302.59 186.88 1304.57 187.048C1326.53 188.889 1348.79 188.044 1370.81 188.061C1392.93 188.077 1415.06 188.061 1437.18 188.061H1909.85C1934.44 188.061 1959.01 188.134 1983.57 186.986C1985.49 186.897 1985.46 183.678 1983.53 183.589Z" fill="white"/>
<path d="M1379.16 82.2856C1379.05 82.4274 1378.91 82.5692 1378.77 82.7111C1368.15 93.7932 1350.13 96.9794 1336.39 90.1454C1333.56 88.7304 1330.84 86.9229 1327.68 86.4282C1323.26 85.7553 1318.94 87.8102 1314.59 88.8359C1306.62 90.6764 1298.05 88.6249 1291.47 83.8787C1287.96 81.4017 1285.02 78.1793 1283.04 74.3566C1277.27 63.3107 1279.92 48.5114 1289.2 40.1932C1298.44 31.8387 1313.42 30.7041 1323.79 37.6106C1324.04 32.5115 1324.61 27.2376 1327.08 22.775C1337.14 4.96772 1377.14 27.3761 1384.19 40.0513C1391.55 53.2543 1389.43 71.1342 1379.16 82.2856Z" fill="white"/>
<path d="M1384.2 40.0355C1377.15 27.3636 1337.13 4.96841 1327.09 22.7922C1324.59 27.2383 1324.03 32.499 1323.8 37.5981C1313.42 30.7245 1298.44 31.8394 1289.18 40.1774C1281.94 46.7013 1278.81 57.1601 1280.53 66.6954C1281.65 60.6398 1284.6 54.9272 1289.18 50.7978C1298.44 42.4598 1313.42 41.3416 1323.8 48.2185C1324.03 43.1194 1324.59 37.8587 1327.09 33.4126C1337.13 15.5888 1377.15 37.984 1384.2 50.6559C1386.29 54.3929 1387.58 58.5058 1388.18 62.7276C1389.27 54.9701 1388.02 46.886 1384.2 40.0355Z" fill="white"/>
<path d="M1379.16 82.2867C1379.06 82.4285 1378.91 82.5703 1378.77 82.7121C1368.15 93.7943 1350.13 96.9804 1336.4 90.1464C1333.56 88.7315 1330.84 86.924 1327.69 86.4293C1323.26 85.7564 1318.94 87.8112 1314.59 88.837C1306.62 90.6774 1298.05 88.6259 1291.47 83.8797C1296.29 84.978 1301.39 84.8692 1306.13 83.4542C1314.91 80.8684 1322.24 73.9322 1325.32 65.3633C1329.89 76.1981 1339.9 84.5856 1351.37 87.1714C1360.79 89.2625 1370.98 87.3858 1379.16 82.2867Z" fill="white"/>
<path d="M1884.05 107.973C1884.12 108.058 1884.21 108.147 1884.29 108.233C1890.79 115.008 1901.8 116.957 1910.2 112.778C1911.93 111.911 1913.6 110.809 1915.53 110.506C1918.23 110.093 1920.88 111.35 1923.54 111.977C1928.41 113.101 1933.65 111.848 1937.67 108.946C1939.82 107.428 1941.61 105.459 1942.83 103.121C1946.35 96.366 1944.73 87.3188 1939.06 82.2329C1933.41 77.1239 1924.25 76.4312 1917.91 80.653C1917.76 77.5362 1917.41 74.3105 1915.9 71.5828C1909.75 60.6952 1885.29 74.3962 1880.98 82.1471C1876.48 90.2246 1877.77 101.155 1884.05 107.973Z" fill="white"/>
<path d="M1880.97 82.1381C1885.28 74.3905 1909.75 60.6961 1915.89 71.5968C1917.42 74.3146 1917.76 77.5304 1917.9 80.6506C1924.25 76.4486 1933.41 77.1313 1939.07 82.2271C1943.49 86.2147 1945.41 92.6101 1944.36 98.4414C1943.67 94.7408 1941.87 91.2446 1939.07 88.7214C1933.41 83.6223 1924.25 82.9396 1917.9 87.1448C1917.76 84.028 1917.42 80.8122 1915.89 78.0911C1909.75 67.1936 1885.28 80.8881 1880.97 88.6357C1879.7 90.9214 1878.9 93.4346 1878.54 96.0172C1877.87 91.2743 1878.63 86.3302 1880.97 82.1381Z" fill="white"/>
<path d="M1884.05 107.973C1884.12 108.059 1884.21 108.148 1884.29 108.234C1890.79 115.008 1901.8 116.957 1910.2 112.779C1911.93 111.911 1913.6 110.809 1915.53 110.506C1918.23 110.094 1920.88 111.35 1923.54 111.977C1928.41 113.102 1933.65 111.848 1937.67 108.946C1934.73 109.616 1931.61 109.553 1928.71 108.685C1923.34 107.106 1918.86 102.864 1916.98 97.623C1914.19 104.246 1908.06 109.378 1901.05 110.958C1895.29 112.238 1889.05 111.093 1884.05 107.973Z" fill="white"/>
</svg>
