<svg width="219" height="40" viewBox="0 0 219 40" fill="none" xmlns="http://www.w3.org/2000/svg">
<g clip-path="url(#clip0_4718_203)">
<path d="M0.0500124 19.5204C0.0500124 14.9204 0.170012 10.3104 0.0200124 5.72037C-0.109988 1.76037 1.59001 -0.0296293 5.62001 0.000370683C15.11 0.0703707 24.6 0.0703707 34.1 0.000370683C38.13 -0.0296293 39.72 1.79037 39.66 5.73037C39.52 14.9304 39.51 24.1404 39.66 33.3304C39.73 37.4904 38.07 39.3804 33.81 39.3404C24.49 39.2504 15.16 39.2504 5.83001 39.3404C1.53001 39.3804 -0.149988 37.4304 1.2367e-05 33.3004C0.160012 28.7004 0.0400124 24.1004 0.0400124 19.5004L0.0500124 19.5204ZM27.28 15.9704C21.5 21.4304 16.61 26.0304 11.76 30.6704C10.97 31.4204 9.52001 32.0604 9.97001 33.3504C10.47 34.7904 12.01 34.8004 13.38 34.8004C19.7 34.8004 26.02 34.7104 32.33 34.8504C34.75 34.9004 35.45 34.0404 35.42 31.7204C35.3 23.6804 35.3 15.6404 35.42 7.60037C35.45 5.31037 34.82 4.40037 32.37 4.43037C24.06 4.54037 15.74 4.50037 7.43001 4.45037C5.55001 4.44037 4.29001 4.62037 4.35001 7.03037C4.49001 13.4304 4.41001 19.8304 4.39001 26.2204C4.39001 27.3004 4.69001 28.2804 5.61001 28.7504C6.68001 29.3004 7.47001 28.4104 8.14001 27.7104C13.02 22.5904 17.87 17.4504 22.86 12.1804C19.02 12.1804 14.78 12.1804 10.54 12.1804C8.92001 12.1804 7.57001 12.0304 7.66001 9.84037C7.74001 7.97037 8.85001 7.79037 10.3 7.79037C16.62 7.80037 22.94 7.84037 29.25 7.76037C31.1 7.74037 32.01 8.24037 31.98 10.2304C31.9 16.4604 31.91 22.7004 31.9 28.9304C31.9 30.4004 31.55 31.3804 29.7 31.4404C27.54 31.5204 27.26 30.4104 27.28 28.7004C27.34 24.9404 27.3 21.1704 27.3 15.9704H27.28Z" fill="#202121"/>
<path d="M145.53 21.4503C146.79 17.9403 147.48 15.3103 148.67 12.9103C149.58 11.0803 149.05 7.89031 152.52 8.03031C155.63 8.16031 155.17 11.0003 155.93 12.7803C157.01 15.3003 157.74 17.9703 158.77 21.0103C160.98 17.7503 161.69 14.3603 162.63 11.1403C163.39 8.54031 164.79 7.36031 167.23 8.08031C170.31 8.98031 168.08 10.9303 167.61 12.3103C165.99 17.1203 164.16 21.8603 162.51 26.6603C161.88 28.4903 161.25 29.8303 158.81 29.8003C156.44 29.7703 156.19 28.1603 155.64 26.7003C154.62 23.9803 153.71 21.2103 152.24 16.9703C150.85 20.7503 150.06 23.2403 149.03 25.6203C148.26 27.4003 148.45 29.8803 145.15 29.8203C141.88 29.7603 142.07 27.2303 141.37 25.4803C139.55 20.9203 137.9 16.2703 136.4 11.6003C136.07 10.5703 134.03 8.76031 136.66 8.17031C138.35 7.79031 140.68 7.10031 141.55 9.99031C142.62 13.5403 143.96 17.0103 145.51 21.4503H145.53Z" fill="#202121"/>
<path d="M200.7 29.1005C196.09 30.9205 193.8 29.1605 192.23 25.4305C191.52 23.7405 190.8 21.1905 188.25 21.8105C185.8 22.4105 187.09 24.8405 187.01 26.4205C186.91 28.4205 186.93 29.8205 184.17 29.8205C181.65 29.8205 181.1 28.9405 181.17 26.6505C181.33 21.5605 181.21 16.4705 181.22 11.3805C181.22 9.78047 180.83 7.90047 183.5 8.01047C187.15 8.16047 190.87 7.87047 194.43 8.50047C199.55 9.40047 201.82 15.7305 197.95 19.0305C195.24 21.3405 196.4 22.2805 197.75 24.1105C198.82 25.5505 199.59 27.2105 200.69 29.1105L200.7 29.1005ZM190.1 17.5105C191.86 17.3405 194.14 17.5805 194.19 15.0605C194.25 12.1305 191.73 12.6105 189.82 12.4105C187.81 12.2005 186.78 12.7805 186.84 15.0605C186.9 17.4505 188.21 17.7105 190.09 17.5005L190.1 17.5105Z" fill="#202121"/>
<path d="M115.2 18.7104C115.2 18.3804 115.16 18.0504 115.2 17.7304C115.64 14.5804 113.54 9.82035 116.21 8.58035C119.82 6.90035 124.66 7.43035 128.85 8.62035C133.21 9.85035 134.47 13.0104 132.04 16.8704C131.15 18.2804 131.27 18.6704 132.21 19.9704C135.45 24.4604 133.5 28.6304 127.99 29.5704C127.83 29.6004 127.66 29.6004 127.5 29.6204C115.35 31.2104 115.21 31.0804 115.21 18.7104H115.2ZM124.26 25.5004C125.68 25.1904 128.36 26.1104 128.25 23.0304C128.16 20.4804 125.86 20.8704 124.12 20.8104C122.34 20.7604 120.41 20.4004 120.48 23.2904C120.54 25.9504 122.37 25.3704 124.27 25.4904L124.26 25.5004ZM123.97 16.6204C125.59 16.5804 127.69 16.8504 127.63 14.5404C127.56 11.9004 125.16 12.5404 123.49 12.4404C122.01 12.3404 120.49 12.2604 120.51 14.5304C120.53 17.2204 122.48 16.4904 123.98 16.6304L123.97 16.6204Z" fill="#202121"/>
<path d="M107.72 20.8899C109.3 23.5599 110.87 26.2099 112.64 29.2199C108.71 30.3299 105.93 30.0199 104.48 26.1099C104.09 25.0499 103.51 24.0199 102.88 23.0799C102.2 22.0699 101.21 21.4299 99.9101 21.8199C98.6301 22.1999 98.9201 23.3499 98.8601 24.2699C98.8001 25.2499 98.7601 26.2499 98.8601 27.2199C99.0901 29.6599 97.5501 29.6999 95.7201 29.7799C93.6801 29.8599 93.2001 28.9999 93.2301 27.1699C93.3201 21.7499 93.2501 16.3399 93.2701 10.9199C93.2701 9.64989 93.0101 8.03989 95.0201 8.06989C99.1601 8.13989 103.35 7.45989 107.42 8.70989C109.68 9.39989 111.05 10.8999 111.41 13.2499C111.93 16.7099 110.83 19.3799 107.72 20.8999V20.8899ZM100.78 17.5899C103.69 17.3999 106.12 17.5699 106.12 14.8599C106.12 12.4699 103.9 12.4899 102.08 12.4199C100.2 12.3399 98.4601 12.2199 98.5501 15.0299C98.6201 17.3799 99.8701 17.6999 100.79 17.5999L100.78 17.5899Z" fill="#202121"/>
<path d="M74.52 18.7401C74.52 11.5468 78.1266 7.96677 85.34 8.00011C86.17 8.00011 87 8.03011 87.83 8.00011C89.42 7.95011 90.29 8.51011 90.3 10.2501C90.3 11.9201 89.61 12.6301 87.94 12.5901C86.28 12.5501 84.62 12.5801 82.96 12.5901C81.64 12.5901 80.29 12.4101 80.28 14.4601C80.27 16.3101 81.22 16.6801 82.77 16.5801C83.43 16.5401 84.16 16.4001 84.75 16.6101C86.4 17.2001 89.68 14.8601 89.48 18.8201C89.29 22.5001 86.2 20.1701 84.51 20.8001C84.07 20.9601 83.52 20.8601 83.03 20.8201C81.27 20.6801 80.25 21.1501 80.27 23.2201C80.29 25.4901 81.72 25.3901 83.26 25.3701C84.59 25.3501 85.92 25.3501 87.24 25.3701C88.7 25.4001 90.25 25.0901 90.32 27.4301C90.39 29.6501 89.12 29.7501 87.49 29.7301C84.17 29.7001 80.85 29.6001 77.53 29.7601C75.06 29.8801 74.35 28.8701 74.49 26.5901C74.65 23.9801 74.53 21.3501 74.53 18.7301L74.52 18.7401Z" fill="#202121"/>
<path d="M203.21 18.2903C203.7 15.4003 201.47 10.1503 204.14 8.7403C207.51 6.9503 212.5 8.1203 216.79 8.0203C218.21 7.9903 218.91 8.6603 218.96 10.0803C219.01 11.6303 218.53 12.6303 216.75 12.5903C215.75 12.5703 214.76 12.5903 213.76 12.5903C212.76 12.5903 211.77 12.6203 210.77 12.5903C209.57 12.5703 208.95 13.0903 208.94 14.3203C208.94 15.5903 209.16 16.5903 210.79 16.5703C212.45 16.5403 214.11 16.6103 215.77 16.5703C217.27 16.5303 218.27 16.7703 218.3 18.6603C218.32 20.5003 217.43 20.8803 215.87 20.8303C214.38 20.7803 212.88 20.8803 211.39 20.8203C209.77 20.7503 208.93 21.3303 208.92 23.0503C208.91 24.7003 209.58 25.4403 211.28 25.3803C213.1 25.3103 214.93 25.3803 216.76 25.3803C218.1 25.3803 218.94 25.7403 218.99 27.3103C219.04 28.9403 218.5 29.7603 216.76 29.7403C212.94 29.7003 209.12 29.6803 205.3 29.7503C203.4 29.7903 203.17 28.7503 203.2 27.2603C203.26 24.4803 203.22 21.6903 203.22 18.2903H203.21Z" fill="#202121"/>
<path d="M48.77 8.00002C59.42 7.70002 56.3 17.74 61.36 21.22C63.17 19.05 63.99 15.74 65.44 12.77C66.01 11.6 66.45 10.36 67.11 9.23002C68.32 7.18002 70.55 7.68002 71.98 8.25002C73.67 8.93002 72.19 10.46 71.71 11.52C69.37 16.73 66.89 21.88 64.6 27.11C63.87 28.77 63.12 29.73 61.05 29.8C58.86 29.88 58.2 28.62 57.51 27.11C54.73 21.05 51.96 14.98 48.76 7.99002L48.77 8.00002Z" fill="#202121"/>
<path d="M177.33 18.6899C177.33 21.3099 177.22 23.9399 177.36 26.5599C177.48 28.7299 177.02 29.8099 174.43 29.7699C171.88 29.7299 171.39 28.6799 171.44 26.4899C171.55 21.4099 171.54 16.3199 171.44 11.2399C171.4 9.05991 171.92 7.95991 174.46 7.92991C177.13 7.90991 177.44 9.21991 177.35 11.2999C177.25 13.7599 177.33 16.2199 177.33 18.6799V18.6899Z" fill="#202121"/>
</g>
<defs>
<clipPath id="clip0_4718_203">
<rect width="218.98" height="39.35" fill="white"/>
</clipPath>
</defs>
</svg>
