<svg width="47" height="20" viewBox="0 0 47 20" fill="none" xmlns="http://www.w3.org/2000/svg">
<path fill-rule="evenodd" clip-rule="evenodd" d="M40.7605 2.18007C26.2824 -1.33922 13.6023 -0.00281776 5.75562 2.03189C2.16991 2.96169 0 6.35781 0 10.0621C0 15.261 4.21456 19.4756 9.41348 19.4756H11.2002C14.0483 19.4756 16.4142 17.9306 18.8184 16.3607C19.9413 15.6275 21.0724 14.8889 22.265 14.2996C22.7421 14.0638 23.1994 13.9564 23.635 13.9541C25.9645 13.942 27.9729 15.3275 29.9818 16.7135C31.9832 18.0944 33.9852 19.4756 36.3061 19.4756H37.9923C42.9671 19.4756 47 15.4427 47 10.4679C47 6.59069 44.528 3.09586 40.7605 2.18007ZM16.5 10.4756C16.5 13.5132 14.0376 15.9756 11 15.9756C7.96243 15.9756 5.5 13.5132 5.5 10.4756C5.5 7.43802 7.96243 4.97559 11 4.97559C14.0376 4.97559 16.5 7.43802 16.5 10.4756ZM36.5 15.9756C39.5376 15.9756 42 13.5132 42 10.4756C42 7.43802 39.5376 4.97559 36.5 4.97559C33.4624 4.97559 31 7.43802 31 10.4756C31 13.5132 33.4624 15.9756 36.5 15.9756Z" fill="white"/>
</svg>
