<?xml version="1.0" encoding="UTF-8"?>
<svg version="1.1" xmlns="http://www.w3.org/2000/svg" width="180" height="44">
<path d="M0 0 C1.5675 -0.04125 3.135 -0.0825 4.75 -0.125 C5.63171875 -0.14820313 6.5134375 -0.17140625 7.421875 -0.1953125 C10.1135858 0.00860498 11.69904974 0.63448279 14 2 C14 5.66666667 14 9.33333333 14 13 C14.33 13.66 14.66 14.32 15 15 C16.98 10.05 18.96 5.1 21 0 C23.31 0 25.62 0 28 0 C29.98 4.95 31.96 9.9 34 15 C34.474375 12.710625 34.94875 10.42125 35.4375 8.0625 C36.875 1.125 36.875 1.125 38 0 C39.66617115 -0.04063832 41.33388095 -0.042721 43 0 C43.99 2.31 44.98 4.62 46 7 C46.99 4.69 47.98 2.38 49 0 C51.31 0 53.62 0 56 0 C56.33910994 2.04071515 56.67102704 4.08262621 57 6.125 C57.185625 7.26195312 57.37125 8.39890625 57.5625 9.5703125 C57.96956049 12.76137602 58.07809902 15.78817791 58 19 C56.35 19 54.7 19 53 19 C52.34 16.69 51.68 14.38 51 12 C50.34 14.31 49.68 16.62 49 19 C47.35 19 45.7 19 44 19 C43.01 16.36 42.02 13.72 41 11 C40.34 13.64 39.68 16.28 39 19 C35.37 19 31.74 19 28 19 C27.67 18.01 27.34 17.02 27 16 C24.03 15.505 24.03 15.505 21 15 C20.67 16.32 20.34 17.64 20 19 C16.7 19 13.4 19 10 19 C9.319375 17.5459375 9.319375 17.5459375 8.625 16.0625 C7.34213779 12.92920418 7.34213779 12.92920418 5 12 C5 14.31 5 16.62 5 19 C3.35 19 1.7 19 0 19 C0 12.73 0 6.46 0 0 Z M5 5 C5 5.66 5 6.32 5 7 C6.32 7 7.64 7 9 7 C9 6.34 9 5.68 9 5 C7.68 5 6.36 5 5 5 Z M24 7 C23.67 8.32 23.34 9.64 23 11 C23.99 10.67 24.98 10.34 26 10 C25.34 9.01 24.68 8.02 24 7 Z " fill="#201D1E" transform="translate(116,13)"/>
<path d="M0 0 C0.66 0 1.32 0 2 0 C3.625 2.5 3.625 2.5 5 5 C7.64 4.34 10.28 3.68 13 3 C13 5.64 13 8.28 13 11 C15.31 11.66 17.62 12.32 20 13 C18.68 15.31 17.36 17.62 16 20 C17.98 22.97 17.98 22.97 20 26 C17.69 26.99 15.38 27.98 13 29 C13 31.31 13 33.62 13 36 C10.36 35.34 7.72 34.68 5 34 C4.01 35.65 3.02 37.3 2 39 C0.515 38.505 0.515 38.505 -1 38 C-2.1875 35.4375 -2.1875 35.4375 -3 33 C-5.64 33.99 -8.28 34.98 -11 36 C-11 33.03 -11 30.06 -11 27 C-13.31 26.67 -15.62 26.34 -18 26 C-16.79618552 23.50638429 -15.54571278 21.31856917 -14 19 C-14.66 18.38125 -15.32 17.7625 -16 17.125 C-18 15 -18 15 -18 13 C-16.02 12.34 -14.04 11.68 -12 11 C-11.67 8.36 -11.34 5.72 -11 3 C-8.36 3.99 -5.72 4.98 -3 6 C-2.690625 5.195625 -2.38125 4.39125 -2.0625 3.5625 C-1 1 -1 1 0 0 Z M0 5 C-0.33 6.32 -0.66 7.64 -1 9 C-0.01 9.33 0.98 9.66 2 10 C2.33 9.01 2.66 8.02 3 7 C2.67 6.34 2.34 5.68 2 5 C1.34 5 0.68 5 0 5 Z M-8 10 C-7 12 -7 12 -7 12 Z M-4 13 C-4 14.32 -4 15.64 -4 17 C-2.68 17.33 -1.36 17.66 0 18 C-0.33 16.35 -0.66 14.7 -1 13 C-1.99 13 -2.98 13 -4 13 Z M5 12 C4.01 12.66 3.02 13.32 2 14 C2 14.99 2 15.98 2 17 C3.32 16.67 4.64 16.34 6 16 C5.67 14.68 5.34 13.36 5 12 Z M-13 14 C-12.34 15.32 -11.68 16.64 -11 18 C-10.01 17.34 -9.02 16.68 -8 16 C-8.33 15.34 -8.66 14.68 -9 14 C-10.32 14 -11.64 14 -13 14 Z M11 14 C10.01 15.485 10.01 15.485 9 17 C10.32 17.33 11.64 17.66 13 18 C13.66 17.01 14.32 16.02 15 15 C13.68 14.67 12.36 14.34 11 14 Z M-5 19 C-5.99 20.485 -5.99 20.485 -7 22 C-5.68 22.33 -4.36 22.66 -3 23 C-3 21.68 -3 20.36 -3 19 C-3.66 19 -4.32 19 -5 19 Z M5 19 C4.34 19.66 3.68 20.32 3 21 C3.66 21.66 4.32 22.32 5 23 C7.10820797 22.6814823 7.10820797 22.6814823 9 22 C8.34 21.01 7.68 20.02 7 19 C6.34 19 5.68 19 5 19 Z M0 22 C-0.6814823 23.89179203 -0.6814823 23.89179203 -1 26 C-0.34 26.66 0.32 27.32 1 28 C1.66 26.68 2.32 25.36 3 24 C2.01 23.34 1.02 22.68 0 22 Z M-7 27 C-7.33 28.65 -7.66 30.3 -8 32 C-6.68 31.34 -5.36 30.68 -4 30 C-4 29.01 -4 28.02 -4 27 C-4.99 27 -5.98 27 -7 27 Z M6 27 C6.26676204 28.98491642 6.26676204 28.98491642 7 31 C7.99 31.33 8.98 31.66 10 32 C9.67 30.35 9.34 28.7 9 27 C8.01 27 7.02 27 6 27 Z M2 30 C3 32 3 32 3 32 Z " fill="#D60E00" transform="translate(21,3)"/>
<path d="M0 0 C1.65 0 3.3 0 5 0 C5.66 2.31 6.32 4.62 7 7 C7.66 4.69 8.32 2.38 9 0 C10.65 0 12.3 0 14 0 C14.99 2.64 15.98 5.28 17 8 C17.66 5.36 18.32 2.72 19 0 C20.65 0 22.3 0 24 0 C23.48446121 6.49850211 22.53332291 12.66226532 21 19 C19.02 19 17.04 19 15 19 C13.74335022 16.09399739 13 14.20395416 13 11 C12.34 11 11.68 11 11 11 C10.855625 12.134375 10.71125 13.26875 10.5625 14.4375 C10 18 10 18 9 19 C7.00041636 19.04080783 4.99954746 19.04254356 3 19 C2.49356447 16.77228658 1.9951038 14.54275924 1.5 12.3125 C1.2215625 11.07113281 0.943125 9.82976563 0.65625 8.55078125 C0.10645874 5.57601782 -0.13795705 3.00631398 0 0 Z " fill="#201C1D" transform="translate(45,13)"/>
<path d="M0 0 C2.9375 1.9375 2.9375 1.9375 5 5 C5.76233661 9.08031593 5.51835003 12.61773326 4.0625 16.5 C0.76577743 18.89761641 -2.97809534 19.20911116 -7 19 C-9.42831746 18.02437511 -10.6881537 17.4209925 -12.25 15.3125 C-13.66832965 10.93931692 -13.5961713 7.30589904 -11.6875 3.125 C-8.60793552 -0.75297008 -4.64867775 -0.4808977 0 0 Z M-6 5 C-7.41577477 6.18424326 -7.41577477 6.18424326 -7.0625 9.5625 C-7.041875 10.696875 -7.02125 11.83125 -7 13 C-5.34385343 13.38218767 -3.67542976 13.71395102 -2 14 C-0.58422523 12.81575674 -0.58422523 12.81575674 -0.9375 9.4375 C-0.958125 8.303125 -0.97875 7.16875 -1 6 C-2.65614657 5.61781233 -4.32457024 5.28604898 -6 5 Z " fill="#201C1D" transform="translate(82,13)"/>
<path d="M0 0 C3.96 0 7.92 0 12 0 C12 1.65 12 3.3 12 5 C10.02 5 8.04 5 6 5 C6 5.66 6 6.32 6 7 C7.98 7 9.96 7 12 7 C12 8.65 12 10.3 12 12 C10.02 12 8.04 12 6 12 C6 14.31 6 16.62 6 19 C4.02 19 2.04 19 0 19 C0 12.73 0 6.46 0 0 Z " fill="#201D1D" transform="translate(102,13)"/>
<path d="M0 0 C1.65 0 3.3 0 5 0 C5 4.62 5 9.24 5 14 C7.31 14 9.62 14 12 14 C12 15.65 12 17.3 12 19 C8.04 19 4.08 19 0 19 C0 12.73 0 6.46 0 0 Z " fill="#211D1E" transform="translate(89,13)"/>
</svg>
